<svg height="511pt" viewBox="-15 0 511 511.99977" width="511pt" xmlns="http://www.w3.org/2000/svg"><path d="m90.511719 310.320312c8.859375-5.167968 19.023437-8.34375 30-8.34375h30.003906c33.097656 0 60.007813 26.910157 60.007813 60.007813v30c0 10.980469-3.175782 21.144531-8.34375 30.003906h124.601562c9.261719-9.261719 17.519531-19.355469 24.921875-30.003906h65.824219c21.390625 0 39.949218-15.21875 44.125-36.167969l18.003906-90.011718c5.597656-27.855469-15.75-53.839844-44.125-53.839844h-44.988281v-15c0-8.292969-6.710938-15.003906-15-15.003906h-300.035157c-8.292968 0-15.003906 6.710937-15.003906 15.003906v71.84375c0 11.292968 1.125 22.429687 2.84375 33.457031 9.890625.46875 19.085938 3.347656 27.164063 8.054687zm300.03125-41.511718v-26.839844h44.988281c9.46875 0 16.558594 8.652344 14.710938 17.945312l-18.003907 90.027344c-1.394531 6.972656-7.574219 12.042969-14.710937 12.042969h-48.464844c13.769531-28.660156 21.480469-60.289063 21.480469-93.175781zm0 0"/><path d="m15.5 481.996094h15.003906c0 16.570312 13.433594 30.003906 30.003906 30.003906h330.035157c16.570312 0 30.003906-13.433594 30.003906-30.003906h15.003906c8.289063 0 15-6.710938 15-15 0-8.292969-6.710937-15.003906-15-15.003906-107.742187 0-317.644531 0-420.050781 0-8.289062 0-15 6.710937-15 15.003906 0 8.289062 6.710938 15 15 15zm0 0"/><path d="m142.941406 149.507812c7.019532 4.65625 16.285156 2.632813 20.804688-4.160156 4.601562-6.898437 2.738281-16.203125-4.160156-20.804687-5.960938-3.96875-9.375-11.355469-9.375-18.519531 0-7.164063 3.414062-13.550782 9.375-17.523438 14.238281-9.492188 22.738281-25.375 22.738281-42.484375s-8.5-33.992187-22.738281-43.484375c-6.945313-4.613281-16.21875-2.738281-20.804688 4.160156-4.597656 6.898438-2.722656 16.21875 4.160156 20.804688 5.964844 3.96875 9.378906 11.355468 9.378906 18.519531 0 7.167969-3.414062 13.554687-9.378906 17.523437-14.238281 9.492188-22.734375 25.375-22.734375 42.484376 0 17.109374 8.496094 33.992187 22.734375 43.484374zm0 0"/><path d="m217.953125 149.507812c7.015625 4.65625 16.28125 2.632813 20.800781-4.160156 4.601563-6.898437 2.742188-16.203125-4.160156-20.804687-5.960938-3.96875-9.375-11.355469-9.375-18.519531 0-7.164063 3.414062-13.550782 9.375-17.523438 14.242188-9.492188 22.738281-25.375 22.738281-42.484375s-8.496093-33.992187-22.738281-43.484375c-6.941406-4.613281-16.21875-2.738281-20.800781 4.160156-4.601563 6.898438-2.726563 16.21875 4.160156 20.804688 5.960937 3.96875 9.375 11.355468 9.375 18.519531 0 7.167969-3.414063 13.554687-9.375 17.523437-14.242187 9.492188-22.738281 25.375-22.738281 42.484376 0 17.109374 8.496094 33.992187 22.738281 43.484374zm0 0"/><path d="m292.960938 149.507812c7.019531 4.65625 16.28125 2.632813 20.800781-4.160156 4.601562-6.898437 2.742187-16.203125-4.160157-20.804687-5.960937-3.96875-9.375-11.355469-9.375-18.519531 0-7.164063 3.414063-13.550782 9.375-17.523438 14.242188-9.492188 22.738282-25.375 22.738282-42.484375s-8.496094-33.992187-22.738282-43.484375c-6.941406-4.613281-16.214843-2.738281-20.800781 4.160156-4.601562 6.898438-2.726562 16.21875 4.160157 20.804688 5.960937 3.96875 9.375 11.355468 9.375 18.519531 0 7.167969-3.414063 13.554687-9.375 17.523437-14.242188 9.492188-22.738282 25.375-22.738282 42.484376 0 17.109374 8.496094 33.992187 22.738282 43.484374zm0 0"/><path d="m30.503906 421.988281h30.003906c16.570313 0 30.003907-13.429687 30.003907-30.003906v-30c0-16.574219-13.433594-30.003906-30.003907-30.003906h-30.003906c-16.570312 0-30.003906 13.429687-30.003906 30.003906v30c0 16.574219 13.433594 30.003906 30.003906 30.003906zm0 0"/><path d="m112.996094 420.472656c2.460937.652344 4.847656 1.515625 7.515625 1.515625h30.003906c16.570313 0 30.003906-13.429687 30.003906-30.003906v-30c0-16.574219-13.433593-30.003906-30.003906-30.003906h-30.003906c-2.667969 0-5.054688.863281-7.515625 1.515625 4.640625 8.515625 7.515625 18.125 7.515625 28.488281v30c0 10.363281-2.875 19.972656-7.515625 28.488281zm0 0"/></svg>