<svg height="512pt" viewBox="-16 0 512 512" width="512pt" xmlns="http://www.w3.org/2000/svg"><path d="m180 332h150v30h-150zm0 0"/><path d="m30 482v15c0 8.285156 6.714844 15 15 15h420c8.285156 0 15-6.714844 15-15v-15c0-16.570312-13.429688-30-30-30h-390c-16.570312 0-30 13.429688-30 30zm0 0"/><path d="m450 227v-15c0-16.570312-13.429688-30-30-30h-330c-16.570312 0-30 13.429688-30 30v15c0 8.285156 6.714844 15 15 15h360c8.285156 0 15-6.714844 15-15zm0 0"/><path d="m16.601562 51.710938c2.542969 5.078124 7.738282 8.289062 13.417969 8.289062 3.15625 0 221.8125 0 209.980469 0v31h-56.453125c-17.15625 0-32.578125 9.535156-40.253906 24.871094l-17.566407 36.128906h258.546876l-17.5625-36.128906c-7.675782-15.335938-23.101563-24.871094-40.253907-24.871094h-56.457031v-46c0-8.289062-6.707031-15-15-15h-140.746094l4.144532-8.289062c4.984374-9.976563-2.265626-21.710938-13.417969-21.710938h-89.960938c-11.148437 0-18.402343 11.734375-13.417969 21.710938zm0 0"/><path d="m83.332031 272-16.664062 150h376.664062l-16.664062-150zm276.667969 105c0 8.289062-6.707031 15-15 15h-180c-8.289062 0-15-6.710938-15-15v-60c0-8.289062 6.710938-15 15-15h180c8.292969 0 15 6.710938 15 15zm0 0"/></svg>