<svg height="511pt" viewBox="-46 0 511 511.9998" width="511pt" xmlns="http://www.w3.org/2000/svg"><path d="m126.503906 399.488281c8.042969 13.886719 22.984375 22.515625 38.996094 22.515625 16.007812 0 30.949219-8.628906 38.992188-22.515625 2.679687-4.628906 7.617187-7.484375 12.976562-7.484375h96.035156l3.800782-30h-99.835938c-5.359375 0-10.296875-2.855468-12.976562-7.484375-8.042969-13.886719-22.984376-22.515625-38.996094-22.515625-16.007813 0-30.949219 8.628906-38.992188 22.515625-2.679687 4.628907-7.617187 7.484375-12.976562 7.484375h-99.835938l3.804688 30h96.03125c5.359375 0 10.296875 2.855469 12.976562 7.484375zm0 0"/><path d="m354.488281 33.015625c-6.605469-4.964844-16.011719-3.648437-20.992187 3.003906l-63.003906 84.003907c0-.003907.003906-.007813.003906-.015626 0-16.566406-13.429688-29.996093-30-29.996093h-15c8.285156 0 15-6.71875 15-15v-60c0-6.0625-3.644532-11.542969-9.257813-13.855469-5.609375-2.34375-12.054687-1.054688-16.347656 3.25-16.273437 16.273438-38.800781 25.605469-61.8125 25.605469h-32.578125c-16.570312 0-30 13.429687-30 30 0 16.566406 13.429688 30 30 30h-30c-16.566406 0-30 13.429687-30 29.996093 0 16.570313 13.433594 30 30 30h-30c-16.566406 0-29.996094 13.433594-29.996094 30 0 16.566407 13.429688 31 29.996094 31h209.996094c16.570312 0 30-14.433593 30-31 0-11.980468-7.140625-22.140624-17.292969-26.949218l74.289063-99.054688c4.976562-6.621094 3.632812-16.023437-3.003907-20.988281zm0 0"/><path d="m72.351562 512h186.292969c22.96875 0 42.1875-17.210938 44.722657-40.03125l2.53125-19.96875h48.167968c22.25 0 41.394532-16.609375 44.542969-38.625l21.433594-120.996094c1.84375-12.9375-2.007813-26-10.5625-35.859375-8.554688-9.859375-20.933594-15.511719-33.984375-15.511719h-359.992188c-4.265625 0-8.335937 1.816407-11.179687 4.992188-2.839844 3.179688-4.203125 7.429688-3.734375 11.660156l9.296875 74.34375h95.613281c14.0625-18.691406 36.328125-30 60-30s45.933594 11.308594 59.996094 30h95.613281l7.605469-60.996094h46.78125c4.40625 0 8.421875 1.828126 11.320312 5.167969 2.886719 3.339844 4.148438 7.589844 3.515625 11.953125l-21.429687 120.996094c-1.039063 7.339844-7.425782 12.878906-14.835938 12.878906h-128.570312c-14.0625 18.6875-36.324219 29.996094-59.996094 29.996094s-45.9375-11.308594-60-29.996094h-84.203125l6.335937 49.964844c2.53125 22.820312 21.75 40.03125 44.71875 40.03125zm0 0"/></svg>