<svg height="511pt" viewBox="0 0 511.99946 511" width="511pt" xmlns="http://www.w3.org/2000/svg"><path d="m213.992188 362.148438c17.542968-17.546876 17.542968-46.09375 0-63.640626-17.546876-17.546874-46.09375-17.546874-63.640626 0l-137.886718 137.886719 63.640625 63.636719zm0 0"/><path d="m235.203125 277.296875c29.242187 29.238281 29.242187 76.824219 0 106.0625l-129.136719 129.140625 152.679688-71.25c42.292968-19.730469 71.179687-57.402344 79.28125-103.351562 8.101562-45.96875-6.183594-91.242188-39.183594-124.242188s-78.277344-47.285156-124.242188-39.1875c-45.949218 8.101562-83.621093 36.992188-103.355468 79.28125l-71.246094 152.683594 129.140625-129.136719c29.238281-29.242187 76.824219-29.242187 106.0625 0zm0 0"/><path d="m491 21.492188c-30.863281-30.863282-76.839844-26.246094-101.875 4.367187l-114.101562 134.304687c16.304687 8.15625 31.566406 18.808594 45.03125 32.277344 13.46875 13.46875 24.125 28.726563 32.28125 45.035156l134.300781-114.105468c30.46875-24.917969 35.367187-70.875 4.363281-101.878906zm0 0"/></svg>