<svg height="511pt" viewBox="0 -15 511.99994 511" width="511pt" xmlns="http://www.w3.org/2000/svg"><path d="m1.769531 8.425781c-2.605469 4.878907-2.3125 10.796875.746094 15.394531l57.890625 86.835938 6.351562 69.84375h313.480469l10.71875-150h46.039063c8.277344 0 15 6.722656 15 15v150c0 8.289062 6.710937 15 15 15 8.292968 0 15-6.710938 15-15v-150c0-24.8125-20.183594-45-45-45h-422c-5.535156 0-10.617188 3.046875-13.226563 7.925781zm193.226563 112.074219h62c8.292968 0 15 6.707031 15 15 0 8.289062-6.707032 15-15 15h-62c-8.289063 0-15-6.710938-15-15 0-8.292969 6.710937-15 15-15zm0 0"/><path d="m329.132812 450.5c-.1875-.914062-.539062-1.753906-.695312-2.679688l-25.621094-123.78125c-2.402344-14.179687 1.261719-27.492187 9.859375-37.632812 8.511719-10.089844 21.035157-15.90625 34.320313-15.90625h26.8125l4.289062-60h-308.613281l18.09375 199.070312c2.125 23.335938 21.390625 40.929688 44.8125 40.929688zm-134.136718-210h62c8.292968 0 15 6.707031 15 15 0 8.289062-6.707032 15-15 15h-62c-8.289063 0-15-6.710938-15-15 0-8.292969 6.710937-15 15-15zm0 90h62c8.292968 0 15 6.707031 15 15 0 8.289062-6.707032 15-15 15h-62c-8.289063 0-15-6.710938-15-15 0-8.292969 6.710937-15 15-15zm0 0"/><path d="m511.792969 317.960938c.730469-4.351563-.5-8.789063-3.355469-12.15625-2.839844-3.371094-7.03125-5.304688-11.4375-5.304688h-150c-4.410156 0-8.601562 1.933594-11.441406 5.304688-2.855469 3.367187-4.085938 7.804687-3.355469 12.15625l8.792969 42.539062h162.003906zm0 0"/><path d="m485.96875 442.898438 10.828125-52.398438h-149.601563l10.832032 52.398438c3.617187 21.78125 22.28125 37.601562 44.386718 37.601562h39.167969c22.105469 0 40.765625-15.820312 44.386719-37.601562zm0 0"/></svg>