<svg height="512pt" viewBox="0 0 512 512" width="512pt" xmlns="http://www.w3.org/2000/svg"><path d="m38.21875 361.210938c7.675781-3.121094 11.367188-11.867188 8.261719-19.542969-10.945313-26.953125-16.480469-55.445313-16.480469-84.667969s5.535156-57.714844 16.480469-84.667969c3.105469-7.675781-.585938-16.421875-8.261719-19.542969-7.632812-3.074218-16.40625.574219-19.542969 8.265626-12.390625 30.554687-18.675781 62.824218-18.675781 95.945312s6.285156 65.390625 18.675781 95.945312c3.140625 7.71875 11.910157 11.351563 19.542969 8.265626zm0 0"/><path d="m473.78125 152.789062c-7.675781 3.121094-11.367188 11.867188-8.261719 19.542969 10.945313 26.953125 16.480469 55.445313 16.480469 84.667969s-5.535156 57.714844-16.480469 84.667969c-3.105469 7.675781.585938 16.421875 8.261719 19.542969 7.632812 3.085937 16.402344-.546876 19.542969-8.265626 12.390625-30.554687 18.675781-62.824218 18.675781-95.945312s-6.285156-65.390625-18.675781-95.945312c-3.121094-7.691407-11.9375-11.324219-19.542969-8.265626zm0 0"/><path d="m93.867188 175.335938c-7.691407-3.105469-16.4375.570312-19.527344 8.273437-9.460938 23.351563-14.25 48.035156-14.25 73.390625s4.789062 50.039062 14.25 73.390625c3.09375 7.664063 11.839844 11.386719 19.527344 8.273437 7.691406-3.105468 11.382812-11.851562 8.277343-19.523437-8-19.761719-12.054687-40.664063-12.054687-62.140625s4.054687-42.378906 12.054687-62.140625c3.105469-7.671875-.585937-16.417969-8.277343-19.523437zm0 0"/><path d="m418.132812 338.664062c7.683594 3.113282 16.433594-.605468 19.527344-8.273437 9.460938-23.351563 14.25-48.035156 14.25-73.390625s-4.789062-50.039062-14.25-73.390625c-3.105468-7.703125-11.894531-11.378906-19.527344-8.273437-7.691406 3.105468-11.382812 11.851562-8.277343 19.523437 8 19.761719 12.058593 40.664063 12.058593 62.140625s-4.058593 42.378906-12.058593 62.140625c-3.105469 7.671875.585937 16.417969 8.277343 19.523437zm0 0"/><path d="m309 60c5.136719 0 10.058594.800781 15 1.515625v-16.515625c0-24.8125-20.1875-45-45-45h-46c-24.8125 0-45 20.1875-45 45v16.515625c4.941406-.714844 9.863281-1.515625 15-1.515625zm0 0"/><path d="m368.898438 365.632812 13.46875-123.632812h-252.8125l25.28125 230.582031c2.796874 22.46875 22.003906 39.417969 44.648437 39.417969h113.03125c22.644531 0 41.851563-16.949219 44.675781-39.640625l11.707032-106.710937s0 0 0-.015626zm0 0"/><path d="m384 167c0-41.351562-33.648438-77-75-77h-106c-41.351562 0-75 35.648438-75 77l.0625 45h255.9375zm0 0"/></svg>