<svg height="512pt" viewBox="0 0 512 512" width="512pt" xmlns="http://www.w3.org/2000/svg"><path d="m512 135c0-8.289062-6.710938-15-15-15s-15 6.710938-15 15c0 24.8125-20.1875 45-45 45h-4.011719l13.019531-22.542969c17.144532-29.8125-4.355468-67.457031-39.007812-67.457031-34.53125 0-56.222656 37.507812-38.992188 67.484375l21.667969 37.515625-21.683593 37.542969c-17.144532 29.8125 4.355468 67.457031 39.007812 67.457031 34.53125 0 56.222656-37.507812 38.992188-67.484375l-13.007813-22.515625h4.015625c24.8125 0 45 20.1875 45 45 0 8.289062 6.710938 15 15 15s15-6.710938 15-15c0-24.621094-12.085938-46.316406-30.464844-60 18.378906-13.683594 30.464844-35.378906 30.464844-60zm-105-15c11.660156 0 18.675781 12.679688 13.007812 22.484375l-13.007812 22.53125-12.992188-22.5c-5.730468-9.933594 1.410157-22.515625 12.992188-22.515625zm0 150c-11.660156 0-18.675781-12.679688-13.007812-22.484375l13.007812-22.53125 12.992188 22.5c5.730468 9.933594-1.410157 22.515625-12.992188 22.515625zm0 0"/><path d="m58.339844 512h95.316406c31.671875 0 58.34375-25.671875 58.34375-57.34375 0-28.664062-19.910156-55.320312-47.953125-61.273438-15.832031-3.355468-30.734375-.097656-43.046875 7.105469v21.511719c0 3.429688.570312 6.796875 1.714844 10.003906 3.433594 9.738282-3.800782 19.996094-14.152344 19.996094-.921875 0-1.667969-.640625-2.5625-.804688-.894531.164063-1.636719.804688-2.5625.804688-10.367188 0-17.578125-10.273438-14.148438-19.996094 1.140626-3.207031 1.710938-6.574218 1.710938-10.003906 0-1.183594 0-21.511719 0-21.511719-12.3125-7.203125-27.214844-10.460937-43.046875-7.105469-28.042969 5.949219-47.953125 32.609376-47.953125 61.273438 0 31.671875 26.671875 57.34375 58.339844 57.34375zm0 0"/><path d="m349.5625 452c-.925781 0-1.667969-.640625-2.5625-.804688-.894531.164063-1.640625.804688-2.5625.804688-10.367188 0-17.582031-10.273438-14.152344-19.996094 1.144532-3.207031 1.714844-6.574218 1.714844-10.003906 0-1.183594 0-21.511719 0-21.511719-12.3125-7.203125-27.214844-10.460937-43.046875-7.105469-28.042969 5.949219-46.953125 32.609376-46.953125 61.273438 0 31.671875 25.671875 57.34375 57.339844 57.34375h95.316406c31.671875 0 57.34375-25.671875 57.34375-57.34375 0-28.664062-18.910156-55.320312-46.953125-61.273438-15.832031-3.355468-30.734375-.097656-43.046875 7.105469v21.511719c0 3.429688.570312 6.796875 1.714844 10.003906 3.433594 9.738282-3.800782 19.996094-14.152344 19.996094zm0 0"/><path d="m91 45c0-24.851562-20.148438-45-45-45s-46 20.148438-46 45v135h91zm0 0"/><path d="m91 367.851562v-157.851562h-91v175.34375c11.296875-10.453125 26.1875-18 41.722656-21.292969 18.035156-3.855469 32.527344-2.195312 49.277344 3.800781zm0 0"/><path d="m121 180h91v-135c0-24.851562-21.148438-45-46-45s-45 20.148438-45 45zm0 0"/><path d="m170.277344 364.050781c15.535156 3.292969 30.425781 10.839844 41.722656 21.292969v-175.34375h-91v157.851562c16.664062-5.964843 31.15625-7.675781 49.277344-3.800781zm0 0"/><path d="m242 385.34375c11.296875-10.453125 25.1875-18 40.722656-21.292969 18.035156-3.855469 32.53125-2.195312 49.277344 3.796875v-157.847656h-90zm0 0"/><path d="m332 45c0-24.851562-20.148438-45-45-45s-45 20.148438-45 45v135h90zm0 0"/><path d="m452 75.382812v-30.382812c0-24.851562-20.148438-45-45-45s-45 20.148438-45 45v30.382812c12.574219-9.519531 28.050781-15.382812 45-15.382812s32.425781 5.863281 45 15.382812zm0 0"/><path d="m411.277344 364.050781c15.535156 3.292969 29.425781 10.839844 40.722656 21.292969v-71.152344c-12.609375 9.613282-27.957031 15.808594-45 15.808594-16.949219 0-32.425781-5.863281-45-15.382812v53.234374c16.664062-5.964843 31.15625-7.675781 49.277344-3.800781zm0 0"/></svg>