<svg height="512pt" viewBox="-61 0 512 512" width="512pt" xmlns="http://www.w3.org/2000/svg"><path d="m180 497v15h60v-60h-15c-24.8125 0-45 20.1875-45 45zm0 0"/><path d="m240 407c0-8.277344-6.722656-15-15-15h-15v30h15c8.277344 0 15-6.722656 15-15zm0 0"/><path d="m390 467v-90c0-52.644531-30.582031-98.855469-74.644531-121.105469-22.164063 44.320313-67.523438 75.105469-120.355469 75.105469-52.828125 0-98.191406-30.785156-120.355469-75.105469-44.0625 22.25-74.644531 68.460938-74.644531 121.105469v90c0 24.8125 20.1875 45 45 45h90c-41.351562 0-75-33.648438-75-75v-60c0-8.289062 6.710938-15 15-15h150c24.816406 0 45 20.1875 45 45 0 5.285156-1.082031 10.285156-2.761719 15h32.761719v-45c0-8.289062 6.710938-15 15-15 8.292969 0 15 6.710938 15 15v60c0 8.289062-6.707031 15-15 15h-45v60h75c24.816406 0 45-20.1875 45-45zm0 0"/><path d="m90 437c0 24.8125 20.1875 45 45 45 6.207031 0 12.152344-1.640625 17.765625-4.074219 4.351563-16.425781 14.050781-30.5625 27.234375-40.542969v-45.382812h-90zm0 0"/><path d="m90 75v15h75c8.277344 0 15-6.722656 15-15 0-8.289062 6.710938-15 15-15 8.292969 0 15 6.710938 15 15 0 8.277344 6.726562 15 15 15h75v-15c0-41.351562-33.644531-75-75-75h-60c-41.351562 0-75 33.648438-75 75zm0 0"/><path d="m90 196c0 57.988281 47.011719 105 105 105 57.992188 0 105-47.011719 105-105v-76h-75c-11.511719 0-22.03125-4.351562-30-11.484375-7.96875 7.132813-18.484375 11.484375-30 11.484375h-75zm75-15c8.292969 0 15 6.710938 15 15 0 8.277344 6.726562 15 15 15 8.277344 0 15-6.722656 15-15 0-8.289062 6.710938-15 15-15 8.292969 0 15 6.710938 15 15 0 24.8125-20.183594 45-45 45-24.8125 0-45-20.1875-45-45 0-8.289062 6.710938-15 15-15zm0 0"/><path d="m10.253906 211.777344c-5.433594 1.800781-9.359375 6.546875-10.121094 12.230468-.761718 5.683594 1.789063 11.292969 6.546876 14.472657 7.023437 4.679687 14.273437 8.546875 21.4375 12.742187 10.933593-9.386718 22.683593-17.839844 35.847656-24.132812-2.382813-10.027344-3.964844-20.34375-3.964844-31.089844v-14.742188c-22.601562 23.984376-46.742188 29.113282-49.746094 30.519532zm0 0"/><path d="m383.320312 238.480469c4.761719-3.179688 7.3125-8.789063 6.550782-14.472657-.765625-5.683593-4.691406-10.429687-10.125-12.230468-3.019532-1.417969-27.15625-6.550782-49.746094-30.519532v14.742188c0 10.722656-1.570312 21.019531-3.945312 31.027344 13.167968 6.292968 24.921874 14.769531 35.867187 24.175781 7.148437-4.191406 14.390625-8.050781 21.398437-12.722656zm0 0"/></svg>