<svg height="512pt" viewBox="-106 0 512 512" width="512pt" xmlns="http://www.w3.org/2000/svg"><path d="m300 181h-90v57.304688l90-15zm0 0"/><path d="m120 90h60v61h-60zm0 0"/><path d="m300 253.714844-300 49.996094v27.289062h77.886719c16.890625-18.910156 43.242187-30 72.113281-30s55.226562 11.089844 72.113281 30h77.886719zm0 0"/><path d="m120 253.304688 60-10.003907v-62.300781h-60zm0 0"/><path d="m300 361h-85.035156c-4.816406 0-9.328125-2.3125-12.15625-6.210938-10.605469-14.679687-30.851563-23.789062-52.808594-23.789062s-42.203125 9.109375-52.808594 23.789062c-2.828125 3.894532-7.339844 6.210938-12.15625 6.210938h-85.035156v30h85.035156c4.816406 0 9.328125 2.3125 12.15625 6.210938 10.605469 14.679687 30.851563 23.789062 52.808594 23.789062s42.203125-9.109375 52.808594-23.789062c2.828125-3.894532 7.339844-6.210938 12.15625-6.210938h85.035156zm0 0"/><path d="m120 0h60v60h-60zm0 0"/><path d="m0 15v45h90v-60h-75c-8.289062 0-15 6.710938-15 15zm0 0"/><path d="m300 15c0-8.289062-6.710938-15-15-15h-75v60h90zm0 0"/><path d="m77.886719 421h-77.886719v46c0 24.8125 20.1875 45 45 45h210c24.8125 0 45-20.1875 45-45v-46h-77.886719c-16.890625 18.910156-43.242187 30-72.113281 30s-55.226562-11.089844-72.113281-30zm0 0"/><path d="m0 273.300781 90-15v-77.300781h-90zm0 0"/><path d="m210 90h90v61h-90zm0 0"/><path d="m0 90h90v61h-90zm0 0"/></svg>