<svg height="512pt" viewBox="0 0 512 512" width="512pt" xmlns="http://www.w3.org/2000/svg"><path d="m256 0c-135.546875 0-248.167969 107.382812-256 241h31c21.210938 0 32.417969 11.207031 40.605469 19.394531 7.355469 7.351563 10.957031 10.605469 19.394531 10.605469s12.039062-3.253906 19.394531-10.605469c8.1875-8.1875 19.394531-19.394531 40.605469-19.394531h1.515625c7.355469-50.75 50.730469-90 103.484375-90s96.128906 39.25 103.484375 90h1.515625c21.210938 0 32.417969 11.207031 40.605469 19.394531 7.355469 7.351563 10.957031 10.605469 19.394531 10.605469s12.039062-3.253906 19.394531-10.605469c8.1875-8.1875 20.394531-19.394531 41.605469-19.394531h30c-7.832031-133.617188-120.453125-241-256-241zm-150.027344 211c-8.285156 0-15-6.714844-15-15s6.714844-15 15-15 15 6.714844 15 15-6.714844 15-15 15zm60-75c-8.285156 0-15-6.714844-15-15s6.714844-15 15-15 15 6.714844 15 15-6.714844 15-15 15zm90-30c-8.285156 0-15-6.714844-15-15s6.714844-15 15-15 15 6.714844 15 15-6.714844 15-15 15zm90 30c-8.285156 0-15-6.714844-15-15s6.714844-15 15-15 15 6.714844 15 15-6.714844 15-15 15zm60 75c-8.285156 0-15-6.714844-15-15s6.714844-15 15-15 15 6.714844 15 15-6.714844 15-15 15zm0 0"/><path d="m461.605469 281.605469c-8.1875 8.1875-19.394531 19.394531-40.605469 19.394531s-32.417969-11.207031-40.605469-19.394531c-7.355469-7.351563-10.957031-10.605469-19.394531-10.605469h-1.515625c-7.355469 50.75-50.730469 90-103.484375 90s-96.128906-39.25-103.484375-90h-1.515625c-8.4375 0-12.039062 3.253906-19.394531 10.605469-8.1875 8.1875-19.394531 19.394531-40.605469 19.394531s-32.417969-11.207031-40.605469-19.394531c-7.355469-7.351563-10.957031-10.605469-19.394531-10.605469h-31c7.832031 133.617188 120.453125 241 256 241s248.167969-107.382812 256-241h-30c-8.4375 0-13.039062 3.253906-20.394531 10.605469zm0 0"/></svg>