<svg height="512pt" viewBox="-61 0 512 512" width="512pt" xmlns="http://www.w3.org/2000/svg"><path d="m117.039062 331c4.351563 0 8.484376 1.890625 11.324219 5.171875 13.300781 15.308594 38.832031 24.828125 66.636719 24.828125s53.335938-9.519531 66.636719-24.828125c2.839843-3.28125 6.972656-5.171875 11.324219-5.171875h70.832031l2.496093-30h-73.328124c-4.351563 0-8.484376-1.890625-11.324219-5.171875-13.300781-15.308594-38.832031-24.828125-66.636719-24.828125s-53.335938 9.519531-66.636719 24.828125c-2.839843 3.28125-6.972656 5.171875-11.324219 5.171875h-73.328124l2.496093 30zm0 0"/><path d="m336.289062 421 5-60h-61.914062c-19.613281 18.894531-50.550781 30-84.375 30-33.820312 0-64.761719-11.105469-84.375-30h-61.914062l5 60zm0 0"/><path d="m279.375 271h69.417969l7.5-90h-322.585938l7.5 90h69.417969c19.613281-18.894531 50.550781-30 84.375-30s64.761719 11.105469 84.375 30zm0 0"/><path d="m102.597656 512h184.804688c23.21875 0 42.921875-19.136719 44.824218-42.265625l1.5625-18.734375h-277.578124l1.5625 18.734375c1.90625 23.128906 21.605468 42.265625 44.824218 42.265625zm0 0"/><path d="m15 151h360c8.285156 0 15-6.714844 15-15v-15c0-16.570312-13.429688-30-30-30h-330c-16.570312 0-30 13.429688-30 30v15c0 8.285156 6.714844 15 15 15zm0 0"/><path d="m328.417969 8.289062c-2.550781-5.082031-7.734375-8.289062-13.417969-8.289062h-240c-5.683594 0-10.867188 3.207031-13.417969 8.289062l-25.855469 52.710938h318.546876zm0 0"/></svg>