<svg height="512pt" viewBox="-76 0 512 512" width="512pt" xmlns="http://www.w3.org/2000/svg"><path d="m225.039062 0c-24.902343 0-45 20.097656-45 45v15h-165c-4.203124 0-8.101562 1.800781-11.101562 4.800781-2.699219 3-4.199219 7.199219-3.8984375 11.398438l7.4999995 103.800781h67.5l34.394532-34.394531c5.859375-5.859375 15.351562-5.859375 21.210937 0l34.394531 34.394531h45v-15c0-3.984375 1.582032-7.792969 4.394532-10.605469l25.605468-25.605469v-68.789062h-30v-15c0-8.402344 6.597657-15 15-15 8.398438 0 15 6.597656 15 15v15l30-.011719v-14.988281c0-24.902344-20.101562-45-45-45zm0 0"/><path d="m120.039062 300h30v30h-30zm0 0"/><path d="m102.457031 195 17.578125-17.578125 17.578125 17.578125-17.578125 17.578125zm0 0"/><path d="m255.039062 156.210938-15 15v68.789062h30v-68.789062zm0 0"/><path d="m222.453125 405 17.578125-17.578125 17.578125 17.578125-17.578125 17.578125zm0 0"/><path d="m9.636719 210 18.601562 259.300781c1.5 23.398438 21.300781 42.699219 44.699219 42.699219h214.199219c23.398437 0 43.199219-19.300781 44.699219-42.699219l18.601562-259.300781h-50.398438v45c0 8.289062-6.710937 15-15 15h-60c-8.292968 0-15-6.710938-15-15v-45h-45l-34.394531 34.394531c-2.933593 2.929688-6.769531 4.394531-10.605469 4.394531-3.839843 0-7.675781-1.464843-10.605468-4.394531l-34.394532-34.394531zm181.007812 184.394531 38.789063-38.789062c5.855468-5.859375 15.351562-5.859375 21.210937 0l38.789063 38.789062c5.855468 5.859375 5.855468 15.351563 0 21.210938l-38.789063 38.789062c-2.933593 2.929688-6.769531 4.394531-10.605469 4.394531-3.839843 0-7.675781-1.464843-10.605468-4.394531l-38.789063-38.789062c-5.859375-5.859375-5.859375-15.351563 0-21.210938zm-100.605469-109.394531c0-8.289062 6.707032-15 15-15h60c8.289063 0 15 6.710938 15 15v60c0 8.289062-6.710937 15-15 15h-60c-8.292968 0-15-6.710938-15-15zm0 0"/><path d="m295.644531 154.394531c2.8125 2.8125 4.394531 6.621094 4.394531 10.605469v15h52.5l7.5-103.800781c.296876-4.199219-1.199218-8.398438-3.902343-11.398438-2.996094-3-6.898438-4.800781-11.097657-4.800781h-75v68.789062zm0 0"/></svg>