<svg height="511pt" viewBox="-54 1 511 511.99926" width="511pt" xmlns="http://www.w3.org/2000/svg"><path d="m64.191406 293.214844 126.324219 153.320312c2.839844 3.457032 7.089844 5.464844 11.570313 5.464844 4.480468 0 8.730468-2.007812 11.570312-5.464844l127.042969-154.183594c28.3125-34.339843 39.253906-67.496093 41.089843-101.164062 5.578126-97.542969-67.871093-179.6875-158.742187-189.972656-107.875-12.488282-200.957031 72.957031-200.957031 179.792968 0 38.542969 12.652344 76.496094 42.101562 112.207032zm47.898438-157.207032c0-8.289062 6.707031-14.996093 15-14.996093h149.992187c24.816407 0 45 20.183593 45 44.996093s-20.183593 45-45 45h-16.515625c-6.96875 34.191407-37.265625 59.996094-73.480468 59.996094-41.351563 0-74.996094-33.644531-74.996094-74.996094zm0 0"/><path d="m292.082031 166.007812c0-8.273437-6.722656-15-15-15h-14.996093v30h14.996093c8.277344 0 15-6.722656 15-15zm0 0"/><path d="m187.085938 241.007812c24.8125 0 45-20.1875 45-45v-45h-90v45c0 24.8125 20.1875 45 45 45zm0 0"/><path d="m1.863281 456.085938c-3.386719 13.535156-.398437 27.613281 8.1875 38.613281 8.582031 10.984375 21.519531 17.300781 35.460938 17.300781h313.148437c13.941406 0 26.878906-6.3125 35.460938-17.300781 8.585937-11 11.570312-25.078125 8.1875-38.613281l-15-60.011719c-5.007813-20.054688-22.96875-34.070313-43.648438-34.070313h-21.480468l-85.363282 103.605469c-8.554687 10.414063-21.226562 16.390625-34.730468 16.390625-13.503907 0-26.175782-5.976562-34.742188-16.421875l-85.347656-103.574219h-21.484375c-20.683594 0-38.640625 14.019532-43.648438 34.085938zm0 0"/></svg>