<svg height="512pt" viewBox="-61 0 512 512" width="512pt" xmlns="http://www.w3.org/2000/svg"><path d="m390.003906 345.589844c-.132812-4.601563-2.355468-8.875-6.050781-11.617188-3.441406-2.578125-85.765625-62.972656-188.949219-62.972656s-185.507812 60.394531-188.949218 62.972656c-3.691407 2.742188-5.917969 7.019532-6.05078175 11.617188-.11718725 4.601562 1.85937475 8.996094 5.39062475 11.9375l180 151c2.785157 2.316406 6.199219 3.472656 9.609375 3.472656 3.414063 0 6.828125-1.15625 9.609375-3.472656l180-151c3.53125-2.941406 5.507813-7.339844 5.390625-11.9375zm-255.027344 45.410156c-8.285156 0-15-6.714844-15-15s6.714844-15 15-15c8.285157 0 15 6.714844 15 15s-6.714843 15-15 15zm60 60c-8.285156 0-15-6.714844-15-15s6.714844-15 15-15c8.285157 0 15 6.714844 15 15s-6.714843 15-15 15zm60-60c-8.285156 0-15-6.714844-15-15s6.714844-15 15-15c8.285157 0 15 6.714844 15 15s-6.714843 15-15 15zm0 0"/><path d="m383.953125 243.972656c-3.441406-2.578125-85.765625-62.972656-188.949219-62.972656s-185.507812 60.394531-188.949218 62.972656c-3.691407 2.742188-5.917969 7.019532-6.05078175 11.617188-.11718725 4.601562 1.85937475 8.996094 5.39062475 11.9375l21.949219 18.289062c37.3125-19.886718 97.921875-44.816406 167.660156-44.816406 69.71875 0 130.3125 24.917969 167.65625 44.820312l21.953125-18.292968c3.53125-2.941406 5.507813-7.339844 5.390625-11.9375-.132812-4.601563-2.355468-8.875-6.050781-11.617188zm0 0"/><path d="m383.953125 153.972656c-3.441406-2.578125-85.765625-62.972656-188.949219-62.972656s-185.507812 60.394531-188.949218 62.972656c-3.691407 2.742188-5.917969 7.019532-6.05078175 11.617188-.11718725 4.601562 1.85937475 8.996094 5.39062475 11.9375l21.949219 18.289062c37.3125-19.886718 97.921875-44.816406 167.660156-44.816406 69.71875 0 130.3125 24.917969 167.65625 44.820312l21.953125-18.292968c3.53125-2.941406 5.507813-7.339844 5.390625-11.9375-.132812-4.601563-2.355468-8.875-6.050781-11.617188zm0 0"/><path d="m383.953125 63.972656c-3.441406-2.578125-85.765625-63.972656-188.949219-63.972656s-185.507812 61.394531-188.949218 63.972656c-3.691407 2.742188-5.917969 7.015625-6.05078175 11.617188-.11718725 4.601562 1.85937475 8.996094 5.39062475 11.9375l21.949219 18.289062c37.3125-19.886718 97.921875-44.816406 167.660156-44.816406 69.71875 0 130.3125 24.917969 167.65625 44.820312l21.953125-18.292968c3.53125-2.941406 5.507813-7.339844 5.390625-11.9375-.132812-4.601563-2.355468-8.875-6.050781-11.617188zm0 0"/></svg>