<svg height="512pt" viewBox="0 0 512 512" width="512pt" xmlns="http://www.w3.org/2000/svg"><path d="m15 272h15v30h270v-30h15c8.289062 0 15-6.710938 15-15s-6.710938-15-15-15h-300c-8.289062 0-15 6.710938-15 15s6.710938 15 15 15zm0 0"/><path d="m497 332h-482c-8.285156 0-15 6.714844-15 15v30c0 41.421875 33.578125 75 75 75h180c36.285156 0 66.535156-25.769531 73.488281-60h168.511719c8.285156 0 15-6.714844 15-15v-30c0-8.285156-6.714844-15-15-15zm0 0"/><path d="m225 512c8.285156 0 15-6.714844 15-15v-15h-150v15c0 8.285156 6.714844 15 15 15zm0 0"/><path d="m279.960938 205.613281-76.640626-51.09375c-1.054687-.699219-2.378906-.664062-3.558593-1.078125l15.378906-95.34375c4.914063-29.664062-16.195313-58.097656-50.140625-58.097656-33.984375 0-55.050781 28.472656-50.140625 58.097656l15.367187 95.347656c-1.175781.414063-2.496093.375-3.546874 1.074219l-76.640626 51.09375c-2.761718 1.839844-5.171874 4.050781-7.414062 6.386719h244.75c-2.246094-2.335938-4.652344-4.546875-7.414062-6.386719zm0 0"/></svg>