<svg height="512pt" viewBox="0 0 512 512.00085" width="512pt" xmlns="http://www.w3.org/2000/svg"><path d="m492.171875 19.832031c-45.328125-45.328125-143.34375-5.148437-190.921875 42.425781-47.179688 47.179688-47.179688 101.3125 0 148.492188 47.183594 47.179688 101.3125 47.179688 148.496094 0 47.574218-47.574219 87.75-145.59375 42.425781-190.917969zm0 0"/><path d="m13.148438 498.773438 1.410156 1.347656c18.210937 16.757812 46.742187 15.707031 63.640625-2.652344l225.804687-245.441406c-8.183594-5.714844-16.210937-12.308594-23.964844-20.066406-7.757812-7.753907-14.351562-15.78125-20.0625-23.964844l-245.429687 225.839844c-19.285156 17.914062-19.03125 47.304687-1.398437 64.9375zm0 0"/></svg>