<svg height="512pt" viewBox="0 -31 512 512" width="512pt" xmlns="http://www.w3.org/2000/svg"><path d="m151 240c8.277344 0 15-6.722656 15-15v-15h-30v15c0 8.277344 6.722656 15 15 15zm0 0"/><path d="m91 240c8.277344 0 15-6.722656 15-15v-15h-30v15c0 8.277344 6.722656 15 15 15zm0 0"/><path d="m211 240c8.277344 0 15-6.722656 15-15v-15h-30v15c0 8.277344 6.722656 15 15 15zm0 0"/><path d="m226 267.238281c-4.714844 1.679688-9.714844 2.761719-15 2.761719-11.566406 0-22.019531-4.507812-30-11.703125-7.980469 7.195313-18.433594 11.703125-30 11.703125s-22.019531-4.507812-30-11.703125c-7.980469 7.195313-18.433594 11.703125-30 11.703125-5.285156 0-10.285156-1.082031-15-2.761719v32.761719h150zm0 0"/><path d="m46 420c0-33.089844 26.910156-60 60-60 18.007812 0 33.996094 8.132812 45 20.730469 11.003906-12.597657 26.992188-20.730469 45-20.730469 33.089844 0 60 26.910156 60 60h45v-255c0-24.851562-20.148438-45-45-45h-30.382812c6.632812-8.761719 11.59375-18.847656 13.863281-30h16.519531c24.8125 0 45-20.1875 45-45s-20.1875-45-45-45c-4.765625 0-158.425781 0-150 0-8.289062 0-15 6.710938-15 15v60c0 16.949219 5.863281 32.425781 15.382812 45h-60.382812c-24.851562 0-46 20.148438-46 45v210c0 24.851562 21.148438 45 46 45zm225-375c0 8.277344-6.722656 15-15 15h-15v-30h15c8.277344 0 15 6.722656 15 15zm-225 150c0-8.289062 6.710938-15 15-15h180c8.289062 0 15 6.710938 15 15v120c0 8.289062-6.710938 15-15 15h-180c-8.289062 0-15-6.710938-15-15zm0 0"/><path d="m136 420c0 16.570312-13.429688 30-30 30s-30-13.429688-30-30 13.429688-30 30-30 30 13.429688 30 30zm0 0"/><path d="m226 420c0 16.570312-13.429688 30-30 30s-30-13.429688-30-30 13.429688-30 30-30 30 13.429688 30 30zm0 0"/><path d="m437 420c0 16.570312-13.429688 30-30 30s-30-13.429688-30-30 13.429688-30 30-30 30 13.429688 30 30zm0 0"/><path d="m385.378906 180c-3.25 0-57.457031 0-54.378906 0 0 4.484375 0 94.339844 0 90h116.8125l-19.746094-59.238281c-6.140625-18.398438-23.292968-30.761719-42.6875-30.761719zm0 0"/><path d="m467 300h-136v120h16c0-33.089844 26.910156-60 60-60s60 26.910156 60 60c24.851562 0 45-20.148438 45-45v-30c0-24.851562-20.148438-45-45-45zm0 0"/></svg>