<svg height="512pt" viewBox="0 0 512 512" width="512pt" xmlns="http://www.w3.org/2000/svg"><path d="m240 286c0-8.277344-6.722656-15-15-15h-15v30h15c8.277344 0 15-6.722656 15-15zm0 0"/><path d="m60 316v-60c0-8.289062 6.710938-15 15-15h45v-30h-15c-8.289062 0-15-6.710938-15-15v-45h-90v210h75.382812c-9.519531-12.574219-15.382812-28.050781-15.382812-45zm0 0"/><path d="m120 151h30v30h-30zm0 0"/><path d="m194.617188 361h107.382812v-210h-122v45c0 8.289062-6.710938 15-15 15h-15v30h75c24.8125 0 45 20.1875 45 45s-20.1875 45-45 45h-16.519531c-2.269531 11.152344-7.230469 21.238281-13.863281 30zm0 0"/><path d="m467 0h-135v60h180v-15c0-24.8125-20.1875-45-45-45zm0 0"/><path d="m45 512h257v-121h-302v76c0 24.8125 20.1875 45 45 45zm0 0"/><path d="m332 422h180v-332h-180zm89.972656-301c8.285156 0 15 6.714844 15 15s-6.714844 15-15 15-15-6.714844-15-15 6.714844-15 15-15zm-29.972656 60h60c8.289062 0 15 6.710938 15 15s-6.710938 15-15 15h-60c-8.289062 0-15-6.710938-15-15s6.710938-15 15-15zm0 60h60c8.289062 0 15 6.710938 15 15s-6.710938 15-15 15h-60c-8.289062 0-15-6.710938-15-15s6.710938-15 15-15zm0 60h60c8.289062 0 15 6.710938 15 15s-6.710938 15-15 15h-60c-8.289062 0-15-6.710938-15-15s6.710938-15 15-15zm0 0"/><path d="m332 512h135c24.8125 0 45-20.1875 45-45v-15h-180zm0 0"/><path d="m302 0h-257c-24.8125 0-45 20.1875-45 45v76h302zm0 0"/><path d="m90 316c0 24.8125 20.1875 45 45 45s45-20.1875 45-45v-45h-90zm0 0"/></svg>