<svg height="512pt" viewBox="-16 0 512 512" width="512pt" xmlns="http://www.w3.org/2000/svg"><path d="m435.003906 270h-45.003906v-15c0-8.289062-6.710938-15-15-15h-135v-31.515625c50.75-7.355469 90-50.730469 90-103.484375 0-57.890625-47.109375-105-105-105s-105 47.109375-105 105c0 29.390625 12.21875 55.921875 31.75 75h-106.75c-24.8125 0-45 20.1875-45 45v90c0 8.289062 6.710938 15 15 15s15-6.710938 15-15v-90c0-8.277344 6.722656-15 15-15h165v30h-135c-8.289062 0-15 6.710938-15 15v41.835938c0 73.738281 21.621094 147.136718 62.519531 208.484374 2.785157 4.175782 7.472657 6.679688 12.480469 6.679688h180c5.011719 0 9.695312-2.503906 12.480469-6.679688 11.355469-17.03125 21.0625-34.902343 29.394531-53.320312h56.695312c22.25 0 41.398438-16.609375 44.546876-38.628906l21.429687-92c1.847656-12.933594-2.007813-26-10.5625-35.859375-8.554687-9.855469-20.929687-15.511719-33.980469-15.511719zm-225.003906-195c0-8.289062 6.710938-15 15-15s15 6.710938 15 15v30c0 8.289062-6.710938 15-15 15s-15-6.710938-15-15zm218.410156 334.125c-1.039062 7.339844-7.425781 12.875-14.839844 12.875h-44.738281c13.464844-38.351562 20.703125-80.757812 21.050781-122h45.117188c4.410156 0 8.425781 1.832031 11.324219 5.171875 2.886719 3.339844 4.144531 7.585937 3.515625 11.953125zm0 0"/></svg>