<svg height="512pt" viewBox="-16 0 512 512" width="512pt" xmlns="http://www.w3.org/2000/svg"><path d="m215.789062 376.421875-32.15625 32.15625c12.09375 8.039063 26.484376 11.746094 40.933594 11.738281zm0 0"/><path d="m287.578125 304.632812-32.15625 32.15625 44.535156 8.90625c-.0625-14.828124-4.351562-28.992187-12.378906-41.0625zm0 0"/><path d="m278.027344 399.027344c6.96875-6.972656 12.359375-15.09375 16.078125-23.910156l-49.988281-10 9.902343 49.511718c8.839844-3.59375 17.097657-8.6875 24.007813-15.601562zm0 0"/><path d="m60 466c0 24.8125 20.1875 46 45 46h180c24.8125 0 45-21.1875 45-46v-9.566406c34.582031-33.253906 55.523438-78.039063 59.230469-125.433594h24.339843c22.25 0 41.398438-16.609375 44.546876-38.628906l21.429687-151c1.847656-12.933594-2.007813-26-10.5625-35.859375-8.554687-9.855469-20.929687-15.511719-33.980469-15.511719h-104.5c-.070312-2.390625-.503906-4.847656-.503906-7.222656v-37.777344c0-8.289062-6.710938-15-15-15h-75.835938c-6.941406 0-13.917968-1.640625-20.128906-4.746094l-34.671875-17.34375c-10.355469-5.171875-21.957031-7.910156-33.527343-7.910156h-105.835938c-5.199219 0-10.019531 2.695312-12.757812 7.117188-2.738282 4.425781-2.988282 9.949218-.660157 14.59375l28.417969 56.835937c-.429688 3.589844 4.171875 53.535156-28.933594 127.597656l47.347656 28.410157c33.792969 20.304687 76.023438 18.121093 107.59375-5.550782 41.351563-31.027344 96.691407-33.882812 141.019532-7.28125l52.324218 31.398438c-3.046874-8.851563-6.519531-17.582032-10.882812-26.035156-18.683594-36.21875-30.472656-72.738282-35.53125-107.085938h102.066406c4.40625 0 8.421875 1.832031 11.320313 5.171875 2.886719 3.339844 4.148437 7.585937 3.515625 11.953125l-21.429688 151c-1.039062 7.339844-7.425781 12.875-14.839844 12.875h-24.449218c-.1875-2.417969-.152344-4.886719-.425782-7.285156l-77.109374-46.269532c-33.777344-20.304687-76.039063-18.121093-107.59375 5.550782-41.320313 31.027344-96.691407 33.898437-141.019532 7.28125l-44.355468-26.613282c-12.164063 25.851563-18.617188 53.464844-18.617188 82.335938 0 52.894531 21.78125 103.683594 60 140.421875zm90.761719-66.972656 127.265625-127.265625c5.859375-5.859375 15.351562-5.859375 21.210937 0 41.050781 41.015625 41.042969 107.433593 0 148.476562-41.03125 41.03125-107.449219 41.058594-148.476562 0-5.859375-5.859375-5.859375-15.351562 0-21.210937zm-45.792969-38.027344c8.289062 0 15 6.714844 15 15s-6.710938 15-15 15c-8.28125 0-15-6.714844-15-15s6.71875-15 15-15zm-45-45c0-8.285156 6.71875-15 15-15 8.289062 0 15 6.714844 15 15s-6.710938 15-15 15c-8.28125 0-15-6.714844-15-15zm0 0"/></svg>