<svg height="512pt" viewBox="0 0 512 512" width="512pt" xmlns="http://www.w3.org/2000/svg"><path d="m497 30c8.289062 0 15-6.710938 15-15s-6.710938-15-15-15h-90c-5.683594 0-10.867188 3.207031-13.417969 8.289062l-25.855469 52.710938h-141.726562c-5.683594 0-10.867188 3.207031-13.417969 8.289062l-10.855469 21.710938h-35.726562c-8.289062 0-15 6.710938-15 15s6.710938 15 15 15h331c8.289062 0 15-6.710938 15-15s-6.710938-15-15-15h-35.726562l-10.855469-21.710938c-2.550781-5.082031-7.734375-8.289062-13.417969-8.289062h-35.726562l15-31zm0 0"/><path d="m480.703125 151h-298.40625l3.03125 34.371094c31.730469 6.15625 60.40625 20.765625 83.851563 41.230468 17.640624-9.160156 38.910156-14.601562 61.820312-14.601562 33.824219 0 65.761719 11.105469 85.375 30h56.144531zm0 0"/><path d="m469.789062 272h-59.828124c-4.351563 0-8.484376-1.890625-11.324219-5.171875-13.300781-15.308594-39.832031-24.828125-67.636719-24.828125-14.476562 0-28.21875 2.6875-40.058594 7.320312 18.910156 23.414063 32.101563 51.550782 37.363282 82.453126.917968.019531 1.769531.226562 2.695312.226562 27.804688 0 54.335938-9.519531 67.636719-24.828125 2.839843-3.28125 6.972656-5.171875 11.324219-5.171875h57.101562zm0 0"/><path d="m454.417969 441.070312 9.917969-109.070312h-47.960938c-19.613281 18.894531-51.550781 30-85.375 30 0 46.125-17.585938 88.117188-46.214844 120h124.820313c23.425781 0 42.6875-17.59375 44.8125-40.929688zm0 0"/><path d="m1.351562 332.632812c6.382813 17.097657 23.742188 29.367188 43.039063 29.367188 12.105469 0 23.089844-5.273438 31.363281-13.453125 6.375-34.933594 38.5-61.546875 75.246094-61.546875 36.980469 0 67.601562 26.964844 73.707031 62.230469 8.304688 8.027343 19.492188 12.769531 31.292969 12.769531 19.296875 0 35.65625-12.269531 42.039062-29.367188-13.664062-68.769531-74.257812-120.632812-147.039062-120.632812s-135.984375 51.863281-149.648438 120.632812zm0 0"/><path d="m256 392c-11.878906 0-23.226562-3.230469-33.539062-8.433594-9.335938 30.800782-37.65625 53.433594-71.460938 53.433594-33.660156 0-63.488281-22.441406-72.945312-53.039062-10.246094 5.160156-21.71875 8.039062-33.664063 8.039062-16.199219 0-32.117187-5.285156-44.390625-14.054688 8.0625 75.242188 73.621094 134.054688 151 134.054688s140.328125-58.8125 148.390625-134.054688c-12.273437 8.769532-27.191406 14.054688-43.390625 14.054688zm0 0"/></svg>