<svg height="512pt" viewBox="0 0 512.00078 512" width="512pt" xmlns="http://www.w3.org/2000/svg"><path d="m60.695312 106.015625c0 17.109375 8.496094 32.992187 22.734376 42.484375 7.015624 4.648438 16.28125 2.632812 20.800781-4.160156 4.601562-6.902344 2.738281-16.203125-4.160157-20.804688-5.960937-3.96875-9.375-10.355468-9.375-17.519531s3.414063-13.550781 9.375-17.519531c14.238282-9.492188 22.734376-26.375 22.734376-43.484375s-8.496094-32.988281-22.734376-42.480469c-6.957031-4.613281-16.214843-2.738281-20.800781 4.160156-4.601562 6.898438-2.726562 16.214844 4.160157 20.800782 5.960937 3.972656 9.375 10.359374 9.375 17.523437s-3.414063 14.550781-9.375 18.519531c-14.238282 9.492188-22.734376 25.371094-22.734376 42.480469zm0 0"/><path d="m135.699219 106.015625c0 17.109375 8.496093 32.992187 22.734375 42.484375 7.015625 4.648438 16.28125 2.632812 20.800781-4.160156 4.601563-6.902344 2.738281-16.203125-4.160156-20.804688-5.960938-3.96875-9.375-10.355468-9.375-17.519531s3.414062-13.550781 9.375-17.519531c14.238281-9.492188 22.734375-26.375 22.734375-43.484375s-8.496094-32.988281-22.734375-42.480469c-6.914063-4.613281-16.214844-2.738281-20.800781 4.160156-4.601563 6.898438-2.726563 16.214844 4.160156 20.800782 5.960937 3.972656 9.375 10.359374 9.375 17.523437s-3.414063 14.550781-9.375 18.519531c-14.238282 9.492188-22.734375 25.371094-22.734375 42.480469zm0 0"/><path d="m250.078125 2.53125c-6.914063-4.613281-16.21875-2.738281-20.800781 4.160156-4.601563 6.898438-2.726563 16.21875 4.160156 20.804688 5.960938 3.96875 9.375 10.355468 9.375 17.519531s-3.414062 14.550781-9.375 18.519531c-14.238281 9.492188-22.738281 25.371094-22.738281 42.484375 0 17.109375 8.5 32.988281 22.738281 42.480469 7.015625 4.648438 16.277344 2.632812 20.800781-4.160156 4.601563-6.898438 2.738281-16.203125-4.160156-20.800782-5.960937-3.972656-9.375-10.359374-9.375-17.523437s3.414063-13.550781 9.375-17.519531c14.238281-9.492188 22.734375-26.371094 22.734375-43.480469s-8.496094-32.992187-22.734375-42.484375zm0 0"/><path d="m33.242188 188.070312c-2.738282 4.425782-2.988282 9.945313-.660157 14.589844l19.148438 38.292969h198.554687l19.144532-38.292969c2.328124-4.644531 2.082031-10.164062-.65625-14.589844-2.742188-4.425781-7.5625-7.121093-12.761719-7.121093h-210.007813c-5.203125 0-10.023437 2.695312-12.761718 7.121093zm0 0"/><path d="m90.472656 511.964844h120.070313c49.878906 0 90.472656-40.59375 90.472656-90.472656 0-11.558594-2.167969-23.867188-6.460937-34.589844l-16.652344-41.625 60.683594-59.683594c9.921874 2.539062 20.796874.414062 28.574218-7.359375l136.074219-136.074219c11.6875-11.691406 11.6875-30.734375 0-42.425781-11.703125-11.699219-30.746094-11.675781-42.425781 0l-136.074219 136.0625c-7.777344 7.777344-9.894531 18.660156-7.359375 28.585937l-51.59375 50.59375-17.613281-44.019531h-194.324219l-47.382812 115.945313c-4.292969 10.722656-6.460938 23.03125-6.460938 34.589844 0 49.878906 40.59375 90.472656 90.472656 90.472656zm0 0"/></svg>