<svg height="512pt" viewBox="0 -16 512 512" width="512pt" xmlns="http://www.w3.org/2000/svg"><path d="m278.207031 204.757812c-16.347656 0-22.527343 20.476563-22.777343 21.339844-1.890626 6.417969-7.179688 11.074219-14.519532 10.839844-6.707031-.042969-12.582031-4.480469-14.367187-10.941406-.222657-.761719-6.402344-21.238282-22.75-21.238282-14.589844 0-22.222657 12.773438-22.222657 25.386719 0 21.421875 26.851563 41.167969 59.429688 68.847657 24.976562-21.222657 59.429688-46.265626 59.429688-68.847657 0-12.617187-7.632813-25.386719-22.222657-25.386719zm0 0"/><path d="m241 119.253906c-66.167969 0-120 53.832032-120 120 0 66.167969 53.832031 120 120 120s120-53.832031 120-120c0-66.167968-53.832031-120-120-120zm9.828125 210.835938c-2.824219 2.445312-6.328125 3.660156-9.828125 3.660156s-7.003906-1.214844-9.828125-3.660156c-42.597656-36.9375-79.601563-61.480469-79.601563-99.949219 0-31.054687 22.941407-55.382813 52.222657-55.382813 16.480469 0 28.695312 7.527344 37.207031 16.988282 8.511719-9.460938 20.726562-16.988282 37.207031-16.988282 29.28125 0 52.222657 24.328126 52.222657 55.382813 0 40.375-41.351563 66.769531-79.601563 99.949219zm0 0"/><path d="m241 480c110.140625 0 206.273438-75.660156 233.21875-180h-96.339844c-23.386718 52.464844-75.832031 89.253906-136.878906 89.253906-82.703125 0-150-67.296875-150-150 0-82.707031 67.296875-150 150-150 61.652344 0 114.660156 37.445313 137.691406 90.746094h95.542969c-26.960937-104.289062-123.207031-180-233.234375-180-132.335938 0-241 107.664062-241 240s108.664062 240 241 240zm0 0"/><path d="m482 210h-93.957031c1.882812 9.472656 2.957031 19.234375 2.957031 29.253906 0 10.542969-1.144531 20.8125-3.226562 30.746094h94.226562c16.570312 0 30-13.433594 30-30 0-16.570312-13.429688-30-30-30zm0 0"/></svg>