<svg height="512pt" viewBox="0 0 512 512.00001" width="512pt" xmlns="http://www.w3.org/2000/svg"><path d="m472.074219 198.523438c8.40625-42.699219-3.855469-88.703126-36.875-121.726563-33.023438-33.023437-79.023438-45.28125-121.726563-36.871094l-26.765625-26.765625c-17.546875-17.546875-46.09375-17.546875-63.640625 0l-42.425781 42.425782c-17.546875 17.546874-17.546875 46.09375 0 63.640624l26.769531 26.765626c-8.410156 42.703124 3.847656 88.703124 36.871094 121.726562s79.023438 45.28125 121.726562 36.871094l26.765626 26.765625c17.546874 17.546875 46.09375 17.546875 63.636718 0l42.429688-42.425781c17.546875-17.546876 17.546875-46.089844 0-63.636719zm-57.355469-26.285157c0 8.285157-6.714844 15-15 15s-15-6.714843-15-15c0-8.28125 6.714844-15 15-15s15 6.714844 15 15zm-43.179688-53.03125c5.859376-5.859375 15.355469-5.859375 21.210938 0 5.859375 5.855469 5.859375 15.351563 0 21.210938-5.855469 5.859375-15.351562 5.859375-21.210938 0-5.859374-5.855469-5.859374-15.355469 0-21.210938zm0 84.851563c5.859376-5.859375 15.355469-5.855469 21.210938 0 5.859375 5.859375 5.859375 15.355468 0 21.214844-5.855469 5.855468-15.351562 5.859374-21.210938 0-5.859374-5.859376-5.859374-15.355469 0-21.214844zm-153.214843-89.578125-16.46875-16.46875c-5.851563-5.851563-5.851563-15.359375 0-21.214844l42.425781-42.425781c5.851562-5.851563 15.359375-5.851563 21.210938 0l16.472656 16.472656c-13.570313 6.433594-26.472656 14.742188-37.683594 25.953125s-19.523438 24.117187-25.957031 37.683594zm46.394531 57.757812c0-8.28125 6.714844-15 15-15s15 6.714844 15 15c0 8.285157-6.714844 15-15 15s-15-6.714843-15-15zm43.183594 53.03125c-5.859375 5.859375-15.355469 5.859375-21.21875 0-5.855469-5.855469-5.855469-15.351562 0-21.210937 5.859375-5.859375 15.359375-5.859375 21.21875 0 5.855468 5.859375 5.855468 15.355468 0 21.210937zm0-84.851562c-5.859375 5.859375-15.355469 5.859375-21.21875 0-5.855469-5.855469-5.855469-15.355469 0-21.210938 5.859375-5.859375 15.359375-5.859375 21.21875 0 5.855468 5.855469 5.855468 15.351563 0 21.210938zm31.816406 106.820312c-8.285156 0-15-6.714843-15-15 0-8.28125 6.714844-15 15-15s15 6.714844 15 15c0 8.285157-6.714844 15-15 15zm10.609375-64.394531c-5.859375 5.859375-15.355469 5.859375-21.214844 0s-5.859375-15.355469 0-21.210938c5.859375-5.859374 15.355469-5.859374 21.214844 0 5.855469 5.859376 5.855469 15.355469 0 21.210938zm-10.609375-55.605469c-8.285156 0-15-6.714843-15-15 0-8.28125 6.714844-15 15-15s15 6.714844 15 15c0 8.285157-6.714844 15-15 15zm137.90625 140.480469-42.425781 42.425781c-5.851563 5.851563-15.359375 5.851563-21.210938 0l-16.472656-16.46875c13.570313-6.4375 26.472656-14.746093 37.683594-25.957031 11.210937-11.210938 19.519531-24.117188 25.957031-37.683594l16.46875 16.46875c5.851562 5.855469 5.851562 15.363282 0 21.214844zm0 0"/><path d="m95.628906 491.859375 107.410156-138.5c17.617188 16.511719 45.257813 16.410156 62.453126-.789063l23.488281-23.484374c-24.105469-7.761719-46.808594-21.050782-65.914063-40.152344-19.101562-19.105469-32.390625-41.808594-40.152344-65.914063l-23.488281 23.484375c-16.566406 16.570313-16.917969 42.660156-2.199219 60.324219l-137.085937 109.542969c-24.980469 19.984375-27.035156 57.296875-4.421875 79.914062 22.625 22.621094 59.9375 20.539063 79.910156-4.425781zm0 0"/></svg>