<svg height="512pt" viewBox="-91 0 512 512" width="512pt" xmlns="http://www.w3.org/2000/svg"><path d="m195 0h-60c-8.289062 0-15 6.710938-15 15v47c-33.136719 0-60 26.863281-60 60h210c0-33.136719-26.863281-60-60-60v-47c0-8.289062-6.710938-15-15-15zm0 0"/><path d="m285 152h-240c-8.289062 0-15 6.710938-15 15s6.710938 15 15 15h15v30h210v-30h15c8.289062 0 15-6.710938 15-15s-6.710938-15-15-15zm0 0"/><path d="m255.25 242h-45.25v90h115.445312c-3.03125-17.152344-7.570312-34.035156-13.59375-50.535156-8.628906-23.613282-31.378906-39.464844-56.601562-39.464844zm0 0"/><path d="m150 242h30v90h-30zm0 0"/><path d="m74.75 242c-25.222656 0-47.972656 15.851562-56.601562 39.464844-6.023438 16.5-10.5625 33.382812-13.59375 50.535156h115.445312v-90zm0 0"/><path d="m.960938 362c-.539063 7.332031-.960938 14.679688-.960938 22.074219v82.925781c0 24.8125 20.1875 45 45 45h240c24.8125 0 45-20.1875 45-45v-82.925781c0-7.394531-.421875-14.742188-.960938-22.074219zm134.011718 60c-8.285156 0-15-6.714844-15-15s6.714844-15 15-15 15 6.714844 15 15-6.714844 15-15 15zm60 60c-8.285156 0-15-6.714844-15-15s6.714844-15 15-15 15 6.714844 15 15-6.714844 15-15 15zm0 0"/></svg>