<svg height="511pt" viewBox="-16 1 511 511.999" width="511pt" xmlns="http://www.w3.org/2000/svg"><path d="m465.507812 91c-41.355468 0-75 33.648438-75 75v210c0 22.527344-16.6875 42.066406-38.320312 45.324219l-19.917969-180.324219h-213.523437l-3.332032 30h-69.898437c-28.410156 0-49.710937 26.019531-44.121094 53.832031l18.003907 90.984375c4.171874 20.964844 22.734374 36.183594 44.121093 36.183594h31.894531l-1.113281 10.035156c-1.40625 12.699219 2.664063 25.441406 11.191407 34.980469 8.523437 9.519531 20.742187 14.984375 33.527343 14.984375h172.96875c12.789063 0 25.007813-5.464844 33.53125-14.984375 8.527344-9.539063 12.597657-22.28125 11.191407-34.980469l-1.226563-11.042968c36.605469-4.9375 65.019531-37.054688 65.019531-74.992188v-210c0-24.8125 20.1875-45 45-45 8.292969 0 15-6.710938 15-15s-6.707031-15-14.996094-15zm-401.988281 331c-7.136719 0-13.316406-5.066406-14.707031-12.054688l-18.003906-91c-1.84375-9.289062 5.234375-17.945312 14.707031-17.945312h66.5625l-13.332031 121zm0 0"/><path d="m90.507812 181c0 16.566406 13.429688 30 30 30h210c16.566407 0 30-13.433594 30-30 0-16.570312-13.433593-30-30-30h-210c-16.570312 0-30 13.429688-30 30zm0 0"/><path d="m328.988281 121c-5.9375-40.976562-35.527343-75.058594-74.402343-86.433594.246093-1.550781.921874-2.949218.921874-4.566406v-15c0-8.285156-6.71875-15-15-15h-30c-8.285156 0-15 6.714844-15 15v15c0 1.617188.671876 3.015625.917969 4.566406-38.875 11.375-68.464843 45.457032-74.402343 86.433594zm0 0"/></svg>