<svg height="511pt" viewBox="-61 0 511 511.9998" width="511pt" xmlns="http://www.w3.org/2000/svg"><path d="m9.707031 256.8125c14.472657-9.9375 31.945313-15.804688 50.792969-15.804688 15.949219 0 31.449219 4.246094 44.996094 12.085938 13.550781-7.839844 29.046875-12.085938 45-12.085938s31.449218 4.246094 45 12.085938c13.546875-7.839844 29.046875-12.085938 44.996094-12.085938 15.878906 0 31.347656 4.308594 44.898437 12.214844 13.535156-7.921875 29.0625-12.214844 45.101563-12.214844 16.09375 0 34.679687 4.859376 50.839843 15.949219-15.375-48.425781-49.230469-89.511719-93.175781-113.34375 7.300781-5.46875 12.335938-13.777343 12.335938-23.605469 0-16.566406-13.429688-29.996093-30-29.996093h-15c8.285156 0 15-6.71875 15-15 0-5.238281 0-63.703125 0-60 0-6.0625-3.644532-11.542969-9.257813-13.855469-5.609375-2.34375-12.054687-1.054688-16.347656 3.25-16.273438 16.273438-38.800781 25.605469-61.8125 25.605469h-32.578125c-16.570313 0-30 13.429687-30 30 0 16.566406 13.429687 30 30 30h-30c-16.566406 0-30 13.429687-30 29.996093 0 9.828126 5.039062 18.136719 12.34375 23.613282-43.902344 23.804687-77.734375 64.832031-93.132813 113.191406zm0 0"/><path d="m180.496094 279.4375c-8.871094-5.1875-19.007813-8.429688-30-8.429688-10.992188 0-21.128906 3.242188-30 8.429688v35.335938l32.707031 197.226562h27.292969zm0 0"/><path d="m270.492188 279.617188c-8.839844-5.277344-18.949219-8.609376-30-8.609376-10.992188 0-21.125 3.242188-29.996094 8.429688v232.5625h27.289062l32.707032-197.226562zm0 0"/><path d="m.5 346.003906c0 3.054688.609375 3.570313 1.5 6.597656l52.5 128.496094c6 18.601563 23.097656 30.902344 42.597656 30.902344h25.695313c-31.097657-187.335938-32.296875-192.902344-32.296875-195.996094v-36.566406c-8.871094-5.1875-19.003906-8.429688-29.996094-8.429688-33.089844 0-60 26.90625-60 59.996094zm0 0"/><path d="m389.589844 350.804688c.601562-1.5.898437-3.300782.898437-4.800782v-15c0-33.722656-28.085937-59.996094-59.996093-59.996094-11.011719 0-21.160157 3.300782-30 8.539063v36.457031c0 3.003906-3.289063 21.242188-32.296876 195.996094h25.699219c19.496094 0 36.597657-12.300781 42.597657-30.902344 7.488281-18.15625 53.097656-127.292968 53.097656-130.292968zm0 0"/></svg>