<svg height="512pt" viewBox="-16 0 512 512" width="512pt" xmlns="http://www.w3.org/2000/svg"><path d="m60 0c-33.136719 0-60 28.863281-60 62s26.863281 60 60 60 60-26.863281 60-60-26.863281-62-60-62zm0 0"/><path d="m480 422c0 49.707031-40.292969 90-90 90s-90-40.292969-90-90 40.292969-90 90-90 90 40.292969 90 90zm0 0"/><path d="m368.027344 113.96875c-29.289063-29.289062-76.773438-29.289062-106.0625 0-29.289063 29.289062-29.289063 76.777344 0 106.066406 29.289062 29.289063 76.773437 29.289063 106.0625 0 29.289062-29.289062 29.289062-76.777344 0-106.066406zm0 0"/><path d="m30 146.46875v104.230469l-25.5 25.800781c-3 2.699219-4.5 6.601562-4.5 10.5v120c0 24.898438 20.097656 45 45 45 24.738281 0 45-19.945312 45-45v-260.527344c-9.429688 3.363282-19.429688 5.527344-30 5.527344s-20.570312-2.167969-30-5.53125zm0 0"/><path d="m120 289v43h45c7.710938 0 15.074219 2.179688 21.605469 5.820312l78.792969-78.792968c-8.875-4.792969-17.320313-10.457032-24.652344-17.789063-7.324219-7.324219-12.984375-15.765625-17.777344-24.636719l-73.21875 72.398438zm0 0"/><path d="m201.300781 392-25.800781-25.5c-2.699219-3-6.601562-4.5-10.5-4.5h-45v45c0 16.949219-5.863281 32.425781-15.382812 45h169.644531c-2.507813-9.644531-4.261719-19.582031-4.261719-30s1.753906-20.355469 4.261719-30zm0 0"/></svg>