<svg height="512pt" viewBox="0 0 512 512.001" width="512pt" xmlns="http://www.w3.org/2000/svg"><path d="m232.210938 181-51.210938 51.210938v47.578124l51.210938 51.210938h47.578124l51.210938-51.210938v-47.578124l-51.210938-51.210938zm0 0"/><path d="m488.839844 208.832031c8.863281-15.835937 10.253906-35.140625 2.886718-52.484375-6.972656-16.390625-21.640624-28.503906-38.03125-33.71875 1.320313-17.15625-4.804687-34.367187-17.386718-46.9375-13.242188-13.226562-31.683594-19.128906-49.628906-16.667968-4.847657-17.609376-17.550782-33.34375-35.140626-40.449219-16.539062-6.691407-34.761718-6.875-50.039062 1.003906-22.414062-26.105469-68.585938-26.105469-90.996094 0-15.308594-7.882813-33.503906-7.699219-50.039062-1.003906-17.59375 7.105469-30.292969 22.839843-35.144532 40.449219-17.988281-2.375-36.371093 3.441406-49.628906 16.667968-12.582031 12.570313-18.703125 29.78125-17.386718 46.9375-16.390626 5.214844-31.058594 17.34375-38.046876 33.734375-7.351562 17.328125-5.960937 36.632813 2.902344 52.46875-14.339844 11.117188-23.160156 28.347657-23.160156 47.167969 0 18.824219 8.820312 36.050781 23.160156 47.167969-8.863281 15.835937-10.253906 35.144531-2.886718 52.484375 6.972656 16.394531 21.640624 28.507812 38.03125 33.722656-1.316407 17.152344 4.804687 34.363281 17.386718 46.933594 13.230469 13.226562 31.554688 20.042968 49.628906 17.671875 4.851563 17.605469 17.550782 32.34375 35.144532 39.445312 16.535156 6.710938 34.730468 5.566407 50.039062-2.3125 11.203125 13.050781 27.699219 20.886719 45.496094 20.886719s34.292969-7.835938 45.5-20.886719c15.277344 7.878907 33.5 9.023438 50.039062 2.3125 17.589844-7.105469 30.292969-21.839843 35.140626-39.449219 17.988281 2.449219 36.386718-4.425781 49.628906-17.667968 12.582031-12.570313 18.707031-29.78125 17.386718-46.933594 16.394532-5.214844 31.058594-17.34375 38.046876-33.734375 7.355468-17.332031 5.960937-36.636719-2.898438-52.472656 14.339844-11.117188 23.15625-28.34375 23.15625-47.167969 0-18.820312-8.816406-36.050781-23.160156-47.167969zm-110.464844-40.820312c7.175781-4.144531 16.347656-1.6875 20.492188 5.488281 4.140624 7.175781 1.683593 16.347656-5.492188 20.492188-7.171875 4.144531-16.347656 1.683593-20.488281-5.492188-4.144531-7.175781-1.683594-16.347656 5.488281-20.488281zm-60.394531-49.414063c4.144531-7.175781 13.316406-9.632812 20.492187-5.492187 7.175782 4.144531 9.632813 13.316406 5.488282 20.492187-4.140626 7.175782-13.3125 9.632813-20.488282 5.492188-7.175781-4.144532-9.632812-13.320313-5.492187-20.492188zm-62.007813-27.597656c8.285156 0 15 6.71875 15 15 0 8.285156-6.714844 15-15 15s-15-6.714844-15-15c0-8.28125 6.714844-15 15-15zm-82.5 22.105469c7.175782-4.140625 16.347656-1.683594 20.488282 5.492187 4.144531 7.175782 1.6875 16.347656-5.488282 20.492188-7.175781 4.140625-16.347656 1.679687-20.492187-5.492188-4.140625-7.175781-1.683594-16.347656 5.492187-20.492187zm-82.5 142.894531c0-8.28125 6.714844-15 15-15s15 6.71875 15 15c0 8.285156-6.714844 15-15 15s-15-6.714844-15-15zm42.597656 87.992188c-7.179687 4.144531-16.351562 1.683593-20.492187-5.492188-4.144531-7.175781-1.6875-16.347656 5.492187-20.488281 7.171876-4.144531 16.347657-1.6875 20.488282 5.488281s1.683594 16.347656-5.488282 20.492188zm5.488282-155.492188c-4.140625 7.175781-13.316406 9.632812-20.488282 5.492188-7.179687-4.144532-9.636718-13.316407-5.492187-20.492188 4.140625-7.175781 13.3125-9.632812 20.492187-5.488281 7.171876 4.140625 9.628907 13.316406 5.488282 20.488281zm54.902344 204.90625c-4.140626 7.171875-13.3125 9.628906-20.488282 5.488281-7.175781-4.140625-9.632812-13.316406-5.492187-20.488281 4.140625-7.175781 13.316406-9.632812 20.492187-5.492188 7.175782 4.140626 9.632813 13.316407 5.488282 20.492188zm62.011718 27.59375c-8.285156 0-15-6.714844-15-15 0-8.28125 6.714844-15 15-15s15 6.71875 15 15c0 8.285156-6.714844 15-15 15zm82.5-22.105469c-7.175781 4.140625-16.347656 1.683594-20.492187-5.488281-4.140625-7.175781-1.683594-16.351562 5.492187-20.492188 7.175782-4.140624 16.347656-1.683593 20.488282 5.492188 4.144531 7.171875 1.6875 16.347656-5.488282 20.488281zm22.527344-112.894531c0 3.984375-1.582031 7.792969-4.394531 10.605469l-60 60c-2.8125 2.8125-6.621094 4.394531-10.605469 4.394531h-60c-3.984375 0-7.792969-1.582031-10.605469-4.394531l-60-60c-2.8125-2.8125-4.394531-6.621094-4.394531-10.605469v-60c0-3.984375 1.582031-7.792969 4.394531-10.605469l60-60c2.8125-2.8125 6.621094-4.394531 10.605469-4.394531h60c3.984375 0 7.792969 1.582031 10.605469 4.394531l60 60c2.8125 2.8125 4.394531 6.621094 4.394531 10.605469zm37.867188 52.5c-4.144532 7.175781-13.316407 9.632812-20.492188 5.492188-7.171875-4.144532-9.628906-13.316407-5.488281-20.492188s13.3125-9.632812 20.488281-5.488281c7.175781 4.140625 9.632812 13.316406 5.492188 20.488281zm7.105468-67.5c-8.285156 0-15-6.714844-15-15 0-8.28125 6.714844-15 15-15s15 6.71875 15 15c0 8.285156-6.714844 15-15 15zm0 0"/></svg>