<svg height="512pt" viewBox="0 0 512 512" width="512pt" xmlns="http://www.w3.org/2000/svg"><path d="m137 181c24.8125 0 45-20.1875 45-45v-45h-90v45c0 24.8125 20.1875 45 45 45zm0 0"/><path d="m242 106c0-8.277344-6.722656-15-15-15h-15v30h15c8.277344 0 15-6.722656 15-15zm0 0"/><path d="m15 452h257v-2.761719c-17.421875-6.214843-30-22.707031-30-42.238281 0-27.890625 8.75-53.582031 23.351562-75h-188.351562c-8.289062 0-15-6.710938-15-15s6.710938-15 15-15h216.273438c11.578124-9.164062 24.546874-16.652344 38.726562-21.707031v-265.292969c0-8.289062-6.710938-15-15-15h-302c-8.289062 0-15 6.710938-15 15v422c0 8.289062 6.710938 15 15 15zm47-376c0-8.289062 6.710938-15 15-15h150c24.8125 0 45 20.1875 45 45s-20.1875 45-45 45h-16.519531c-6.96875 34.191406-37.265625 60-73.480469 60-41.351562 0-75-33.648438-75-75zm15 166h180c8.289062 0 15 6.710938 15 15s-6.710938 15-15 15h-180c-8.289062 0-15-6.710938-15-15s6.710938-15 15-15zm0 120h120c8.289062 0 15 6.710938 15 15s-6.710938 15-15 15h-120c-8.289062 0-15-6.710938-15-15s6.710938-15 15-15zm0 0"/><path d="m497 482h-15v-30h-180v30h-15c-8.289062 0-15 6.710938-15 15s6.710938 15 15 15h210c8.289062 0 15-6.710938 15-15s-6.710938-15-15-15zm0 0"/><path d="m407 302v-15c0-8.289062-6.710938-15-15-15s-15 6.710938-15 15v15c-57.988281 0-105 47.011719-105 105 0 8.285156 6.714844 15 15 15h210c8.285156 0 15-6.714844 15-15 0-57.988281-47.011719-105-105-105zm0 0"/></svg>