<svg height="512pt" viewBox="0 0 512 512" width="512pt" xmlns="http://www.w3.org/2000/svg"><path d="m497 121h-60c-8.289062 0-15 6.710938-15 15v60c0 3.984375 1.582031 7.792969 4.394531 10.605469l25.605469 25.605469v68.789062c0 16.5-13.5 30-30 30s-30-13.5-30-30v-180c0-66.300781-54.699219-121-121-121-55.800781 0-102.898438 39.097656-116.101562 91h31.5c12.300781-34.800781 45.601562-61 84.601562-61 49.5 0 91 41.5 91 91v180c0 33 27 60 60 60s60-27 60-60v-68.789062l25.605469-25.605469c2.8125-2.8125 4.394531-6.621094 4.394531-10.605469v-60c0-8.289062-6.710938-15-15-15zm0 0"/><path d="m178.480469 337.679688c4.597656 6.898437 2.738281 16.203124-4.160157 20.800781l-48.78125 32.519531h10.460938c52.808594 0 96.636719-39.183594 103.929688-90h-43.929688c-46.96875 0-86.664062 31.0625-100.042969 73.667969l61.722657-41.148438c6.914062-4.597656 16.214843-2.753906 20.800781 4.160157zm0 0"/><path d="m46 512h240c24.902344 0 46-20.101562 46-45v-288.699219c0-12-4.800781-23.101562-13.199219-31.800781l-43.300781-42.300781c-1.40625-1.359375-2.972656-2.460938-4.5-3.628907v95.429688c0 24.8125-20.1875 45-45 45h-120c-24.8125 0-45-20.1875-45-45v-95.429688c-1.527344 1.167969-3.09375 2.269532-4.5 3.628907l-43.300781 42.300781c-8.398438 8.699219-13.199219 19.800781-13.199219 31.800781v288.699219c0 24.898438 21.097656 45 46 45zm15-106c0-.972656.265625-1.871094.285156-2.839844.011719-.046875.003906-.09375.015625-.136718 1.628907-73.042969 61.273438-132.023438 134.699219-132.023438h60c8.289062 0 15 6.710938 15 15 0 74.441406-60.558594 135-135 135h-45v15c0 8.289062-6.710938 15-15 15s-15-6.710938-15-15zm0 0"/><path d="m181 151h15c8.289062 0 15 6.710938 15 15s-6.710938 15-15 15h-60c-8.289062 0-15-6.710938-15-15s6.710938-15 15-15h15v-30c0-10.5 1.199219-20.398438 3.898438-30h-63.898438v105c0 8.277344 6.722656 15 15 15h120c8.277344 0 15-6.722656 15-15v-105h-54.601562c-3.597657 9.300781-5.398438 19.5-5.398438 30zm0 0"/></svg>