<svg height="512pt" viewBox="0 0 512 512" width="512pt" xmlns="http://www.w3.org/2000/svg"><path d="m53.5 212c28.996094 0 52.5-23.503906 52.5-52.5v-7.5h-106v7.5c0 28.996094 24.503906 52.5 53.5 52.5zm0 0"/><path d="m241 159.5v-7.5h-105v7.5c0 28.996094 23.503906 52.5 52.5 52.5s52.5-23.503906 52.5-52.5zm0 0"/><path d="m271 159.5c0 28.996094 23.503906 52.5 52.5 52.5s52.5-23.503906 52.5-52.5v-7.5h-105zm0 0"/><path d="m406 159.5c0 28.996094 23.503906 52.5 52.5 52.5s53.5-23.503906 53.5-52.5v-7.5h-106zm0 0"/><path d="m376 47c0-24.8125-20.1875-47-45-47h-120c-8.285156 0-15 6.714844-15 15v47c0 33.136719 26.863281 60 60 60 22.152344 0 41.285156-12.140625 51.679688-30h23.320312c24.8125 0 45-20.1875 45-45zm-60-16h15c8.277344 0 15 7.722656 15 16s-6.722656 15-15 15h-15zm0 0"/><path d="m166 62h-125.730469c-5.679687 0-10.875 3.210938-13.414062 8.289062l-26.855469 51.710938h189.40625c-14.390625-15.960938-23.40625-36.867188-23.40625-60zm0 0"/><path d="m471.730469 62h-67.25c-6.96875 34.191406-37.265625 60-73.480469 60h181l-26.855469-51.710938c-2.539062-5.078124-7.734375-8.289062-13.414062-8.289062zm0 0"/><path d="m376 422h-15v30h120v-60h-15c-52.753906 0-96.128906-39.25-103.484375-90h-33.03125c-6.640625 45.808594-42.675781 81.84375-88.484375 88.484375v61.515625h90v-30h-15c-8.289062 0-15-6.710938-15-15s6.710938-15 15-15h60c8.289062 0 15 6.710938 15 15s-6.710938 15-15 15zm0 0"/><path d="m241 302v58.480469c29.34375-5.976563 52.503906-29.136719 58.480469-58.480469zm0 0"/><path d="m391 206.679688c-14.933594 21.296874-39.566406 35.320312-67.5 35.320312s-52.566406-14.023438-67.5-35.320312c-14.933594 21.296874-39.566406 35.320312-67.5 35.320312s-52.566406-14.023438-67.5-35.320312c-14.933594 21.296874-39.566406 35.320312-67.5 35.320312-7.851562 0-15.300781-1.453125-22.5-3.511719v33.511719h135c8.289062 0 15 6.710938 15 15v225h285c8.289062 0 15-6.710938 15-15v-15h-255c-8.289062 0-15-6.710938-15-15v-180c0-8.289062 6.710938-15 15-15h255v-33.511719c-7.199219 2.058594-14.648438 3.511719-22.5 3.511719-27.933594 0-52.566406-14.023438-67.5-35.320312zm0 0"/><path d="m466 362h15v-60h-88.480469c6.96875 34.191406 37.265625 60 73.480469 60zm0 0"/><path d="m136 392h15v-90h-120v195c0 8.289062 6.710938 15 15 15h105v-90h-15c-8.289062 0-15-6.710938-15-15s6.710938-15 15-15zm0 0"/></svg>