<svg height="512pt" viewBox="-46 0 512 512" width="512pt" xmlns="http://www.w3.org/2000/svg"><path d="m375 362h-5.984375c.058594-3.808594.347656-7.589844-.035156-11.441406-1.773438-17.941406-8.683594-34.328125-18.839844-48.558594h-190.386719c-10.144531 14.214844-16.964844 30.636719-18.734375 48.558594-2.558593 25.828125 5.023438 50.933594 20.179688 71.441406h187.601562c6.773438-9.164062 11.765625-19.34375 15.285157-30h10.914062c24.8125 0 45-20.1875 45-45v-60c0-24.8125-20.1875-45-45-45h-45v-15c0-8.289062-6.710938-15-15-15h-150c-5.199219 0-10.019531 2.695312-12.757812 7.117188-2.738282 4.425781-2.988282 9.949218-.660157 14.59375l19.144531 38.289062h204.273438c8.277344 0 15 6.722656 15 15v60c0 8.277344-6.722656 15-15 15zm0 0"/><path d="m0 482c0 16.566406 13.429688 30 30 30h375c8.285156 0 15-6.714844 15-15v-15c0-16.570312-13.429688-30-30-30h-390zm0 0"/><path d="m0 121h90v301h-90zm0 0"/><path d="m0 91h210v45c0 8.289062 6.710938 15 15 15h15v31h30v-31h15c8.289062 0 15-6.710938 15-15v-45h75c24.851562 0 45-20.148438 45-45v-31c0-8.285156-6.714844-15-15-15h-360c-24.851562 0-45 21.148438-45 46zm0 0"/></svg>