<svg height="511pt" viewBox="-60 0 511 511.99984" width="511pt" xmlns="http://www.w3.org/2000/svg"><path d="m145.238281 166.765625c-7.367187 20.949219 2.757813 45.179687 18.632813 61.054687 15.921875 15.921876 40.167968 25.996094 61.058594 18.636719zm0 0"/><path d="m195.6875 391.003906c3.605469 0 7.207031-1.289062 10.0625-3.882812l33.121094-29.957032 43.664062 9.390626c7.441406 1.609374 15.058594-2.726563 17.433594-10.0625l13.710938-42.496094 42.492187-13.710938c7.339844-2.371094 11.691406-9.902344 10.0625-17.429687l-9.386719-43.667969 29.953125-33.121094c5.171875-5.710937 5.171875-14.414062 0-20.125l-29.953125-33.121094 9.386719-43.664062c1.628906-7.53125-2.722656-15.058594-10.0625-17.433594l-42.492187-14.710937-13.710938-42.492188c-2.375-7.339843-9.960938-11.691406-17.433594-10.0625l-43.664062 9.386719-33.121094-29.953125c-5.710938-5.1875-14.414062-5.1875-20.125 0l-33.121094 29.953125-43.667968-9.386719c-7.46875-1.65625-15.070313 2.722657-17.429688 10.0625l-13.710938 42.492188-42.492187 14.710937c-7.339844 2.375-11.691406 9.902344-10.0625 17.433594l9.386719 43.667969-29.953125 33.117187c-5.171875 5.714844-5.171875 14.414063 0 20.128906l29.953125 33.117188-9.386719 43.667969c-1.628906 7.527343 2.722656 15.058593 10.0625 17.429687l42.492187 13.710938 13.710938 42.496094c2.375 7.335937 9.992188 11.703124 17.433594 10.0625l43.664062-9.390626 33.121094 29.957032c2.855469 2.59375 6.457031 3.882812 10.0625 3.882812zm-53.027344-141.972656c-32.921875-32.890625-41.914062-85.347656-10.605468-116.65625 31.261718-31.261719 83.667968-22.390625 116.660156 10.605469 33.027344 33.023437 41.835937 85.425781 10.605468 116.65625-31.417968 31.417969-83.957031 22.125-116.660156-10.605469zm0 0"/><path d="m227.503906 164.1875c-16.058594-16.058594-40.074218-25.972656-61.03125-18.605469l79.664063 79.660157c7.367187-20.949219-2.757813-45.175782-18.632813-61.054688zm0 0"/><path d="m266.9375 511.636719c.21875 0 .4375 0 .65625-.011719 6.050781-.265625 11.367188-4.160156 13.433594-9.859375l23.894531-66.277344 65.636719 23.894531c5.683594 2.105469 12.085937.511719 16.1875-3.957031 4.101562-4.480469 5.097656-10.972656 2.535156-16.476562l-47.757812-102.414063-4.011719 1.296875-8.992188 27.875c-6.035156 18.660157-23.246093 31.1875-42.847656 31.1875-3.179687 0-6.371094-.339843-9.476563-1.011719l-28.609374-6.152343-21.707032 19.644531c-3.640625 3.300781-7.90625 5.671875-12.339844 7.605469l39.804688 86.003906c2.476562 5.300781 7.777344 8.652344 13.59375 8.652344zm0 0"/><path d="m20.625 459.378906 65.652344-23.890625 23.894531 66.277344c3.722656 10.273437 17.109375 10.917969 14.089844 9.871094 5.816406 0 11.117187-3.351563 13.59375-8.65625l39.847656-86.089844c-4.386719-1.9375-8.621094-4.277344-12.234375-7.5625l-21.679688-19.601563-28.636718 6.152344c-3.003906.660156-6.242188 1.011719-9.464844 1.023438-19.582031 0-36.796875-12.539063-42.832031-31.183594l-8.992188-27.890625-4.175781-1.347656-47.78125 102.464843c-2.5625 5.507813-1.566406 11.996094 2.535156 16.480469 4.101563 4.46875 10.515625 6.09375 16.183594 3.953125zm0 0"/></svg>