<svg height="512pt" viewBox="0 -31 512 512" width="512pt" xmlns="http://www.w3.org/2000/svg"><path d="m482 300h-452c-16.570312 0-30 13.429688-30 30v15c0 8.285156 6.714844 15 15 15h482c8.285156 0 15-6.714844 15-15v-15c0-16.570312-13.429688-30-30-30zm0 0"/><path d="m121 180c8.277344 0 15-6.722656 15-15s-6.722656-15-15-15-15 6.722656-15 15 6.722656 15 15 15zm0 0"/><path d="m235.273438 60-25.855469-51.710938c-2.550781-5.082031-7.734375-8.289062-13.417969-8.289062h-151c-5.683594 0-10.867188 3.207031-13.417969 8.289062l-25.855469 51.710938zm0 0"/><path d="m.203125 227.460938 7.09375 42.539062h226.347656l7.355469-45v-135h-240.9804688zm120.796875-107.460938c24.8125 0 45 20.1875 45 45s-20.1875 45-45 45-45-20.1875-45-45 20.1875-45 45-45zm0 0"/><path d="m391 180c8.277344 0 15-6.722656 15-15s-6.722656-15-15-15-15 6.722656-15 15 6.722656 15 15 15zm0 0"/><path d="m480.417969 8.289062c-2.550781-5.082031-7.734375-8.289062-13.417969-8.289062h-151c-5.683594 0-10.867188 3.207031-13.417969 8.289062l-25.855469 51.710938h229.546876zm0 0"/><path d="m271.203125 227.460938 7.09375 42.539062h226.347656l7.355469-45v-135h-240.980469zm119.796875-107.460938c24.8125 0 45 20.1875 45 45s-20.1875 45-45 45-45-20.1875-45-45 20.1875-45 45-45zm0 0"/><path d="m341.414062 450h99.171876c22.101562 0 41.765624-15.820312 45.382812-37.589844l3.742188-22.410156h-196.421876l3.742188 22.398438c3.617188 21.78125 22.28125 37.601562 44.382812 37.601562zm0 0"/><path d="m214.96875 412.410156 3.742188-22.410156h-196.421876l3.742188 22.398438c3.617188 21.78125 22.28125 37.601562 44.382812 37.601562h100.171876c22.101562 0 40.765624-15.820312 44.382812-37.589844zm0 0"/></svg>