<svg height="512pt" viewBox="0 0 512.00044 512" width="512pt" xmlns="http://www.w3.org/2000/svg"><path d="m307.578125 299.996094h-292.574219c-4.351562 0-8.480468 1.890625-11.335937 5.171875-2.84375 3.28125-4.132813 7.648437-3.515625 11.953125l26.320312 156.246094c3.148438 22.019531 22.296875 38.628906 44.546875 38.628906h128.96875c22.25 0 41.394531-16.609375 44.542969-38.628906l3.648438-21.371094h44.398437c20.683594 0 38.644531-14.019532 43.652344-34.085938l15-62c7.113281-28.449218-14.40625-55.914062-43.652344-55.914062zm14.5625 48.648437-15 61.984375c-1.683594 6.695313-7.660156 11.367188-14.5625 11.367188h-39.277344l15.359375-92h38.917969c9.710937 0 16.941406 9.132812 14.5625 18.648437zm0 0"/><path d="m497 0h-166c-39.128906 0-72.085938 25.125-84.488281 60h-50.507813c-8.285156 0-15 6.714844-15 15v30c0 8.285156 6.714844 15 15 15h50.507813c12.398437 34.875 45.359375 60 84.488281 60h30v-75c0-8.292969 6.710938-15 15-15h136v-75c0-8.285156-6.714844-15-15-15zm0 0"/><path d="m391 180h106c8.285156 0 15-6.71875 15-15v-45h-121zm0 0"/><path d="m211.003906 195v-45h-15c-11.492187 0-21.878906-4.460938-29.839844-11.574219-12.988281 7.261719-27.589843 11.574219-42.582031 11.574219h-32.578125c-16.570312 0-30 13.429688-30 30 0 16.566406 13.429688 30 30 30h-30c-16.570312 0-30 13.429688-30 30 0 16.566406 13.429688 30 30 30h150c16.566406 0 30-13.433594 30-30 0-16.570312-13.433594-30-30-30h-15c8.28125 0 15-6.71875 15-15zm0 0"/></svg>