<svg height="512pt" viewBox="-16 0 512 512" width="512pt" xmlns="http://www.w3.org/2000/svg"><path d="m336.710938 24.871094c-7.675782-15.335938-23.097657-24.871094-40.253907-24.871094h-82.910156c-17.152344 0-32.578125 9.535156-40.253906 24.871094l-17.5625 35.128906h198.546875zm0 0"/><path d="m240.003906 300v-30h-15c-8.292968 0-15-6.710938-15-15s6.707032-15 15-15h60c8.289063 0 15 6.710938 15 15s-6.710937 15-15 15h-15v30h143.570313c22.25 0 41.394531-16.609375 44.546875-38.628906l21.429687-120c3.863281-27.089844-17.164062-51.371094-44.546875-51.371094h-313.242187l26.25 210zm144.488282-180h50.511718c9.257813 0 16.125 8.214844 14.839844 17.125l-21.429688 120c-1.042968 7.339844-7.429687 12.875-14.839843 12.875h-47.832031zm0 0"/><path d="m255.003906 391c-8.277344 0-15 6.722656-15 15s6.722656 15 15 15c8.273438 0 15-6.722656 15-15s-6.722656-15-15-15zm0 0"/><path d="m405.003906 482h-17.304687l-24.992188-152h-215.410156l-24.992187 152h-17.300782c-8.292968 0-15 6.710938-15 15s6.707032 15 15 15h300c8.289063 0 15-6.710938 15-15s-6.710937-15-15-15zm-150-31c-24.816406 0-45-20.1875-45-45s20.183594-45 45-45c24.8125 0 45 20.1875 45 45s-20.1875 45-45 45zm0 0"/><path d="m107.257812 218.46875c.105469.101562.246094.132812.355469.234375l-16.085937-128.703125h-76.523438c-6.066406 0-11.542968 3.648438-13.859375 9.257812-2.328125 5.609376-1.039062 12.054688 3.253907 16.347657zm0 0"/></svg>