<svg height="512pt" viewBox="-61 0 512 512" width="512pt" xmlns="http://www.w3.org/2000/svg"><path d="m226.816406 253.183594c-17.957031-17.953125-46.5-34.175782-70.933594-28.511719l99.273438 99.273437c5.625-24.839843-10.332031-52.753906-28.339844-70.761718zm0 0"/><path d="m233.945312 345.15625-99.101562-99.101562c-5.625 24.839843 10.335938 52.753906 28.339844 70.761718 18.054687 18.054688 45.972656 33.957032 70.761718 28.339844zm0 0"/><path d="m0 289.863281v131.136719h390v-131.136719c0-57.679687-8.785156-114.644531-25.132812-169.863281h-124.867188v15c0 3.984375-1.582031 7.792969-4.394531 10.605469l-30 30c-2.929688 2.929687-6.769531 4.394531-10.605469 4.394531s-7.675781-1.464844-10.605469-4.394531l-30-30c-2.8125-2.8125-4.394531-6.621094-4.394531-10.605469v-15h-124.867188c-16.347656 55.21875-25.132812 112.183594-25.132812 169.863281zm120.761719-79.101562c33.949219-33.984375 92.347656-13.707031 127.265625 21.210937 35.292968 35.292969 54.957031 93.554688 21.210937 127.265625-33.496093 33.542969-91.972656 14.109375-127.265625-21.210937-35.199218-35.171875-55.011718-93.5-21.210937-127.265625zm0 0"/><path d="m315 0h-75v90h120v-45c0-24.8125-20.1875-45-45-45zm0 0"/><path d="m390 497v-46h-390v46c0 8.289062 6.710938 15 15 15h360c8.289062 0 15-6.710938 15-15zm0 0"/><path d="m30 90h120v-90h-75c-24.8125 0-45 20.1875-45 45zm0 0"/><path d="m195 143.789062 15-15v-128.789062h-30v128.789062zm0 0"/></svg>