<svg height="512pt" viewBox="0 0 512 512" width="512pt" xmlns="http://www.w3.org/2000/svg"><path d="m181 60c16.570312 0 30-13.429688 30-30s-13.429688-30-30-30h-121c-16.570312 0-30 13.429688-30 30s13.429688 30 30 30zm0 0"/><path d="m452 0h-121c-16.570312 0-30 13.429688-30 30s13.429688 30 30 30h121c16.570312 0 30-13.429688 30-30s-13.429688-30-30-30zm0 0"/><path d="m511.535156 270h-240.070312c-.148438 3.289062-.464844 6.546875-.464844 9.859375v50.140625h241v-50.140625c0-3.3125-.320312-6.570313-.464844-9.859375zm0 0"/><path d="m241 279.859375c0-3.3125-.320312-6.570313-.464844-9.859375h-240.070312c-.144532 3.289062-.464844 6.546875-.464844 9.859375v50.140625h241zm0 0"/><path d="m331 90v38.90625c-29.496094 31.1875-48.777344 69.570312-56.339844 111.09375h233.679688c-7.5625-41.523438-26.84375-79.90625-56.339844-111.09375v-38.90625zm0 0"/><path d="m237.339844 240c-7.5625-41.523438-26.84375-79.90625-56.339844-111.09375v-38.90625h-121v38.90625c-29.496094 31.1875-48.777344 69.570312-56.339844 111.09375zm0 0"/><path d="m0 467c0 24.8125 20.1875 45 45 45h422c24.8125 0 45-20.1875 45-45v-107h-512zm0 0"/></svg>