<svg height="512pt" viewBox="0 -31 512.00257 512" width="512pt" xmlns="http://www.w3.org/2000/svg"><path d="m422 60c-24.824219 0-47.902344 10.691406-64.761719 28.386719-16.175781-9.804688-33.789062-17.511719-52.636719-22.265625-8.035156 10.5625-19.4375 18.371094-32.597656 21.839844v40.828124l55.605469 55.605469c2.8125 2.8125 4.394531 6.621094 4.394531 10.605469v44.996094h118.710938c-.121094-1.578125-.574219-3.050782-.730469-4.621094 36.574219-11.867188 62.019531-45.761719 62.019531-85.375-.003906-49.628906-40.375-90-90.003906-90zm22.621094 145.449219c-10.394532-39.527344-32.707032-74.109375-63.054688-99.628907 10.949219-10.019531 25.277344-15.820312 40.433594-15.820312 33.09375 0 60 26.910156 60 60 0 24.953125-15.164062 46.457031-37.378906 55.449219zm0 0"/><path d="m212.003906 201.210938v68.789062h90v-68.789062l-45-45zm0 0"/><path d="m108.109375 126.855469-51.503906-34.335938c-6.929688-4.613281-16.230469-2.738281-20.800781 4.160157l-33.28125 49.921874c-4.597657 6.898438-2.738282 16.199219 4.160156 20.800782l59.3125 39.535156c-2.753906 10.804688-4.210938 21.886719-5.066406 33.0625h121.074218v-45c0-3.984375 1.582032-7.792969 4.394532-10.605469l55.605468-55.601562v-40.824219c-13.191406-3.476562-24.617187-11.316406-32.65625-21.910156-38.257812 9.558594-74.773437 30.375-101.238281 60.796875zm0 0"/><path d="m332.003906 285c0 8.289062-6.710937 15-15 15h-120c-8.292968 0-15-6.710938-15-15v-15h-120.894531c2.558594 32.125 12.71875 62.980469 30.074219 89.996094h329.640625c17.359375-27.023438 27.515625-57.875 30.070312-89.996094h-118.890625zm0 0"/><path d="m30.003906 434.996094c0 8.285156 6.71875 15 15 15h421.996094c8.285156 0 15-6.714844 15-15 0-24.851563-20.144531-45-45-45h-361.996094c-24.851562 0-45 20.148437-45 45zm0 0"/><path d="m287.003906 30c0 16.570312-13.433594 30-30 30-16.570312 0-30-13.429688-30-30 0-16.566406 13.429688-30 30-30 16.566406 0 30 13.433594 30 30zm0 0"/></svg>