<svg height="512pt" viewBox="0 -31 512 512" width="512pt" xmlns="http://www.w3.org/2000/svg"><path d="m424.761719 60c6.214843 17.421875 22.707031 30 42.238281 30 24.8125 0 45-20.1875 45-45s-20.1875-45-45-45c-19.53125 0-36.023438 12.578125-42.238281 30h-337.523438c-6.214843-17.421875-22.707031-30-42.238281-30-24.8125 0-45 20.1875-45 45s20.1875 45 45 45c19.53125 0 36.023438-12.578125 42.238281-30h32.761719v60h30v-60h212v60h30v-60zm0 0"/><path d="m180 345c0 8.398438 6.597656 15 15 15h92c8.402344 0 15-6.601562 15-15v-105h-122zm0 0"/><path d="m332 270v60c16.539062 0 30-13.460938 30-30s-13.460938-30-30-30zm0 0"/><path d="m377 180c-8.402344 0-15-6.601562-15-15v-45h-212v45c0 8.398438-6.597656 15-15 15s-15-6.601562-15-15v-45h-75c-24.902344 0-45 20.097656-45 45v240c0 24.898438 20.097656 45 45 45h422c24.902344 0 45-20.101562 45-45v-240c0-24.902344-20.097656-45-45-45h-75v45c0 8.398438-6.597656 15-15 15zm-302.027344 210c-8.285156 0-15-6.714844-15-15s6.714844-15 15-15 15 6.714844 15 15-6.714844 15-15 15zm0-180c-8.285156 0-15-6.714844-15-15s6.714844-15 15-15 15 6.714844 15 15-6.714844 15-15 15zm257.027344 150h-2.699219c-6 17.398438-22.800781 30-42.300781 30h-92c-24.902344 0-45-20.101562-45-45v-120c0-8.402344 6.597656-15 15-15h152c8.402344 0 15 6.597656 15 15v15c33.089844 0 60 26.910156 60 60s-26.910156 60-60 60zm104.972656-180c8.285156 0 15 6.714844 15 15s-6.714844 15-15 15-15-6.714844-15-15 6.714844-15 15-15zm0 180c8.285156 0 15 6.714844 15 15s-6.714844 15-15 15-15-6.714844-15-15 6.714844-15 15-15zm0 0"/></svg>