<svg height="512pt" viewBox="0 0 512.0003 512" width="512pt" xmlns="http://www.w3.org/2000/svg"><path d="m8.296875 510.40625c7.480469 3.714844 16.433594.652344 20.125-6.707031l46.582031-93.164063 46.582032 93.164063c3.6875 7.351562 12.640624 10.425781 20.125 6.707031 7.414062-3.703125 10.414062-12.714844 6.710937-20.125l-49.144531-98.289062h35.726562c8.28125 0 15-6.714844 15-15 0-74.558594-60.441406-134.996094-135-134.996094-8.28125 0-14.99999975 6.710937-14.99999975 15v119.996094c0 8.285156 6.71874975 15 14.99999975 15h35.730469l-49.148437 98.289062c-3.703126 7.410156-.703126 16.421875 6.710937 20.125zm0 0"/><path d="m32.554688 97.691406c-2.390626 3.589844-3.121094 8.011719-2.023438 12.171875 1.113281 4.160157 3.941406 7.632813 7.792969 9.566407 35.011719 17.511718 75.726562 20.320312 112.582031 8.445312-.675781-5.433594-1.078125-10.941406-.683594-16.648438 2.980469-43.429687 37.378906-85.480468 64.175782-111.226562h-1.234376c-72.769531 0-140.285156 37.152344-180.609374 97.691406zm0 0"/><path d="m255.765625 4.261719c-21.019531 17.285156-72.570313 64.234375-75.617187 109.058593-.328126 4.773438.035156 9.351563.855468 13.816407l26.84375 8.949219c10.425782 3.472656 22.253906 5.3125 33.152344 6.40625v159.5h-79.214844c9.394532 18.3125 15.507813 38.542968 17.457032 60h61.757812v119.996093h-46c-8.289062 0-15 6.710938-15 15 0 8.289063 6.710938 15 15 15h121.996094c8.292968 0 15-6.710937 15-15 0-8.289062-6.707032-15-15-15h-45.996094v-119.996093h61.757812c1.945313-21.457032 8.0625-41.6875 17.453126-60h-79.210938v-159.5c10.898438-1.09375 22.726562-2.933594 33.152344-6.40625l27.089844-9.03125c7.214843-46.367188-52.59375-103.097657-75.476563-122.792969zm0 0"/><path d="m473.703125 119.414062c3.855469-1.917968 6.679687-5.402343 7.792969-9.5625 1.101562-4.160156.367187-8.597656-2.019532-12.171874-40.355468-60.542969-107.898437-97.679688-180.640624-97.679688h-2.171876c29.96875 29.378906 70.074219 79.570312 64.742188 127.992188 36.757812 11.738281 77.335938 8.871093 112.296875-8.578126zm0 0"/><path d="m496.996094 241.996094c-74.558594 0-135 60.4375-135 134.996094 0 8.285156 6.71875 15 15 15h35.730468l-49.148437 98.289062c-3.703125 7.410156-.703125 16.421875 6.710937 20.125 7.480469 3.714844 16.433594.652344 20.125-6.707031l46.582032-93.164063 46.582031 93.164063c3.6875 7.351562 12.640625 10.425781 20.125 6.707031 7.414063-3.703125 10.414063-12.714844 6.710937-20.125l-49.144531-98.289062h35.726563c8.28125 0 15-6.714844 15-15v-119.996094c0-8.289063-6.71875-15-15-15zm0 0"/></svg>