<svg height="512pt" viewBox="-61 0 512 512" width="512pt" xmlns="http://www.w3.org/2000/svg"><path d="m225 0h-180c-8.402344 0-15 6.597656-15 15 0 3 .300781 6 .601562 9 4.199219 37.199219 36 66 74.398438 66h90c8.402344 0 15-6.601562 15-15 0-8.402344 6.597656-15 15-15s15 6.597656 15 15c0 8.398438 6.597656 15 15 15h45v-15c0-41.398438-33.601562-75-75-75zm0 0"/><path d="m180 497v15h60v-60h-15c-24.8125 0-45 20.1875-45 45zm0 0"/><path d="m240 407c0-8.277344-6.722656-15-15-15h-15v30h15c8.277344 0 15-6.722656 15-15zm0 0"/><path d="m390 377c0-52.644531-30.582031-98.855469-74.644531-121.105469-22.164063 44.320313-67.523438 75.105469-120.355469 75.105469s-98.191406-30.785156-120.355469-75.105469c-44.0625 22.25-74.644531 68.460938-74.644531 121.105469v90c0 24.8125 20.1875 45 45 45h90c-41.351562 0-75-33.648438-75-75v-60c0-8.289062 6.710938-15 15-15h150c24.8125 0 45 20.1875 45 45 0 5.285156-1.082031 10.285156-2.761719 15h32.761719v-45c0-8.289062 6.710938-15 15-15s15 6.710938 15 15v60c0 8.289062-6.710938 15-15 15h-45v60h75c24.8125 0 45-20.1875 45-45zm0 0"/><path d="m90 437c0 24.8125 20.1875 45 45 45 6.207031 0 12.152344-1.640625 17.765625-4.074219 4.351563-16.425781 14.050781-30.5625 27.234375-40.542969v-45.382812h-90zm0 0"/><path d="m175.019531 241-21.335937 51.46875c12.695312 5.460938 26.644531 8.53125 41.316406 8.53125s28.621094-3.070312 41.316406-8.53125l-21.335937-51.46875zm0 0"/><path d="m262.023438 276.140625c23.007812-19.277344 37.976562-47.851563 37.976562-80.140625v-76h-45c-11.515625 0-22.03125-4.351562-30-11.484375-7.96875 7.132813-18.484375 11.484375-30 11.484375h-105v76c0 32.289062 14.96875 60.863281 37.976562 80.140625l23.167969-55.882813c2.328125-5.609374 7.792969-9.257812 13.855469-9.257812h60c6.0625 0 11.527344 3.648438 13.855469 9.257812zm0 0"/></svg>