<svg height="512pt" viewBox="-46 0 512 512" width="512pt" xmlns="http://www.w3.org/2000/svg"><path d="m420 45c0-8.289062-6.710938-15-15-15h-47.753906c-6.199219-17.4375-22.679688-30-42.246094-30h-240c-24.851562 0-45 20.148438-45 45 0 8.285156 6.714844 15 15 15h360c8.289062 0 15-6.710938 15-15zm0 0"/><path d="m390 227c0-8.285156-6.714844-15-15-15h-360c-8.285156 0-15 6.714844-15 15 0 24.851562 20.148438 45 45 45h300c24.851562 0 45-20.148438 45-45zm0 0"/><path d="m330 302h-109.011719c9.164063 17.894531 19.011719 26.8125 19.011719 45 0 24.8125-20.1875 45-45 45s-45-20.1875-45-45c0-18.207031 9.832031-27.070312 19.011719-45h-109.011719v120h270zm0 0"/><path d="m210 347c0-6.726562-3.238281-8.550781-15-30.015625-11.742188 21.429687-15 23.277344-15 30.015625 0 8.277344 6.722656 15 15 15s15-6.722656 15-15zm0 0"/><path d="m328.480469 452h-266.960938c6.96875 34.191406 37.265625 60 73.480469 60h120c36.214844 0 66.511719-25.808594 73.480469-60zm0 0"/><path d="m60 90h270v92h-270zm0 0"/></svg>