<svg height="512pt" viewBox="0 0 512.00148 512" width="512pt" xmlns="http://www.w3.org/2000/svg"><path d="m331.246094 329.246094c11.71875-11.714844 11.71875-30.710938 0-42.425782l-106.066406-106.066406c-11.714844-11.714844-30.707032-11.714844-42.425782 0-11.714844 11.714844-11.714844 30.710938 0 42.425782l106.066406 106.066406c11.714844 11.714844 30.710938 11.714844 42.425782 0zm0 0"/><path d="m337.898438 4.398438c-3.40625-3.410157-8.246094-4.972657-13.007813-4.207032-4.757813.777344-8.867187 3.792969-11.011719 8.113282l-18.976562 37.949218 170.84375 170.84375 37.953125-18.972656c4.320312-2.144531 7.332031-6.257812 8.113281-11.011719.761719-4.765625-.800781-9.601562-4.207031-13.011719zm0 0"/><path d="m359.105469 273.746094 78.359375-42.503906-156.703125-156.703126-42.503907 78.355469c2.835938 1.984375 5.605469 4.113281 8.136719 6.644531l106.066407 106.066407c2.53125 2.53125 4.660156 5.300781 6.644531 8.140625zm0 0"/><path d="m187.113281 511.808594c4.753907-.773438 8.867188-3.789063 11.007813-8.109375l18.980468-37.953125-170.847656-170.84375-37.949218 18.976562c-4.320313 2.140625-7.335938 6.253906-8.113282 11.011719-.765625 4.761719.796875 9.601563 4.207032 13.007813l169.703124 169.707031c3.410157 3.40625 8.246094 4.972656 13.011719 4.203125zm0 0"/><path d="m74.539062 280.757812 156.703126 156.707032 44.503906-80.363282c-2.835938-1.980468-5.609375-4.109374-8.136719-6.644531 0 0-110.730469-111.367187-112.710937-114.203125zm0 0"/></svg>