<?xml version="1.0" encoding="iso-8859-1"?>
<!-- Generator: Adobe Illustrator 19.0.0, SVG Export Plug-In . SVG Version: 6.00 Build 0)  -->
<svg xmlns="http://www.w3.org/2000/svg" xmlns:xlink="http://www.w3.org/1999/xlink" version="1.1" id="Layer_1" x="0px" y="0px" viewBox="0 0 496 496" style="enable-background:new 0 0 496 496;" xml:space="preserve">
<g>
	<path style="fill:#FFA64D;" d="M136,200c0-22.088,17.912-40,40-40H8v64h136l0.08-0.128C139.072,217.192,136,208.992,136,200z"/>
	<rect x="312" y="152" style="fill:#FFA64D;" width="176" height="80"/>
</g>
<g>
	<path style="fill:#333333;" d="M349.328,56C328.032,22.408,290.624,0,248,0s-80.04,22.408-101.328,56H0v64v160v216h144h208h144V280   V120V56H349.328z M248,16c57.344,0,104,46.656,104,104v16h128v128H352h-58.848C309.504,250.792,320,230.608,320,208v-72H176v16   c-26.472,0-48,21.528-48,48s21.528,48,48,48h12.176c4.056,6.048,9.016,11.432,14.672,16H144H16V136h128v-16   C144,62.656,190.656,16,248,16z M336,312H160v-32h176V312z M192,208v-56h112v56c0,30.88-25.12,56-56,56S192,238.88,192,208z    M180.2,232H176c-17.648,0-32-14.352-32-32s14.352-32,32-32v40C176,216.424,177.528,224.48,180.2,232z M16,104h80V88H16V72h122.088   c-2.256,5.152-4.104,10.504-5.624,16H112v16h17.192c-0.704,5.248-1.192,10.56-1.192,16H16V104z M16,480V280h128v200H16z M160,328   h80v152h-80V328z M256,480V328h80v152H256z M480,480H352V280h128V480z M368,120c0-5.44-0.488-10.752-1.192-16H384V88h-20.464   c-1.528-5.496-3.368-10.848-5.624-16H480v16h-80v16h80v16H368z"/>
	<path style="fill:#333333;" d="M256,120h16v-14.112c0-7.984,4.44-15.16,11.576-18.728C296.176,80.856,304,68.2,304,54.12V40h-16   v14.112c0,7.984-4.44,15.16-11.576,18.728C263.824,79.144,256,91.8,256,105.88V120z"/>
	<path style="fill:#333333;" d="M224,105.888c0-7.984,4.44-15.16,11.576-18.728C248.176,80.856,256,68.2,256,54.12V40h-16v14.112   c0,7.984-4.44,15.16-11.576,18.728C215.824,79.144,208,91.8,208,105.88V120h16V105.888z"/>
	<rect x="208" y="376" style="fill:#333333;" width="16" height="32"/>
	<rect x="272" y="376" style="fill:#333333;" width="16" height="32"/>
</g>
<g>
</g>
<g>
</g>
<g>
</g>
<g>
</g>
<g>
</g>
<g>
</g>
<g>
</g>
<g>
</g>
<g>
</g>
<g>
</g>
<g>
</g>
<g>
</g>
<g>
</g>
<g>
</g>
<g>
</g>
</svg>
