<?xml version="1.0" encoding="iso-8859-1"?>
<!-- Generator: Adobe Illustrator 19.0.0, SVG Export Plug-In . SVG Version: 6.00 Build 0)  -->
<svg xmlns="http://www.w3.org/2000/svg" xmlns:xlink="http://www.w3.org/1999/xlink" version="1.1" id="Layer_1" x="0px" y="0px" viewBox="0 0 496.008 496.008" style="enable-background:new 0 0 496.008 496.008;" xml:space="preserve">
<path style="fill:#FFA64D;" d="M434.54,288c-8.992,18.904-28.216,32-50.536,32v-32h-272v32c-22.328,0-41.544-13.096-50.536-32  H32.004v176h432V288H434.54z"/>
<g>
	<path style="fill:#333333;" d="M472.004,256h-24v-8c0-26.032-16.232-49.416-40-59.12v-25.76c23.768-9.696,40-33.08,40-59.12v-8   c26.472,0,48-21.528,48-48s-21.528-48-48-48h-400c-26.472,0-48,21.528-48,48s21.528,48,48,48v8c0,26.04,16.232,49.416,40,59.12   v25.768c-23.768,9.704-40,33.08-40,59.12v8h-24c-13.232,0-24,10.768-24,24v192c0,13.232,10.768,24,24,24h448   c13.232,0,24-10.768,24-24V280C496.004,266.768,485.236,256,472.004,256z M432.004,248v16c0,23.744-17.328,43.512-40,47.336   v-16.344c13.784-3.56,24-16.104,24-30.992v-16c0-8.848-3.704-17.04-9.8-22.952c1.144-2.8,1.8-5.848,1.8-9.048v-9.384   C422.484,215.08,432.004,230.752,432.004,248z M128.004,96v8c0,1.864-0.4,3.672-1.024,5.392c-4.12-3.32-9.288-5.392-14.976-5.392   s-10.856,2.072-14.976,5.392c-0.624-1.72-1.024-3.528-1.024-5.392v-8H128.004z M104.004,216v-88c0-4.408,3.592-8,8-8s8,3.592,8,8   v88c0,4.408-3.592,8-8,8S104.004,220.408,104.004,216z M135.724,125.208c5.208-5.832,8.28-13.32,8.28-21.208v-8h16v8   c0,17.248-9.52,32.92-24,41.384V128C136.004,127.048,135.828,126.136,135.724,125.208z M96.004,248   c0-4.24,1.816-8.072,4.632-10.992c3.4,1.848,7.232,2.992,11.368,2.992s7.968-1.144,11.368-2.992   c2.816,2.92,4.632,6.76,4.632,10.992v8h-32V248z M134.204,225.048c1.144-2.792,1.8-5.84,1.8-9.048v-9.384   c14.48,8.472,24,24.144,24,41.384v8h-16v-8C144.004,239.152,140.3,230.952,134.204,225.048z M136.004,188.88v-25.76   c23.768-9.704,40-33.08,40-59.12v-8h144v8c0,26.032,16.232,49.416,40,59.12v25.768c-23.768,9.696-40,33.08-40,59.12v8h-144v-8   C176.004,221.96,159.772,198.584,136.004,188.88z M376.004,216v-88c0-4.408,3.592-8,8-8s8,3.592,8,8v88c0,4.408-3.592,8-8,8   S376.004,220.408,376.004,216z M400.004,104c0,1.864-0.4,3.672-1.024,5.392c-4.12-3.32-9.288-5.392-14.976-5.392   s-10.856,2.072-14.976,5.392c-0.624-1.72-1.024-3.528-1.024-5.392v-8h32V104z M360.284,125.208c-0.112,0.928-0.28,1.832-0.28,2.792   v17.384c-14.48-8.472-24-24.144-24-41.384v-8h16v8C352.004,111.896,355.076,119.376,360.284,125.208z M336.004,248   c0-17.248,9.52-32.92,24-41.384V216c0,3.2,0.656,6.248,1.8,9.048c-6.096,5.912-9.8,14.104-9.8,22.952v8h-16V248z M368.004,248   c0-4.24,1.816-8.072,4.632-10.992c3.4,1.848,7.232,2.992,11.368,2.992s7.968-1.144,11.368-2.992   c2.816,2.92,4.632,6.76,4.632,10.992v8h-32V248z M432.004,104c0,17.248-9.52,32.92-24,41.384V128c0-0.952-0.176-1.864-0.28-2.784   c5.208-5.84,8.28-13.32,8.28-21.216V88c0-14.88-10.216-27.424-24-30.992V40.664c22.672,3.824,40,23.592,40,47.336V104z M16.004,48   c0-17.648,14.352-32,32-32h400c17.648,0,32,14.352,32,32s-14.352,32-32,32h-0.552c-3.96-31.52-30.872-56-63.448-56h-8v48h8   c5.896,0,11,3.24,13.776,8H98.228c2.776-4.76,7.88-8,13.776-8h8V24h-8c-32.576,0-59.488,24.48-63.448,56h-0.552   C30.356,80,16.004,65.648,16.004,48z M64.004,104v-8v-8c0-23.744,17.328-43.512,40-47.336v16.344c-13.784,3.56-24,16.104-24,30.992   v16c0,7.888,3.072,15.376,8.28,21.216c-0.112,0.928-0.28,1.832-0.28,2.784v17.384C73.524,136.92,64.004,121.248,64.004,104z    M64.004,248c0-17.248,9.52-32.92,24-41.384V216c0,3.208,0.656,6.248,1.8,9.048c-6.096,5.912-9.8,14.104-9.8,22.952v16   c0,14.88,10.216,27.424,24,30.992v16.344c-22.672-3.824-40-23.592-40-47.336v-8V248z M480.004,472c0,4.408-3.592,8-8,8h-448   c-4.408,0-8-3.592-8-8V280c0-4.408,3.592-8,8-8h24.552c3.96,31.52,30.872,56,63.448,56h8v-48h-8c-5.896,0-11-3.24-13.776-8H397.78   c-2.776,4.76-7.88,8-13.776,8h-8v48h8c32.576,0,59.488-24.48,63.448-56h24.552c4.408,0,8,3.592,8,8V472z"/>
	<polygon style="fill:#333333;" points="260.956,316.36 260.956,316.368 260.964,316.368  "/>
	<path style="fill:#333333;" d="M263.18,318.736c-0.752-0.784-1.44-1.608-2.224-2.376c-34.272-33.36-85.416-37.856-114.008-10.016   c-12.216,11.888-18.944,28.464-18.944,46.664c0,23.168,10.656,46.832,29.232,64.92c19.16,18.648,43.592,28.272,66.408,28.272   c3.096,0,6.136-0.24,9.16-0.6l-0.032,0.04c12.616,12.272,29.608,18.264,47.608,18.264c22.816,0,47.256-9.624,66.408-28.272   c18.576-18.08,29.232-41.744,29.232-64.912c0-18.2-6.728-34.776-18.944-46.672C334.052,301.656,295.604,299.824,263.18,318.736z    M194.588,303.968c18.696,0,39.096,8.168,55.208,23.856l0,0c15.496,15.088,24.384,34.568,24.384,53.448   c0,11.176-3.136,21.128-9.04,29.272l-100.512-97.84C173.252,306.92,183.58,303.968,194.588,303.968z M168.388,406.472   c-15.504-15.088-24.384-34.568-24.384-53.448c0-11.176,3.128-21.128,9.04-29.264l100.552,97.88   C230.356,437.272,193.996,431.4,168.388,406.472z M335.612,424.168c-24.96,24.288-60.144,30.512-83.432,16.336   c7.008-2.992,13.48-7.128,19.064-12.56c6.72-6.544,11.704-14.528,14.896-23.392l43.12-41.976l-11.168-11.472l-28.072,27.328   c-0.608-16.28-6.32-32.664-16.36-47.088c22.736-12.312,48.128-12.68,65.696-0.936l-11.72,11.408l11.168,11.464l12.152-11.832   c5.904,8.136,9.04,18.096,9.04,29.272C360.004,389.6,351.116,409.08,335.612,424.168z"/>
	<rect x="152.004" y="32" style="fill:#333333;" width="160" height="16"/>
	<rect x="328.004" y="32" style="fill:#333333;" width="16" height="16"/>
</g>
<g>
</g>
<g>
</g>
<g>
</g>
<g>
</g>
<g>
</g>
<g>
</g>
<g>
</g>
<g>
</g>
<g>
</g>
<g>
</g>
<g>
</g>
<g>
</g>
<g>
</g>
<g>
</g>
<g>
</g>
</svg>
