<?xml version="1.0" encoding="iso-8859-1"?>
<!-- Generator: Adobe Illustrator 19.0.0, SVG Export Plug-In . SVG Version: 6.00 Build 0)  -->
<svg xmlns="http://www.w3.org/2000/svg" xmlns:xlink="http://www.w3.org/1999/xlink" version="1.1" id="Layer_1" x="0px" y="0px" viewBox="0 0 496 496" style="enable-background:new 0 0 496 496;" xml:space="preserve">
<g>
	<path style="fill:#FFA64D;" d="M96,272v184h80V344c0-17.672,14.328-32,32-32h80c17.672,0,32,14.328,32,32v112h80V272H96z"/>
	<path style="fill:#FFA64D;" d="M408,72v56h32v-8c0-8.824,7.176-16,16-16h8V72H408z"/>
	<path style="fill:#FFA64D;" d="M32,72v32h8c8.824,0,16,7.176,16,16v8h32V72H32z"/>
</g>
<g>
	<path style="fill:#333333;" d="M408,50.184c0-19.496-13.936-36.072-33.144-39.416C346.664,5.856,301.76,0,248,0   s-98.664,5.856-126.856,10.768C101.936,14.112,88,30.688,88,50.184V464h16v32h64v-32h160v32h64v-32h16V50.184z M123.888,26.536   C151.464,21.728,195.384,16,248,16s96.536,5.728,124.112,10.536c11.52,2,19.888,11.952,19.888,23.648V56H104v-5.816   C104,38.488,112.36,28.536,123.888,26.536z M392,72v192H104V72H392z M152,480h-32v-16h32V480z M312,352h-32v-16h-64v16h-32v-8   c0-13.232,10.768-24,24-24h80c13.232,0,24,10.768,24,24V352z M232,368v-16h32v16H232z M184,368h32v16h24v24h16v-24h24v-16h32v80   H184V368z M376,480h-32v-16h32V480z M328,448V344c0-22.056-17.944-40-40-40h-80c-22.056,0-40,17.944-40,40v104h-64V280h288v168H328   z"/>
	<rect x="120" y="232" style="fill:#333333;" width="16" height="16"/>
	<rect x="120" y="88" style="fill:#333333;" width="16" height="128"/>
</g>
<g>
</g>
<g>
</g>
<g>
</g>
<g>
</g>
<g>
</g>
<g>
</g>
<g>
</g>
<g>
</g>
<g>
</g>
<g>
</g>
<g>
</g>
<g>
</g>
<g>
</g>
<g>
</g>
<g>
</g>
</svg>
