<?xml version="1.0" encoding="iso-8859-1"?>
<!-- Generator: Adobe Illustrator 19.0.0, SVG Export Plug-In . SVG Version: 6.00 Build 0)  -->
<svg xmlns="http://www.w3.org/2000/svg" xmlns:xlink="http://www.w3.org/1999/xlink" version="1.1" id="Layer_1" x="0px" y="0px" viewBox="0 0 496 496" style="enable-background:new 0 0 496 496;" xml:space="preserve">
<g>
	<rect x="256" y="160" style="fill:#FFA64D;" width="48" height="64"/>
	<rect x="112" y="160" style="fill:#FFA64D;" width="48" height="64"/>
</g>
<g>
	<path style="fill:#333333;" d="M400,240h-24v-16H272v-16h-16v16h-96v-16h-16v16h-16v-48h-16v48H40v139.848   c0,30.4,13.232,59.176,36.32,78.96L96,459.68V496h224v-36.32l19.68-16.872c8.992-7.704,16.44-16.808,22.24-26.808H368   c48.52,0,88-39.48,88-88v-32C456,265.12,430.872,240,400,240z M304,480H112v-16h192V480z M329.272,430.664L309.04,448H106.96   l-20.232-17.336C67.208,413.928,56,389.576,56,363.848V272h272v-16H56v-16h304v16h-16v16h16v91.848   C360,389.568,348.8,413.92,329.272,430.664z M440,328c0,39.216-31.536,71.16-70.576,71.928c4.232-11.424,6.576-23.592,6.576-36.08   V256h24c22.056,0,40,17.944,40,40V328z"/>
	<path style="fill:#333333;" d="M176,120c0-4.408,3.584-8,8-8h48c4.416,0,8,3.592,8,8v40h48v16h16v-16v-8v-32   c0-34.192-23.984-62.84-56-70.144V0h-80v49.856C135.984,57.16,112,85.808,112,120v40h64V120z M288,120v24h-32v-24   c0-13.232-10.768-24-24-24h-16V64h16C262.872,64,288,89.12,288,120z M184,16h48v32h-48V16z M160,120v24h-32v-24   c0-30.88,25.128-56,56-56h16v32h-16C170.768,96,160,106.768,160,120z"/>
	<rect x="288" y="192" style="fill:#333333;" width="16" height="16"/>
	<rect x="144" y="176" style="fill:#333333;" width="16" height="16"/>
	<rect x="256" y="176" style="fill:#333333;" width="16" height="16"/>
</g>
<g>
</g>
<g>
</g>
<g>
</g>
<g>
</g>
<g>
</g>
<g>
</g>
<g>
</g>
<g>
</g>
<g>
</g>
<g>
</g>
<g>
</g>
<g>
</g>
<g>
</g>
<g>
</g>
<g>
</g>
</svg>
