<?xml version="1.0" encoding="iso-8859-1"?>
<!-- Generator: Adobe Illustrator 19.0.0, SVG Export Plug-In . SVG Version: 6.00 Build 0)  -->
<svg xmlns="http://www.w3.org/2000/svg" xmlns:xlink="http://www.w3.org/1999/xlink" version="1.1" id="Layer_1" x="0px" y="0px" viewBox="0 0 496 496" style="enable-background:new 0 0 496 496;" xml:space="preserve">
<circle style="fill:#FFA64D;" cx="144" cy="112" r="80"/>
<g>
	<path style="fill:#333333;" d="M288,144V80c0-13.232-10.768-24-24-24h-23.152C221.448,22.584,185.352,0,144,0   S66.552,22.584,47.152,56H24C10.768,56,0,66.768,0,80v64c0,13.232,10.768,24,24,24h23.152   c12.784,22.016,32.816,39.256,56.848,48.488V280H88v160c0,30.88,25.128,56,56,56s56-25.12,56-56V280h-16v-63.512   c24.032-9.232,44.064-26.472,56.848-48.488H264C277.232,168,288,157.232,288,144z M24,152c-4.416,0-8-3.592-8-8V80   c0-4.408,3.584-8,8-8h15.512C34.728,84.44,32,97.896,32,112s2.728,27.56,7.512,40H24z M184,312h-16v16h16v112   c0,22.056-17.944,40-40,40s-40-17.944-40-40V328h48v-16h-48v-16h80V312z M168,280h-48v-58.656c7.744,1.696,15.76,2.656,24,2.656   s16.256-0.96,24-2.656V280z M144,208c-52.936,0-96-43.064-96-96s43.064-96,96-96s96,43.064,96,96S196.936,208,144,208z M248.488,72   H264c4.416,0,8,3.592,8,8v64c0,4.408-3.584,8-8,8h-15.512c4.784-12.44,7.512-25.896,7.512-40S253.272,84.44,248.488,72z"/>
	<path style="fill:#333333;" d="M472,448v-48c13.232,0,24-10.768,24-24c0-10.416-6.712-19.216-16-22.528V328   c0-34.192-23.984-62.84-56-70.144V192h16V56c0-30.88-25.128-56-56-56s-56,25.12-56,56v136h16v65.856   c-32.016,7.304-56,35.952-56,70.144v25.472c-9.288,3.312-16,12.112-16,22.528c0,13.232,10.768,24,24,24v48   c-13.232,0-24,10.768-24,24v24h224v-24C496,458.768,485.232,448,472,448z M384,16c22.056,0,40,17.944,40,40v88h-80V56   C344,33.944,361.944,16,384,16z M344,160h80v16h-80V160z M360,192h48v64h-48V192z M288,376c0-4.408,3.584-8,8-8h136v-16H304v-24   c0-30.88,25.128-56,56-56h48c30.872,0,56,25.12,56,56v24h-16v16h24c4.416,0,8,3.592,8,8s-3.584,8-8,8H296   C291.584,384,288,380.408,288,376z M312,400h144v48H312V400z M480,480H288v-8c0-4.408,3.584-8,8-8h176c4.416,0,8,3.592,8,8V480z"/>
	<path style="fill:#333333;" d="M384,80c13.232,0,24-10.768,24-24s-10.768-24-24-24s-24,10.768-24,24S370.768,80,384,80z M384,48   c4.416,0,8,3.592,8,8s-3.584,8-8,8s-8-3.592-8-8S379.584,48,384,48z"/>
	<path style="fill:#333333;" d="M120,440c0,13.232,10.768,24,24,24s24-10.768,24-24s-10.768-24-24-24S120,426.768,120,440z M152,440   c0,4.408-3.584,8-8,8s-8-3.592-8-8s3.584-8,8-8S152,435.592,152,440z"/>
</g>
<g>
</g>
<g>
</g>
<g>
</g>
<g>
</g>
<g>
</g>
<g>
</g>
<g>
</g>
<g>
</g>
<g>
</g>
<g>
</g>
<g>
</g>
<g>
</g>
<g>
</g>
<g>
</g>
<g>
</g>
</svg>
