<?xml version="1.0" encoding="iso-8859-1"?>
<!-- Generator: Adobe Illustrator 19.0.0, SVG Export Plug-In . SVG Version: 6.00 Build 0)  -->
<svg xmlns="http://www.w3.org/2000/svg" xmlns:xlink="http://www.w3.org/1999/xlink" version="1.1" id="Layer_1" x="0px" y="0px" viewBox="0 0 496.008 496.008" style="enable-background:new 0 0 496.008 496.008;" xml:space="preserve">
<g>
	<path style="fill:#FFA64D;" d="M240.008,432.004h-208v-208h208V432.004z"/>
	<path style="fill:#FFA64D;" d="M464.008,408.004h-192v-176h192V408.004z"/>
</g>
<g>
	<path style="fill:#333333;" d="M468.824,147.164l-52.816-31.688V96.004h16v-96h-144v96h16v19.472l-52.824,31.688   c-1.104,0.664-2.032,1.544-3.088,2.272c-1.088-0.768-2.136-1.584-3.28-2.28L192,115.468V96.004h16v-96H64v96h16v19.472   l-52.816,31.688C10.416,157.228,0,175.628,0,195.18v260.824c0,22.056,17.944,40,40,40h192c5.688,0,11.08-1.232,15.984-3.384   c5.048,2.2,10.496,3.384,16.024,3.384h192c22.056,0,40-17.944,40-40V195.18C496.008,175.62,485.584,157.22,468.824,147.164z    M304.008,16.004h16v32h16v-32h16v32h16v-32h16v32h16v-32h16v64h-112V16.004z M80.008,16.004h16v32h16v-32h16v32h16v-32h16v32h16   v-32h16v64h-112V16.004z M40.008,480.004c-13.232,0-24-10.768-24-24V195.18c0-13.968,7.448-27.112,19.424-34.304l60.576-36.344   V96.004h80v28.528l60.576,36.344c11.976,7.184,19.424,20.336,19.424,34.304v260.824c0,13.232-10.768,24-24,24H40.008z    M480.008,456.004c0,13.232-10.768,24-24,24h-192c-0.064,0-0.12-0.024-0.184-0.024c5.064-6.704,8.184-14.944,8.184-23.976V195.18   c0-12.688-4.44-24.84-12.096-34.592l60.096-36.056V96.004h80v28.528l60.576,36.344c11.976,7.184,19.424,20.336,19.424,34.304   V456.004z"/>
	<rect x="288.008" y="280.004" style="fill:#333333;" width="16" height="16"/>
	<rect x="320.008" y="280.004" style="fill:#333333;" width="112" height="16"/>
	<rect x="288.008" y="344.004" style="fill:#333333;" width="112" height="16"/>
	<rect x="416.008" y="344.004" style="fill:#333333;" width="16" height="16"/>
	<rect x="288.008" y="312.004" style="fill:#333333;" width="144" height="16"/>
	<path style="fill:#333333;" d="M142.952,256.564c-18.72,2.336-37.152,11.752-51.888,26.496s-24.16,33.168-26.496,51.888   c-2.44,19.464,2.984,36.952,15.264,49.224c10.36,10.36,24.416,15.84,40.248,15.84c2.928,0,5.928-0.192,8.976-0.568   c18.72-2.336,37.152-11.752,51.888-26.496s24.16-33.168,26.496-51.888c2.44-19.464-2.984-36.952-15.264-49.224   S162.472,254.116,142.952,256.564z M80.448,336.932c1.896-15.2,9.688-30.32,21.928-42.56s27.36-20.032,42.56-21.936   c2.36-0.288,4.664-0.432,6.912-0.432c8.688,0,16.56,2.168,23.032,6.32l-88.512,88.504   C81.136,358.684,79.016,348.356,80.448,336.932z M191.568,319.076c-1.896,15.2-9.688,30.32-21.928,42.56   s-27.36,20.032-42.56,21.936c-11.184,1.384-21.272-0.584-29.304-5.528l88.272-88.264C191,297.828,192.968,307.932,191.568,319.076z   "/>
</g>
<g>
</g>
<g>
</g>
<g>
</g>
<g>
</g>
<g>
</g>
<g>
</g>
<g>
</g>
<g>
</g>
<g>
</g>
<g>
</g>
<g>
</g>
<g>
</g>
<g>
</g>
<g>
</g>
<g>
</g>
</svg>
