<?xml version="1.0" encoding="iso-8859-1"?>
<!-- Generator: Adobe Illustrator 19.0.0, SVG Export Plug-In . SVG Version: 6.00 Build 0)  -->
<svg xmlns="http://www.w3.org/2000/svg" xmlns:xlink="http://www.w3.org/1999/xlink" version="1.1" id="Layer_1" x="0px" y="0px" viewBox="0 0 496 496" style="enable-background:new 0 0 496 496;" xml:space="preserve">
<path style="fill:#FFA64D;" d="M144,408l61.232-34.016c7.064-3.928,15.008-5.984,23.08-5.984l0,0  c12.608,0,24.696,5.008,33.608,13.92L304,424v32c0,17.672-14.328,32-32,32h-96c-17.672,0-32-14.328-32-32V408z"/>
<g>
	<path style="fill:#333333;" d="M416,192h-9.472c-3.312-9.288-12.112-16-22.528-16h-24v-16c17.648,0,32-14.352,32-32   s-14.352-32-32-32h-16V24c0-13.232-10.768-24-24-24H128c-13.232,0-24,10.768-24,24v72H88c-17.648,0-32,14.352-32,32   s14.352,32,32,32v296c0,22.056,17.944,40,40,40h48.768H272h48c22.056,0,40-17.944,40-40V288h24c10.416,0,19.216-6.712,22.528-16   H416c13.232,0,24-10.768,24-24v-32C440,202.768,429.232,192,416,192z M120,24c0-4.416,3.584-8,8-8h192c4.416,0,8,3.584,8,8v72H120   V24z M176.768,480c-13.232,0-24-10.768-24-24V304H296v152c0,13.232-10.768,24-24,24H176.768z M304,288H144.768   c-4.416,0-8-3.584-8-8s3.584-8,8-8H304c4.416,0,8,3.584,8,8S308.416,288,304,288z M344,456c0,13.232-10.768,24-24,24h-16.208   c5.08-6.704,8.208-14.96,8.208-24V302.528c9.288-3.312,16-12.112,16-22.528c0-13.232-10.768-24-24-24H144.768   c-13.232,0-24,10.768-24,24c0,10.416,6.712,19.216,16,22.528V456c0,9.04,3.128,17.296,8.208,24h-16.968c-13.232,0-24-10.768-24-24   V160h208v-16h-224c-8.824,0-16-7.176-16-16s7.176-16,16-16h272c8.824,0,16,7.176,16,16s-7.176,16-16,16h-32v16h16v16v112v168H344z    M384,272h-24v-80h24c4.416,0,8,3.584,8,8v64C392,268.416,388.416,272,384,272z M424,248c0,4.416-3.584,8-8,8h-8v-48h8   c4.416,0,8,3.584,8,8V248z"/>
	<path style="fill:#333333;" d="M224,176c-13.232,0-24,10.768-24,24s10.768,24,24,24s24-10.768,24-24S237.232,176,224,176z M224,208   c-4.416,0-8-3.584-8-8s3.584-8,8-8s8,3.584,8,8S228.416,208,224,208z"/>
	<rect x="168" y="424" style="fill:#333333;" width="16" height="16"/>
	<rect x="200" y="400" style="fill:#333333;" width="16" height="16"/>
	<rect x="216" y="432" style="fill:#333333;" width="16" height="16"/>
	<rect x="248" y="448" style="fill:#333333;" width="16" height="16"/>
	<rect x="184" y="448" style="fill:#333333;" width="16" height="16"/>
	<rect x="232" y="400" style="fill:#333333;" width="16" height="16"/>
	<rect x="264" y="424" style="fill:#333333;" width="16" height="16"/>
	<rect x="296" y="64" style="fill:#333333;" width="16" height="16"/>
	<rect x="248" y="32" style="fill:#333333;" width="16" height="16"/>
	<rect x="176" y="56" style="fill:#333333;" width="16" height="16"/>
	<rect x="144" y="32" style="fill:#333333;" width="16" height="16"/>
	<rect x="208" y="64" style="fill:#333333;" width="16" height="16"/>
</g>
<g>
</g>
<g>
</g>
<g>
</g>
<g>
</g>
<g>
</g>
<g>
</g>
<g>
</g>
<g>
</g>
<g>
</g>
<g>
</g>
<g>
</g>
<g>
</g>
<g>
</g>
<g>
</g>
<g>
</g>
</svg>
