<?xml version="1.0" encoding="iso-8859-1"?>
<!-- Generator: Adobe Illustrator 19.0.0, SVG Export Plug-In . SVG Version: 6.00 Build 0)  -->
<svg xmlns="http://www.w3.org/2000/svg" xmlns:xlink="http://www.w3.org/1999/xlink" version="1.1" id="Layer_1" x="0px" y="0px" viewBox="0 0 496 496" style="enable-background:new 0 0 496 496;" xml:space="preserve">
<rect x="72" y="112" style="fill:#FFA64D;" width="80" height="104"/>
<g>
	<path style="fill:#333333;" d="M456,264v-40h16c13.232,0,24-10.768,24-24v-48c0-13.232-10.768-24-24-24h-16v-24   c0-13.232-10.768-24-24-24H215.112C225.512,69.824,232,55.664,232,40V0H40v40c0,16.136,6.904,30.664,17.872,40.896   C47.616,83.624,40,92.896,40,104v24H24c-13.232,0-24,10.768-24,24v48c0,13.232,10.768,24,24,24h16c0,10.416,6.712,19.216,16,22.528   V472c0,13.232,10.768,24,24,24h296v-0.408c26.152-2.608,48.584-17.904,61.176-39.592H456c22.056,0,40-17.944,40-40   s-17.944-40-40-40h-8v-24h-8v-65.472C449.288,283.216,456,274.416,456,264z M472,144c4.416,0,8,3.584,8,8v48c0,4.416-3.584,8-8,8   h-16v-64H472z M56,40V16h160v24c0,22.056-17.944,40-40,40H96C73.944,80,56,62.056,56,40z M24,208c-4.416,0-8-3.584-8-8v-48   c0-4.416,3.584-8,8-8h16v64H24z M56,128v-24c0-4.416,3.584-8,8-8h32h80h256c4.416,0,8,3.584,8,8v24v96v40c0,4.416-3.584,8-8,8h-24   h-80h-48.888c-8.296-8.112-19.096-13.632-31.112-15.36V256c0-13.232-10.768-24-24-24H64c-4.416,0-8-3.584-8-8V128z M344,288h48v8   c0,4.416-3.584,8-8,8h-32c-4.416,0-8-3.584-8-8V288z M104,248h120c4.416,0,8,3.584,8,8v0.64   c-15.64,2.256-29.208,10.952-37.888,23.36H120v64h74.112c8.68,12.408,22.248,21.104,37.888,23.36V384c0,4.416-3.584,8-8,8H112   c-4.416,0-8-3.584-8-8V248z M186.36,328H136v-32h50.36c-1.52,5.072-2.36,10.44-2.36,16S184.84,322.928,186.36,328z M240,352   c-22.056,0-40-17.944-40-40s17.944-40,40-40s40,17.944,40,40S262.056,352,240,352z M368,480c-35.288,0-64-28.712-64-64v-16h96v-16   h-96v-16h128v16h-16v16h16v16C432,451.288,403.288,480,368,480z M456,392c13.232,0,24,10.768,24,24s-10.768,24-24,24h-11.688   c2.392-7.584,3.688-15.64,3.688-24v-24H456z M288,352v64c0,26.184,12.704,49.4,32.208,64H80c-4.416,0-8-3.584-8-8V248h16v136   c0,13.232,10.768,24,24,24h112c13.232,0,24-10.768,24-24v-16.64c27.088-3.904,48-27.208,48-55.36c0-8.592-2.008-16.712-5.48-24H328   v8c0,13.232,10.768,24,24,24h32c13.232,0,24-10.768,24-24v-8h16v64H288z"/>
	<path style="fill:#333333;" d="M240,288c-13.232,0-24,10.768-24,24s10.768,24,24,24s24-10.768,24-24S253.232,288,240,288z M240,320   c-4.416,0-8-3.584-8-8s3.584-8,8-8s8,3.584,8,8S244.416,320,240,320z"/>
	<path style="fill:#333333;" d="M408,112H248v64h160V112z M344,128v32h-32v-32H344z M264,128h32v32h-32V128z M392,160h-32v-32h32   V160z"/>
	<path style="fill:#333333;" d="M280,256h144v-48H280V256z M344,240h-16v-16h16V240z M360,224h16v16h-16V224z M408,240h-16v-16h16   V240z M296,224h16v16h-16V224z"/>
	<rect x="168" y="128" style="fill:#333333;" width="48" height="16"/>
	<rect x="168" y="160" style="fill:#333333;" width="48" height="16"/>
	<rect x="168" y="192" style="fill:#333333;" width="48" height="16"/>
</g>
<rect x="352" y="320" style="fill:#FFA64D;" width="32" height="32"/>
<g>
</g>
<g>
</g>
<g>
</g>
<g>
</g>
<g>
</g>
<g>
</g>
<g>
</g>
<g>
</g>
<g>
</g>
<g>
</g>
<g>
</g>
<g>
</g>
<g>
</g>
<g>
</g>
<g>
</g>
</svg>
