<?xml version="1.0" encoding="iso-8859-1"?>
<!-- Generator: Adobe Illustrator 19.0.0, SVG Export Plug-In . SVG Version: 6.00 Build 0)  -->
<svg xmlns="http://www.w3.org/2000/svg" xmlns:xlink="http://www.w3.org/1999/xlink" version="1.1" id="Layer_1" x="0px" y="0px" viewBox="0 0 496 496" style="enable-background:new 0 0 496 496;" xml:space="preserve">
<path style="fill:#FFA64D;" d="M89.712,367.232C88.704,375.2,88,383.384,88,392c0,80,56,72,56,96h104h104c0-24,56-16,56-96  c-88,0-144-40-216-40C129.456,352,97.128,364.064,89.712,367.232z"/>
<g>
	<path style="fill:#333333;" d="M424,0H72v26.04L114.528,104H112l0.008,27.304l2.328,2.344c0.272,0.272,25.376,25.944,29.144,58.352   H128v16h15.456c-3.792,30.624-28.008,49.416-28.248,49.6l-3.2,2.4v19.992c-21.736,37.704-32,73.432-32,112.008   c0,56.072,26.24,72.848,43.616,83.96c8.8,5.632,12.384,8.296,12.384,12.04v8h224v-8c0-3.744,3.584-6.408,12.384-12.04   c17.376-11.112,43.616-27.888,43.616-83.96c0-38.584-10.264-74.312-32.008-112.016l-0.008-19.968l-3.168-2.408   c-0.264-0.192-24.488-18.984-28.272-49.608h15.456v-16H352.52c3.776-32.408,28.872-58.08,29.144-58.352l2.336-2.352V104h-2.528   L424,26.04V0z M128,267.752c8.056-7.112,28.504-28.112,31.576-59.752h81.56c1.904,7.344,6.296,13.656,12.296,17.96   c-4.952,8.528-13.56,25.024-20.216,46.04H128V267.752z M272,232c1.144,0,2.224-0.224,3.336-0.336   c3.68,6.144,11.848,20.84,18.56,40.336H250.12c6.712-19.472,14.864-34.184,18.544-40.336C269.776,231.776,270.856,232,272,232z    M272,216c-8.824,0-16-7.176-16-16s7.176-16,16-16s16,7.176,16,16S280.824,216,272,216z M363.768,462.488   c-7.464,4.776-15.12,9.672-18.272,17.512H150.504c-3.16-7.84-10.816-12.744-18.272-17.512C116.088,452.16,96,439.32,96,392   c0-35.648,9.576-68.824,29.84-104H228.8c-2.888,12.44-4.8,25.936-4.8,40h16c0-14.056,2.184-27.608,5.344-40h53.336   c3.152,12.376,5.32,25.928,5.32,40h16c0-14.064-1.912-27.56-4.8-40h54.96C390.432,323.176,400,356.352,400,392   C400,439.312,379.904,452.16,363.768,462.488z M368,267.752V272h-57.216c-6.656-21.024-15.264-37.512-20.216-46.04   c6-4.304,10.384-10.616,12.296-17.96h33.56C339.496,239.64,359.944,260.64,368,267.752z M368,124.832   c-7.224,8.008-28.48,34.184-31.584,67.168h-33.552c-3.576-13.768-15.992-24-30.864-24s-27.288,10.232-30.864,24h-81.552   c-3.104-32.976-24.36-59.152-31.584-67.168V120h240V124.832z M408,21.96L363.248,104h-32.416l16.512-53.648l-15.296-4.704   L314.088,104H132.752L88,21.96V16h253.168l-4.2,13.648l15.296,4.704L357.912,16H408V21.96z"/>
	<rect x="320" y="408" style="fill:#333333;" width="16" height="16"/>
	<rect x="304" y="448" style="fill:#333333;" width="16" height="16"/>
	<rect x="200" y="392" style="fill:#333333;" width="16" height="16"/>
	<rect x="136" y="416" style="fill:#333333;" width="16" height="16"/>
	<rect x="176" y="448" style="fill:#333333;" width="16" height="16"/>
	<rect x="232" y="432" style="fill:#333333;" width="16" height="16"/>
</g>
<g>
</g>
<g>
</g>
<g>
</g>
<g>
</g>
<g>
</g>
<g>
</g>
<g>
</g>
<g>
</g>
<g>
</g>
<g>
</g>
<g>
</g>
<g>
</g>
<g>
</g>
<g>
</g>
<g>
</g>
</svg>
