<?xml version="1.0" encoding="iso-8859-1"?>
<!-- Generator: Adobe Illustrator 19.0.0, SVG Export Plug-In . SVG Version: 6.00 Build 0)  -->
<svg xmlns="http://www.w3.org/2000/svg" xmlns:xlink="http://www.w3.org/1999/xlink" version="1.1" id="Layer_1" x="0px" y="0px" viewBox="0 0 496 496" style="enable-background:new 0 0 496 496;" xml:space="preserve">
<polygon style="fill:#FFA64D;" points="16,344 472,344 488,216 8,216 "/>
<g>
	<path style="fill:#333333;" d="M88,328h320v-96H88V328z M104,248h288v64H104V248z"/>
	<path style="fill:#333333;" d="M496,48V0h-96c-13.232,0-24,10.768-24,24v120h-18.088C339.352,101.672,297.104,72,248,72   s-91.352,29.672-109.912,72H120V24c0-13.232-10.768-24-24-24H0v48h72v96H39.176C17.568,144,0,161.576,0,183.176   c0,0.68,0.016,1.36,0.056,2.064l15.16,288.024C15.88,486.016,26.408,496,39.176,496h161.64c12.768,0,23.296-9.984,23.968-22.736   l5.12-97.264h36.184l5.12,97.264c0.672,12.752,11.2,22.736,23.968,22.736h161.64c12.768,0,23.296-9.984,23.968-22.736   l15.16-288.048c0.032-0.68,0.056-1.36,0.056-2.04c0-21.6-17.576-39.176-39.176-39.176H424V48H496z M480,32h-16V16h16V32z M248,88   c54.648,0,99.48,42.392,103.592,96h-32.064c-4-35.944-34.536-64-71.528-64s-67.536,28.056-71.528,64h-32.064   C148.52,130.392,193.352,88,248,88z M303.36,184H192.64c3.904-27.088,27.208-48,55.36-48S299.456,156.912,303.36,184z M16,16h16v16   H16V16z M48,32V16h48c4.408,0,8,3.584,8,8v120H88V32H48z M39.176,160H72h48h12.464c-2.144,7.72-3.512,15.744-4.056,24H16.024   L16,183.176C16,170.4,26.4,160,39.176,160z M200.824,480H39.176c-4.256,0-7.768-3.328-7.992-7.576L28.64,424h182.712l-2.552,48.424   C208.584,476.672,205.08,480,200.824,480z M212.2,408H27.8l-1.688-32H213.88L212.2,408z M25.272,360l-8.424-160h462.264l-8.4,160   H456v16h13.872l-1.68,32H283.8l-1.688-32H440v-16H25.272z M456.824,480H295.176c-4.256,0-7.768-3.328-7.992-7.576L284.64,424   h182.712l-2.544,48.424C464.584,476.672,461.08,480,456.824,480z M456.824,160C469.608,160,480,170.4,480,183.176L479.96,184   H367.592c-0.552-8.256-1.92-16.28-4.056-24H376h48H456.824z M392,144V24c0-4.416,3.592-8,8-8h48v16h-40v112H392z"/>
	<rect x="360" y="280" style="fill:#333333;" width="16" height="16"/>
	<rect x="256" y="280" style="fill:#333333;" width="88" height="16"/>
</g>
<g>
</g>
<g>
</g>
<g>
</g>
<g>
</g>
<g>
</g>
<g>
</g>
<g>
</g>
<g>
</g>
<g>
</g>
<g>
</g>
<g>
</g>
<g>
</g>
<g>
</g>
<g>
</g>
<g>
</g>
</svg>
