<?xml version="1.0" encoding="iso-8859-1"?>
<!-- Generator: Adobe Illustrator 19.0.0, SVG Export Plug-In . SVG Version: 6.00 Build 0)  -->
<svg xmlns="http://www.w3.org/2000/svg" xmlns:xlink="http://www.w3.org/1999/xlink" version="1.1" id="Layer_1" x="0px" y="0px" viewBox="0 0 496 496" style="enable-background:new 0 0 496 496;" xml:space="preserve">
<path style="fill:#FFA64D;" d="M320,312h-72l0,0c0-26.512-21.488-48-48-48l0,0c-26.512,0-48,21.488-48,48l0,0H80l8,128h224L320,312z  "/>
<g>
	<rect x="136" y="352" style="fill:#333333;" width="160" height="16"/>
	<rect x="104" y="384" style="fill:#333333;" width="160" height="16"/>
	<rect x="280" y="384" style="fill:#333333;" width="16" height="16"/>
	<rect x="104" y="352" style="fill:#333333;" width="16" height="16"/>
	<path style="fill:#333333;" d="M340.784,56H448V0H331.776C316.528,0,302.816,8.472,296,22.112l-17.512,35.024   C256.288,41.368,229.24,32,200,32C126.24,32,66.144,91.056,64.184,164.352C54.568,169.872,48,180.128,48,192   s6.576,22.136,16.2,27.656L79.128,473.4c0.744,12.68,11.272,22.6,23.96,22.6H296.92c12.688,0,23.208-9.92,23.96-22.592   l14.928-253.744c9.624-5.52,16.2-15.784,16.2-27.656c0-11.872-6.568-22.128-16.184-27.648c-0.632-23.576-7.272-45.64-18.472-64.776   L340.784,56z M432,40h-16V16h16V40z M310.312,29.264C314.4,21.088,322.632,16,331.776,16H400v24h-68.784l-24.008,44.624   c-4.824-6.192-10.176-11.92-15.984-17.192L310.312,29.264z M200,48c63.464,0,115.448,49.56,119.592,112H80.408   C84.552,97.56,136.536,48,200,48z M320,208h-16v16h15.52l-14.616,248.472c-0.248,4.216-3.76,7.528-7.992,7.528H103.088   c-4.232,0-7.736-3.312-7.992-7.528L80.48,224H288v-16H80c-8.824,0-16-7.176-16-16s7.176-16,16-16h240c8.824,0,16,7.176,16,16   S328.824,208,320,208z"/>
</g>
<g>
</g>
<g>
</g>
<g>
</g>
<g>
</g>
<g>
</g>
<g>
</g>
<g>
</g>
<g>
</g>
<g>
</g>
<g>
</g>
<g>
</g>
<g>
</g>
<g>
</g>
<g>
</g>
<g>
</g>
</svg>
