<?xml version="1.0" encoding="iso-8859-1"?>
<!-- Generator: Adobe Illustrator 19.0.0, SVG Export Plug-In . SVG Version: 6.00 Build 0)  -->
<svg xmlns="http://www.w3.org/2000/svg" xmlns:xlink="http://www.w3.org/1999/xlink" version="1.1" id="Layer_1" x="0px" y="0px" viewBox="0 0 496 496" style="enable-background:new 0 0 496 496;" xml:space="preserve">
<polygon style="fill:#FFA64D;" points="368,376 128,376 120,200 376,200 "/>
<g>
	<path style="fill:#333333;" d="M408,128c0-17.648-14.352-32-32-32h-8V0h-92.28l-15.376,23.064C249.936,38.68,232.512,48,213.752,48   H168c-22.056,0-40,17.944-40,40v8h-8c-17.648,0-32,14.352-32,32c0,14.984,10.392,27.504,24.32,30.96l14.232,298.944   c1.024,21.36,18.576,38.096,39.96,38.096h162.976c21.384,0,38.936-16.736,39.96-38.096L383.68,158.96   C397.608,155.504,408,142.984,408,128z M144,88c0-13.232,10.768-24,24-24h45.752c24.128,0,46.52-11.984,59.904-32.064L284.28,16   H352v16h-32v16h32v48H144V88z M353.464,457.144C352.848,469.96,342.32,480,329.488,480H166.512   c-12.832,0-23.36-10.04-23.976-22.856L128.392,160h239.216L353.464,457.144z M376,144H120c-8.824,0-16-7.176-16-16s7.176-16,16-16   h256c8.824,0,16,7.176,16,16S384.824,144,376,144z"/>
	<rect x="288" y="32" style="fill:#333333;" width="16" height="16"/>
	<path style="fill:#333333;" d="M248,352c35.288,0,64-28.712,64-64s-28.712-64-64-64s-64,28.712-64,64S212.712,352,248,352z    M248,240c26.472,0,48,21.528,48,48s-21.528,48-48,48s-48-21.528-48-48S221.528,240,248,240z"/>
</g>
<g>
</g>
<g>
</g>
<g>
</g>
<g>
</g>
<g>
</g>
<g>
</g>
<g>
</g>
<g>
</g>
<g>
</g>
<g>
</g>
<g>
</g>
<g>
</g>
<g>
</g>
<g>
</g>
<g>
</g>
</svg>
