<?xml version="1.0" encoding="iso-8859-1"?>
<!-- Generator: Adobe Illustrator 19.0.0, SVG Export Plug-In . SVG Version: 6.00 Build 0)  -->
<svg xmlns="http://www.w3.org/2000/svg" xmlns:xlink="http://www.w3.org/1999/xlink" version="1.1" id="Layer_1" x="0px" y="0px" viewBox="0 0 496 496" style="enable-background:new 0 0 496 496;" xml:space="preserve">
<g>
	<rect x="80" y="280" style="fill:#FFA64D;" width="256" height="80"/>
	<rect x="152" y="200" style="fill:#FFA64D;" width="112" height="40"/>
</g>
<g>
	<path style="fill:#333333;" d="M208,376c-13.232,0-24,10.768-24,24s10.768,24,24,24s24-10.768,24-24S221.232,376,208,376z M208,408   c-4.416,0-8-3.584-8-8s3.584-8,8-8s8,3.584,8,8S212.416,408,208,408z"/>
	<path style="fill:#333333;" d="M408,272h-41.472c0.896-2.512,1.472-5.184,1.472-8c0-13.232-10.768-24-24-24h-16.408   c-3.184-41.48-30.752-76.136-68.4-89.736c2.976-4,4.808-8.904,4.808-14.264c0-2.816-0.576-5.488-1.472-8H368   c13.232,0,24-10.768,24-24v-8V80V48c13.232,0,24-10.768,24-24S405.232,0,392,0h-48c-13.232,0-24,10.768-24,24s10.768,24,24,24v32   H240V48c13.232,0,24-10.768,24-24S253.232,0,240,0h-64c-13.232,0-24,10.768-24,24s10.768,24,24,24v64c-13.232,0-24,10.768-24,24   c0,5.36,1.824,10.264,4.808,14.264c-37.648,13.6-65.224,48.264-68.4,89.736H72c-13.232,0-24,10.768-24,24s10.768,24,24,24v144   c-13.232,0-24,10.768-24,24v16c0,13.232,10.768,24,24,24h272c13.232,0,24-10.768,24-24v-16c0-13.232-10.768-24-24-24v-96h40v72   c0,17.648,14.352,32,32,32s32-14.352,32-32v-96C448,289.944,430.056,272,408,272z M336,24c0-4.416,3.584-8,8-8h48   c4.416,0,8,3.584,8,8s-3.584,8-8,8h-48C339.584,32,336,28.416,336,24z M360,48h16v32h-16V48z M344,96h32v8c0,4.416-3.584,8-8,8H240   V96H344z M168,24c0-4.416,3.584-8,8-8h64c4.416,0,8,3.584,8,8s-3.584,8-8,8h-64C171.584,32,168,28.416,168,24z M192,48h32v64h-32   V48z M176,144c-4.416,0-8-3.584-8-8s3.584-8,8-8h64c4.416,0,8,3.584,8,8s-3.584,8-8,8h-16h-32H176z M192,160h32   c45.832,0,83.584,35.208,87.64,80H104.36C108.416,195.208,146.168,160,192,160z M64,264c0-4.416,3.584-8,8-8h16h240h16   c4.416,0,8,3.584,8,8s-3.584,8-8,8h-8H72C67.584,272,64,268.416,64,264z M328,288v64H88v-64H328z M352,456v16c0,4.416-3.584,8-8,8   H72c-4.416,0-8-3.584-8-8v-16c0-4.416,3.584-8,8-8h272C348.416,448,352,451.584,352,456z M88,432v-64h240v64H88z M432,408   c0,8.824-7.176,16-16,16s-16-7.176-16-16v-88h-56v-32h64c13.232,0,24,10.768,24,24V408z"/>
	<rect x="104" y="304" style="fill:#333333;" width="16" height="16"/>
	<rect x="136" y="304" style="fill:#333333;" width="64" height="16"/>
</g>
<g>
</g>
<g>
</g>
<g>
</g>
<g>
</g>
<g>
</g>
<g>
</g>
<g>
</g>
<g>
</g>
<g>
</g>
<g>
</g>
<g>
</g>
<g>
</g>
<g>
</g>
<g>
</g>
<g>
</g>
</svg>
