<?xml version="1.0" encoding="iso-8859-1"?>
<!-- Generator: Adobe Illustrator 19.0.0, SVG Export Plug-In . SVG Version: 6.00 Build 0)  -->
<svg xmlns="http://www.w3.org/2000/svg" xmlns:xlink="http://www.w3.org/1999/xlink" version="1.1" id="Layer_1" x="0px" y="0px" viewBox="0 0 496 496" style="enable-background:new 0 0 496 496;" xml:space="preserve">
<rect x="32" style="fill:#FFA64D;" width="368" height="272"/>
<g>
	<path style="fill:#333333;" d="M464,128v-24c0-22.056-17.944-40-40-40h-24v16h24c13.232,0,24,10.768,24,24v64   c0,13.232-10.768,24-24,24h-24v16h24c22.056,0,40-17.944,40-40v-24h16v352h16V128H464z"/>
	<polygon style="fill:#333333;" points="32,128 0,128 0,496 16,496 16,144 32,144  "/>
	<rect x="64" y="32" style="fill:#333333;" width="16" height="16"/>
	<rect x="96" y="32" style="fill:#333333;" width="16" height="16"/>
	<rect x="128" y="32" style="fill:#333333;" width="16" height="16"/>
	<rect x="160" y="32" style="fill:#333333;" width="16" height="16"/>
	<rect x="192" y="32" style="fill:#333333;" width="16" height="16"/>
	<rect x="224" y="32" style="fill:#333333;" width="16" height="16"/>
	<rect x="256" y="32" style="fill:#333333;" width="16" height="16"/>
	<rect x="288" y="32" style="fill:#333333;" width="16" height="16"/>
	<rect x="320" y="32" style="fill:#333333;" width="16" height="16"/>
	<rect x="352" y="32" style="fill:#333333;" width="16" height="16"/>
	<rect x="64" y="64" style="fill:#333333;" width="16" height="16"/>
	<rect x="96" y="64" style="fill:#333333;" width="16" height="16"/>
	<rect x="128" y="64" style="fill:#333333;" width="16" height="16"/>
	<rect x="160" y="64" style="fill:#333333;" width="16" height="16"/>
	<rect x="192" y="64" style="fill:#333333;" width="16" height="16"/>
	<rect x="224" y="64" style="fill:#333333;" width="16" height="16"/>
	<rect x="256" y="64" style="fill:#333333;" width="16" height="16"/>
	<rect x="288" y="64" style="fill:#333333;" width="16" height="16"/>
	<rect x="320" y="64" style="fill:#333333;" width="16" height="16"/>
	<rect x="352" y="64" style="fill:#333333;" width="16" height="16"/>
	<rect x="64" y="96" style="fill:#333333;" width="16" height="16"/>
	<rect x="96" y="96" style="fill:#333333;" width="16" height="16"/>
	<rect x="128" y="96" style="fill:#333333;" width="16" height="16"/>
	<rect x="160" y="96" style="fill:#333333;" width="16" height="16"/>
	<rect x="192" y="96" style="fill:#333333;" width="16" height="16"/>
	<rect x="224" y="96" style="fill:#333333;" width="16" height="16"/>
	<rect x="256" y="96" style="fill:#333333;" width="16" height="16"/>
	<rect x="288" y="96" style="fill:#333333;" width="16" height="16"/>
	<rect x="320" y="96" style="fill:#333333;" width="16" height="16"/>
	<rect x="352" y="96" style="fill:#333333;" width="16" height="16"/>
	<rect x="64" y="128" style="fill:#333333;" width="16" height="16"/>
	<rect x="96" y="128" style="fill:#333333;" width="16" height="16"/>
	<rect x="128" y="128" style="fill:#333333;" width="16" height="16"/>
	<rect x="160" y="128" style="fill:#333333;" width="16" height="16"/>
	<rect x="192" y="128" style="fill:#333333;" width="16" height="16"/>
	<rect x="224" y="128" style="fill:#333333;" width="16" height="16"/>
	<rect x="256" y="128" style="fill:#333333;" width="16" height="16"/>
	<rect x="288" y="128" style="fill:#333333;" width="16" height="16"/>
	<rect x="320" y="128" style="fill:#333333;" width="16" height="16"/>
	<rect x="352" y="128" style="fill:#333333;" width="16" height="16"/>
	<rect x="64" y="160" style="fill:#333333;" width="16" height="16"/>
	<rect x="352" y="160" style="fill:#333333;" width="16" height="16"/>
	<rect x="64" y="192" style="fill:#333333;" width="16" height="16"/>
	<rect x="352" y="192" style="fill:#333333;" width="16" height="16"/>
	<rect x="64" y="224" style="fill:#333333;" width="16" height="16"/>
	<rect x="352" y="224" style="fill:#333333;" width="16" height="16"/>
	<path style="fill:#333333;" d="M136,240h160c22.056,0,40-17.944,40-40s-17.944-40-40-40H136c-22.056,0-40,17.944-40,40   S113.944,240,136,240z M176,224v-48h80v48H176z M320,200c0,13.232-10.768,24-24,24h-24v-48h24C309.232,176,320,186.768,320,200z    M136,176h24v48h-24c-13.232,0-24-10.768-24-24S122.768,176,136,176z"/>
	<path style="fill:#333333;" d="M32,376c0,40.192,27.12,74.104,64,84.592V496h240v-35.408c36.88-10.48,64-44.392,64-84.592v-72H32   V376z M320,480H112v-16.408c2.64,0.24,5.296,0.408,8,0.408h192c2.704,0,5.36-0.168,8-0.408V480z M384,320v16h-16v16h16v24   c0,39.704-32.296,72-72,72H120c-39.704,0-72-32.296-72-72v-24h304v-16H48v-16H384z"/>
</g>
<g>
</g>
<g>
</g>
<g>
</g>
<g>
</g>
<g>
</g>
<g>
</g>
<g>
</g>
<g>
</g>
<g>
</g>
<g>
</g>
<g>
</g>
<g>
</g>
<g>
</g>
<g>
</g>
<g>
</g>
</svg>
