<?xml version="1.0" encoding="iso-8859-1"?>
<!-- Generator: Adobe Illustrator 19.0.0, SVG Export Plug-In . SVG Version: 6.00 Build 0)  -->
<svg xmlns="http://www.w3.org/2000/svg" xmlns:xlink="http://www.w3.org/1999/xlink" version="1.1" id="Layer_1" x="0px" y="0px" viewBox="0 0 496 496" style="enable-background:new 0 0 496 496;" xml:space="preserve">
<path style="fill:#FFA64D;" d="M104,192v8l-41.44,25.896C48.528,234.664,40,250.048,40,266.6V456c0,17.672,14.328,32,32,32h256  c17.672,0,32-14.328,32-32V266.608c0-16.552-8.528-31.936-22.56-40.704L296,200v-8H104z"/>
<g>
	<path style="fill:#333333;" d="M361.32,240.064c-4.528-8.416-11.192-15.672-19.64-20.952L304,195.56V176h16v-40   c0-13.232-10.768-24-24-24h-16V64h96V0H256c-22.056,0-40,17.944-40,40v72h-52.152c18.704-27.968,15.736-66.24-8.936-90.912   c-28.072-28.08-73.752-28.08-101.824,0c-28.072,28.072-28.072,73.76,0,101.832c7.616,7.608,16.856,13.264,26.912,16.832V176h16   v19.56l-37.68,23.552C41.84,229.416,32,247.168,32,266.6V456c0,22.056,17.944,40,40,40h256c19.44,0,35.648-13.952,39.232-32.368   C421.2,459.896,464,414.904,464,360v-16C464,287.104,418.056,240.784,361.32,240.064z M368,304.808   c18.232,3.72,32,19.872,32,39.192v16c0,19.312-13.768,35.472-32,39.192V304.808z M360,48h-16V16h16V48z M232,40   c0-13.232,10.768-24,24-24h72v32h-64v64h-32V40z M83.32,124.032c-4.576-1.816-8.888-4.24-12.832-7.2L104,83.312L132.688,112H104   C95.144,112,87.48,116.872,83.32,124.032z M148.8,105.496L115.312,72L148.8,38.504C163.616,58.304,163.616,85.696,148.8,105.496z    M137.488,27.192L104,60.68L70.512,27.192C90.312,12.384,117.688,12.384,137.488,27.192z M59.2,38.504L92.688,72L59.2,105.496   C44.384,85.696,44.384,58.304,59.2,38.504z M352,456c0,13.232-10.768,24-24,24H72c-13.232,0-24-10.768-24-24V266.6   c0-13.88,7.024-26.56,18.8-33.92l45.2-28.24V176h144v-16H96v-24c0-4.416,3.592-8,8-8h112h64h16c4.408,0,8,3.584,8,8v24h-32v16h16   v28.44l45.2,28.24c11.776,7.36,18.8,20.04,18.8,33.92V456z M448,360c0,45.824-35.216,83.536-80,87.592V415.36   c27.096-3.904,48-27.208,48-55.36v-16c0-28.152-20.904-51.456-48-55.36V266.6c0-3.496-0.424-6.896-1.04-10.248   C412.232,259.92,448,297.824,448,344V360z"/>
	<path style="fill:#333333;" d="M112,240c-22.056,0-40,17.944-40,40s17.944,40,40,40s40-17.944,40-40S134.056,240,112,240z M112,304   c-13.232,0-24-10.768-24-24s10.768-24,24-24s24,10.768,24,24S125.232,304,112,304z"/>
	<path style="fill:#333333;" d="M248,352c-26.472,0-48,21.528-48,48s21.528,48,48,48s48-21.528,48-48S274.472,352,248,352z M248,432   c-17.648,0-32-14.352-32-32s14.352-32,32-32s32,14.352,32,32S265.648,432,248,432z"/>
	<path style="fill:#333333;" d="M104,368c-17.648,0-32,14.352-32,32s14.352,32,32,32s32-14.352,32-32S121.648,368,104,368z M104,416   c-8.824,0-16-7.176-16-16s7.176-16,16-16c8.824,0,16,7.176,16,16S112.824,416,104,416z"/>
	<path style="fill:#333333;" d="M288,256c-17.648,0-32,14.352-32,32s14.352,32,32,32s32-14.352,32-32S305.648,256,288,256z M288,304   c-8.824,0-16-7.176-16-16s7.176-16,16-16s16,7.176,16,16S296.824,304,288,304z"/>
	<path style="fill:#333333;" d="M240,224c0-17.648-14.352-32-32-32s-32,14.352-32,32s14.352,32,32,32S240,241.648,240,224z M192,224   c0-8.824,7.176-16,16-16s16,7.176,16,16s-7.176,16-16,16S192,232.824,192,224z"/>
</g>
<g>
</g>
<g>
</g>
<g>
</g>
<g>
</g>
<g>
</g>
<g>
</g>
<g>
</g>
<g>
</g>
<g>
</g>
<g>
</g>
<g>
</g>
<g>
</g>
<g>
</g>
<g>
</g>
<g>
</g>
</svg>
