<?xml version="1.0" encoding="iso-8859-1"?>
<!-- Generator: Adobe Illustrator 19.0.0, SVG Export Plug-In . SVG Version: 6.00 Build 0)  -->
<svg xmlns="http://www.w3.org/2000/svg" xmlns:xlink="http://www.w3.org/1999/xlink" version="1.1" id="Layer_1" x="0px" y="0px" viewBox="0 0 496 496" style="enable-background:new 0 0 496 496;" xml:space="preserve">
<path style="fill:#FFA64D;" d="M131.792,412.024c-1.296,6.808-1.4,13.512-0.592,19.976h308.232  c0.808-6.464,0.712-13.168-0.592-19.976L399.984,208H170.656L131.792,412.024z"/>
<g>
	<path style="fill:#333333;" d="M410,176h-7.96l-3.08-16.168c12.456-0.856,22.36-11.16,22.36-23.832c0-13.232-10.768-24-24-24   h-16.408c-3.064-33.816-25.336-62.104-55.792-73.96C324.072,16.912,306.704,0,285.32,0s-38.752,16.912-39.8,38.04   c-30.456,11.864-52.728,40.144-55.792,73.96H173.32c-13.232,0-24,10.768-24,24c0,12.672,9.904,22.976,22.36,23.832L136.608,344H120   c-9.96,0-18.52,6.104-22.144,14.768C92.072,356.352,88,350.648,88,344V184c0-22.056-17.944-40-40-40H0v8   c0,12.272,4.976,24.288,13.656,32.968l1.376,1.376C20.728,192.048,24,199.936,24,208v136c0,41.872,32.352,76.272,73.368,79.664   C100.584,433.128,109.464,440,120,440h4.52c2.472,10.832,7.376,21.088,14.672,29.896C152.92,486.488,173.136,496,194.664,496   h181.32c21.528,0,41.744-9.512,55.472-26.104c13.72-16.584,19.288-38.224,15.256-59.376l-1.016-5.344   C477.208,392.128,496,336.232,496,303.992v-42C496,214.576,457.424,176,410,176z M285.32,16c10.92,0,20.056,7.376,22.952,17.368   C303.4,32.528,298.424,32,293.32,32h-16c-5.104,0-10.08,0.528-14.952,1.368C265.264,23.376,274.4,16,285.32,16z M277.32,48h16   c36.992,0,67.536,28.056,71.528,64H205.792C209.792,76.056,240.328,48,277.32,48z M40,344V208c0-12.272-4.976-24.288-13.656-32.968   l-1.376-1.376c-3.784-3.784-6.496-8.528-7.888-13.656H48c13.232,0,24,10.768,24,24v160c0,14.872,10.24,27.288,24,30.864v32.584   C64.48,403.488,40,376.576,40,344z M112,416v-48c0-4.416,3.592-8,8-8h13.56l-9.624,50.52c-0.856,4.496-1.184,9-1.192,13.48H120   C115.592,424,112,420.416,112,416z M419.128,459.704C408.448,472.6,392.72,480,375.984,480h-181.32   c-16.744,0-32.472-7.4-43.144-20.296c-10.672-12.904-15-29.736-11.864-46.176L187.944,160H336v-16H173.32c-4.408,0-8-3.584-8-8   s3.592-8,8-8h224c4.408,0,8,3.584,8,8s-3.592,8-8,8H352v16h30.696l48.296,253.52C434.128,429.968,429.8,446.8,419.128,459.704z    M480,304c0,28.472-16.56,72.84-37.424,84.832L405.088,192H410c38.6,0,70,31.4,70,70V304z"/>
	<path style="fill:#333333;" d="M226.008,258.008c-19.376,19.376-31.32,43.968-33.616,69.232   c-2.344,25.824,5.592,49.264,22.344,66.016c15.232,15.224,35.704,22.664,57.32,22.664c26.896,0,55.536-11.528,77.936-33.928   c19.376-19.376,31.32-43.968,33.616-69.232c2.344-25.824-5.592-49.264-22.344-66.016   C327.072,212.568,266.408,217.616,226.008,258.008z M208.328,328.696c1.96-21.552,12.256-42.64,28.992-59.376   c19.312-19.312,43.856-29.32,66.6-29.32c14.72,0,28.648,4.248,39.944,12.832l-123.04,123.04   C211.128,363.136,206.696,346.696,208.328,328.696z M367.672,311.304c-1.96,21.552-12.256,42.64-28.992,59.376   c-31.816,31.808-77.816,38.344-106.56,16.512l123.064-123.064C364.872,276.864,369.304,293.304,367.672,311.304z"/>
</g>
<g>
</g>
<g>
</g>
<g>
</g>
<g>
</g>
<g>
</g>
<g>
</g>
<g>
</g>
<g>
</g>
<g>
</g>
<g>
</g>
<g>
</g>
<g>
</g>
<g>
</g>
<g>
</g>
<g>
</g>
</svg>
