<?xml version="1.0" encoding="iso-8859-1"?>
<!-- Generator: Adobe Illustrator 19.0.0, SVG Export Plug-In . SVG Version: 6.00 Build 0)  -->
<svg xmlns="http://www.w3.org/2000/svg" xmlns:xlink="http://www.w3.org/1999/xlink" version="1.1" id="Layer_1" x="0px" y="0px" viewBox="0 0 497 497" style="enable-background:new 0 0 497 497;" xml:space="preserve">
<rect x="256" y="208.5" style="fill:#FFA64D;" width="208" height="208"/>
<g>
	<path style="fill:#333333;" d="M468.416,147.764L440,131.82V112.5c13.232,0,24-10.768,24-24s-10.768-24-24-24v-40   c0-13.232-10.768-24-24-24H304c-13.232,0-24,10.768-24,24v40h-1c-13.232,0-24,10.768-24,24s10.768,24,24,24v19.32l-28.416,15.944   c-16.424,9.232-26.936,26.12-28.312,44.736H110.784L61.56,22.964l-45.928,10.88L61.368,192.5H0v200c0,57.344,46.656,104,104,104h32   c35.24,0,67.08-17.904,86-45.68v5.68c0,22.056,17.944,40,40,40h195c22.056,0,40-17.944,40-40V196.604   C497,176.38,486.048,157.668,468.416,147.764z M296,24.5c0-4.416,3.592-8,8-8h112c4.408,0,8,3.584,8,8v40H296V24.5z M50.44,42.036   L94.12,192.5H78.024L35.656,45.548L50.44,42.036z M136,480.5h-32c-48.52,0-88-39.48-88-88v-184h48h8h150v202.52   C213.352,451.348,177.424,480.5,136,480.5z M481,456.5c0,13.232-10.768,24-24,24H262c-13.232,0-24-10.768-24-24v-43.592   c0-0.008,0-0.008,0-0.016l0,0V196.604c0-14.448,7.824-27.816,20.424-34.88L295,141.188V96.5h-16c-4.408,0-8-3.584-8-8s3.592-8,8-8   h1h160c4.408,0,8,3.584,8,8s-3.592,8-8,8h-16v44.68l36.576,20.536c12.6,7.072,20.424,20.44,20.424,34.888V456.5z"/>
	<rect x="312" y="32.5" style="fill:#333333;" width="16" height="16"/>
	<rect x="352" y="32.5" style="fill:#333333;" width="16" height="16"/>
	<rect x="392" y="32.5" style="fill:#333333;" width="16" height="16"/>
	<rect x="320" y="256.5" style="fill:#333333;" width="112" height="16"/>
	<rect x="288" y="256.5" style="fill:#333333;" width="16" height="16"/>
	<rect x="288" y="352.5" style="fill:#333333;" width="112" height="16"/>
	<rect x="416" y="352.5" style="fill:#333333;" width="16" height="16"/>
	<rect x="288" y="304.5" style="fill:#333333;" width="144" height="16"/>
	<path style="fill:#333333;" d="M190.24,337.428c1.112-2.768,1.76-5.768,1.76-8.928v-32c0-13.232-10.768-24-24-24h-32   c-2.464,0-4.792,0.48-7.032,1.176c-0.808-4.72-2.992-9.256-6.624-12.888l-22.632-22.624c-9.368-9.36-24.592-9.36-33.944,0   l-22.624,22.624c-9.36,9.36-9.36,24.584,0,33.944l22.624,22.624c1.216,1.208,2.536,2.248,3.92,3.144H56c-13.232,0-24,10.768-24,24   v48c0,13.232,10.768,24,24,24h48c6.168,0,11.744-2.408,16-6.24c4.256,3.84,9.832,6.24,16,6.24h48c13.232,0,24-10.768,24-24v-32   C208,349.436,200.44,340.188,190.24,337.428z M136,288.5h32c4.408,0,8,3.584,8,8v32c0,4.416-3.592,8-8,8h-32c-4.408,0-8-3.584-8-8   v-32C128,292.084,131.592,288.5,136,288.5z M54.464,283.412c-3.12-3.128-3.12-8.192,0-11.32l22.624-22.624   c1.56-1.56,3.608-2.336,5.656-2.336s4.104,0.776,5.664,2.336l22.624,22.624c3.12,3.12,3.12,8.2,0,11.32L88.4,306.036   c-3.12,3.128-8.2,3.128-11.32,0L54.464,283.412z M99.712,317.348L112,305.068v16.904c-2.512-0.896-5.184-1.472-8-1.472h-8.192   C97.184,319.604,98.504,318.564,99.712,317.348z M104,400.5H56c-4.408,0-8-3.584-8-8v-48c0-4.416,3.592-8,8-8h48   c4.408,0,8,3.584,8,8v16v32C112,396.916,108.408,400.5,104,400.5z M192,392.5c0,4.416-3.592,8-8,8h-48c-4.408,0-8-3.584-8-8v-32   c0-4.416,3.592-8,8-8h32h16c4.408,0,8,3.584,8,8V392.5z"/>
</g>
<g>
</g>
<g>
</g>
<g>
</g>
<g>
</g>
<g>
</g>
<g>
</g>
<g>
</g>
<g>
</g>
<g>
</g>
<g>
</g>
<g>
</g>
<g>
</g>
<g>
</g>
<g>
</g>
<g>
</g>
</svg>
