<?xml version="1.0" encoding="iso-8859-1"?>
<!-- Generator: Adobe Illustrator 19.0.0, SVG Export Plug-In . SVG Version: 6.00 Build 0)  -->
<svg xmlns="http://www.w3.org/2000/svg" xmlns:xlink="http://www.w3.org/1999/xlink" version="1.1" id="Layer_1" x="0px" y="0px" viewBox="0 0 496 496" style="enable-background:new 0 0 496 496;" xml:space="preserve">
<g>
	<rect x="200" y="232" style="fill:#FFA64D;" width="32" height="64"/>
	<path style="fill:#FFA64D;" d="M160,248H32c-17.648,0-32-14.352-32-32s14.352-32,32-32h128V248z"/>
	<path style="fill:#FFA64D;" d="M352,352c-17.648,0-32-14.352-32-32V208h64v112C384,337.648,369.648,352,352,352z"/>
</g>
<g>
	<path style="fill:#333333;" d="M472,0h-48c-10.416,0-19.216,6.712-22.528,16H184c-13.232,0-24,10.768-24,24h-24   c-13.232,0-24,10.768-24,24v48c0,13.232,10.768,24,24,24h24c0,13.232,10.768,24,24,24h32v32h-56v16h56c8.824,0,16-7.176,16-16v-32   h16v40c0,13.232-10.768,24-24,24h-64v16h64c22.056,0,40-17.944,40-40v-40h64v48h16v-48h16v48h16v-48h24v288H266.44   c22.68-15.936,37.56-42.24,37.56-72v-88H128v32h-16c-26.472,0-48,21.528-48,48s21.528,48,48,48h25.712   c6.568,12.8,16.152,23.784,27.848,32H40c-22.056,0-40,17.944-40,40v8h496v-32v-16V120V80v-8v-8V24C496,10.768,485.232,0,472,0z    M136,120c-4.416,0-8-3.592-8-8V64c0-4.408,3.584-8,8-8h24v64H136z M176,136V40c0-4.408,3.584-8,8-8h24v112h-24   C179.584,144,176,140.408,176,136z M224,144V32h176v32v16v64H224z M288,304v32H144v-32H288z M112,400c-17.648,0-32-14.352-32-32   s14.352-32,32-32h16v40c0,8.328,1.24,16.36,3.408,24H112z M144,376v-24h144v24c0,39.704-32.296,72-72,72S144,415.704,144,376z    M480,480H17.368c3.304-9.312,12.2-16,22.632-16h360h80V480z M480,448h-64V176h24c15.664,0,29.824-6.48,40-16.888V448z M480,120   c0,22.056-17.944,40-40,40h-24V80h64V120z M416,64V24c0-4.408,3.584-8,8-8h48c4.416,0,8,3.592,8,8v40H416z"/>
	<rect x="128" y="184" style="fill:#333333;" width="16" height="64"/>
	<rect x="320" y="224" style="fill:#333333;" width="64" height="16"/>
	<path style="fill:#333333;" d="M272.312,56.312c-9.464,9.464-15.2,21.584-16.168,34.144c-1,13.016,3.2,24.944,11.832,33.576   c8,8,18.712,11.928,29.872,11.928c13.208,0,27.072-5.504,37.832-16.272c9.464-9.464,15.2-21.584,16.168-34.144   c1-13.016-3.2-24.944-11.832-33.576C322.552,34.496,292.168,36.456,272.312,56.312z M283.624,67.624   c7.672-7.672,17.44-11.64,26.504-11.64c4.208,0,8.224,0.968,11.864,2.704l-47.28,47.28c-2.024-4.232-3.032-9.064-2.624-14.296   C272.768,82.936,276.856,74.392,283.624,67.624z M324.376,108.376c-11.232,11.232-26.872,14.376-38.336,8.904l47.248-47.256   c2.024,4.232,3.032,9.064,2.624,14.296C335.232,93.064,331.144,101.608,324.376,108.376z"/>
</g>
<g>
</g>
<g>
</g>
<g>
</g>
<g>
</g>
<g>
</g>
<g>
</g>
<g>
</g>
<g>
</g>
<g>
</g>
<g>
</g>
<g>
</g>
<g>
</g>
<g>
</g>
<g>
</g>
<g>
</g>
</svg>
