<?xml version="1.0" encoding="iso-8859-1"?>
<!-- Generator: Adobe Illustrator 19.0.0, SVG Export Plug-In . SVG Version: 6.00 Build 0)  -->
<svg xmlns="http://www.w3.org/2000/svg" xmlns:xlink="http://www.w3.org/1999/xlink" version="1.1" id="Layer_1" x="0px" y="0px" viewBox="0 0 496 496" style="enable-background:new 0 0 496 496;" xml:space="preserve">
<path style="fill:#FFA64D;" d="M88,128v134.632c0,16.784,2.936,33.44,8.672,49.208L120,376h176l23.328-64.16  c5.736-15.776,8.672-32.424,8.672-49.208V128H88z"/>
<g>
	<path style="fill:#333333;" d="M398.568,99.656L336,89.224V56c0-13.232-10.768-24-24-24h-40v-8c0-13.232-10.768-24-24-24h-80   c-13.232,0-24,10.768-24,24v8h-40c-13.232,0-24,10.768-24,24v206.632c0,17.76,3.08,35.232,9.16,51.944l19.824,54.52   C83.368,374.232,64,396.896,64,424v72h288v-72c0-27.104-19.368-49.768-44.984-54.896l19.824-54.52   c1.312-3.6,2.408-7.248,3.44-10.904l71.416-17.848c17.84-4.464,30.304-20.416,30.304-38.808V139.112   C432,119.472,417.944,102.88,398.568,99.656z M336,137.472l48,8.16v95.832l-48,12.24V137.472z M160,24c0-4.408,3.584-8,8-8h80   c4.416,0,8,3.592,8,8v8h-96V24z M336,424v24h-80v16h80v16H80v-16h80v-16H80v-24c0-22.056,17.944-40,40-40h88h88   C318.056,384,336,401.944,336,424z M311.816,309.112L290.4,368H125.6l-21.416-58.888C98.752,294.168,96,278.528,96,262.632V96h192   V80H96V56c0-4.408,3.584-8,8-8h208c4.416,0,8,3.592,8,8v24h-16v16h16v166.632C320,278.52,317.24,294.168,311.816,309.112z    M416,247.016c0,11.032-7.48,20.608-18.176,23.288l-63.76,15.936c0.832-5.272,1.336-10.592,1.6-15.944L400,253.888v-121.76   l-64-10.88V105.44l59.944,9.992C407.56,117.368,416,127.328,416,139.104V247.016z"/>
	<polygon style="fill:#333333;" points="272,144 224,144 224,160 272,160 272,176 240,176 240,192 272,192 272,208 224,208 224,224    272,224 272,240 240,240 240,256 272,256 272,272 224,272 224,288 272,288 272,304 288,304 288,128 272,128  "/>
	<path style="fill:#333333;" d="M168,424c0,22.056,17.944,40,40,40s40-17.944,40-40s-17.944-40-40-40S168,401.944,168,424z M232,424   c0,13.232-10.768,24-24,24s-24-10.768-24-24c0-3.696,0.904-7.152,2.408-10.28l15.936,15.936l11.312-11.312l-15.936-15.936   c3.128-1.504,6.584-2.408,10.28-2.408C221.232,400,232,410.768,232,424z"/>
</g>
<g>
</g>
<g>
</g>
<g>
</g>
<g>
</g>
<g>
</g>
<g>
</g>
<g>
</g>
<g>
</g>
<g>
</g>
<g>
</g>
<g>
</g>
<g>
</g>
<g>
</g>
<g>
</g>
<g>
</g>
</svg>
