<?xml version="1.0" encoding="iso-8859-1"?>
<!-- Generator: Adobe Illustrator 19.0.0, SVG Export Plug-In . SVG Version: 6.00 Build 0)  -->
<svg xmlns="http://www.w3.org/2000/svg" xmlns:xlink="http://www.w3.org/1999/xlink" version="1.1" id="Layer_1" x="0px" y="0px" viewBox="0 0 496 496" style="enable-background:new 0 0 496 496;" xml:space="preserve">
<path style="fill:#FFA64D;" d="M100,376v72h240V232C220,232,220,376,100,376z"/>
<path style="fill:#333333;" d="M388,152h-40v-24v-8c0-22.056-17.944-40-40-40h-80V62.864c13.768-3.576,24-16,24-30.864  c0-17.648-14.352-32-32-32s-32,14.352-32,32c0,14.864,10.232,27.288,24,30.864V80h-80c-22.056,0-40,17.944-40,40H52v28.528  l20.576,12.344C84.552,168.056,92,181.208,92,195.176V464c0,8.824-7.176,16-16,16v16h288v-16c-8.824,0-16-7.176-16-16v-72h40  c30.872,0,56-25.128,56-56V208C444,177.12,418.872,152,388,152z M204,32c0-8.824,7.176-16,16-16s16,7.176,16,16s-7.176,16-16,16  S204,40.824,204,32z M132,96h176c13.232,0,24,10.768,24,24H108C108,106.768,118.768,96,132,96z M332,448h-16v16h16  c0,5.824,1.56,11.288,4.296,16H103.704c2.736-4.712,4.296-10.176,4.296-16h192v-16H108V195.176c0-19.56-10.424-37.96-27.184-48.016  L68,139.472V136h264v16v240V448z M428,336c0,22.056-17.944,40-40,40h-40V168h40c22.056,0,40,17.944,40,40V336z"/>
<g>
</g>
<g>
</g>
<g>
</g>
<g>
</g>
<g>
</g>
<g>
</g>
<g>
</g>
<g>
</g>
<g>
</g>
<g>
</g>
<g>
</g>
<g>
</g>
<g>
</g>
<g>
</g>
<g>
</g>
</svg>
