<?xml version="1.0" encoding="iso-8859-1"?>
<!-- Generator: Adobe Illustrator 19.0.0, SVG Export Plug-In . SVG Version: 6.00 Build 0)  -->
<svg xmlns="http://www.w3.org/2000/svg" xmlns:xlink="http://www.w3.org/1999/xlink" version="1.1" id="Layer_1" x="0px" y="0px" viewBox="0 0 496 496" style="enable-background:new 0 0 496 496;" xml:space="preserve">
<g>
	<rect x="8" y="296" style="fill:#FFA64D;" width="256" height="160"/>
	<polygon style="fill:#FFA64D;" points="264,344 480,344 480,168 240,168 240,216 264,216  "/>
</g>
<g>
	<path style="fill:#333333;" d="M496,56V24c0-13.232-10.768-24-24-24H248c-13.232,0-24,10.768-24,24v32c0,7.064,3.128,13.36,8,17.76   V208H24c-13.232,0-24,10.768-24,24v224c0,22.056,17.944,40,40,40h192c2.736,0,5.416-0.28,8-0.808V496h232c13.232,0,24-10.768,24-24   v-32c0-7.064-3.128-13.36-8-17.76V73.76C492.872,69.36,496,63.064,496,56z M480,24v32c0,4.408-3.592,8-8,8h-32V16h32   C476.408,16,480,19.592,480,24z M296,64V16h32v48H296z M344,16h32v48h-32V16z M392,16h32v48h-32V16z M240,24c0-4.408,3.592-8,8-8   h32v48h-32c-4.408,0-8-3.592-8-8V24z M40,480c-13.232,0-24-10.768-24-24V272h208v-16H16v-24c0-4.408,3.592-8,8-8h224   c4.408,0,8,3.592,8,8v24h-16v16h16v184c0,13.232-10.768,24-24,24H40z M480,472c0,4.416-3.592,8-8,8H263.792   c5.08-6.704,8.208-14.96,8.208-24v-24h200c4.408,0,8,3.584,8,8V472z M472,416H272V232c0-13.232-10.768-24-24-24V80h224V416z"/>
	<path style="fill:#333333;" d="M344.224,319.896c18.48,0,38.856-8.472,55.032-24.64c27.824-27.824,32.848-68.064,11.2-89.712   c-21.648-21.648-61.888-16.624-89.704,11.2s-32.84,68.064-11.2,89.704C318.608,315.512,330.92,319.896,344.224,319.896z    M387.944,283.944c-18.864,18.856-44.24,25.08-60.616,16.04l76.664-76.664C413.016,239.704,406.808,265.072,387.944,283.944z    M332.056,228.056c13.136-13.136,29.408-20.136,43.624-20.136c6.192,0,11.928,1.448,16.896,4.184l-76.568,76.568   C306.984,272.296,313.192,246.928,332.056,228.056z"/>
	<path style="fill:#333333;" d="M96.744,336.744c-27.824,27.824-32.848,68.064-11.2,89.712c9.056,9.064,21.368,13.448,34.672,13.448   c18.48,0,38.856-8.472,55.032-24.64c27.824-27.824,32.848-68.064,11.2-89.712C164.808,303.888,124.568,308.92,96.744,336.744z    M108.056,348.056c13.136-13.128,29.416-20.128,43.624-20.128c6.192,0,11.928,1.448,16.896,4.184L92.008,408.68   C82.984,392.296,89.192,366.928,108.056,348.056z M163.944,403.944c-18.864,18.856-44.24,25.08-60.616,16.04l76.664-76.664   C189.016,359.704,182.808,385.072,163.944,403.944z"/>
</g>
<g>
</g>
<g>
</g>
<g>
</g>
<g>
</g>
<g>
</g>
<g>
</g>
<g>
</g>
<g>
</g>
<g>
</g>
<g>
</g>
<g>
</g>
<g>
</g>
<g>
</g>
<g>
</g>
<g>
</g>
</svg>
