<?xml version="1.0" encoding="iso-8859-1"?>
<!-- Generator: Adobe Illustrator 19.0.0, SVG Export Plug-In . SVG Version: 6.00 Build 0)  -->
<svg xmlns="http://www.w3.org/2000/svg" xmlns:xlink="http://www.w3.org/1999/xlink" version="1.1" id="Layer_1" x="0px" y="0px" viewBox="0 0 496 496" style="enable-background:new 0 0 496 496;" xml:space="preserve">
<g>
	<path style="fill:#FFA64D;" d="M224,200v32l21.984,17.592c11.384,9.112,18.016,22.896,18.016,37.48v88.92V376h168V200H224z"/>
	<rect x="32" y="296" style="fill:#FFA64D;" width="208" height="128"/>
</g>
<g>
	<path style="fill:#333333;" d="M456,0H200c-22.056,0-40,17.944-40,40v16c0,16.36,9.896,30.416,24,36.608V144H40   c-13.232,0-24,10.768-24,24v16c0,13.232,10.768,24,24,24v20.16l-18.984,15.184C7.656,254.024,0,269.96,0,287.072V472   c0,13.232,10.768,24,24,24h208h16h184c22.056,0,40-17.944,40-40V92.608C486.104,86.416,496,72.36,496,56V40   C496,17.944,478.056,0,456,0z M32,184v-16c0-4.408,3.592-8,8-8h192c4.408,0,8,3.592,8,8v16c0,4.408-3.592,8-8,8H40   C35.592,192,32,188.408,32,184z M256,472c0,4.416-3.592,8-8,8h-16H24c-4.408,0-8-3.584-8-8V287.072   c0-12.216,5.472-23.6,15.008-31.232L56,235.848V208h160v27.84l24.992,19.992c9.536,7.632,15.008,19.016,15.008,31.232V472z    M456,456c0,13.232-10.768,24-24,24H270.528c0.896-2.512,1.472-5.184,1.472-8V335.576c0.072,0.072,0.128,0.152,0.2,0.224   c10.832,10.832,25.296,16.16,40.336,16.16c17.52,0,35.816-7.232,50-21.424c12.632-12.624,20.2-28.864,21.328-45.728   c1.152-17.256-4.552-33.104-16.056-44.608c-23.456-23.456-63.976-21.088-90.336,5.272c-4.72,4.72-8.728,9.944-11.968,15.52   c-3.544-6.712-8.4-12.744-14.52-17.64L232,228.168V208c13.232,0,24-10.768,24-24v-16c0-13.232-10.768-24-24-24h-32V96h256L456,456   L456,456z M278.472,318.208c-4.76-7.352-7.008-16.312-6.368-25.952c0.864-12.992,6.792-25.592,16.672-35.48   c11.088-11.08,25.288-16.776,38.68-16.776c8.184,0,16.08,2.128,22.776,6.456L278.472,318.208z M361.528,257.784   c4.76,7.352,7.008,16.312,6.368,25.96c-0.864,12.992-6.792,25.592-16.672,35.48c-17.856,17.864-43.776,21.68-61.416,10.288   L361.528,257.784z M480,56c0,13.232-10.768,24-24,24H200c-13.232,0-24-10.768-24-24V40c0-13.232,10.768-24,24-24h256   c13.232,0,24,10.768,24,24V56z"/>
	<rect x="224" y="32" style="fill:#333333;" width="16" height="32"/>
	<rect x="272" y="32" style="fill:#333333;" width="16" height="32"/>
	<rect x="368" y="32" style="fill:#333333;" width="16" height="32"/>
	<rect x="320" y="32" style="fill:#333333;" width="16" height="32"/>
	<rect x="416" y="32" style="fill:#333333;" width="16" height="32"/>
	<rect x="208" y="392" style="fill:#333333;" width="16" height="16"/>
	<rect x="80" y="392" style="fill:#333333;" width="112" height="16"/>
</g>
<g>
</g>
<g>
</g>
<g>
</g>
<g>
</g>
<g>
</g>
<g>
</g>
<g>
</g>
<g>
</g>
<g>
</g>
<g>
</g>
<g>
</g>
<g>
</g>
<g>
</g>
<g>
</g>
<g>
</g>
</svg>
