<?xml version="1.0" encoding="iso-8859-1"?>
<!-- Generator: Adobe Illustrator 19.0.0, SVG Export Plug-In . SVG Version: 6.00 Build 0)  -->
<svg xmlns="http://www.w3.org/2000/svg" xmlns:xlink="http://www.w3.org/1999/xlink" version="1.1" id="Layer_1" x="0px" y="0px" viewBox="0 0 495.992 495.992" style="enable-background:new 0 0 495.992 495.992;" xml:space="preserve">
<path style="fill:#FFA64D;" d="M71.996,112v4.824c0,36.88,18.752,71.232,49.776,91.176H278.22  c31.024-19.944,49.776-54.296,49.776-91.176V112H71.996z"/>
<g>
	<path style="fill:#333333;" d="M479.996,48c0-26.472-21.528-48-48-48h-80h-104h-80h-104c-26.472,0-48,21.528-48,48s21.528,48,48,48   v20.824c0,32.392,13.248,62.664,36.224,84.408c-11.64,3.392-20.224,14.04-20.224,26.768c0,11.968,7.592,22.136,18.184,26.128   c-1.376,3.016-2.184,6.344-2.184,9.872v2.24l-20.656,6.88c-16.36,5.456-27.344,20.704-27.344,37.944v49.872   c0,17.24,10.992,32.496,27.352,37.952l22.6,7.52c2.632,9.856,7.848,18.656,14.936,25.584H47.996c-17.648,0-32,14.352-32,32   s14.352,32,32,32h400V93.2C466.612,86.592,479.996,68.856,479.996,48z M247.996,16c4.408,0,8,3.592,8,8s-3.592,8-8,8h-80   c-4.408,0-8-3.592-8-8s3.592-8,8-8H247.996z M31.996,48c0-17.648,14.352-32,32-32h81.472c-0.896,2.512-1.472,5.184-1.472,8   c0,13.232,10.768,24,24,24h80c13.232,0,24-10.768,24-24c0-2.816-0.576-5.488-1.472-8h81.472c17.648,0,32,14.352,32,32   s-14.352,32-32,32h-288C46.348,80,31.996,65.648,31.996,48z M383.996,208h-32v-32h32V208z M351.996,272h32v32h-32V272z    M383.996,256h-32v-32h32V256z M335.996,160v48v64v48h48v112h-96.888c10.4-10.176,16.888-24.336,16.888-40V264   c0-3.528-0.808-6.856-2.184-9.872c10.592-4,18.184-14.16,18.184-26.128c0-12.72-8.584-23.368-20.224-26.768   c22.976-21.752,36.224-52.024,36.224-84.408V96h16h32v64H335.996z M319.996,96v20.824c0,33.592-16.592,64.48-44.376,83.176H159.996   v-24c0-22.056-17.944-40-40-40H82.02c-1.208-6.264-2.024-12.64-2.024-19.176V96H319.996z M86.412,152h33.584   c13.232,0,24,10.768,24,24v24h-19.624C106.716,188.112,93.62,171.32,86.412,152z M107.996,216h184c6.616,0,12,5.384,12,12   s-5.384,12-12,12h-184c-6.616,0-12-5.384-12-12S101.38,216,107.996,216z M63.996,360.936v-49.872   c0-10.344,6.592-19.496,16.408-22.776l15.592-5.192v105.816l-15.592-5.192C70.588,380.432,63.996,371.28,63.996,360.936z    M111.996,392V264c0-4.416,3.592-8,8-8h160c4.408,0,8,3.584,8,8v128c0,22.056-17.944,40-40,40h-96   C129.94,432,111.996,414.056,111.996,392z M431.996,480h-384c-8.824,0-16-7.176-16-16s7.176-16,16-16h104h96h152V320v-48v-64v-48   V96h32V480z M431.996,80h-44.32c7.632-8.504,12.32-19.696,12.32-32s-4.688-23.496-12.32-32h44.32c17.648,0,32,14.352,32,32   S449.644,80,431.996,80z"/>
	<rect x="255.996" y="272" style="fill:#333333;" width="16" height="16"/>
	<rect x="127.996" y="272" style="fill:#333333;" width="112" height="16"/>
</g>
<g>
</g>
<g>
</g>
<g>
</g>
<g>
</g>
<g>
</g>
<g>
</g>
<g>
</g>
<g>
</g>
<g>
</g>
<g>
</g>
<g>
</g>
<g>
</g>
<g>
</g>
<g>
</g>
<g>
</g>
</svg>
