<?xml version="1.0" encoding="iso-8859-1"?>
<!-- Generator: Adobe Illustrator 19.0.0, SVG Export Plug-In . SVG Version: 6.00 Build 0)  -->
<svg xmlns="http://www.w3.org/2000/svg" xmlns:xlink="http://www.w3.org/1999/xlink" version="1.1" id="Layer_1" x="0px" y="0px" viewBox="0 0 498.064 498.064" style="enable-background:new 0 0 498.064 498.064;" xml:space="preserve">
<g>
	<path style="fill:#333333;" d="M403.096,417.032c3.384-2.728,6.584-5.696,9.464-9.048c12.016-13.968,18.144-31.872,17.344-50.072   c31.024-9.544,55.552-34.6,63.968-66.424c1.408-5.328,2.128-10.824,2.128-16.336v-33.168c0-21.136-4.32-41.672-12.848-61.032   c-7.808-17.72-23-30.8-41.688-35.888c-14.44-3.928-29.472-2.632-42.816,3.344l-5.352-35.376h7.096c13.232,0,24-10.768,24-24   s-10.768-24-24-24H383.92c-3.992-35.944-34.528-64-71.528-64h-48c-37,0-67.536,28.056-71.528,64h-16.472c-13.232,0-24,10.768-24,24   s10.768,24,24,24h7.096l-14.632,96.776c-10.312,0.584-26.536-1.664-41.232-12.848c-18.24-13.872-28.704-37.232-31.104-69.416   c-0.936-12.624-11.448-22.512-23.944-22.512H0V134.2c0,9.864,5.92,18.616,15.088,22.288l20.608,8.24   c2.712,1.088,4.624,3.664,5.008,6.744c2.088,16.952,18.048,101.56,127.296,101.56v-8.096l8.496,1.28l23.16-153.184H336v-16H176.392   c-4.416,0-8-3.592-8-8s3.584-8,8-8h224c4.416,0,8,3.592,8,8s-3.584,8-8,8H352v16h25.12l36.232,239.624   c2.448,16.152-2.264,32.512-12.912,44.896c-10.648,12.376-26.128,19.48-42.456,19.48H218.8c-5.624,0-11.152-0.824-16.432-2.44   l-0.744,2.44H0v18.128l14.624,25.6c12.792,22.376,36.744,36.272,62.52,36.272H419.28c26.176,0,50.32-14.224,63-37.128l13.48-24.344   l2.304-18.528H403.096z M56.576,169.512c-1.096-8.864-6.824-16.384-14.944-19.64l-20.6-8.24C17.976,140.408,16,137.488,16,134.2   v-13.168h56.576c4.224,0,7.656,3.304,7.984,7.696c2.752,36.96,15.32,64.2,37.368,80.968c16.136,12.272,34.352,16.32,48.488,16.2   l-4.688,31C73.96,253.944,59.048,189.576,56.576,169.512z M264.392,17.032h48c28.152,0,51.456,20.904,55.36,48h-158.72   C212.936,37.936,236.24,17.032,264.392,17.032z M401.16,165.008c10.928-6.184,23.808-7.84,36.104-4.488   c14.008,3.816,25.4,13.616,31.248,26.904c7.624,17.312,11.496,35.672,11.496,54.576v33.168c0,4.128-0.536,8.24-1.592,12.24   c-6.752,25.536-26,45.824-50.52,54.336L401.16,165.008z M470,449.032h-30v16h18.368c-10.312,10.072-24.264,16-39.096,16H77.144   c-14.792,0-28.792-5.92-39.12-16h385.984v-16H26.352l-9.144-16h201.584h139.184h120.872L470,449.032z"/>
	<path style="fill:#333333;" d="M32,77.032c0-10.016,4.792-19.584,12.808-25.6C56.824,42.416,64,28.064,64,13.032v-12H48v12   c0,10.016-4.792,19.584-12.808,25.6C23.176,47.648,16,62,16,77.032v12h16V77.032z"/>
	<path style="fill:#333333;" d="M48,77.032v12h16v-12c0-10.016,4.792-19.584,12.808-25.6C88.824,42.416,96,28.064,96,13.032v-12H80   v12c0,10.016-4.792,19.584-12.808,25.6C55.176,47.656,48,62.008,48,77.032z"/>
</g>
<polygon style="fill:#FFA64D;" points="200,417.032 72,417.032 56,257.032 216,257.032 "/>
<g>
</g>
<g>
</g>
<g>
</g>
<g>
</g>
<g>
</g>
<g>
</g>
<g>
</g>
<g>
</g>
<g>
</g>
<g>
</g>
<g>
</g>
<g>
</g>
<g>
</g>
<g>
</g>
<g>
</g>
</svg>
