<?xml version="1.0" encoding="iso-8859-1"?>
<!-- Generator: Adobe Illustrator 19.0.0, SVG Export Plug-In . SVG Version: 6.00 Build 0)  -->
<svg xmlns="http://www.w3.org/2000/svg" xmlns:xlink="http://www.w3.org/1999/xlink" version="1.1" id="Layer_1" x="0px" y="0px" viewBox="0 0 496 496" style="enable-background:new 0 0 496 496;" xml:space="preserve">
<path style="fill:#FFA64D;" d="M391.996,215.592V120c0-33.032-25.16-60.304-57.32-63.656C326.94,23.8,297.404,0,263.428,0h-15.432  c-79.4,0-144,64.6-144,144v71.592c-3.072,30.368-11.488,128.584,5.712,147.608c1.472,1.624,3,2.632,4.496,3.36  c11.096-7.672,23.864-13.04,37.704-15.168L199.996,344v-19.792c-33.256-17.352-56-52.096-56-92.208v16c-17.672,0-32-14.328-32-32  s14.328-32,32-32v-24h28.12c43.464,0,85.152-17.264,115.88-48c0,0,16,32,64,32v40c17.672,0,32,14.328,32,32s-14.328,32-32,32v-16  c0,40.112-22.744,74.856-56,92.208V344l48.088,7.4c13.84,2.128,26.608,7.496,37.704,15.168c1.496-0.728,3.024-1.736,4.496-3.36  C403.484,344.176,395.068,245.96,391.996,215.592z"/>
<g>
	<path style="fill:#333333;" d="M215.996,196c0-11.024-8.968-20-20-20s-20,8.976-20,20s8.968,20,20,20S215.996,207.024,215.996,196z    M191.996,196c0-2.208,1.8-4,4-4s4,1.792,4,4s-1.8,4-4,4S191.996,198.208,191.996,196z"/>
	<path style="fill:#333333;" d="M299.996,216c11.032,0,20-8.976,20-20s-8.968-20-20-20s-20,8.976-20,20S288.964,216,299.996,216z    M299.996,192c2.2,0,4,1.792,4,4s-1.8,4-4,4s-4-1.792-4-4S297.796,192,299.996,192z"/>
	<path style="fill:#333333;" d="M424.5,411.608c-10.552-33.752-38.928-59.464-73.224-66.976c8.544-15.648,8.712-31.768,8.712-32.632   h-16c0,0.184-0.152,16.648-9.792,29.784l-30.208-4.648v-8.288c26.92-15.624,46.784-42.072,53.488-73.4   c19.44-2.704,34.512-19.272,34.512-39.448c0-19.312-13.768-35.472-32-39.192V136h-8c-41.888,0-56.168-26.272-56.856-27.616   l-4.944-9.888l-7.848,7.848C252.892,135.784,213.756,152,172.116,152h-36.12v24.808c-18.232,3.72-32,19.872-32,39.192   c0,20.176,15.072,36.736,34.512,39.448c6.704,31.328,26.568,57.776,53.488,73.4v8.288l-30.2,4.648   c-9.544-13.064-9.8-29.624-9.8-29.808l-8,0.024h-8c0,0.864,0.168,16.984,8.712,32.632c-34.296,7.512-62.672,33.224-73.224,66.976   L45.116,496h405.768L424.5,411.608z M409.236,416.376L429.116,480h-61.12v-21.784c2.112-0.752,4.152-1.776,6.04-3.136   c6.328-4.568,9.96-11.664,9.96-19.472v-35.6c0-7.808-3.632-14.904-9.96-19.472c-6.344-4.568-14.224-5.76-21.632-3.304   l-16.408,5.472V358.24l6.872,1.056C373.836,364.072,399.884,386.472,409.236,416.376z M364.676,442.104   c-2.112,1.52-4.728,1.928-6.768,1.264l-21.912-8.784v-8.776h32v9.8C367.996,438.216,366.788,440.584,364.676,442.104z    M367.996,409.816h-32v-10.232l21.472-7.16c2.472-0.832,5.096-0.424,7.208,1.104c2.112,1.52,3.32,3.888,3.32,6.488V409.816z    M319.996,432h-16v-78.68l16,2.464V432z M207.996,370.072c8.952,7.768,21.88,13.928,40,13.928s31.048-6.16,40-13.928V432h-80   V370.072z M287.996,342.832C286.62,347,278.212,368,247.996,368c-30.208,0-38.6-20.904-40-25.168v-6.344   c12.44,4.784,25.896,7.512,40,7.512s27.56-2.728,40-7.512V342.832z M191.996,432h-16v-76.216l16-2.464V432z M159.996,409.816h-32   v-9.8c0-2.6,1.208-4.968,3.32-6.488s4.736-1.936,7.208-1.104l21.472,7.16L159.996,409.816L159.996,409.816z M159.996,425.816v8.776   l-21.472,8.608c-2.488,0.824-5.104,0.416-7.208-1.104s-3.32-3.888-3.32-6.488v-9.8h32V425.816z M143.996,458.232   c0.016-0.008,0.024-0.008,0.04-0.008L169.54,448h156.912l25.544,10.224V480h-208V458.232z M375.996,216   c0,10.536-6.872,19.416-16.336,22.632c0.128-2.208,0.336-4.392,0.336-6.632v-38.528C369.284,196.784,375.996,205.584,375.996,216z    M119.996,216c0-10.416,6.712-19.216,16-22.528V232c0,2.24,0.208,4.424,0.336,6.632C126.868,235.416,119.996,226.536,119.996,216z    M151.996,232v-64h20.12c42.728,0,83.064-15.48,114.624-43.792c8.232,9.968,25.808,25.256,57.256,27.504V232   c0,52.936-43.064,96-96,96S151.996,284.936,151.996,232z M86.756,416.376c9.352-29.904,35.4-52.312,66.368-57.072l6.872-1.056   v24.464l-16.408-5.472c-7.424-2.48-15.288-1.272-21.632,3.304c-6.328,4.568-9.96,11.664-9.96,19.472v35.6   c0,7.808,3.632,14.904,9.96,19.472c1.888,1.36,3.92,2.384,6.04,3.128V480h-61.12L86.756,416.376z"/>
	<path style="fill:#333333;" d="M303.996,256h-16c0,13.232-10.768,24-24,24h-32c-13.232,0-24-10.768-24-24h-16   c0,22.056,17.944,40,40,40h32C286.052,296,303.996,278.056,303.996,256z"/>
</g>
<g>
</g>
<g>
</g>
<g>
</g>
<g>
</g>
<g>
</g>
<g>
</g>
<g>
</g>
<g>
</g>
<g>
</g>
<g>
</g>
<g>
</g>
<g>
</g>
<g>
</g>
<g>
</g>
<g>
</g>
</svg>
