<?xml version="1.0" encoding="iso-8859-1"?>
<!-- Generator: Adobe Illustrator 19.0.0, SVG Export Plug-In . SVG Version: 6.00 Build 0)  -->
<svg xmlns="http://www.w3.org/2000/svg" xmlns:xlink="http://www.w3.org/1999/xlink" version="1.1" id="Layer_1" x="0px" y="0px" viewBox="0 0 498.88 498.88" style="enable-background:new 0 0 498.88 498.88;" xml:space="preserve">
<g>
	<polygon style="fill:#FFA64D;" points="314.88,489.44 266.88,489.44 266.88,345.44 314.88,361.44  "/>
	<polygon style="fill:#FFA64D;" points="90.88,489.44 138.88,489.44 138.88,345.44 90.88,361.44  "/>
</g>
<g>
	<path style="fill:#333333;" d="M170.88,205.44c0-11.024-8.968-20-20-20s-20,8.976-20,20s8.968,20,20,20   S170.88,216.464,170.88,205.44z M146.88,205.44c0-2.208,1.8-4,4-4s4,1.792,4,4s-1.8,4-4,4S146.88,207.648,146.88,205.44z"/>
	<path style="fill:#333333;" d="M254.88,185.44c-11.032,0-20,8.976-20,20s8.968,20,20,20c11.032,0,20-8.976,20-20   S265.912,185.44,254.88,185.44z M254.88,209.44c-2.2,0-4-1.792-4-4s1.8-4,4-4s4,1.792,4,4S257.08,209.44,254.88,209.44z"/>
	<path style="fill:#333333;" d="M202.88,297.44c-26.472,0-48-21.528-48-48h-16c0,35.288,28.712,64,64,64s64-28.712,64-64h-16   C250.88,275.912,229.352,297.44,202.88,297.44z"/>
	<path style="fill:#333333;" d="M498.88,113.44v-8h-104c-17.112,0-32.432,7.736-42.72,19.872   C338.92,54.904,277.072,1.44,202.88,1.44c-83.816,0-152,68.184-152,152v24h0.256c-5.2,8.096-8.256,17.688-8.256,28   c0,28.208,22.6,51.2,50.64,51.928c6.808,31.12,26.584,57.368,53.36,72.912v8.288l-41.312,6.36   c-36.952,5.688-68.04,32.424-79.192,68.112L0,497.44h82.88h64h112h64h82.88l-26.376-84.392   c-11.16-35.688-42.24-62.424-79.192-68.112l-41.312-6.36v-8.288c26.776-15.544,46.56-41.8,53.36-72.912   c27.424-0.72,49.592-22.744,50.544-50.112c9.104,6.392,20.16,10.176,32.096,10.176h104v-8c0-20.384-10.984-38.2-27.304-48   C487.896,151.64,498.88,133.824,498.88,113.44z M202.88,17.44c74.992,0,136,61.008,136,136v8v0.256   c-8.096-5.2-17.688-8.256-28-8.256h-4.016c-7.304-9.712-18.92-16-31.984-16h-144c-13.064,0-24.68,6.288-31.984,16H94.88   c-10.312,0-19.904,3.056-28,8.256v-8.256C66.88,78.448,127.888,17.44,202.88,17.44z M90.88,241.216c-17.976-2-32-17.28-32-35.776   c0-18.768,14.432-34.216,32.776-35.856c-0.504,2.536-0.776,5.168-0.776,7.856V241.216z M242.88,343.896l-3.536,8.856   c-6,14.992-20.312,24.688-36.472,24.688c-16.144,0-30.448-9.688-36.448-24.68l-3.544-8.856v-5.968   c12.44,4.784,25.896,7.512,40,7.512s27.56-2.728,40-7.512V343.896z M274.88,433.44h32v16h-32V433.44z M306.88,417.44h-32v-16h32   V417.44z M258.88,425.44h-112v-70.672l2.936-0.448l1.752,4.384c8.448,21.096,28.584,34.736,51.304,34.736   c22.736,0,42.88-13.64,51.328-34.744l1.752-4.376l2.928,0.448L258.88,425.44L258.88,425.44z M130.88,417.44h-32v-16h32V417.44z    M98.88,433.44h32v16h-32V433.44z M108.008,360.744l22.872-3.52v28.216h-32v-22.608   C101.88,362.008,104.896,361.224,108.008,360.744z M21.76,481.44l19.872-63.624c6.664-21.312,21.888-38.664,41.24-48.688V481.44   H21.76z M98.88,481.44v-16h32v16H98.88z M146.88,481.44v-40h112v40H146.88z M274.88,481.44v-16h32v16H274.88z M364.12,417.816   L384,481.44h-61.12V369.128C342.24,379.152,357.456,396.512,364.12,417.816z M306.88,362.832v22.608h-32v-28.216l22.872,3.52   C300.864,361.224,303.88,362.008,306.88,362.832z M202.88,329.44c-52.936,0-96-43.064-96-96v-56c0-13.232,10.768-24,24-24h144   c13.232,0,24,10.768,24,24v56C298.88,286.376,255.816,329.44,202.88,329.44z M314.88,241.216V177.44   c0-2.688-0.264-5.32-0.776-7.856c18.344,1.64,32.776,17.088,32.776,35.856C346.88,223.936,332.856,239.224,314.88,241.216z    M482.072,201.44H394.88c-19.32,0-35.48-13.768-39.192-32h87.192C462.2,169.44,478.36,183.208,482.072,201.44z M442.88,153.44   h-87.192c3.72-18.232,19.872-32,39.192-32h87.192C478.36,139.672,462.2,153.44,442.88,153.44z"/>
	<path style="fill:#333333;" d="M168.944,115.384c10.384,10.384,23.6,16.792,37.208,18.024c1.616,0.144,3.216,0.216,4.808,0.216   c12.256,0,23.312-4.384,31.512-12.592c9.264-9.264,13.664-22.168,12.376-36.32c-1.24-13.616-7.64-26.832-18.032-37.216   c-10.384-10.384-23.6-16.792-37.208-18.024c-14.104-1.248-27.056,3.104-36.32,12.368s-13.664,22.168-12.376,36.32   C152.152,91.776,158.552,104.992,168.944,115.384z M207.608,117.472c-9.888-0.904-19.608-5.664-27.352-13.408   c-7.752-7.744-12.504-17.464-13.408-27.352c-0.568-6.248,0.608-11.976,3.104-16.896l54.536,54.544   C219.568,116.872,213.824,118.048,207.608,117.472z M194.864,45.256c1.088,0,2.176,0.048,3.288,0.152   c9.888,0.904,19.608,5.664,27.352,13.408c7.752,7.744,12.504,17.464,13.408,27.352c0.568,6.248-0.608,11.976-3.104,16.896   l-54.552-54.552C185.296,46.448,189.864,45.256,194.864,45.256z"/>
</g>
<g>
</g>
<g>
</g>
<g>
</g>
<g>
</g>
<g>
</g>
<g>
</g>
<g>
</g>
<g>
</g>
<g>
</g>
<g>
</g>
<g>
</g>
<g>
</g>
<g>
</g>
<g>
</g>
<g>
</g>
</svg>
