<?xml version="1.0" encoding="iso-8859-1"?>
<!-- Generator: Adobe Illustrator 19.0.0, SVG Export Plug-In . SVG Version: 6.00 Build 0)  -->
<svg xmlns="http://www.w3.org/2000/svg" xmlns:xlink="http://www.w3.org/1999/xlink" version="1.1" id="Layer_1" x="0px" y="0px" viewBox="0 0 496 496" style="enable-background:new 0 0 496 496;" xml:space="preserve">
<circle style="fill:#FFA64D;" cx="232" cy="264" r="200"/>
<g>
	<path style="fill:#333333;" d="M496,41.944C496,18.816,477.184,0,454.056,0c-11.2,0-21.736,4.36-29.656,12.288l-60.8,60.8   C326.176,47.208,280.84,32,232,32C104.072,32,0,136.072,0,264s104.072,232,232,232s232-104.072,232-232   c0-48.84-15.208-94.176-41.088-131.6l60.8-60.8C491.64,63.672,496,53.144,496,41.944z M232,480c-119.104,0-216-96.896-216-216   S112.896,48,232,48s216,96.896,216,216S351.104,480,232,480z M472.4,60.288l-59.152,59.152   c-10.832-13.552-23.136-25.856-36.688-36.688L435.712,23.6c4.904-4.904,11.416-7.6,18.344-7.6C468.36,16,480,27.64,480,41.944   C480,48.872,477.304,55.384,472.4,60.288z"/>
	<path style="fill:#333333;" d="M368,272c0,34.336-29.712,42.472-75.04,50.952l-0.904,0.168L295,338.848l0.904-0.168   c25.248-4.728,54.464-10.192,72.096-26.848V328c0,9.92-41.4,21.424-66.144,28.296c-24.744,6.872-47.424,13.208-61.856,21.808V368   c0-13.336,11.032-20.32,42.168-26.672l-3.2-15.68c-11.472,2.344-27.248,5.576-38.96,13.384V328c0-9.528,28.712-15.68,49.672-20.176   c32.048-6.872,62.328-13.352,62.328-35.824v-72h-16c0,37.256-27.84,43.952-57.32,51.04c-13.552,3.256-28.016,6.784-38.68,14.048   V248c0-4.224,19.496-7.08,28.856-8.448c22.784-3.336,51.144-7.488,51.144-31.552v-64h-16c0,37.232-18.152,41.52-39.168,46.496   c-8.208,1.944-17.304,4.128-24.832,8.832V184c0-3.992,2.72-5.52,15.32-8.592c13.016-3.176,32.68-7.976,32.68-31.408   c0-19.88-10.992-40-32-40c-11.856,0-19.304,7.16-24,17.576c-4.696-10.416-12.144-17.576-24-17.576c-21.008,0-32,20.12-32,40   c0,23.432,19.664,28.232,32.68,31.408c12.6,3.072,15.32,4.6,15.32,8.592v15.328c-7.528-4.704-16.624-6.888-24.832-8.832   c-21.016-4.976-39.168-9.272-39.168-46.496h-16v64c0,24.064,28.352,28.216,51.144,31.552c9.368,1.368,28.856,4.224,28.856,8.448   v17.088c-10.664-7.264-25.128-10.792-38.68-14.048c-29.48-7.088-57.32-13.784-57.32-51.04h-16v72   c0,22.472,30.272,28.952,62.328,35.824c20.968,4.496,49.672,10.648,49.672,20.176v11.128   c-13.376-8.736-33.328-12.512-52.952-16.176c-45.336-8.48-75.048-16.608-75.048-50.952v-72h-16v72v8v48   c0,22.08,36.08,32.104,77.856,43.704C182.6,378.576,224,390.08,224,400v32h16v-32c0-9.92,41.4-21.424,66.144-28.296   C347.92,360.096,384,350.08,384,328v-48v-8v-72h-16V272z M212.48,159.864C197.928,156.312,192,153.88,192,144   c0-8.304,3.344-24,16-24c11.168,0,14.544,23.48,15.56,43.04C219.84,161.664,215.968,160.712,212.48,159.864z M256,120   c12.656,0,16,15.696,16,24c0,9.88-5.928,12.312-20.48,15.864c-3.488,0.848-7.368,1.8-11.08,3.176   C241.456,143.48,244.832,120,256,120z M197.464,223.72C176.24,220.616,160,217.48,160,208v-17.608   c10.376,9.736,24.04,12.968,35.48,15.672c18.24,4.32,27.504,7.24,28.44,23.136C216.288,226.48,206.8,225.088,197.464,223.72z    M268.52,206.064c11.44-2.704,25.104-5.936,35.48-15.672V208c0,9.48-16.232,12.616-37.464,15.72   c-9.336,1.368-18.824,2.76-26.464,5.488C241.008,213.312,250.28,210.384,268.52,206.064z M282.416,266.592   c18.408-4.424,39.496-9.496,53.584-23.328V272c0,9.528-28.712,15.68-49.672,20.176c-17.528,3.76-34.52,7.4-46.328,13.6V296   C240,277.688,255.328,273.112,282.416,266.592z M177.672,292.176C156.704,287.68,128,281.528,128,272v-28.736   c14.088,13.832,35.168,18.904,53.584,23.328C208.672,273.104,224,277.688,224,296v9.776   C212.192,299.576,195.2,295.936,177.672,292.176z M162.144,356.296C137.4,349.424,96,337.92,96,328v-16.168   c17.64,16.664,46.856,22.128,72.112,26.848C202.888,345.184,224,350.4,224,368v10.04   C209.56,369.464,186.848,363.16,162.144,356.296z"/>
</g>
<g>
</g>
<g>
</g>
<g>
</g>
<g>
</g>
<g>
</g>
<g>
</g>
<g>
</g>
<g>
</g>
<g>
</g>
<g>
</g>
<g>
</g>
<g>
</g>
<g>
</g>
<g>
</g>
<g>
</g>
</svg>
