<svg height="496pt" viewBox="-52 0 496 496" width="496pt" xmlns="http://www.w3.org/2000/svg"><g fill="#f0bc5e"><path d="m32 72h32v176h-64v-176zm0 0"/><path d="m336 200v80h-192v-80c24 0 24 16 47.921875 16 24 0 24-16 48-16s24 16 48.078125 16c24 0 24-16 48-16zm0 0"/><path d="m296 360c19.839844 0 25.601562-8.078125 37.359375-12.71875-6.078125 39.277344-21.121094 63.199219-26.960937 92.71875-1.519532 7.519531-2.398438 15.359375-2.398438 24 0 13.28125-28.640625 24-64 24s-64-10.71875-64-24c0-42.320312-21.761719-67.441406-29.359375-116.71875 11.679687 4.640625 17.4375 12.71875 37.28125 12.71875 28 0 28-16 56-16s28 16 56.078125 16zm0 0"/></g><path d="m342.71875 336.441406c.519531-5.210937.867188-10.699218 1.042969-16.441406h.238281c8.824219 0 16-7.175781 16-16v-16c0-8.824219-7.175781-16-16-16v-112h-16v-112c8.824219 0 16-7.175781 16-16v-16c0-8.824219-7.175781-16-16-16h-176c-8.824219 0-16 7.175781-16 16v16c0 8.824219 7.175781 16 16 16v16h-16c-12.046875 0-23.976562 3.976562-33.59375 11.199219l-17.070312 12.800781h-21.335938v16h26.664062l21.34375-16c6.863282-5.160156 15.390626-8 23.992188-8h72c4.414062 0 8 3.585938 8 8s-3.585938 8-8 8h-54.238281l-1.515625 6.0625c-3.820313 15.273438-17.484375 25.9375-33.230469 25.9375h-7.015625v16h7.015625c12.511719 0 24.074219-4.671875 32.984375-12.449219v28.449219h-16v80c-8.601562 0-17.128906-2.839844-24-8l-21.335938-16h-26.664062v16h21.335938l17.0625 12.800781c9.625 7.222657 21.554687 11.199219 33.601562 11.199219v16c-8.824219 0-16 7.175781-16 16v16c0 8.824219 7.175781 16 16 16h.230469c1.183593 37.648438 10.289062 63.136719 18.488281 85.648438 7.121094 19.574218 13.28125 36.496093 13.28125 58.351562 0 21.007812 36.214844 32 72 32s72-10.992188 72-32c0-5.617188.414062-10.902344 1.144531-16h22.855469c30.871094 0 56-25.128906 56-56 0-28.59375-21.566406-52.214844-49.28125-55.558594zm-190.734375-320.441406h176.015625v16h-176zm16.015625 96h40c13.230469 0 24-10.769531 24-24s-10.769531-24-24-24h-40v-16h144v112h-144zm-16 64h176v96h-176zm-16.015625 112h208.015625v16h-208zm160.015625 176c0 4.640625-19.625 16-56 16s-56-11.359375-56-16c0-24.679688-6.921875-43.695312-14.246094-63.824219-8.113281-22.28125-16.378906-45.421875-17.523437-80.175781h175.546875c-1.144532 34.761719-9.417969 57.902344-17.519532 80.175781-7.335937 20.128907-14.257812 39.144531-14.257812 63.824219zm40-32h-19.480469c2.375-8.710938 5.449219-17.246094 8.761719-26.351562 5.597656-15.382813 11.648438-32.136719 15.3125-53.183594 19.871094 2.3125 35.40625 19.054687 35.40625 39.535156 0 22.054688-17.945312 40-40 40zm0 0"/><path d="m24 72h16v32h-16zm0 0"/><path d="m24 120h16v128h-16zm0 0"/></svg>