<svg height="496pt" viewBox="0 0 496 496" width="496pt" xmlns="http://www.w3.org/2000/svg"><path d="m460.808594 269.601562c-8.015625-6.015624-12.808594-15.585937-12.808594-25.601562v-124c0-66.167969-53.832031-120-120-120s-120 53.832031-120 120v124c0 10.015625-4.792969 19.585938-12.808594 25.601562-12.015625 9.015626-19.191406 23.375-19.191406 38.398438v4h64l48-16v-26.710938h.136719c-21.777344-12.5625-37.128907-35.023437-39.738281-61.289062h-.398438c-17.671875 0-32-14.328125-32-32s14.328125-32 32-32v-24l5.023438 3.015625c23.144531 13.886719 48.503906 23.6875 74.976562 28.984375l-.847656-1.6875c-4.703125-9.417969-7.152344-19.792969-7.152344-30.3125 26.175781 15.703125 56.128906 24 86.648438 24h1.351562c17.671875 0 32 14.328125 32 32s-14.328125 32-32 32h-.398438c-2.609374 26.265625-17.960937 48.726562-39.738281 61.289062h.136719v26.710938l87.175781 29.054688c10.480469 3.488281 19.03125 10.417968 24.824219 19.210937v-36.265625c0-15.023438-7.175781-29.382812-19.191406-38.398438zm0 0" fill="#f0bc5e"/><path d="m296 168c0 4.417969-3.582031 8-8 8s-8-3.582031-8-8 3.582031-8 8-8 8 3.582031 8 8zm0 0"/><path d="m376 168c0 4.417969-3.582031 8-8 8s-8-3.582031-8-8 3.582031-8 8-8 8 3.582031 8 8zm0 0"/><path d="m360 216h-16c0 8.824219-7.175781 16-16 16s-16-7.175781-16-16h-16c0 17.648438 14.351562 32 32 32s32-14.351562 32-32zm0 0"/><path d="m496 370.601562c0-24.144531-15.390625-45.496093-38.289062-53.128906l-81.710938-27.242187v-16.574219c19.960938-13.046875 34.265625-33.96875 38.574219-58.328125 18.921875-3.152344 33.425781-19.527344 33.425781-39.328125 0-19.3125-13.769531-35.472656-32-39.191406v-16.808594h-16v15.863281c-26.761719-1.109375-52.855469-8.910156-75.878906-22.71875l-12.121094-7.273437v14.128906c0 6.992188.984375 13.984375 2.894531 20.710938-20.277343-5.464844-39.65625-13.695313-57.757812-24.558594l-17.136719-10.28125v30.9375c-18.230469 3.71875-32 19.871094-32 39.191406 0 19.703125 14.351562 36.023438 33.425781 39.304688 4.292969 24.367187 18.605469 45.296874 38.574219 58.351562v16.574219l-41.304688 13.769531h-190.695312v8c0 2.992188.152344 5.753906.246094 8.601562-27.207032 3.789063-48.246094 27.160157-48.246094 55.398438 0 30.878906 25.128906 56 56 56h19.472656c2.734375 10.03125 4.527344 20.304688 4.527344 32 0 21.007812 36.214844 32 72 32s72-10.992188 72-32c0-5.617188.414062-10.902344 1.144531-16h270.855469zm-64-194.601562c0 10.414062-6.710938 19.214844-16 22.527344v-45.046875c9.289062 3.304687 16 12.105469 16 22.519531zm-48 192v-58.230469l16 5.335938v52.894531zm-128.089844-52.871094 16.089844-5.359375v58.230469h-22.695312c3.710937-14.921875 6.351562-32.078125 6.605468-52.871094zm32.089844-6.632812 40 48 40-48v59.503906h-80zm-64-132.496094c0-10.414062 6.710938-19.214844 16-22.527344v45.046875c-9.289062-3.304687-16-12.105469-16-22.519531zm32 24v-66.03125c22.015625 12.230469 45.671875 20.925781 70.433594 25.871094l16.039062 3.207031-8.160156-16.3125c-1.96875-3.941406-3.496094-8.101563-4.550781-12.375 21.917969 10.617187 45.839843 16.59375 70.238281 17.511719v48.128906c0 39.695312-32.296875 72-72 72s-72-32.304688-72-72zm72 88c11.296875 0 22.0625-2.214844 32-6.113281v11.21875l-32 38.398437-32-38.398437v-11.21875c9.9375 3.898437 20.703125 6.113281 32 6.113281zm-272 128c-22.054688 0-40-17.945312-40-40 0-19.761719 14.441406-36.113281 33.296875-39.320312 2.917969 28.792968 10.496094 49.953124 17.421875 68.976562 1.28125 3.519531 2.511719 6.945312 3.707031 10.34375zm152 48c0 4.648438-19.625 16-56 16s-56-11.351562-56-16c0-24.679688-6.921875-43.6875-14.246094-63.824219-8.121094-22.3125-16.507812-45.328125-17.625-80.175781h175.75c-1.125 34.847656-9.503906 57.863281-17.621094 80.175781-7.335937 20.136719-14.257812 39.144531-14.257812 63.824219zm29.28125-58.34375c2.496094-6.847656 5.054688-14.015625 7.488281-21.65625h182.101563l4.359375 48h-202.703125c2.367187-8.710938 5.441406-17.246094 8.753906-26.34375zm242.71875 26.34375h-32.695312l-7.335938-80.71875-15.9375 1.445312 1.382812 15.273438h-9.414062v-47.566406l36.648438 12.214844c16.359374 5.457031 27.351562 20.703124 27.351562 37.953124zm0 0"/><path d="m256 400h144v32h-144zm0 0" fill="#f0bc5e"/></svg>