<svg height="496pt" viewBox="-110 0 496 496" width="496pt" xmlns="http://www.w3.org/2000/svg"><path d="m248.222656 387.359375c3.121094 8.320313 4.722656 17.199219 4.722656 26.160156 0 41.121094-33.359374 74.480469-74.480468 74.480469h-91.039063c-20.5625 0-39.203125-8.320312-52.640625-21.839844-13.519531-13.441406-21.839844-32.082031-21.839844-52.640625 0-8.960937 1.597657-17.839843 4.71875-26.160156 12.71875-34 19.28125-69.917969 19.28125-106.238281v-12.160156c10.078126 4.640624 17.039063 11.039062 36 11.039062 30 0 30-16 60-16 16.320313 0 23.757813 4.71875 32 9.039062v6.960938c0 4.398438 1.757813 8.398438 4.71875 11.28125 2.878907 2.957031 6.878907 4.71875 11.28125 4.71875 8.796876 0 16-7.199219 16-16v-.078125c15.917969-.882813 22.640626-6.640625 32-10.960937v12.160156c0 36.320312 6.558594 72.238281 19.277344 106.238281zm-51.277344 68.640625v-48h-48v48zm-56-96v-48h-48v32h-32v48h48v-32zm0 0" fill="#f0bc5e"/><path d="m207.6875 48h69.257812v-48h-75.503906c-18.394531 0-34.351562 12.464844-38.808594 30.304688l-8.066406 32.253906c-8.535156-2.3125-16.230468-7.375-21.621094-14.566406l-12-15.992188h-4c-30.875 0-56 25.128906-56 56v9.472656c-9.289062 3.3125-16 12.113282-16 22.527344 0 3.160156.648438 6.160156 1.757813 8.929688-10.199219 2.757812-17.757813 12.007812-17.757813 23.070312 0 2.816406.574219 5.488281 1.46875 8h-30.414062l24 48h4.945312v73.160156c0 35.425782-6.304687 70.207032-18.753906 103.390625-3.480468 9.296875-5.246094 19.042969-5.246094 28.953125 0 45.488282 37.007813 82.496094 82.496094 82.496094h91.015625c45.480469 0 82.488281-37.007812 82.488281-82.496094 0-9.910156-1.769531-19.65625-5.25-28.96875-12.449218-33.167968-18.75-67.960937-18.75-103.375v-73.160156h4.941407l24-48h-30.414063c.894532-2.511719 1.472656-5.183594 1.472656-8 0-11.0625-7.5625-20.3125-17.761718-23.070312 1.113281-2.769532 1.761718-5.769532 1.761718-8.929688 0-10.664062-7.042968-19.625-16.679687-22.734375-.882813-5.121094-2.730469-9.882813-5.363281-14.144531zm-29.542969-13.824219c2.679688-10.695312 12.261719-18.175781 23.296875-18.175781h59.503906v16h-53.257812c-7.359375 0-13.742188 4.984375-15.519531 12.128906l-6.464844 25.855469c-4.542969-2.785156-9.65625-4.632813-15.152344-5.410156zm-125.199219 141.824219h32c4.414063 0 8 3.585938 8 8v8h-59.058593l-8-16zm187.765626 214.160156c2.808593 7.503906 4.234374 15.351563 4.234374 23.34375 0 36.664063-29.832031 66.496094-66.496093 66.496094h-91.007813c-36.664062 0-66.496094-29.832031-66.496094-66.496094 0-7.992187 1.421876-15.839844 4.230469-23.34375 13.121094-34.984375 19.769531-71.65625 19.769531-109v-73.160156h48v8c0 13.230469 10.765626 24 24 24 13.230469 0 24-10.769531 24-24v-32c0-4.414062 3.582032-8 8-8 4.414063 0 8 3.585938 8 8v96c0 13.230469 10.765626 24 24 24 13.230469 0 24-10.769531 24-24v-72h16v73.160156c0 37.34375 6.648438 74.015625 19.765626 109zm-8.710938-198.160156h-27.054688v-8c0-4.414062 3.582032-8 8-8h27.054688zm-19.054688-32c-13.234374 0-24 10.769531-24 24v96c0 4.414062-3.585937 8-8 8-4.417968 0-8-3.585938-8-8v-96c0-13.230469-10.769531-24-24-24-13.234374 0-24 10.769531-24 24v32c0 4.414062-3.585937 8-8 8-4.417968 0-8-3.585938-8-8v-32c0-13.230469-10.769531-24-24-24h-32c-4.417968 0-8-3.585938-8-8s3.582032-8 8-8h120v-16h-104c-4.417968 0-8-3.585938-8-8s3.582032-8 8-8h24v-16h-16v-8c0-20.761719 15.886719-37.863281 36.144532-39.816406l7.054687 9.410156c10.519531 14.03125 27.269531 22.40625 44.800781 22.40625 10.414063 0 19.214844 6.710938 22.527344 16h-78.527344v16h88c4.414063 0 8 3.585938 8 8s-3.585937 8-8 8h-8v16h24c4.414063 0 8 3.585938 8 8s-3.585937 8-8 8zm0 0"/><path d="m148.945312 368v-64h-64v32h-32v64h64v-32zm-48-48h32v32h-16v-16h-16zm0 64h-32v-32h32zm0 0"/><path d="m140.945312 464h64v-64h-64zm16-48h32v32h-32zm0 0"/></svg>