<svg height="496pt" viewBox="-56 0 496 496" width="496pt" xmlns="http://www.w3.org/2000/svg"><path d="m256.542969 32h-208l-16 40h240zm0 0" fill="#f0bc5e"/><path d="m224.542969 344v40l-16 24v48h-128v-48l-16-24v-40zm-56 56c0-13.28125-10.71875-24-24-24-13.277344 0-24 10.71875-24 24s10.722656 24 24 24c13.28125 0 24-10.71875 24-24zm0 0" fill="#f0bc5e"/><path d="m144.542969 368c-17.648438 0-32 14.351562-32 32s14.351562 32 32 32c17.648437 0 32-14.351562 32-32s-14.351563-32-32-32zm0 48c-8.824219 0-16-7.175781-16-16s7.175781-16 16-16 16 7.175781 16 16-7.175781 16-16 16zm0 0"/><path d="m112.542969 24c0-4.414062 3.59375-8 8-8h64c4.410156 0 8 3.585938 8 8v8h16v-8c0-13.230469-10.765625-24-24-24h-64c-13.230469 0-24 10.769531-24 24v8h16zm0 0"/><path d="m384.40625 230.382812-12.75-114.796874c-2.25-20.289063-19.34375-35.585938-39.753906-35.585938h-43.359375v-16h-288v26.808594l1.753906 2.191406c19.941406 24.921875 31.941406 54.910156 34.710937 86.726562l11.535157 132.632813v27.207031c-10.589844 4.730469-19.007813 13.839844-22.328125 25.449219l-26.214844 91.785156 19.601562 39.199219h249.886719l19.601563-39.199219-26.226563-91.785156c-3.3125-11.609375-11.726562-20.71875-22.328125-25.449219v-26.582031l42.257813-168.984375h39.285156l20.402344 95.175781c2.085937 9.753907 10.832031 16.824219 20.800781 16.824219 11.71875 0 21.261719-9.542969 21.261719-21.273438v-1.992187c0-.789063-.039063-1.566406-.136719-2.351563zm-354.917969 249.617188-8-16h246.113281l-8 16zm218-110.59375 22.449219 78.59375h-250.785156l22.457031-78.59375c2.925781-10.246094 12.414063-17.40625 23.070313-17.40625h159.726562c10.65625 0 20.144531 7.160156 23.082031 17.40625zm-23.082031-33.40625h-159.726562c-.046876 0-.085938.007812-.136719.007812v-16.007812h160v16.007812c-.046875 0-.085938-.007812-.136719-.007812zm48.136719-236.832031c0 13.167969-1.613281 26.328125-4.816407 39.097656l-41.429687 165.734375h-162.417969l-1.390625-16h50.054688v-16h-51.445313l-1.394531-16h36.839844v-16h-38.230469l-1.390625-16h55.621094v-16h-57.015625l-1.390625-16h42.40625v-16h-43.878907c-.542968-5.390625-1.367187-10.71875-2.382812-16h62.261719v-16h-66.101563c-1.585937-5.414062-3.378906-10.769531-5.464844-16h55.566407v-16h-62.984375c-4.863282-9.351562-10.480469-18.335938-17.015625-26.777344v-5.222656h256zm96 135.558593c0 2.90625-2.359375 5.273438-5.269531 5.273438-2.472657 0-4.640626-1.753906-5.152344-4.167969l-20.402344-95.175781c-1.566406-7.335938-8.144531-12.65625-15.648438-12.65625h-35.964843c1.574219-9.519531 2.4375-19.160156 2.4375-28.832031v-3.167969h43.359375c12.25 0 22.496094 9.175781 23.859375 21.351562l12.78125 115.382813zm0 0"/></svg>