<svg height="496pt" viewBox="-112 0 496 496" width="496pt" xmlns="http://www.w3.org/2000/svg"><path d="m264 360v80h-256v-80l9.839844-34.480469c4.082031-14.238281 6.160156-29.039062 6.160156-43.917969v-7.601562c0-17.199219-2.800781-34.320312-8.238281-50.640625l-1.761719-5.28125c-4-12-6-24.476563-6-37.117187 0-15.601563 3.121094-30.800782 8.960938-44.960938h238.078124c.402344.960938.800782 2 1.199219 2.960938 5.042969 13.277343 7.761719 27.519531 7.761719 42 0 12.640624-2 25.117187-6 37.117187l-1.761719 5.28125c-5.4375 16.320313-8.238281 33.441406-8.238281 50.640625v7.601562c0 14.878907 2.078125 29.679688 6.160156 43.917969zm-80.960938-24.960938c35.761719-35.679687 43.601563-85.757812 17.679688-111.757812-26-25.921875-76.078125-18.082031-111.757812 17.679688-35.761719 35.679687-43.601563 85.757812-17.679688 111.757812 26 25.921875 76.078125 18.082031 111.757812-17.679688zm0 0" fill="#f0bc5e"/><path d="m256 281.59375v-7.625c0-16.359375 2.625-32.535156 7.800781-48.066406l1.773438-5.316406c4.257812-12.800782 6.425781-26.121094 6.425781-39.601563 0-30.984375-11.414062-60.738281-32.144531-83.769531l-31.359375-34.839844c9.039062-3.445312 15.503906-12.144531 15.503906-22.375v-16c0-13.230469-10.769531-24-24-24h-128c-13.230469 0-24 10.769531-24 24v16c0 10.230469 6.464844 18.929688 15.503906 22.367188l-31.359375 34.839843c-20.730469 23.039063-32.144531 52.792969-32.144531 83.777344 0 13.480469 2.167969 26.808594 6.433594 39.601563l1.773437 5.316406c5.167969 15.53125 7.792969 31.699218 7.792969 48.066406v7.625c0 14.132812-1.96875 28.183594-5.847656 41.757812l-9.839844 34.457032-.3125 83.496094 5.480469 16.40625c7.625 22.90625 28.976562 38.289062 53.113281 38.289062h154.8125c24.144531 0 45.496094-15.382812 53.121094-38.289062l5.472656-16.40625v-81.304688l-10.152344-36.65625c-3.878906-13.566406-5.847656-27.625-5.847656-41.75zm-67.558594-217.59375 14.398438 16h-133.679688l14.398438-16zm-124.441406-40c0-4.40625 3.585938-8 8-8h128c4.414062 0 8 3.59375 8 8v16c0 4.40625-3.585938 8-8 8h-8v-16h-16v16h-16v-16h-16v16h-16v-16h-16v16h-16v-16h-16v16h-8c-4.414062 0-8-3.59375-8-8zm192 414.703125-4.648438 13.953125c-5.457031 16.351562-20.703124 27.34375-37.945312 27.34375h-154.8125c-17.242188 0-32.496094-10.992188-37.945312-27.351562l-4.648438-13.945313v-77.582031l9.535156-33.378906c4.296875-15 6.464844-30.535157 6.464844-46.148438v-7.625c0-18.089844-2.894531-35.960938-8.625-53.128906l-1.773438-5.328125c-3.722656-11.160157-5.601562-22.777344-5.601562-34.535157 0-27.023437 9.953125-52.976562 28.03125-73.066406l10.730469-11.910156h162.476562l10.730469 11.921875c18.078125 20.085937 28.03125 46.03125 28.03125 73.0625 0 11.757813-1.878906 23.375-5.601562 34.535156l-1.773438 5.328125c-5.730469 17.152344-8.625 35.03125-8.625 53.121094v7.625c0 15.621094 2.167969 31.148438 6.464844 46.160156l9.535156 33.367188zm0 0"/><path d="m147.222656 201.078125c-22.757812 3.59375-45.46875 15.746094-63.925781 34.210937-18.472656 18.464844-30.617187 41.167969-34.207031 63.933594-3.753906 23.699219 2.140625 44.699219 16.558594 59.121094 11.582031 11.59375 27.421874 17.664062 45.496093 17.664062 4.414063 0 8.96875-.359374 13.632813-1.097656 22.757812-3.589844 45.46875-15.742187 63.925781-34.207031 38.800781-38.792969 46.710937-93.992187 17.648437-123.054687-14.414062-14.417969-35.359374-20.304688-59.128906-16.570313zm-82.34375 100.648437c3.082032-19.453124 13.632813-39.023437 29.730469-55.117187 16.09375-16.097656 35.664063-26.648437 55.117187-29.722656 3.792969-.597657 7.488282-.894531 11.050782-.894531 12.550781 0 23.375 3.839843 31.664062 10.878906-1.394531.128906-2.808594.234375-4.242187.34375-12.871094.992187-27.464844 2.105468-42.742188 17.394531-15.296875 15.292969-16.425781 29.886719-17.417969 42.757813-.886718 11.570312-1.664062 21.5625-12.765624 32.671874-11.113282 11.113282-21.113282 11.882813-32.679688 12.777344-4.578125.351563-9.265625.75-14.128906 1.734375-4.207032-9.304687-5.527344-20.503906-3.585938-32.824219zm112.511719 27.664063c-16.09375 16.097656-35.664063 26.648437-55.117187 29.722656-17.203126 2.726563-32.265626-.875-42.914063-9.976562 1.464844-.136719 2.953125-.25 4.457031-.367188 12.871094-.992187 27.472656-2.113281 42.769532-17.410156 15.285156-15.296875 16.414062-29.878906 17.40625-42.75.886718-11.578125 1.664062-21.570313 12.777343-32.679687 11.101563-11.105469 21.085938-11.867188 32.644531-12.753907 4.570313-.351562 9.265626-.75 14.113282-1.726562 11.105468 24.390625 1.242187 60.566406-26.136719 87.941406zm0 0"/></svg>