<svg height="496pt" viewBox="0 0 496 496" width="496pt" xmlns="http://www.w3.org/2000/svg"><path d="m152 200v40h128c8.839844 0 16 7.160156 16 16v79.144531c0 7.96875 5.449219 15.359375 13.3125 16.640625 10.023438 1.621094 18.6875-6.066406 18.6875-15.785156v-79.144531c0-7.96875 5.449219-15.359375 13.3125-16.640625 10.023438-1.621094 18.6875 6.066406 18.6875 15.785156v31.144531c0 7.96875 5.449219 15.359375 13.3125 16.640625 10.023438 1.621094 18.6875-6.066406 18.6875-15.785156v-32c0-8.839844 7.160156-16 16-16h32v-56h-272c-8.839844 0-16 7.160156-16 16zm0 0" fill="#f0bc5e"/><path d="m360 287.144531v-15.144531h-32v16h32.070312c-.015624-.289062-.070312-.566406-.070312-.855469zm0 0"/><path d="m496 360c0-23.046875-16.6875-44.464844-48-62.207031v-129.792969c0-13.230469-10.769531-24-24-24h-9.761719c15.601563-14.601562 25.761719-37.816406 25.761719-64 0-44.113281-28.710938-80-64-80-20.160156 0-38.144531 11.742188-49.886719 30.007812-12.144531-10.929687-28.738281-15.726562-47.167969-13.449218-18.722656 2.335937-37.152343 11.753906-51.890624 26.496094-9.773438 9.769531-17.132813 21.175781-21.71875 33.203124-10.046876-7.746093-23.089844-12.195312-37.105469-12.242187-.222657-15.769531-7.191407-32.078125-19.558594-44.40625-23.519531-23.441406-59.023437-26.183594-79.152344-6.152344-8.71875 8.6875-13.519531 20.710938-13.519531 33.863281 0 16.175782 7.175781 32.609376 19.6875 45.070313 10.234375 10.195313 23.121094 16.753906 36.351562 18.824219 0 .265625-.039062.519531-.039062.785156 0 12.304688 5.472656 23.496094 14.375 32h-54.375c-13.230469 0-24 10.769531-24 24v129.792969c-31.3125 17.742187-48 39.160156-48 62.207031 0 25.777344 21.3125 49.078125 57.070312 67.0625l3.328126 13.816406c7.832031 32.457032 36.609374 55.121094 69.992187 55.121094h235.203125c33.382812 0 62.167969-22.671875 70-55.128906l3.328125-13.808594c35.765625-17.984375 57.078125-41.277344 57.078125-67.0625zm-200-24.855469v-15.144531h-32c-13.230469 0-24 10.769531-24 24v64c0 4.414062-3.59375 8-8 8s-8-3.585938-8-8v-64c0-13.230469-10.769531-24-24-24s-24 10.769531-24 24v32c0 4.414062-3.59375 8-8 8s-8-3.585938-8-8v-32c0-13.230469-10.769531-24-24-24h-72v-17.472656c2.511719.898437 5.183594 1.472656 8 1.472656 10.414062 0 19.214844-6.710938 22.527344-16h201.472656v-16h-200v-32h16c0 13.230469 10.769531 24 24 24s24-10.769531 24-24v-40c0-4.40625 3.59375-8 8-8h264v80h-40v16h40v32h-104v16h104v24c0 4.414062-3.59375 8-8 8h-168v-24c0-4.414062 3.59375-8 8-8h32.070312c-.015624-.289062-.070312-.566406-.070312-.855469zm-88 32.855469h-16v-24c0-4.414062 3.59375-8 8-8s8 3.585938 8 8zm-136 0c-4.40625 0-8-3.585938-8-8v-24h72c4.40625 0 8 3.585938 8 8v24zm40-144h-16v-24c0-4.40625 3.59375-8 8-8s8 3.59375 8 8zm204.230469-115.640625c-3.09375 4.746094-6.574219 9.25-10.597657 13.273437-12.242187 12.238282-27.351562 20.03125-42.5625 21.933594-14.046874 1.746094-26.445312-1.824218-35.125-10 3.839844-2.183594 7.46875-2.941406 11.6875-3.78125 7.359376-1.472656 16.519532-3.304687 26.71875-13.503906 10.199219-10.203125 12.03125-19.359375 13.503907-26.722656 1.320312-6.574219 2.351562-11.765625 9.128906-18.542969 6.769531-6.769531 11.960937-7.808594 18.527344-9.121094 2.03125-.40625 4.214843-.863281 6.503906-1.488281-1.261719 6.28125-2.015625 12.824219-2.015625 19.59375 0 10 1.535156 19.527344 4.230469 28.359375zm.714843 24.585937c2.328126-2.328124 4.4375-4.839843 6.519532-7.378906 3.933594 7.074219 8.78125 13.273438 14.296875 18.433594h-34.035157c4.640626-3.257812 9.089844-6.921875 13.21875-11.054688zm107.054688-52.945312c0 34.871094-21.039062 63.273438-47.078125 63.9375 1.140625-4.554688 3.253906-7.785156 5.734375-11.503906 4.167969-6.25 9.34375-14.019532 9.34375-28.441406 0-14.425782-5.175781-22.191407-9.34375-28.441407-3.71875-5.582031-6.65625-9.992187-6.65625-19.574219 0-9.570312 2.9375-13.976562 6.65625-19.550781 2.929688-4.394531 6.328125-9.601562 8.105469-17.296875 19.261719 8.328125 33.238281 32.457032 33.238281 60.871094zm-48.929688-63.9375c-1.140624 4.546875-3.253906 7.777344-5.726562 11.488281-4.167969 6.242188-9.34375 14.007813-9.34375 28.425781 0 14.421876 5.175781 22.199219 9.34375 28.449219 3.71875 5.574219 6.65625 9.980469 6.65625 19.566407 0 9.582031-2.9375 13.992187-6.65625 19.566406-2.9375 4.402344-6.335938 9.609375-8.113281 17.3125-19.253907-8.328125-33.230469-32.457032-33.230469-60.871094 0-34.871094 21.03125-63.273438 47.070312-63.9375zm-158.636718 80.867188c1.902344-15.210938 9.6875-30.320313 21.933594-42.5625 12.25-12.238282 27.351562-20.03125 42.5625-21.933594 14.039062-1.753906 26.445312 1.824218 35.132812 10.007812-3.847656 2.183594-7.476562 2.925782-11.679688 3.765625-7.359374 1.472657-16.511718 3.296875-26.710937 13.496094s-12.03125 19.359375-13.503906 26.722656c-1.320313 6.574219-2.351563 11.765625-9.128907 18.542969-6.773437 6.773438-11.96875 7.816406-18.542968 9.128906-5.039063 1.007813-10.96875 2.238282-17.480469 6.183594-2.710937-6.875-3.648437-14.800781-2.582031-23.351562zm-15.671875-3.136719c-.058594.382812-.152344.765625-.203125 1.152343-.152344 1.222657-.183594 2.414063-.269532 3.613282-5.28125 1.882812-9.257812 4.472656-12.722656 6.777344-5.582031 3.726562-9.992187 6.664062-19.566406 6.664062s-13.984375-2.9375-19.558594-6.65625c-4.128906-2.75-8.984375-5.929688-15.9375-7.777344 6.617188-10.375 19.960938-17.566406 35.496094-17.566406 13.078125 0 25.296875 5.246094 32.761719 13.792969zm-63.378907-62.847657c9.90625 9.871094 15.359376 22.871094 14.960938 35.007813-3.359375.839844-6.582031 1.949219-9.648438 3.285156-3.726562-1.292969-7.246093-2.007812-10.4375-2.644531-7.296874-1.449219-13.058593-2.601562-20.601562-10.113281-7.527344-7.503907-8.679688-13.234375-10.136719-20.488281-1.144531-5.710938-2.472656-11.960938-6.6875-18.839844 13.519531-3.382813 30.105469 1.390625 42.550781 13.792968zm-50.398437 50.109376c-9.519531-9.480469-14.984375-21.773438-14.984375-33.734376 0-8.96875 3.039062-16.746093 8.777344-22.480468 3.101562 4.785156 4.023437 9.167968 5.054687 14.304687 1.671875 8.320313 3.558594 17.742188 14.535157 28.671875 9.160156 9.128906 17.257812 11.925782 24.535156 13.574219-4.054688 4.195313-7.246094 9-9.460938 14.210937-10.234375-1.378906-20.363281-6.480468-28.457031-14.546874zm41.136719 31.882812c4.527344 1.152344 7.742187 3.246094 11.4375 5.71875 6.25 4.167969 14.015625 9.34375 28.441406 9.34375s22.191406-5.175781 28.441406-9.34375c1.582032-1.054688 3.085938-2.039062 4.628906-2.921875 2.050782 10.921875 7 20.59375 14.609376 28.265625h-47.679688c-21.65625 0-39.246094-13.863281-39.878906-31.0625zm-64.121094 55.0625c0-4.40625 3.59375-8 8-8h183.808594c.085937 0 .175781.007812.269531.007812.066406 0 .128906-.007812.1875-.007812h167.734375c4.40625 0 8 3.59375 8 8v8h-264c-13.230469 0-24 10.769531-24 24v40c0 4.40625-3.59375 8-8 8s-8-3.59375-8-8v-40c0-13.230469-10.769531-24-24-24s-24 10.769531-24 24v80c0 4.414062-3.59375 8-8 8s-8-3.585938-8-8zm356.03125 269.128906c-6.078125 25.238282-28.472656 42.871094-54.4375 42.871094h-235.203125c-25.964844 0-48.34375-17.625-54.4375-42.863281l-.433594-1.792969c44.328125 17.816406 104.808594 28.65625 172.480469 28.65625 67.664062 0 128.144531-10.832031 172.464844-28.65625zm-172.03125 10.871094c-138.777344 0-232-45.503906-232-88 0-14.929688 11.320312-30.121094 32-43.566406v43.566406c0 13.230469 10.769531 24 24 24h73.472656c3.3125 9.289062 12.113282 16 22.527344 16s19.214844-6.710938 22.527344-16h17.472656v24c0 13.230469 10.769531 24 24 24s24-10.769531 24-24v-24h168c13.230469 0 24-10.769531 24-24v-43.566406c20.679688 13.445312 32 28.636718 32 43.566406 0 42.496094-93.222656 88-232 88zm0 0"/></svg>