<svg height="496pt" viewBox="-88 0 496 496" width="496pt" xmlns="http://www.w3.org/2000/svg"><path d="m192 56h-16v-24c0-8.824219-7.175781-16-16-16s-16 7.175781-16 16v24h-16v-24c0-17.648438 14.351562-32 32-32s32 14.351562 32 32zm0 0"/><path d="m264 320h-62.34375c-10.257812 14.695312-25.089844 24-41.65625 24s-31.398438-9.304688-41.65625-24h-62.34375c-8.839844 0-16 7.160156-16 16v64c0 8.839844 7.160156 16 16 16h208c8.839844 0 16-7.160156 16-16v-64c0-8.839844-7.160156-16-16-16zm0 0" fill="#f0bc5e"/><path d="m160 192c-35.289062 0-64 35.886719-64 80s28.710938 80 64 80 64-35.886719 64-80-28.710938-80-64-80zm-48 80c0-34.871094 21.039062-63.273438 47.070312-63.9375-1.140624 4.554688-3.253906 7.777344-5.726562 11.496094-4.167969 6.242187-9.34375 14-9.34375 28.417968 0 14.421876 5.175781 22.191407 9.34375 28.449219 3.71875 5.574219 6.65625 9.980469 6.65625 19.566407 0 9.574218-2.9375 13.984374-6.65625 19.558593-2.9375 4.402344-6.335938 9.609375-8.113281 17.3125-19.253907-8.320312-33.230469-32.449219-33.230469-60.863281zm48.921875 63.9375c1.140625-4.5625 3.253906-7.792969 5.734375-11.503906 4.167969-6.25 9.34375-14.019532 9.34375-28.441406 0-14.425782-5.175781-22.191407-9.34375-28.449219-3.71875-5.574219-6.65625-9.984375-6.65625-19.566407 0-9.570312 2.9375-13.96875 6.65625-19.542968 2.9375-4.394532 6.335938-9.601563 8.113281-17.296875 19.253907 8.320312 33.230469 32.449219 33.230469 60.863281 0 34.871094-21.039062 63.273438-47.078125 63.9375zm0 0"/><path d="m72 368h176v16h-176zm0 0"/><path d="m287.160156 100.425781-14.3125 7.160157 18.207032 36.414062h-262.109376l18.207032-36.425781-14.3125-7.160157-24.839844 49.699219v307.78125l.839844 1.691407c11.238281 22.460937 33.816406 36.414062 58.9375 36.414062h184.453125c25.121093 0 47.699219-13.953125 58.929687-36.425781l.839844-1.6875v-307.773438zm-263.160156 347.574219v-288h272v288zm228.222656 32h-184.445312c-14.203125 0-27.28125-5.9375-36.5625-16h257.578125c-9.28125 10.0625-22.367188 16-36.570313 16zm0 0"/><path d="m296 112h-272c-13.230469 0-24-10.769531-24-24v-16c0-13.230469 10.769531-24 24-24h272c13.230469 0 24 10.769531 24 24v16c0 13.230469-10.769531 24-24 24zm0 0" fill="#f0bc5e"/></svg>