<svg height="496pt" viewBox="0 0 496 496" width="496pt" xmlns="http://www.w3.org/2000/svg"><path d="m336 272h16v48h-16zm0 0"/><path d="m144 200h16v32h-16zm0 0"/><path d="m416 296v128c0 4.40625-3.585938 8-8 8h-8v-148.097656h-16v148.097656h-16c-5.855469 0-11.273438 1.695312-16 4.449219v-100.449219h-16v100.136719c-4.632812-2.617188-9.816406-4.136719-15.265625-4.136719-.007813 0-.023437 0-.03125 0h-.703125v8l.710938 8h.015624c4.082032 0 7.90625 1.585938 10.792969 4.472656 2.886719 2.878906 4.480469 6.71875 4.480469 10.808594v1.207031c0 8.550781-6.847656 15.511719-16 15.511719-8.824219 0-16-7.183594-16-16v-432c0-8.824219 7.175781-16 16-16s16 7.175781 16 16v64h16v-64c0-8.824219 7.175781-16 16-16s16 7.175781 16 16v148.121094h16v-148.121094c0-17.648438-14.351562-32-32-32-9.542969 0-18.136719 4.199219-24 10.855469-5.863281-6.65625-14.457031-10.855469-24-10.855469-9.609375 0-18.128906 4.335938-24 11.054688-5.871094-6.71875-14.390625-11.054688-24-11.054688-9.542969 0-18.136719 4.199219-24 10.855469-5.863281-6.65625-14.457031-10.855469-24-10.855469-9.609375 0-18.128906 4.335938-24 11.054688-5.871094-6.71875-14.390625-11.054688-24-11.054688-9.542969 0-18.136719 4.199219-24 10.855469-5.863281-6.65625-14.457031-10.855469-24-10.855469-17.648438 0-32 14.351562-32 32v432c0 17.648438 14.351562 32 32 32 9.542969 0 18.136719-4.199219 24-10.855469 5.863281 6.65625 14.457031 10.855469 24 10.855469 9.609375 0 18.128906-4.335938 24-11.054688 5.871094 6.71875 14.390625 11.054688 24 11.054688 9.542969 0 18.136719-4.199219 24-10.855469 5.863281 6.65625 14.457031 10.855469 24 10.855469 9.625 0 18.167969-4.359375 24.039062-11.105469 5.945313 6.746094 14.664063 11.105469 24.679688 11.105469 9.378906 0 17.707031-4.265625 23.441406-10.863281 5.863282 6.605469 14.328125 10.863281 23.839844 10.863281 17.648438 0 32-14.351562 32-32v-16h8c13.230469 0 24-10.769531 24-24v-128zm-240 184c-8.824219 0-16-7.175781-16-16s7.175781-16 16-16v-16c-5.863281 0-11.273438 1.726562-16 4.496094v-188.496094h-16v188.496094c-4.726562-2.769532-10.136719-4.496094-16-4.496094v16c8.824219 0 16 7.175781 16 16s-7.175781 16-16 16-16-7.175781-16-16v-432c0-8.824219 7.175781-16 16-16s16 7.175781 16 16v152h16v-152c0-8.824219 7.175781-16 16-16s16 7.175781 16 16v432c0 8.824219-7.175781 16-16 16zm96 0c-8.824219 0-16-7.175781-16-16s7.175781-16 16-16v-16c-5.863281 0-11.273438 1.726562-16 4.496094v-220.496094h-16v220.496094c-4.726562-2.769532-10.136719-4.496094-16-4.496094v16c8.824219 0 16 7.175781 16 16s-7.175781 16-16 16-16-7.175781-16-16v-432c0-8.824219 7.175781-16 16-16s16 7.175781 16 16v168h16v-168c0-8.824219 7.175781-16 16-16s16 7.175781 16 16v432c0 8.824219-7.175781 16-16 16zm112-16c0 8.824219-7.175781 16-16 16s-16-7.175781-16-16 7.175781-16 16-16h16zm0 0"/><path d="m336 112h16v96h-16zm0 0"/><g fill="#f0bc5e"><path d="m64 368h32c0 35.34375-28.65625 64-64 64h-32c0-35.34375 28.65625-64 64-64zm0 0"/><path d="m32 304h-32c0 35.34375 28.65625 64 64 64h32c0-35.34375-28.65625-64-64-64zm0 0"/><path d="m64 184h32c0 35.34375-28.65625 64-64 64h-32c0-35.34375 28.65625-64 64-64zm0 0"/><path d="m96 184h-32c-26.511719 0-48-21.488281-48-48h32c26.511719 0 48 21.488281 48 48zm0 0"/><path d="m448 360h-16c0-26.511719 21.488281-48 48-48h16c0 26.511719-21.488281 48-48 48zm0 0"/><path d="m424 304c-9.777344 0-18.847656-4.480469-24.855469-11.992188-9.503906 1.070313-19.144531-2.183593-26.054687-9.085937-6.90625-6.921875-10.160156-16.507813-9.097656-26.066406-7.511719-6.007813-11.992188-15.078125-11.992188-24.855469s4.480469-18.847656 11.992188-24.855469c-1.0625-9.550781 2.183593-19.144531 9.085937-26.054687 6.929687-6.90625 16.5625-10.144532 26.066406-9.097656 6.007813-7.511719 15.078125-11.992188 24.855469-11.992188s18.847656 4.480469 24.855469 11.992188c9.535156-1.054688 19.144531 2.183593 26.054687 9.085937 6.90625 6.921875 10.160156 16.507813 9.097656 26.066406 7.511719 6.007813 11.992188 15.078125 11.992188 24.855469s-4.480469 18.847656-11.992188 24.855469c1.0625 9.550781-2.183593 19.144531-9.085937 26.054687-6.921875 6.914063-16.515625 10.167969-26.066406 9.097656-6.007813 7.511719-15.078125 11.992188-24.855469 11.992188zm0 0"/></g><path d="m424 264c-17.648438 0-32-14.351562-32-32s14.351562-32 32-32 32 14.351562 32 32-14.351562 32-32 32zm0-48c-8.824219 0-16 7.175781-16 16s7.175781 16 16 16 16-7.175781 16-16-7.175781-16-16-16zm0 0"/></svg>