<svg height="496pt" viewBox="-72 0 496 496" width="496pt" xmlns="http://www.w3.org/2000/svg"><path d="m344 424h-336v-352h336zm-296-40h256v-272h-256zm0 0" fill="#f0bc5e"/><path d="m312 0h-272c-22.054688 0-40 17.945312-40 40v416c0 22.054688 17.945312 40 40 40h272c22.054688 0 40-17.945312 40-40v-416c0-22.054688-17.945312-40-40-40zm-272 16h272c13.230469 0 24 10.769531 24 24v24h-320v-24c0-13.230469 10.769531-24 24-24zm296 64v336h-320v-336zm-24 400h-272c-13.230469 0-24-10.769531-24-24v-24h320v24c0 13.230469-10.769531 24-24 24zm0 0"/><path d="m144 32h64v16h-64zm0 0"/><path d="m224 32h16v16h-16zm0 0"/><path d="m112 32h16v16h-16zm0 0"/><path d="m152 448h48v16h-48zm0 0"/><path d="m64 272c0 30.871094 25.128906 56 56 56h7.847656c.097656 2.609375.152344 5.257812.152344 8 0 21.007812 36.214844 32 72 32s72-10.992188 72-32c0-24.03125 3.617188-42.3125 7.449219-61.679688 4.207031-21.25 8.550781-43.222656 8.550781-74.320312v-8h-24.960938c-1.824218-7.167969-5.878906-11.734375-9.0625-15.320312-3.601562-4.046876-5.976562-6.71875-5.976562-12.679688s2.375-8.632812 5.976562-12.679688c4.230469-4.761718 10.023438-11.28125 10.023438-23.320312h-16c0 5.960938-2.375 8.632812-5.976562 12.679688-4.230469 4.761718-10.023438 11.28125-10.023438 23.320312s5.792969 18.558594 10.023438 23.320312c1.496093 1.679688 2.703124 3.144532 3.695312 4.679688h-30.679688c-1.824218-7.167969-5.878906-11.734375-9.0625-15.320312-3.601562-4.046876-5.976562-6.71875-5.976562-12.679688s2.375-8.632812 5.976562-12.679688c4.230469-4.761718 10.023438-11.28125 10.023438-23.320312h-16c0 5.960938-2.375 8.632812-5.976562 12.679688-4.230469 4.761718-10.023438 11.28125-10.023438 23.320312s5.792969 18.558594 10.023438 23.320312c1.496093 1.679688 2.703124 3.144532 3.695312 4.679688h-30.679688c-1.824218-7.167969-5.878906-11.734375-9.0625-15.320312-3.601562-4.046876-5.976562-6.71875-5.976562-12.679688s2.375-8.632812 5.976562-12.679688c4.230469-4.761718 10.023438-11.28125 10.023438-23.320312h-16c0 5.960938-2.375 8.632812-5.976562 12.679688-4.230469 4.761718-10.023438 11.28125-10.023438 23.320312s5.792969 18.558594 10.023438 23.320312c1.496093 1.679688 2.703124 3.144532 3.695312 4.679688h-37.71875v8c0 5.855469.191406 11.304688.472656 16.566406-27.320312 3.699219-48.472656 27.113282-48.472656 55.433594zm207.894531-64c-.671875 25.449219-4.46875 44.625-8.152343 63.214844-3.804688 19.273437-7.742188 39.191406-7.742188 64.785156 0 4.640625-19.625 16-56 16s-56-11.359375-56-16c0-25.59375-3.9375-45.511719-7.753906-64.785156-3.679688-18.597656-7.476563-37.765625-8.148438-63.214844zm-158.175781 24.632812c1.648438 15.429688 4.265625 28.703126 6.832031 41.6875 2.449219 12.398438 4.800781 24.375 6.183594 37.679688h-6.734375c-22.054688 0-40-17.945312-40-40 0-19.902344 14.65625-36.328125 33.71875-39.367188zm0 0"/></svg>