<svg height="496pt" viewBox="-24 0 496 496.008" width="496pt" xmlns="http://www.w3.org/2000/svg"><path d="m220.492188 416c2.671874-7.265625 6.496093-14.425781 11.503906-21.160156l.007812-.046875v-66.792969c10.25-10.246094 16-24.136719 16-38.625v-17.375h-61.574218l-2.019532-1.34375c-28.765625-19.167969-68.046875-19.167969-96.8125 0l-2.019531 1.34375h-61.574219v17.375c0 14.488281 5.753906 28.378906 16 38.625v88zm0 0" fill="#f0bc5e"/><path d="m384.003906 336c-20.160156 0-38.144531 11.742188-49.886718 30.007812-12.136719-10.929687-28.722657-15.734374-47.167969-13.449218-16.6875 2.089844-33.128907 9.816406-46.945313 21.914062v-43.289062c10.34375-11.503906 16-26.222656 16-41.816406v-65.367188c8.824219 0 16-7.175781 16-16v-16c0-8.824219-7.175781-16-16-16h-2.296875c-14.824219-41.871094-50.65625-71.511719-93.703125-78.441406v-49.558594h80v-48h-88c-22.054687 0-40 17.945312-40 40v57.558594c-43.046875 6.929687-78.878906 36.570312-93.703125 78.441406h-2.296875c-8.824218 0-15.99999975 7.175781-15.99999975 16v16c0 8.824219 7.17578175 16 15.99999975 16v65.367188c0 15.59375 5.65625 30.3125 16 41.816406v126.695312l.839844 1.6875c11.230469 22.472656 33.816406 36.433594 58.9375 36.433594h88.445312c16.027344 0 31.304688-5.878906 43.226563-16.265625.136719.136719.246094.296875.382813.433594 10.359374 10.359375 24.417968 15.839843 40.25 15.839843 2.933593 0 5.933593-.191406 8.972656-.566406 18.722656-2.335937 37.152344-11.753906 51.890625-26.496094 2.328125-2.328124 4.4375-4.839843 6.519531-7.378906 11.574219 20.777344 30.792969 34.433594 52.535156 34.433594 35.289063 0 64-35.886719 64-80s-28.710937-80-64-80zm-95.070312 32.433594c14.039062-1.761719 26.445312 1.8125 35.132812 10.007812-3.847656 2.183594-7.476562 2.925782-11.679687 3.765625-7.359375 1.472657-16.511719 3.296875-26.710938 13.496094s-12.03125 19.359375-13.503906 26.722656c-1.320313 6.574219-2.351563 11.765625-9.128906 18.542969-6.773438 6.773438-11.96875 7.816406-18.542969 9.128906-5.039062 1.007813-10.96875 2.238282-17.480469 6.183594-2.710937-6.875-3.648437-14.800781-2.582031-23.351562 1.902344-15.210938 9.6875-30.320313 21.933594-42.5625 12.25-12.238282 27.351562-20.03125 42.5625-21.933594zm-160.929688-328.433594c0-13.230469 10.769532-24 24-24h72v16h-64c-8.824218 0-16 7.175781-16 16v48.144531c-1.175781-.039062-2.335937-.144531-3.519531-.144531h-8.960937c-1.183594 0-2.34375.105469-3.519532.144531zm3.519532 72h8.953124c42.703126 0 80.03125 25.328125 96.113282 64h-201.179688c16.082032-38.671875 53.417969-64 96.113282-64zm-99.519532 177.367188v-65.367188h192v-16h-208v-16h240v16h-16v81.367188c0 12.457031-4.847656 24.167968-13.65625 32.976562l-2.34375 2.34375v67.585938c-8.359375 11.902343-13.761718 25.199218-15.441406 38.671874-.734375 5.910157-.664062 11.597657.015625 17.054688h-160.574219v-123.3125l-2.34375-2.34375c-8.808594-8.808594-13.65625-20.511719-13.65625-32.976562zm148.222656 190.632812h-88.445312c-14.203125 0-27.289062-5.9375-36.570312-16h157.625c.398437.910156.886718 1.777344 1.335937 2.664062-9.183594 8.527344-21.273437 13.335938-33.945313 13.335938zm133.410157-22.367188c-12.242188 12.238282-27.351563 20.03125-42.5625 21.933594-14.046875 1.738282-26.4375-1.824218-35.125-10 3.839843-2.183594 7.472656-2.941406 11.6875-3.78125 7.359375-1.472656 16.519531-3.304687 26.71875-13.503906 10.199219-10.203125 12.03125-19.359375 13.503906-26.722656 1.320313-6.574219 2.351563-11.765625 9.128906-18.542969 6.769531-6.769531 11.960938-7.808594 18.527344-9.121094 2.03125-.40625 4.214844-.863281 6.503906-1.488281-1.261719 6.28125-2.015625 12.824219-2.015625 19.59375 0 10 1.535156 19.527344 4.230469 28.359375-3.09375 4.746094-6.574219 9.25-10.597656 13.273437zm22.367187-41.632812c0-34.871094 21.03125-63.273438 47.070313-63.9375-1.140625 4.546875-3.253907 7.777344-5.726563 11.488281-4.167968 6.242188-9.34375 14.007813-9.34375 28.425781 0 14.421876 5.175782 22.199219 9.34375 28.449219 3.71875 5.574219 6.65625 9.980469 6.65625 19.566407 0 9.582031-2.9375 13.992187-6.65625 19.566406-2.9375 4.402344-6.335937 9.609375-8.113281 17.3125-19.253906-8.328125-33.230469-32.457032-33.230469-60.871094zm48.921875 63.9375c1.140625-4.554688 3.253907-7.785156 5.734375-11.503906 4.167969-6.25 9.34375-14.019532 9.34375-28.441406 0-14.425782-5.175781-22.191407-9.34375-28.441407-3.71875-5.582031-6.65625-9.992187-6.65625-19.574219 0-9.570312 2.9375-13.976562 6.65625-19.550781 2.929688-4.394531 6.328125-9.601562 8.105469-17.296875 19.261719 8.328125 33.238281 32.457032 33.238281 60.871094 0 34.871094-21.039062 63.273438-47.078125 63.9375zm0 0"/><path d="m64.003906 304h144v16h-144zm0 0"/><path d="m64.003906 336h144v16h-144zm0 0"/><path d="m64.003906 368h144v16h-144zm0 0"/></svg>