<svg height="496pt" viewBox="-48 0 496 496" width="496pt" xmlns="http://www.w3.org/2000/svg"><path d="m120 432h-16c-26.472656 0-48-21.527344-48-48s21.527344-48 48-48h8v16h-8c-17.648438 0-32 14.351562-32 32s14.351562 32 32 32h16zm0 0"/><g fill="#f0bc5e"><path d="m176 464c-39.703125 0-72-32.296875-72-72v-72h144v72c0 39.703125-32.296875 72-72 72zm0 0"/><path d="m280 72v48c-11.921875 15.921875-29.199219 26.640625-48.320312 30.480469-5.121094.960937-10.320313 1.519531-15.679688 1.519531h-80c-5.359375 0-10.558594-.558594-15.679688-1.519531-7.039062-1.441407-13.761718-3.761719-20.082031-6.960938-10.957031-5.441406-20.71875-13.441406-28.238281-23.519531v-48c26 0 26 16 51.921875 16 26 0 26-16 52-16s26 16 52.078125 16c26 0 26-16 52-16zm0 0"/><path d="m400 320h-80v-48h80zm0 0"/></g><path d="m384 448v-128h-16v128h-16v-128h-16v128h-296c-22.054688 0-40 17.945312-40 40v8h384c8.824219 0 16-7.175781 16-16v-16c0-8.824219-7.175781-16-16-16zm-366.632812 32c3.304687-9.3125 12.199218-16 22.632812-16h344l.007812 16zm0 0"/><path d="m64 48v74.664062l1.601562 2.144532c11.613282 15.480468 28.09375 26.449218 46.398438 31.679687v35.511719h32v56h16v-56h32v72h16v-72h136c4.40625 0 8 3.585938 8 8v8h-16v64h16v-48h16v48h16v-64h-16v-8c0-13.230469-10.769531-24-24-24h-104v-19.511719c18.304688-5.230469 34.785156-16.199219 46.398438-31.679687l1.601562-2.144532v-74.664062c8.824219 0 16-7.175781 16-16v-16c0-8.824219-7.175781-16-16-16h-224c-8.824219 0-16 7.175781-16 16v16c0 8.824219 7.175781 16 16 16zm160 128h-96v-16.472656c2.65625.242187 5.3125.472656 8 .472656h80c2.6875 0 5.34375-.230469 8-.472656zm48-58.753906c-13.59375 16.800781-34.335938 26.753906-56 26.753906h-80c-21.664062 0-42.40625-9.953125-56-26.753906v-69.246094h192zm-208-101.246094h224l.007812 16h-224.007812zm0 0"/><path d="m118.167969 212.558594c-4.097657 8.609375-6.167969 17.847656-6.167969 27.441406 0 35.289062 28.710938 64 64 64s64-28.710938 64-64c0-9.59375-2.070312-18.832031-6.167969-27.441406l-14.457031 6.875c3.074219 6.4375 4.625 13.367187 4.625 20.566406 0 26.472656-21.527344 48-48 48s-48-21.527344-48-48c0-7.199219 1.550781-14.128906 4.617188-20.558594zm0 0"/></svg>