<svg height="496pt" viewBox="0 0 496 496" width="496pt" xmlns="http://www.w3.org/2000/svg"><path d="m256 8v72h160v-72c0-4.414062-3.585938-8-8-8h-144c-4.414062 0-8 3.585938-8 8zm0 0" fill="#f0bc5e"/><path d="m328 416c-35.289062 0-64-35.886719-64-80s28.710938-80 64-80 64 35.886719 64 80-28.710938 80-64 80zm0 0" fill="#f0bc5e"/><path d="m324.648438 160h9.664062c38.800781 0 74.824219-19.273438 96.34375-51.558594l1.34375-2.015625v-26.425781h-88v-16h-16v16h-304c-13.230469 0-24 10.769531-24 24s10.769531 24 24 24h220.734375c21.625 20.65625 49.898437 32 79.914063 32zm-308.648438-56c0-4.414062 3.585938-8 8-8h392v5.519531c-18.6875 26.648438-49.039062 42.480469-81.6875 42.480469h-9.664062c-26.65625 0-51.710938-10.382812-70.992188-29.65625l-2.34375-2.34375h-227.3125c-4.414062 0-8-3.585938-8-8zm0 0"/><path d="m352 16h16v16h-16zm0 0"/><path d="m288 48h16v16h-16zm0 0"/><path d="m368 48h16v16h-16zm0 0"/><path d="m320 32h16v16h-16zm0 0"/><path d="m480 176h-304c-8.824219 0-16 7.175781-16 16v16c0 8.824219 7.175781 16 16 16h.128906c.160156 5.710938.503906 11.023438 1 16h-1.128906c-44.113281 0-80 35.886719-80 80s35.886719 80 80 80h54.257812c.316407 3.382812.597657 6.886719.839844 10.527344.527344 8.066406 3.453125 15.425781 8.023438 21.472656h-63.121094v24c0 22.054688 17.945312 40 40 40h224c22.054688 0 40-17.945312 40-40v-24h-63.144531c4.578125-6.0625 7.527343-13.441406 8.054687-21.519531 3.53125-54 16.714844-77.152344 29.449219-99.527344 12.464844-21.890625 24.257813-42.664063 25.519531-86.945313h.121094c8.824219 0 16-7.175781 16-16v-16c0-8.832031-7.175781-16.007812-16-16.007812zm-39.542969 127.03125c-13.007812 22.832031-27.746093 48.730469-31.511719 106.402344-.832031 12.65625-11.351562 22.566406-23.945312 22.566406h-17v16h96v8c0 13.230469-10.769531 24-24 24h-224c-13.230469 0-24-10.769531-24-24v-8h160v-16h-81c-12.601562 0-23.113281-9.878906-23.929688-22.503906-.429687-6.550782-1-12.679688-1.679687-18.433594l-.839844-7.0625h-68.550781c-35.289062 0-64-28.710938-64-64s28.710938-64 64-64h3.40625c4.59375 23.921875 13.25 39.144531 22.242188 54.953125 8.917968 15.671875 18.152343 31.871094 24.03125 58.902344l15.640624-3.40625c-6.417968-29.425781-16.695312-47.488281-25.769531-63.425781-11.871093-20.847657-22.222656-39.039063-23.429687-79.03125h271.757812c-1.207031 39.984374-11.558594 58.183593-23.421875 79.039062zm39.542969-95.03125h-304l-.015625-16h304.015625zm0 0"/><path d="m312 408h16c0-9.585938 2.9375-13.992188 6.65625-19.566406 4.167969-6.25 9.34375-14.019532 9.34375-28.441406 0-14.425782-5.175781-22.191407-9.34375-28.449219-3.71875-5.574219-6.65625-9.984375-6.65625-19.566407 0-9.570312 2.9375-13.96875 6.65625-19.542968 4.167969-6.25 9.34375-14.007813 9.34375-28.433594h-16c0 9.566406-2.9375 13.976562-6.65625 19.550781-4.167969 6.25-9.34375 14.007813-9.34375 28.425781 0 14.421876 5.175781 22.191407 9.34375 28.449219 3.71875 5.574219 6.65625 9.980469 6.65625 19.566407 0 9.574218-2.9375 13.984374-6.65625 19.558593-4.167969 6.25-9.34375 14.015625-9.34375 28.449219zm0 0"/></svg>