<svg height="496pt" viewBox="0 -4 496 496" width="496pt" xmlns="http://www.w3.org/2000/svg"><g fill="#f0bc5e"><path d="m208 48v39.175781l9.886719 7.800781c21.769531-4.550781 38.113281-23.855468 38.113281-46.976562v-48c-26.511719 0-48 21.488281-48 48zm0 0"/><path d="m384 400h-64c0-35.34375 28.65625-64 64-64h64c0 35.34375-28.65625 64-64 64zm0 0"/><path d="m368 184c-28.398438 0-52.480469 18.496094-60.847656 44.105469l4.113281 19.894531h56.734375c35.34375 0 64-28.65625 64-64zm0 0"/><path d="m256 248h-64c0 35.34375 28.65625 64 64 64h62.078125l-1.390625-20.367188c-8.503906-25.359374-32.464844-43.632812-60.6875-43.632812zm0 0"/></g><path d="m480 472h16v16h-16zm0 0"/><path d="m0 472h16v16h-16zm0 0"/><path d="m327.976562 392.230469c-.207031-89.40625-4.214843-148.6875-22.570312-197 4.082031-5.375 6.59375-11.984375 6.59375-19.230469 0-7.886719-2.976562-15.015625-7.71875-20.601562 9.367188-5.589844 15.71875-15.71875 15.71875-27.398438 0-17.648438-14.351562-32-32-32-12.632812 0-23.480469 7.425781-28.679688 18.078125-3.160156-1.191406-6.519531-1.796875-9.945312-1.949219-17.621094-17.128906-39.582031-34.601562-69.414062-55.074218l-19.609376-11.183594-7.925781 13.890625 19.039063 10.832031c24.6875 16.972656 43.925781 31.917969 59.671875 46.328125-9.046875 5.652344-15.136719 15.636719-15.136719 27.078125 0 17.648438 14.351562 32 32 32 0 17.648438 14.351562 32 32 32 4.328125 0 8.441406-.878906 12.207031-2.449219 16.03125 45.3125 19.578125 102.160157 19.769531 186.785157-13.855468.625-27.34375 3.257812-40.289062 8.015624-3.085938-40.535156-30.464844-72.351562-63.6875-72.351562-20.160156 0-38.144531 11.742188-49.886719 30.007812-12.136719-10.929687-28.730469-15.734374-47.167969-13.449218-18.722656 2.335937-37.152343 11.753906-51.890624 26.496094-14.742188 14.746093-24.160157 33.167968-26.496094 51.890624-2.421875 19.375 2.953125 36.78125 15.121094 49.054688h-15.679688v16h55.808594c.085937 0 .175781.007812.269531.007812.066406 0 .128906-.007812.1875-.007812h375.734375v-16h-18.808594c-20.953125-46.878906-65.960937-77.488281-117.214844-79.769531zm-39.976562-280.230469c8.824219 0 16 7.175781 16 16s-7.175781 16-16 16-16-7.175781-16-16 7.175781-16 16-16zm-40 48c-8.824219 0-16-7.175781-16-16s7.175781-16 16-16c2.921875 0 5.761719.808594 8.230469 2.289062.503906 6.976563 3.21875 13.285157 7.488281 18.3125-4.382812 2.613282-8.085938 6.199219-10.796875 10.527344-1.585937.519532-3.21875.871094-4.921875.871094zm16 16c0-8.824219 7.175781-16 16-16s16 7.175781 16 16-7.175781 16-16 16-16-7.175781-16-16zm-8 232c0 34.871094-21.039062 63.273438-47.078125 63.9375 1.140625-4.554688 3.253906-7.785156 5.734375-11.503906 4.167969-6.25 9.34375-14.019532 9.34375-28.441406 0-14.425782-5.175781-22.191407-9.34375-28.441407-3.71875-5.582031-6.65625-9.992187-6.65625-19.574219 0-9.570312 2.9375-13.976562 6.65625-19.550781 2.929688-4.394531 6.328125-9.601562 8.105469-17.296875 19.261719 8.328125 33.238281 32.457032 33.238281 60.871094zm-48.929688-63.9375c-1.140624 4.546875-3.253906 7.777344-5.726562 11.488281-4.167969 6.242188-9.34375 14.007813-9.34375 28.425781 0 14.421876 5.175781 22.199219 9.34375 28.449219 3.71875 5.574219 6.65625 9.980469 6.65625 19.566407 0 9.582031-2.9375 13.992187-6.65625 19.566406-2.9375 4.402344-6.335938 9.609375-8.113281 17.3125-19.253907-8.328125-33.230469-32.457032-33.230469-60.871094 0-34.871094 21.03125-63.273438 47.070312-63.9375zm-58.839843 92.296875c-3.09375 4.746094-6.574219 9.25-10.597657 13.273437-12.242187 12.238282-27.351562 20.03125-42.5625 21.933594-14.046874 1.738282-26.4375-1.824218-35.125-10 3.839844-2.183594 7.46875-2.941406 11.6875-3.78125 7.359376-1.472656 16.519532-3.304687 26.71875-13.503906 10.199219-10.203125 12.03125-19.359375 13.503907-26.722656 1.320312-6.574219 2.351562-11.765625 9.128906-18.542969 6.769531-6.769531 11.960937-7.808594 18.527344-9.121094 2.03125-.40625 4.214843-.863281 6.503906-1.488281-1.261719 6.28125-2.015625 12.824219-2.015625 19.59375 0 10 1.535156 19.527344 4.230469 28.359375zm-99.796875-11.429687c1.902344-15.210938 9.6875-30.320313 21.933594-42.5625 12.25-12.238282 27.351562-20.03125 42.5625-21.933594 14.039062-1.761719 26.445312 1.8125 35.132812 10.007812-3.847656 2.183594-7.476562 2.925782-11.679688 3.765625-7.359374 1.472657-16.511718 3.296875-26.710937 13.496094s-12.03125 19.359375-13.503906 26.722656c-1.320313 6.574219-2.351563 11.765625-9.128907 18.542969-6.773437 6.773438-11.96875 7.816406-18.542968 9.128906-5.039063 1.007813-10.96875 2.238282-17.480469 6.183594-2.710937-6.875-3.648437-14.800781-2.582031-23.351562zm87.292968 47.070312c4.640626-3.257812 9.082032-6.921875 13.21875-11.054688 2.328126-2.328124 4.4375-4.839843 6.519532-7.378906 3.933594 7.074219 8.78125 13.273438 14.296875 18.433594zm135.753907-54.3125c14.816406-6.328125 30.472656-9.6875 46.6875-9.6875h3.671875c44.976562 0 85.191406 24.785156 105.625 64h-181.226563c13.640625-12.769531 23.089844-32.128906 25.242188-54.3125zm0 0"/><path d="m352 440h16v16h-16zm0 0"/><path d="m280 440h16v16h-16zm0 0"/><path d="m80 0h32c35.34375 0 64 28.65625 64 64h-32c-35.34375 0-64-28.65625-64-64zm0 0" fill="#f0bc5e"/><path d="m128 160v-48c0-26.511719 21.488281-48 48-48v48c0 26.511719-21.488281 48-48 48zm0 0" fill="#f0bc5e"/></svg>