<svg height="496pt" viewBox="-64 0 496 496" width="496pt" xmlns="http://www.w3.org/2000/svg"><path d="m182.519531 368h-76.496093l-17.511719-70.054688 15.519531-3.890624 14.488281 57.945312h51.503907l14.488281-57.945312 15.519531 3.890624zm0 0"/><path d="m56.273438 200v64c0 22.054688 17.941406 40 40 40h96c22.054687 0 40-17.945312 40-40v-64zm0 0" fill="#f0bc5e"/><path d="m88.273438 256h16v16h-16zm0 0"/><path d="m120.273438 256h16v16h-16zm0 0"/><path d="m152.273438 256h16v16h-16zm0 0"/><path d="m184.273438 256h16v16h-16zm0 0"/><path d="m352.273438 144h-48c-8.824219 0-16 7.175781-16 16h-72v-4.152344l18.984374-15.191406c13.351563-10.679688 21.015626-26.625 21.015626-43.726562v-56.929688h-16v56.929688c0 12.214843-5.472657 23.597656-15.015626 31.230468l-19.792968 15.839844h-122.386719l-19.789063-15.832031c-9.546874-7.640625-15.015624-19.015625-15.015624-31.238281v-56.929688h-16v56.929688c0 17.101562 7.664062 33.046874 21.015624 43.726562l18.984376 15.191406v36.152344h-4.25c-19.777344 0-36.800782 14.769531-39.589844 34.335938l-28.433594 199.007812 19.328125 38.65625h14.703125l7.992188 32h44.496093l7.992188-32h99.511719l7.992187 32h44.496094l7.992187-32h14.703125l19.328125-38.65625-2.464844-17.34375h10.203126c10.414062 0 19.214843-6.710938 22.527343-16h9.472657c13.230468 0 24-10.769531 24-24v-16c0-13.230469-10.769532-24-24-24h-9.472657c-3.3125-9.289062-12.113281-16-22.527343-16h-23.921876l-12.238281-85.65625c-2.792969-19.574219-19.816406-34.34375-39.59375-34.34375h-4.246093v-16h72c0 8.824219 7.175781 16 16 16h48c8.824218 0 16-7.175781 16-16v-16c0-8.824219-7.175782-16-16-16zm-248 64h80v16h-80zm-30.25 272h-19.503907l-4.007812-16h27.511719zm160 0h-19.503907l-4.007812-16h27.511719zm-204.808594-32-8-16h246.113281l-8 16zm307.058594-96v16c0 4.40625-3.585938 8-8 8h-8v-32h8c4.414062 0 8 3.59375 8 8zm-92-123.390625 21.214843 148.527344 15.839844-2.265625-6.6875-46.871094h21.632813c4.414062 0 8 3.59375 8 8v48c0 4.40625-3.585938 8-8 8h-28.65625l3.429687 24h-23.597656l-10.5625-96.863281-15.902344 1.734375 10.367187 95.128906h-174.160156l10.367188-95.136719-15.902344-1.734375-10.558594 96.871094h-23.601562l26.777344-187.398438c1.671874-11.746093 11.878906-20.601562 23.75-20.601562h20.25v32h112v-32h20.246093c11.871094 0 22.082031 8.855469 23.753907 20.609375zm-156-36.609375v-32h112v32zm216-16v-16h48l.007812 16zm0 0"/><path d="m256.273438 48h-224c-8.824219 0-16-7.175781-16-16v-16c0-8.824219 7.175781-16 16-16h224c8.824218 0 16 7.175781 16 16v16c0 8.824219-7.175782 16-16 16zm0 0" fill="#f0bc5e"/></svg>