<svg height="496pt" viewBox="-24 0 496 496" width="496pt" xmlns="http://www.w3.org/2000/svg"><path d="m272 72h16v32h-16zm0 0"/><path d="m240 72h16v32h-16zm0 0"/><path d="m288 40h-16v-16c0-4.40625-3.59375-8-8-8s-8 3.59375-8 8v16h-16v-16c0-13.230469 10.769531-24 24-24s24 10.769531 24 24zm0 0"/><g fill="#f0bc5e"><path d="m392 328v96c0 17.679688-14.320312 32-32 32h-208c-17.679688 0-32-14.320312-32-32v-128c45.28125 0 45.28125 32 90.640625 32 17.4375 0 28.160156-4.71875 37.359375-10.558594 10.238281-6.480468 18.558594-14.320312 32-18.480468 5.921875-1.839844 12.800781-2.960938 21.28125-2.960938 45.359375 0 45.359375 32 90.71875 32zm0 0"/><path d="m360 96h-192c-22.054688 0-40 17.945312-40 40h272c0-22.054688-17.945312-40-40-40zm0 0"/><path d="m304 80h-80c-8.824219 0-16-7.175781-16-16v-16c0-8.824219 7.175781-16 16-16h80c8.824219 0 16 7.175781 16 16v16c0 8.824219-7.175781 16-16 16zm0 0"/></g><path d="m136 128c-11.6875 0-21.425781 8.40625-23.542969 19.496094-9.816406-2.855469-20.015625-4-30.472656-3.289063-45.976563 3.082031-81.984375 42.890625-81.984375 90.625v7.953125c0 13.480469 3.160156 26.984375 9.144531 39.046875 15.167969 30.601563 22.855469 60.648438 22.855469 89.304688v7.199219c0 16.359374 13.3125 29.664062 29.664062 29.664062h4.671876c16.351562 0 29.664062-13.304688 29.664062-29.664062 0-42.953126-10.121094-85.976563-29.273438-124.433594-1.804687-3.636719-2.726562-7.382813-2.726562-11.117188v-10.785156c0-6.742188 2.871094-13.222656 7.886719-17.777344 5.082031-4.605468 11.671875-6.773437 18.527343-6.109375 12.105469 1.183594 21.585938 12.292969 21.585938 25.300781v190.585938c0 9.039062 3.128906 17.296875 8.207031 24h-8.207031c-8.824219 0-16 7.175781-16 16v16c0 8.824219 7.175781 16 16 16h288c8.824219 0 16-7.175781 16-16v-16c0-8.824219-7.175781-16-16-16h-8.207031c5.078125-6.703125 8.207031-14.960938 8.207031-24v-182.3125c0-33.441406 16.617188-64.480469 44.441406-83.03125l3.558594-2.375v-28.28125zm-44.03125 64.191406c-11.257812-1.136718-22.488281 2.617188-30.832031 10.183594-8.34375 7.585938-13.136719 18.378906-13.136719 29.625v10.785156c0 6.230469 1.480469 12.375 4.40625 18.246094 18.050781 36.25 27.59375 76.808594 27.59375 117.304688 0 7.527343-6.128906 13.664062-13.664062 13.664062h-4.671876c-7.535156 0-13.664062-6.136719-13.664062-13.664062v-7.199219c0-31.152344-8.246094-63.585938-24.519531-96.417969-4.894531-9.871094-7.480469-20.910156-7.480469-31.933594v-7.953125c0-39.34375 29.457031-72.144531 67.046875-74.664062 10.007813-.671875 19.707031.785156 28.953125 4.078125v36.121094c-5.695312-4.488282-12.558594-7.445313-20.03125-8.175782zm308.039062 287.808594h-288.007812v-16h288zm-248.007812-32c-13.230469 0-24-10.769531-24-24v-232h112v129.878906c2.839844-1.351562 5.488281-2.847656 8-4.4375 2.761719-1.746094 5.382812-3.59375 8-5.441406v-120h16v110.128906c2.488281-1.183594 5.105469-2.28125 8-3.167968 2.464844-.769532 5.152344-1.375 8-1.863282v-105.097656h107.335938c-7.273438 15.296875-11.335938 32.175781-11.335938 49.6875v182.3125c0 13.230469-10.769531 24-24 24zm280-300.183594c-10.871094 7.847656-20.089844 17.429688-27.503906 28.183594h-276.496094v-24c0-4.40625 3.59375-8 8-8h296zm0 0"/></svg>