<svg height="496pt" viewBox="-112 0 496 496" width="496pt" xmlns="http://www.w3.org/2000/svg"><g fill="#f0bc5e"><path d="m248 384h-16v56c0 8.839844-7.160156 16-16 16h-24v16c0 13.257812 10.742188 24 24 24h32c13.257812 0 24-10.742188 24-24v-64c0-13.257812-10.742188-24-24-24zm0 0"/><path d="m0 408v64c0 13.257812 10.742188 24 24 24h32c13.257812 0 24-10.742188 24-24v-16h-24c-8.839844 0-16-7.160156-16-16v-56h-16c-13.257812 0-24 10.742188-24 24zm0 0"/><path d="m232 240h-192v-56c0-8.839844 7.160156-16 16-16h160c8.839844 0 16 7.160156 16 16zm0 0"/><path d="m199.121094 296h-126.242188c.5625-2.320312 1.359375-4.558594 2.480469-6.71875l12.640625-25.28125h96l12.640625 25.28125c1.121094 2.160156 1.917969 4.398438 2.480469 6.71875zm0 0"/></g><path d="m128 192h16v16h-16zm0 0"/><path d="m64 192h16v16h-16zm0 0"/><path d="m96 192h16v16h-16zm0 0"/><path d="m160 192h16v16h-16zm0 0"/><path d="m192 192h16v16h-16zm0 0"/><path d="m256 0h-240c-8.824219 0-16 7.175781-16 16v16c0 8.824219 7.175781 16 16 16v75.3125l36.992188 36.992188c-11.800782 1.496093-20.992188 11.488281-20.992188 23.695312v256c0 13.230469 10.769531 24 24 24h160c13.230469 0 24-10.769531 24-24v-256c0-12.207031-9.191406-22.199219-20.992188-23.695312l36.992188-36.992188v-75.3125c8.824219 0 16-7.175781 16-16v-16c0-8.824219-7.175781-16-16-16zm-40 448h-160c-4.40625 0-8-3.585938-8-8v-8h176v8c0 4.414062-3.59375 8-8 8zm-136-56v-88.449219c0-3.703125.871094-7.421875 2.535156-10.734375l10.410156-20.816406h86.109376l10.410156 20.824219c1.664062 3.3125 2.535156 7.023437 2.535156 10.726562v88.449219c0 13.230469-10.769531 24-24 24h-64c-13.230469 0-24-10.769531-24-24zm144-208v232h-24.207031c5.078125-6.703125 8.207031-14.960938 8.207031-24v-88.449219c0-6.175781-1.464844-12.367187-4.222656-17.886719l-14.832032-29.664062h-12.945312v-16h-16v16h-48v-16h-16v16h-12.945312l-14.832032 29.664062c-2.757812 5.519532-4.222656 11.710938-4.222656 17.886719v88.449219c0 9.039062 3.128906 17.296875 8.207031 24h-24.207031v-232c0-4.414062 3.59375-8 8-8h160c4.40625 0 8 3.585938 8 8zm32-152h-192v16h176v64h-48v16h36.6875l-32 32h-121.375l-32-32h132.6875v-16h-144v-64h16v-16h-32v-16h240zm0 0"/></svg>