<svg height="496pt" viewBox="-112 0 496 496" width="496pt" xmlns="http://www.w3.org/2000/svg"><path d="m104 8v24c0 17.648438 14.351562 32 32 32s32-14.351562 32-32v-24zm0 0" fill="#f0bc5e"/><path d="m176 416h-80c-13.230469 0-24-10.769531-24-24v-224c0-13.230469 10.769531-24 24-24h80c13.230469 0 24 10.769531 24 24v224c0 13.230469-10.769531 24-24 24zm0 0" fill="#f0bc5e"/><path d="m252.175781 246.832031-12.726562-30.542969c-4.945313-11.875-7.449219-24.417968-7.449219-37.265624 0-11.664063 2.070312-23.113282 6.167969-34.023438l17.832031-47.542969v-57.457031c0-22.054688-17.945312-40-40-40h-160c-22.054688 0-40 17.945312-40 40v57.457031l17.832031 47.542969c4.097657 10.910156 6.167969 22.359375 6.167969 34.023438 0 12.847656-2.503906 25.390624-7.457031 37.265624l-12.726563 30.542969c-13.152344 31.566407-19.816406 64.902344-19.816406 99.097657 0 37.023437 7.769531 72.886718 23.097656 106.605468l9.09375 20.015625c6.472656 14.25 20.769532 23.449219 36.417969 23.449219h134.789063c15.648437 0 29.9375-9.199219 36.417968-23.449219l9.09375-20.015625c15.320313-33.710937 23.089844-69.582031 23.089844-106.605468 0-34.195313-6.664062-67.53125-19.824219-99.097657zm-18.71875-134.832031h-9.457031v-16h15.457031zm-153.457031-16v16h-16v-16zm16 0h16v16h-16zm32 0h16v16h-16zm32 0h16v16h-16zm32 0h16v16h-16zm-160-56c0-13.230469 10.769531-24 24-24h160c13.230469 0 24 10.769531 24 24v40h-208zm16 56v16h-9.457031l-6-16zm155.390625 384h-134.78125c-9.386719 0-17.96875-5.519531-21.847656-14.070312l-8.152344-17.929688h194.789063l-8.152344 17.929688c-3.886719 8.550781-12.460938 14.070312-21.855469 14.070312zm36.722656-48h-208.226562c-10.519531-27.511719-15.886719-56.382812-15.886719-86.070312 0-32.074219 6.257812-63.335938 18.585938-92.9375l12.726562-30.542969c5.765625-13.839844 8.6875-28.449219 8.6875-43.425781 0-13.582032-2.414062-26.917969-7.183594-39.648438l-4.273437-11.375h182.914062l-4.265625 11.375c-4.777344 12.730469-7.191406 26.066406-7.191406 39.648438 0 14.976562 2.921875 29.585937 8.6875 43.425781l12.726562 30.542969c12.328126 29.601562 18.585938 60.863281 18.585938 92.9375 0 29.6875-5.367188 58.558593-15.886719 86.070312zm0 0"/><path d="m136 176c-17.648438 0-32 17.945312-32 40s14.351562 40 32 40 32-17.945312 32-40-14.351562-40-32-40zm0 64c-8.671875 0-16-10.992188-16-24s7.328125-24 16-24 16 10.992188 16 24-7.328125 24-16 24zm0 0"/><path d="m104 272h64v16h-64zm0 0"/><path d="m104 304h64v16h-64zm0 0"/><path d="m104 336h64v16h-64zm0 0"/><path d="m104 368h64v16h-64zm0 0"/></svg>