<svg height="496pt" viewBox="-48 0 496 496" width="496pt" xmlns="http://www.w3.org/2000/svg"><path d="m388.078125 322.398438c2.640625 10.480468 3.921875 21.121093 3.921875 31.921874 0 73.839844-59.839844 133.679688-133.679688 133.679688h-20.640624c-36.878907 0-70.320313-14.960938-94.558594-39.121094-11.839844-11.839844-21.441406-25.917968-28.242188-41.597656-6.800781-15.761719-10.640625-33.121094-10.878906-51.359375 0-.5625 0-1.042969 0-1.601563 0-12.160156 1.679688-24.242187 4.960938-36l3.679687-13.199218c11.28125 9.4375 18.640625 22.878906 39.359375 22.878906 32 0 32-32 64-32s32 32 63.921875 32c32.078125 0 32.078125-32 64.078125-32 23.441406 0 29.761719 17.199219 44 26.320312 0 .078126.078125.078126.078125.078126zm0 0" fill="#f0bc5e"/><path d="m319.320312 65.265625c-3.222656-18.851563-19.578124-33.265625-39.320312-33.265625-12.519531 0-24.488281-5.984375-32-16.007812l-12-15.992188h-4c-30.878906 0-56 25.128906-56 56v9.472656c-9.289062 3.3125-16 12.113282-16 22.527344 0 13.230469 10.769531 24 24 24v-16c-4.40625 0-8-3.585938-8-8s3.59375-8 8-8h24v-16h-16v-8c0-20.761719 15.886719-37.863281 36.144531-39.816406l7.054688 9.410156c10.519531 14.03125 27.273437 22.40625 44.800781 22.40625 10.414062 0 19.214844 6.710938 22.527344 16h-78.527344v16h88c4.40625 0 8 3.585938 8 8s-3.59375 8-8 8v16c13.230469 0 24-10.769531 24-24 0-10.664062-7.039062-19.625-16.679688-22.734375zm0 0"/><path d="m394.753906 316.167969-51.167968-182.695313-8-24-15.179688 5.0625 7.890625 23.625 51.046875 182.320313c3.089844 11.023437 4.65625 22.421875 4.65625 33.878906 0 69.28125-56.359375 125.640625-125.648438 125.640625h-20.710937c-69.28125 0-125.640625-56.359375-125.640625-125.640625 0-11.457031 1.566406-22.847656 4.65625-33.878906l50.9375-181.945313 8-24-15.179688-5.0625-8.109374 24.375-7.328126 26.152344h-16.976562c-70.574219 0-128 57.425781-128 128 0 63.953125 46.839844 117.503906 109.617188 126.550781 22.6875 48.050781 71.460937 81.449219 128.03125 81.449219h20.710937c78.097656 0 141.640625-63.535156 141.640625-141.640625 0-12.910156-1.769531-25.765625-5.246094-38.191406zm-293.507812 0c-2.511719 8.960937-4.09375 18.144531-4.796875 27.417969-19.746094-11.257813-32.449219-32.355469-32.449219-55.585938 0-34.96875 28.191406-63.433594 63.039062-63.953125zm-85.246094-28.167969c0-61.761719 50.238281-112 112-112h12.496094l-8.960938 32h-3.535156c-44.113281 0-80 35.886719-80 80 0 32.007812 19.230469 60.863281 48.359375 73.441406.617187 12.320313 2.65625 24.261719 6.234375 35.566406-50.179688-11.59375-86.59375-56.273437-86.59375-109.007812zm0 0"/><path d="m336 96h-176c-8.839844 0-16 7.160156-16 16s7.160156 16 16 16h40c8.800781 0 16 7.199219 16 16v32c0 4.398438 1.761719 8.398438 4.71875 11.28125 2.882812 2.957031 6.882812 4.71875 11.28125 4.71875 8.800781 0 16-7.199219 16-16v-32c0-4.398438 1.761719-8.398438 4.71875-11.28125 2.882812-2.957031 6.882812-4.71875 11.28125-4.71875 8.800781 0 16 7.199219 16 16v96c0 4.398438 1.761719 8.398438 4.71875 11.28125 2.882812 2.957031 6.882812 4.71875 11.28125 4.71875 8.800781 0 16-7.199219 16-16v-96c0-4.398438 1.761719-8.398438 4.71875-11.28125 2.882812-2.957031 6.882812-4.71875 11.28125-4.71875h8c8.839844 0 16-7.160156 16-16s-7.160156-16-16-16zm0 0" fill="#f0bc5e"/></svg>