<svg height="496pt" viewBox="-48 0 496 496.128" width="496pt" xmlns="http://www.w3.org/2000/svg"><path d="m312.0625 401.488281c0 47.839844-38.796875 86.640625-86.636719 86.640625h-114.722656c-47.839844 0-86.640625-38.800781-86.640625-86.640625 0-1.601562.082031-3.121093.082031-4.71875h.078125c20.242188 8.878907 27.921875 27.359375 59.839844 27.359375 42 0 42-32 83.921875-32 42.078125 0 42.078125 32 84.078125 32 31.523438 0 39.363281-18 59.042969-26.960937h.957031zm0 0" fill="#f0bc5e"/><path d="m168.457031 120.128906c-22.625 0-40.394531-17.769531-40.394531-39.609375 0-6.871093 1.808594-13.671875 5.21875-19.648437l34.78125-60.871094 34.785156 60.863281c3.410156 5.984375 5.214844 12.777344 5.214844 19.65625 0 21.839844-17.765625 39.609375-39.605469 39.609375zm0 0" fill="#f0bc5e"/><path d="m399.710938 373.488281-27-148.511719c-3.472657-19.03125-20.015626-32.847656-39.351563-32.847656h-38.101563c-3.578124-17.527344-18.691406-30.769531-37-31.777344l24.054688-96.222656h-58.25v16h37.753906l-19.992187 80h-147.519531l-19.992188-80h37.75v-16h-58.246094l24.0625 96.222656c-21.023437 1.160157-37.816406 18.472657-37.816406 39.777344v8h-40v29.269532l55.914062 23.96875c-.625 18.34375-4.519531 36.226562-11.601562 53.226562l-21.03125 50.460938c-4.832031 11.59375-7.28125 23.847656-7.28125 36.410156 0 52.191406 42.472656 94.664062 94.664062 94.664062h114.671876c52.195312 0 94.664062-42.472656 94.664062-94.664062v-9.746094c0-5.527344-.488281-11.0625-1.445312-16.453125l-21.015626-119.136719h24.375l35.597657 128.160156c2.601562 9.328126 11.167969 15.839844 20.851562 15.839844 11.933594 0 21.636719-9.703125 21.636719-21.640625v-1.136719c0-1.304687-.117188-2.597656-.351562-3.863281zm-343.648438-173.359375c0-13.234375 10.769531-24 24-24h176c13.234375 0 24 10.765625 24 24v8h-224zm248 191.589844v9.746094c0 43.375-35.285156 78.664062-78.664062 78.664062h-114.671876c-43.375 0-78.664062-35.289062-78.664062-78.664062 0-10.441406 2.042969-20.617188 6.050781-30.257813l21.03125-50.464843c8.574219-20.574219 12.917969-42.308594 12.917969-64.613282v-5.273437l-56-24v-2.726563h136c0 4.488282-1.734375 6.40625-5.65625 10.328125-4.367188 4.359375-10.34375 10.335938-10.34375 21.640625 0 11.316406 5.976562 17.292969 10.34375 21.664063 3.921875 3.917969 5.65625 5.847656 5.65625 10.351562 0 4.496094-1.734375 6.421875-5.65625 10.351563-4.367188 4.367187-10.34375 10.34375-10.34375 21.664062h16c0-4.496094 1.738281-6.425781 5.65625-10.351562 4.371094-4.371094 10.34375-10.34375 10.34375-21.664063 0-11.320312-5.972656-17.304687-10.34375-21.664062-3.917969-3.929688-5.65625-5.855469-5.65625-10.351563 0-4.488281 1.738281-6.410156 5.65625-10.320312 4.371094-4.371094 10.34375-10.335938 10.34375-21.648438h112v24l22.808594 129.925782c.785156 4.472656 1.191406 9.074218 1.191406 13.664062zm80-13.230469c0 3.113281-2.519531 5.640625-5.628906 5.640625-2.523438 0-4.761719-1.695312-5.433594-4.128906l-35.601562-128.152344c-1.910157-6.894531-8.246094-11.71875-15.414063-11.71875h-25.921875v-32h37.296875c11.601563 0 21.527344 8.285156 23.617187 19.703125l27 148.535157c.0625.328124.085938.65625.085938.992187zm0 0"/><path d="m208.0625 240.128906h-16c0 4.488282-1.734375 6.40625-5.65625 10.328125-4.367188 4.359375-10.34375 10.335938-10.34375 21.640625 0 11.316406 5.976562 17.292969 10.34375 21.664063 3.921875 3.917969 5.65625 5.847656 5.65625 10.351562 0 4.496094-1.734375 6.421875-5.65625 10.351563-4.367188 4.367187-10.34375 10.34375-10.34375 21.664062h16c0-4.496094 1.738281-6.425781 5.65625-10.351562 4.371094-4.371094 10.34375-10.34375 10.34375-21.664063 0-11.320312-5.972656-17.304687-10.34375-21.664062-3.917969-3.929688-5.65625-5.855469-5.65625-10.351563 0-4.488281 1.738281-6.410156 5.65625-10.320312 4.371094-4.371094 10.34375-10.335938 10.34375-21.648438zm0 0"/></svg>