<svg height="496pt" viewBox="0 0 496 496" width="496pt" xmlns="http://www.w3.org/2000/svg"><path d="m312 216h-48c-54.65625 0-103.488281 24.910156-135.769531 64h319.496093c-11.816406-14.304688-25.832031-26.734375-41.558593-36.710938l-21.863281-11.792968c-22.058594-9.960938-46.535157-15.496094-72.304688-15.496094zm0 0" fill="#f0bc5e"/><path d="m304 304h-32c-13.230469 0-24 10.769531-24 24v120h80v-120c0-13.230469-10.769531-24-24-24zm0 0" fill="#f0bc5e"/><path d="m280 416h48v16h-48zm0 0"/><path d="m296 384h32v16h-32zm0 0"/><path d="m280 352h48v16h-48zm0 0"/><path d="m441.710938 261.433594c14.535156-26.097656 22.289062-55.457032 22.289062-85.433594 0-97.046875-78.953125-176-176-176s-176 78.953125-176 176c0 30.023438 7.777344 59.433594 22.359375 85.550781-10.96875 10.90625-20.527344 23.210938-28.496094 36.570313l-46.792969-42.121094h-59.070312v19.023438l81.65625 92.535156c-1.070312 8-1.65625 16.152344-1.65625 24.441406v65.886719l8 16c6.824219 13.640625 20.527344 22.113281 35.777344 22.113281h328.445312c15.25 0 28.960938-8.472656 35.777344-22.113281l8-16v-65.886719c0-49.832031-19.792969-96.414062-54.289062-130.566406zm-313.710938-85.433594c0-88.222656 71.777344-160 160-160s160 71.777344 160 160c0 26.03125-6.382812 51.574219-18.480469 74.488281-4.34375-3.59375-8.808593-7.074219-13.511719-10.296875 5.039063-13.085937 16-43.886718 16-64.183594 0-79.398437-64.601562-144-144-144-79.398437 0-144 64.601563-144 144 0 22.496094 5.296876 44.710938 15.375 64.710938-4.4375 3.082031-8.6875 6.417969-12.839843 9.867188-12.136719-22.9375-18.542969-48.523438-18.542969-74.585938zm136 48h48c24.054688 0 47.28125 4.976562 69.015625 14.785156l6.578125-14.578125c-23.816406-10.75-49.257812-16.207031-75.59375-16.207031v-32h32v-24c0-13.230469-10.769531-24-24-24h-64c-13.230469 0-24 10.769531-24 24v24h32v32c-33.089844 0-64.167969 8.785156-91.023438 24.136719-8.511718-17.417969-12.976562-36.65625-12.976562-56.136719 0-70.574219 57.425781-128 128-128s128 57.425781 128 128c0 22.59375-17.039062 63.792969-17.214844 64.199219l-2.59375 6.226562 5.6875 3.605469c48.921875 31.046875 78.121094 84.121094 78.121094 141.96875v56h-384v-56c0-92.632812 75.359375-168 168-168zm-16-64v-8c0-4.414062 3.59375-8 8-8h64c4.40625 0 8 3.585938 8 8v8zm48 16v32h-16v-32zm-277.335938 96h34.265626l45.148437 40.632812c-5.335937 11.109376-9.613281 22.824219-12.644531 35.03125zm433.558594 208h-328.445312c-9.152344 0-17.378906-5.089844-21.464844-13.265625l-1.367188-2.734375h374.109376l-1.367188 2.734375c-4.085938 8.175781-12.320312 13.265625-21.464844 13.265625zm0 0"/></svg>