<svg height="496pt" viewBox="0 0 496 496" width="496pt" xmlns="http://www.w3.org/2000/svg"><path d="m248 80c-79.398438 0-144 64.601562-144 144s64.601562 144 144 144 144-64.601562 144-144-64.601562-144-144-144zm-48 80c26.511719 0 48 21.488281 48 48h-32c-26.511719 0-48-21.488281-48-48zm16 128c-26.511719 0-48-21.488281-48-48h32c26.511719 0 48 21.488281 48 48zm64 16h-32c0-26.511719 21.488281-48 48-48h32c0 26.511719-21.488281 48-48 48zm0-80h-32c0-26.511719 21.488281-48 48-48h32c0 26.511719-21.488281 48-48 48zm0 0" fill="#f0bc5e"/><path d="m216 296h24v16h40c30.871094 0 56-25.121094 56-56v-8h-40c-15.664062 0-29.824219 6.480469-40 16.886719v-32.886719h24c30.871094 0 56-25.121094 56-56v-8h-40c-17.535156 0-33.199219 8.113281-43.472656 20.769531-7.871094-21.417969-28.414063-36.769531-52.527344-36.769531h-40v8c0 30.878906 25.128906 56 56 56h24v32.886719c-10.175781-10.40625-24.335938-16.886719-40-16.886719h-40v8c0 30.878906 25.128906 56 56 56zm80-32h23.191406c-3.71875 18.230469-19.871094 32-39.191406 32h-23.191406c3.710937-18.230469 19.871094-32 39.191406-32zm0-80h23.191406c-3.71875 18.230469-19.871094 32-39.191406 32h-23.191406c3.710937-18.230469 19.871094-32 39.191406-32zm-80 16c-19.320312 0-35.480469-13.769531-39.191406-32h23.191406c19.320312 0 35.480469 13.769531 39.191406 32zm-16 48c19.320312 0 35.480469 13.769531 39.191406 32h-23.191406c-19.320312 0-35.480469-13.769531-39.191406-32zm0 0"/><path d="m457.761719 145.617188c-32.609375-87.242188-116.28125-145.617188-209.761719-145.617188-112.128906 0-206.273438 82.335938-221.710938 192.574219-14.921874 2.714843-26.289062 15.738281-26.289062 31.425781s11.367188 28.710938 26.289062 31.425781c15.4375 110.238281 109.582032 192.574219 221.710938 192.574219 69.648438 0 133.710938-31.566406 176-85.488281v109.488281c0 13.230469 10.769531 24 24 24s24-10.769531 24-24v-210.457031c0-6.621094 3.160156-13.238281 8.878906-18.621094 9.617188-9.035156 15.121094-21.753906 15.121094-34.921875 0-22.648438-15.566406-54.894531-38.238281-62.382812zm-209.761719-129.617188c84.601562 0 160.503906 51.488281 192.351562 129.078125-10.457031 2.699219-19.519531 10.609375-26.382812 20.707031-24.441406-69.296875-91.128906-117.785156-165.96875-117.785156-84.6875 0-157.894531 61.433594-173.097656 144h-32.398438c15.527344-100.953125 102.328125-176 205.496094-176zm-232 208c0-8.824219 7.175781-16 16-16h56.640625l.984375-6.863281c11.175781-78.183594 79.261719-137.136719 158.375-137.136719 73.664062 0 138.703125 51.625 155.617188 123.03125-2.34375 7.242188-3.617188 14.496094-3.617188 20.96875 0 9.175781 2.726562 18.113281 7.609375 25.761719-5.082031 84.421875-74.664063 150.238281-159.609375 150.238281-88.222656 0-160-71.777344-160-160h-16c0 5.398438.28125 10.726562.761719 16h-40.761719c-8.824219 0-16-7.175781-16-16zm232 208c-103.167969 0-189.96875-75.046875-205.496094-176h32.464844c15.09375 81.816406 86.917969 144 173.03125 144 87.617188 0 160.382812-63.671875 173.726562-148.183594 1.488282 3.144532 2.273438 6.429688 2.273438 9.726563v73.257812c-38.390625 60.878907-103.992188 97.199219-176 97.199219zm221.929688-200.742188c-8.984376 8.445313-13.929688 19.199219-13.929688 30.285157v210.457031c0 4.40625-3.585938 8-8 8s-8-3.59375-8-8v-210.457031c0-11.085938-4.945312-21.839844-13.929688-30.285157-6.496093-6.105468-10.070312-14.363281-10.070312-23.257812 0-19.832031 16.542969-48 32-48s32 28.167969 32 48c0 8.894531-3.574219 17.152344-10.070312 23.257812zm0 0"/></svg>