<svg height="496pt" viewBox="0 0 496 496" width="496pt" xmlns="http://www.w3.org/2000/svg"><path d="m360 112h-288v-24c0-8.839844 7.160156-16 16-16h256c8.839844 0 16 7.160156 16 16zm0 0" fill="#f0bc5e"/><path d="m432 80h-65.472656c-2.496094-7-8.113282-12.449219-15.207032-14.734375-3.222656-18.851563-19.578124-33.265625-39.320312-33.265625h-24.808594c-3.71875-18.230469-19.878906-32-39.191406-32h-64c-19.3125 0-35.472656 13.769531-39.191406 32h-24.808594c-19.742188 0-36.097656 14.414062-39.320312 33.265625-7.09375 2.285156-12.710938 7.734375-15.207032 14.734375h-65.472656v37.542969l64 24v250.457031h16v-304c0-4.40625 3.59375-8 8-8h256c4.40625 0 8 3.59375 8 8v304h16v-250.457031l64-24zm-416 26.457031v-10.457031h48v28.457031zm168-90.457031h64c10.414062 0 19.214844 6.710938 22.527344 16h-109.054688c3.3125-9.289062 12.113282-16 22.527344-16zm-64 32h192c10.414062 0 19.214844 6.710938 22.527344 16h-237.054688c3.3125-9.289062 12.113282-16 22.527344-16zm296 58.457031-48 18v-28.457031h48zm0 0"/><path d="m256 192h-16v-80h-16v80h-16v-80h-16v80h-16c-8.824219 0-16 7.175781-16 16v16c0 8.824219 7.175781 16 16 16h16v37.574219l-16.351562 24.53125 9.414062 65.894531h61.875l9.414062-65.886719-16.351562-24.539062v-37.574219h16c8.824219 0 16-7.175781 16-16v-16c0-8.824219-7.175781-16-16-16zm-22.9375 160h-34.125l-6.585938-46.113281 11.929688-17.886719h23.4375l11.929688 17.886719zm-9.0625-80h-16v-32h16zm-48-48v-16h80l.007812 16zm0 0"/><path d="m472 424h-16c-4.40625 0-8-3.585938-8-8v-144.808594c18.230469-3.71875 32-19.871094 32-39.191406v-56h-16v-32h-16v32h-16v-32h-16v32h-16v56c0 19.3125 13.769531 35.472656 32 39.191406v144.808594c0 13.230469 10.769531 24 24 24h16c4.40625 0 8 3.585938 8 8s-3.59375 8-8 8h-72v16h72c13.230469 0 24-10.769531 24-24s-10.769531-24-24-24zm-8-232v16h-48v-16zm-48 40v-8h48v8c0 13.230469-10.769531 24-24 24s-24-10.769531-24-24zm0 0"/><path d="m408 496h-384v-56c0-30.871094 25.128906-56 56-56h272c30.871094 0 56 25.128906 56 56zm0 0" fill="#f0bc5e"/><path d="m280 416v48h80v-48zm16 16h16v16h-16zm48 16h-16v-16h16zm0 0"/><path d="m72 416h16v16h-16zm0 0"/><path d="m72 448h16v16h-16zm0 0"/><path d="m104 448h16v16h-16zm0 0"/><path d="m104 416h16v16h-16zm0 0"/></svg>