<svg height="496pt" viewBox="0 -27 496 495" width="496pt" xmlns="http://www.w3.org/2000/svg"><path d="m72 328.5v64c0 8.839844 7.160156 16 16 16s16-7.160156 16-16v-16c0-8.839844 7.160156-16 16-16s16 7.160156 16 16v48c0 8.839844 7.160156 16 16 16s16-7.160156 16-16v-96zm0 0" fill="#f0bc5e"/><path d="m120 224.5c-48.519531 0-88-50.238281-88-112s39.480469-112 88-112 88 50.238281 88 112-39.480469 112-88 112zm0 0" fill="#f0bc5e"/><path d="m118.753906 219.765625-14.058594-7.640625c2.730469-5.023438 5.800782-9.367188 8.769532-13.578125 7.800781-11.054687 14.535156-20.597656 14.535156-40.734375s-6.734375-29.679688-14.535156-40.726562c-8.183594-11.601563-17.464844-24.753907-17.464844-49.960938 0-25.199219 9.28125-38.335938 17.472656-49.9375 2.824219-4 5.488282-7.765625 7.765625-11.960938l14.058594 7.648438c-2.730469 5.007812-5.792969 9.351562-8.753906 13.546875-7.808594 11.046875-14.542969 20.582031-14.542969 40.703125 0 20.136719 6.734375 29.679688 14.535156 40.726562 8.183594 11.609376 17.464844 24.753907 17.464844 49.960938s-9.28125 38.359375-17.464844 49.960938c-2.824218 4-5.496094 7.78125-7.78125 11.992187zm0 0"/><path d="m464 264.5c-4.488281 0-6.40625-1.734375-10.328125-5.65625-4.359375-4.359375-10.335937-10.34375-21.640625-10.34375s-17.289062 5.984375-21.648438 10.34375c-3.917968 3.921875-5.839843 5.65625-10.328124 5.65625-4.503907 0-6.429688-1.734375-10.351563-5.664062-4.375-4.359376-10.359375-10.335938-21.679687-10.335938-11.320313 0-17.296876 5.976562-21.664063 10.335938-3.925781 3.929687-5.855469 5.664062-10.359375 5.664062h-33.296875l-24 8h-38.703125v-32h-240v41.296875l.40625 1.230469c10.257812 30.761718 38.90625 52.226562 71.578125 53.425781l93.414063.046875c17.578124 0 34.058593-5.878906 47.355468-16h65.949219l24 8h161.296875c17.648438 0 32-14.351562 32-32s-14.351562-32-32-32zm-192 40h-43.503906c3.582031-4.894531 6.625-10.246094 9.023437-16h34.480469zm-106.601562 16-93.109376-.039062c-21.863281-.800782-41.535156-13.257813-51.992187-31.960938h187.703125v-16h-192v-16h208v22.664062c-8.816406 24.777344-32.199219 41.335938-58.601562 41.335938zm298.601562-8h-158.703125l-17.296875-5.769531v-20.46875l17.296875-5.761719h30.703125c11.320312 0 17.304688-5.976562 21.671875-10.335938 3.929687-3.929687 5.847656-5.664062 10.351563-5.664062 4.503906 0 6.433593 1.734375 10.359374 5.664062 4.378907 4.359376 10.351563 10.335938 21.671876 10.335938 11.3125 0 17.289062-5.984375 21.648437-10.34375 3.921875-3.921875 5.839844-5.65625 10.328125-5.65625s6.410156 1.734375 10.328125 5.65625c4.359375 4.359375 10.328125 10.34375 21.640625 10.34375 8.824219 0 16 7.175781 16 16s-7.175781 16-16 16zm0 0"/></svg>