<svg height="496pt" viewBox="-40 0 496 496" width="496pt" xmlns="http://www.w3.org/2000/svg"><path d="m168.175781 0c-30.871093 0-56 25.128906-56 56v5.945312l112 5.488282v-11.433594c0-30.871094-25.128906-56-56-56zm0 0" fill="#f0bc5e"/><path d="m317.511719 328h-298.671875l-10.664063 112h320zm0 0" fill="#f0bc5e"/><path d="m168.175781 416c-17.648437 0-32-14.351562-32-32s14.351563-32 32-32c17.648438 0 32 14.351562 32 32s-14.351562 32-32 32zm0-48c-8.824219 0-16 7.175781-16 16s7.175781 16 16 16 16-7.175781 16-16-7.175781-16-16-16zm0 0"/><path d="m415.832031 261.359375-27-148.511719c-3.464843-19.03125-20.015625-32.847656-39.359375-32.847656h-46.464844c-2.886718-9.296875-11.191406-16.28125-21.375-16.894531l-249.457031-15.105469h-19.097656l18.976563 56.921875-31.839844 334.316406-.214844 2.289063 16.175781 32.359375c6.816407 13.640625 20.527344 22.113281 35.777344 22.113281h232.445313c15.25 0 28.960937-8.472656 35.777343-22.113281l16.175781-32.359375-26.878906-282.289063-15.929687 1.515625 26.457031 277.710938-14.136719 28.261718c-4.085937 8.195313-12.3125 13.273438-21.464843 13.273438h-232.445313c-9.152344 0-17.378906-5.078125-21.464844-13.265625l-14.136719-28.261719 31.097657-326.472656h47.855469l-22.34375 216h16.085937l22.34375-216h48.785156v216h16v-216h48.785157l22.34375 216h16.085937l-22.34375-216h47.855469l3.050781 32h46.152344l35.597656 128.160156c2.59375 9.328125 11.167969 15.839844 20.839844 15.839844 11.929687 0 21.632812-9.703125 21.632812-21.640625v-1.136719c0-1.285156-.121093-2.574218-.34375-3.863281zm-127.65625-165.359375h-242.230469l-10.601562-31.792969 245.320312 14.863281c4.207032.265626 7.511719 3.761719 7.511719 7.984376zm112 170.359375c0 3.113281-2.527343 5.640625-5.640625 5.640625-2.519531 0-4.75-1.695312-5.429687-4.128906l-35.601563-128.160156c-1.910156-6.894532-8.257812-11.710938-15.40625-11.710938h-31.601562l-2.320313-24.390625v-7.609375h45.296875c11.605469 0 21.535156 8.289062 23.617188 19.703125l27 148.496094c.054687.34375.085937.6875.085937 1.03125zm0 0"/></svg>