<svg height="496pt" viewBox="0 0 496.00777 496" width="496pt" xmlns="http://www.w3.org/2000/svg"><path d="m408.007812 88.003906v8c-7.359374 7.359375-14 15.441406-19.839843 24h-276.160157v-16c0-8.800781 7.199219-16 16-16zm0 0" fill="#f0bc5e"/><path d="m432.007812 408.082031v4.082031c0 41.839844-34 75.839844-75.839843 75.839844h-40.320313c-32.160156 0-59.679687-20.078125-70.640625-48.320312-3.359375-8.558594-5.199219-17.839844-5.199219-27.519532 0-13.199218 3.441407-26.160156 10-37.679687l10-17.519531c7.839844-13.679688 12-29.199219 12-44.960938 8 8 16 16 32 16 32 0 32-32 64-32 16 0 24 8 32 16v1.199219c0 .5625 0 1.039063.078126 1.601563.160156 3.917968 1.121093 7.757812 2.640624 11.4375l18.480469 41.441406 4.242188 9.601562c3.117187 7.039063 5.199219 14.558594 6.078125 22.238282.320312 2.878906.480468 5.679687.480468 8.558593zm0 0" fill="#f0bc5e"/><path d="m496.007812 336.003906c0-39.695312-32.304687-72-72-72-5.417968 0-10.761718.679688-16 1.886719v-1.886719c0-22.054687-17.945312-40-40-40v-12.121094c0-41.640624 16.214844-80.78125 45.65625-110.222656l2.34375-2.34375v-19.3125h-43.054687l-2.007813-4.023437c-23.433593-46.863281-70.539062-75.97656275-122.9375-75.97656275-52.398437 0-99.503906 29.11328175-122.9375 75.97656275l-2.320312 4.640625c-8.0625 1.816406-14.535156 7.703125-17.269531 15.375h-26.3125c-43.082031 0-78.585938 33.878906-79.1601565 75.519531-.1601565 11.410156 2.1523435 22.441406 6.8632815 32.785156l30.570312 67.261719c1.703125 3.746094 2.566406 7.730469 2.566406 11.839844v12.601562c0 13.230469 10.769532 24 24 24 13.230469 0 24-10.769531 24-24v-12.601562c0-11.023438-2.3125-21.6875-6.871093-31.695313l-30.570313-67.269531c-1.886718-4.152344-2.742187-8.601562-2.527344-13.21875.6875-15.007812 14.226563-27.214844 30.160157-27.214844h25.808593v172c0 72.785156 59.214844 132 132 132 1.34375 0 2.6875-.015625 4.023438-.0625 13.457031 28.390625 42.390625 48.0625 75.832031 48.0625h40.289063c46.238281 0 83.855468-37.617187 83.855468-83.855468v-4.046876c0-.648437-.089843-1.289062-.105468-1.9375 32.457031-7.296874 56.105468-36.214843 56.105468-70.160156zm-69.632812 23.632813-16.296875-36.671875c-.710937-1.609375-1.222656-3.28125-1.574219-4.976563 4.359375-3.808593 9.71875-5.984375 15.503906-5.984375 13.230469 0 24 10.769532 24 24 0 12.238282-9.238281 22.238282-21.632812 23.632813zm-178.367188-343.632813c45.105469 0 85.703126 24.457032 106.921876 64h-213.84375c21.21875-39.542968 61.816406-64 106.921874-64zm-169.808593 112c-24.367188 0-45.070313 19.054688-46.152344 42.488282-.328125 7.175781 1 14.105468 3.953125 20.574218l30.566406 67.265625c3.609375 7.910157 5.441406 16.351563 5.441406 25.070313v12.601562c0 4.40625-3.59375 8-8 8s-8-3.59375-8-8v-12.601562c0-6.414063-1.34375-12.621094-4-18.453125l-30.558593-67.273438c-3.730469-8.183593-5.554688-16.910156-5.433594-25.9375.449219-32.933593 28.785156-59.734375 63.160156-59.734375h24.832031v16zm345.808593 284.144532c0 37.414062-30.441406 67.855468-67.855468 67.855468h-40.289063c-37.414062 0-67.855469-30.441406-67.855469-67.855468 0-11.792969 3.097657-23.433594 8.945313-33.664063l10.03125-17.558594c8.519531-14.914062 13.023437-31.875 13.023437-49.050781 0-22.359375-7.695312-44.296875-21.664062-61.75l-8.089844-10.121094h85.753906v-16h-104v18.808594l13.839844 17.304688c11.703125 14.640624 18.160156 33.015624 18.160156 51.757812 0 14.402344-3.777343 28.617188-10.921874 41.113281l-10.03125 17.558594c-7.222657 12.648437-11.046876 27.03125-11.046876 41.601563 0 6.832031.824219 13.480468 2.367188 19.839843-63.207031-.863281-114.367188-52.558593-114.367188-115.984375v-212c0-4.40625 3.59375-8 8-8h268.9375c-29.042968 31.734375-44.9375 72.59375-44.9375 115.878906v28.121094h16c13.230469 0 24 10.769532 24 24v49.207032c0 5.625 1.160157 11.089843 3.449219 16.25l22.703125 51.078124c3.878906 8.738282 5.847656 18 5.847656 27.5625zm14.03125-22.015626c-1.144531-5.207031-2.808593-10.304687-4.953124-15.265624 17.683593-4.136719 30.921874-19.941407 30.921874-38.863282 0-22.054687-17.945312-40-40-40-5.550781 0-10.992187 1.199219-16 3.425782v-17.074219c5.199219-1.558594 10.558594-2.351563 16-2.351563 30.878907 0 56 25.121094 56 56 0 25.816406-17.59375 47.855469-41.96875 54.128906zm0 0"/><path d="m136.007812 256.003906h16v16h-16zm0 0"/><path d="m152.007812 316.003906v-28h-16v28c0 40.121094 23.886719 76.238282 60.855469 92.023438l6.28125-14.71875c-31.066406-13.257813-51.136719-43.601563-51.136719-77.304688zm0 0"/></svg>