<svg height="512pt" viewBox="-16 0 512 512.0018" width="512pt" xmlns="http://www.w3.org/2000/svg"><path d="m15.003906 451.996094h16.511719c6.96875 34.195312 37.273437 60.003906 73.5 60.003906h240.03125c36.222656 0 66.527344-25.808594 73.5-60.003906h16.511719c8.285156 0 15-6.71875 15-15.003906 0-8.285157-6.714844-15-15-15h-108.417969c9.125-9.214844 17.445313-19.261719 24.824219-30.003907h65.578125c21.378906 0 39.941406-15.21875 44.136719-36.210937l17.996093-90.980469c5.578125-27.878906-15.757812-53.832031-44.128906-53.832031h-44.996094v-15.003906c0-8.285157-6.71875-15-15.003906-15h-300.035156c-8.285157 0-15.003907 6.714843-15.003907 15v71.84375c0 21.867187 3.269532 43.816406 9.542969 64.515624-22.25 2.707032-39.546875 21.699219-39.546875 44.664063v30.003906c0 5.257813.914063 10.304688 2.582032 15.003907h-17.582032c-8.285156 0-15.003906 6.714843-15.003906 15 0 8.285156 6.71875 15.003906 15.003906 15.003906zm330.042969 30h-240.03125c-19.558594 0-36.234375-12.550782-42.425781-30.011719h324.878906c-6.191406 17.460937-22.867188 30.011719-42.421875 30.011719zm-165.023437-75.007813c0 8.273438-6.730469 15.003907-15 15.003907h-17.582032c1.664063-4.699219 2.578125-9.746094 2.578125-15.003907v-30.003906c0-5.257813-.914062-10.304687-2.578125-15h17.582032c8.269531 0 15 6.726563 15 15zm255.023437-166.019531c9.433594 0 16.574219 8.617188 14.703125 17.972656l-17.996094 90.980469c-1.394531 6.988281-7.582031 12.0625-14.710937 12.0625h-48.300781c13.949218-29.394531 21.308593-61.746094 21.308593-94.179687v-26.835938zm-345.035156-30.003906h270.035156v56.839844c0 61.839843-29.707031 119.132812-79.675781 154.1875h-72.925782c1.667969-4.699219 2.582032-9.746094 2.582032-15.003907v-30.003906c0-24.816406-20.1875-45.003906-45.003906-45.003906h-30.003907c-5.128906 0-10.203125.890625-14.996093 2.582031-4.699219-1.667969-9.746094-2.582031-15.007813-2.582031h-3.996094c-7.214843-20.261719-11.007812-42.246094-11.007812-64.175781zm-30.003907 166.019531c0-8.273437 6.730469-15 15.003907-15h30.003906c8.273437 0 15 6.726563 15 15v30.003906c0 8.273438-6.726563 15.003907-15 15.003907h-30.003906c-8.273438 0-15.003907-6.730469-15.003907-15.003907zm0 0"/><path d="m142.449219 148.503906c6.871093 4.578125 16.191406 2.753906 20.804687-4.164062 4.59375-6.894532 2.730469-16.207032-4.164062-20.800782-5.957032-3.972656-9.375-10.359374-9.375-17.523437 0-7.160156 3.417968-13.546875 9.375-17.523437 14.238281-9.488282 22.738281-25.558594 22.738281-42.984376 0-17.425781-8.5-33.496093-22.734375-42.988281-6.894531-4.59375-16.210938-2.730469-20.804688 4.164063-4.597656 6.890625-2.734374 16.207031 4.160157 20.800781 5.957031 3.972656 9.378906 10.542969 9.375 18.023437 0 7.480469-3.417969 14.046876-9.375 18.019532-14.238281 9.492187-22.738281 25.375-22.738281 42.488281s8.5 32.996094 22.738281 42.488281zm0 0"/><path d="m217.457031 148.503906c6.871094 4.578125 16.195313 2.753906 20.804688-4.164062 4.597656-6.894532 2.734375-16.207032-4.160157-20.800782-5.960937-3.972656-9.378906-10.359374-9.378906-17.523437 0-7.160156 3.417969-13.546875 9.378906-17.523437 14.238282-9.488282 22.738282-25.558594 22.738282-42.984376 0-17.425781-8.5-33.496093-22.738282-42.988281-6.894531-4.59375-16.210937-2.730469-20.804687 4.164063-4.59375 6.890625-2.730469 16.207031 4.160156 20.800781 5.960938 3.972656 9.378907 10.542969 9.378907 18.023437 0 7.480469-3.417969 14.046876-9.378907 18.019532-14.238281 9.492187-22.738281 25.375-22.738281 42.488281s8.5 32.996094 22.738281 42.488281zm0 0"/><path d="m292.46875 148.503906c6.871094 4.578125 16.191406 2.753906 20.804688-4.164062 4.59375-6.894532 2.730468-16.207032-4.164063-20.800782-5.957031-3.972656-9.375-10.359374-9.375-17.523437 0-7.160156 3.414063-13.546875 9.375-17.523437 14.238281-9.488282 22.738281-25.558594 22.738281-42.984376 0-17.425781-8.5-33.496093-22.738281-42.988281-6.890625-4.59375-16.207031-2.730469-20.800781 4.164063-4.597656 6.890625-2.734375 16.207031 4.160156 20.800781 5.957031 3.972656 9.375 10.542969 9.375 18.023437 0 7.480469-3.417969 14.046876-9.375 18.019532-14.238281 9.492187-22.738281 25.375-22.738281 42.488281s8.5 32.996094 22.738281 42.488281zm0 0"/></svg>