<svg height="512pt" viewBox="-16 0 512 512" width="512pt" xmlns="http://www.w3.org/2000/svg"><path d="m480 497v-30c0-20.277344-13.480469-37.457031-31.949219-43.0625l-25.375-153.9375h12.324219c8.285156 0 15-6.714844 15-15v-30c0-24.8125-20.1875-45-45-45h-20.730469l-17.5625-35.125c-7.671875-15.34375-23.09375-24.875-40.246093-24.875h-56.460938v-45c0-8.285156-6.714844-15-15-15h-125.730469l19.148438-38.292969c2.324219-4.648437 2.074219-10.171875-.65625-14.59375-2.734375-4.421875-7.5625-7.113281-12.761719-7.113281h-120c-5.199219 0-10.027344 2.691406-12.761719 7.113281-2.730469 4.421875-2.980469 9.945313-.65625 14.59375l30 60c2.542969 5.082031 7.734375 8.292969 13.417969 8.292969h195v30h-56.457031c-17.15625 0-32.578125 9.53125-40.25 24.875l-17.5625 35.125h-20.730469c-24.8125 0-45 20.1875-45 45v30c0 8.285156 6.714844 15 15 15h12.324219l-25.375 153.9375c-18.46875 5.605469-31.949219 22.785156-31.949219 43.0625v30c0 8.285156 6.714844 15 15 15h420c8.285156 0 15-6.714844 15-15zm-440.730469-467h71.460938l-15 30h-41.460938zm130.855469 128.292969c2.558594-5.117188 7.699219-8.292969 13.417969-8.292969h142.917969c5.714843 0 10.855468 3.175781 13.414062 8.292969l10.855469 21.707031h-191.460938zm-80.125 66.707031c0-8.269531 6.730469-15 15-15h300c8.269531 0 15 6.730469 15 15v15h-330zm302.269531 45 25.054688 152h-324.648438l25.054688-152zm57.730469 212h-390v-15c0-8.265625 6.71875-14.988281 14.980469-15 .011719 0 .027343.003906.039062.003906.015625 0 .035157-.003906.050781-.003906h359.855469c.019531 0 .039063.003906.054688.003906.011719 0 .023437-.003906.039062-.003906 8.261719.011719 14.980469 6.734375 14.980469 15zm0 0"/><path d="m165 392h180c8.285156 0 15-6.714844 15-15v-62c0-8.285156-6.714844-15-15-15h-180c-8.285156 0-15 6.714844-15 15v62c0 8.285156 6.714844 15 15 15zm15-62h150v32h-150zm0 0"/></svg>