<svg height="511pt" viewBox="-46 0 511 511.9983" width="511pt" xmlns="http://www.w3.org/2000/svg"><path d="m27.625 471.96875c2.539062 22.820312 21.765625 40.03125 44.726562 40.03125h186.296876c22.960937 0 42.191406-17.210938 44.726562-40.046875l2.199219-19.953125h49.917969c22.085937 0 40.753906-15.816406 44.390624-37.625l19.996094-120.976562c4.601563-27.597657-16.742187-53.398438-44.386718-53.398438h-46.554688l1.472656-13.359375c.976563-8.867187-5.972656-16.640625-14.910156-16.640625h-17.582031c1.667969-4.695312 2.582031-9.742188 2.582031-15 0-15.769531-8.160156-29.664062-20.472656-37.703125l77.472656-103.296875c4.96875-6.628906 3.625-16.03125-3-21-6.625-4.972656-16.03125-3.628906-21 3l-64.804688 86.402344c-4.367187-14.953125-16.300781-26.714844-31.359374-30.824219 2.042968-5.132813 3.164062-10.726563 3.164062-16.578125v-60c0-6.066406-3.65625-11.535156-9.261719-13.859375-5.605469-2.320313-12.058593-1.035156-16.347656 3.253906-16.511719 16.511719-38.464844 25.605469-61.816406 25.605469h-17.574219c-24.8125 0-45 20.1875-45 45 0 5.851562 1.121094 11.445312 3.164062 16.578125-19.089843 5.210937-33.164062 22.703125-33.164062 43.421875 0 5.851562 1.121094 11.445312 3.164062 16.578125-19.089843 5.210937-33.164062 22.703125-33.164062 43.421875 0 5.257812.914062 10.304688 2.578125 15h-17.578125c-4.265625 0-8.328125 1.816406-11.171875 4.992188-2.847656 3.175781-4.207031 7.410156-3.738281 11.652343.601562 5.503907 27.023437 245.214844 27.035156 245.324219zm254.378906-79.96875h-64.53125c-5.351562 0-10.300781 2.851562-12.984375 7.488281-8.03125 13.886719-22.972656 22.511719-38.988281 22.511719s-30.957031-8.625-38.988281-22.511719c-2.683594-4.636719-7.628907-7.488281-12.984375-7.488281h-64.53125l-3.308594-30h67.839844c5.351562 0 10.300781-2.855469 12.980468-7.488281 8.035157-13.886719 22.976563-22.511719 38.992188-22.511719s30.957031 8.625 38.988281 22.511719c2.679688 4.632812 7.628907 7.488281 12.984375 7.488281h67.835938zm-23.355468 90h-186.296876c-7.65625 0-14.0625-5.738281-14.90625-13.332031l-5.144531-46.667969h53.199219c14.0625 18.695312 36.324219 30 60 30s45.9375-11.304688 60-30h53.195312l-5.140624 46.65625c-.84375 7.605469-7.253907 13.34375-14.90625 13.34375zm116.84375-212c9.109374 0 16.347656 9.148438 14.792968 18.484375l-20 120.980469c-1.207031 7.261718-7.429687 12.535156-14.792968 12.535156h-46.613282c19.867188-180.160156.078125-.683594 16.75-152zm-314.992188-75c0-8.269531 6.730469-15 15-15h60c8.285156 0 15-6.714844 15-15s-6.714844-15-15-15h-30c-8.269531 0-15-6.730469-15-15s6.730469-15 15-15h30c8.285156 0 15-6.714844 15-15s-6.714844-15-15-15c-8.269531 0-15-6.730469-15-15s6.730469-15 15-15h17.574219c20.4375 0 40.082031-5.1875 57.425781-14.9375v29.9375c0 8.269531-6.730469 15-15 15-8.285156 0-15 6.714844-15 15s6.714844 15 15 15h30c8.269531 0 15 6.730469 15 15s-6.730469 15-15 15h-30c-8.285156 0-15 6.714844-15 15s6.714844 15 15 15h59.960938.027343.015625c8.269532 0 14.996094 6.730469 14.996094 15s-6.730469 15-15 15h-180c-8.269531 0-15-6.730469-15-15zm238.253906 45c-1.277344 11.601562-8.859375 80.410156-10.136718 92h-63.117188c-14.0625-18.695312-36.324219-30-60-30s-45.9375 11.304688-60 30h-63.117188l-10.140624-92zm0 0"/></svg>