<svg height="512pt" viewBox="0 0 512 512.00108" width="512pt" xmlns="http://www.w3.org/2000/svg"><path d="m4.382812 422.757812 84.859376 84.859376c4.394531 4.398437 11.039062 5.605468 16.707031 3.082031.078125-.035157.164062-.058594.242187-.097657l155.09375-72.375c71.1875-33.222656 99.554688-116.113281 69.703125-184.445312l155.691407-130.925781c31.613281-25.945313 34-73.613281 5.035156-102.574219-28.917969-28.917969-76.589844-26.621094-102.574219 5.039062l-130.925781 155.6875c-68.046875-29.726562-151.09375-1.75-184.441406 69.707032l-72.375 155.09375c-2.65625 5.699218-1.4492192 12.515625 2.984374 16.949218zm95.464844 53.039063-63.644531-63.644531 116.679687-116.679688c17.546876-17.542968 46.097657-17.546875 63.644532 0s17.546875 46.097656 0 63.644532zm312.320313-431.242187c.042969-.050782.085937-.101563.128906-.15625 14.855469-18.160157 41.882813-19.226563 58.207031-2.902344 16.332032 16.332031 15.25 43.351562-2.902344 58.207031-.054687.042969-.105468.085937-.15625.128906l-151.664062 127.539063c-4.308594-5.875-9.109375-11.46875-14.398438-16.753906-5.285156-5.289063-10.878906-10.089844-16.753906-14.398438zm-311.207031 218.847656c32.765624-70.214844 124.863281-85.917969 179.207031-31.570313 54.558593 54.558594 38.382812 146.558594-31.570313 179.207031l-77.933594 36.371094 67.078126-67.078125c29.242187-29.246093 29.242187-76.828125 0-106.074219-29.246094-29.242187-76.828126-29.242187-106.074219 0l-67.074219 67.078126zm0 0"/></svg>