<svg height="512pt" viewBox="0 0 512 512" width="512pt" xmlns="http://www.w3.org/2000/svg"><path d="m279 0h-46c-24.8125 0-45 20.1875-45 45v47.507812c-34.191406 6.96875-60 37.273438-60 73.492188v60c0 1.707031-1.660156-14.695312 26.804688 246.347656.007812.078125.015624.15625.027343.234375 2.808594 22.472657 22.003907 39.417969 44.652344 39.417969h113.03125c22.648437 0 41.84375-16.945312 44.652344-39.417969.011719-.085937.019531-.171875.03125-.257812 17.261719-160.441407 26.800781-243.273438 26.800781-246.324219v-60c0-36.21875-25.808594-66.523438-60-73.492188v-47.507812c0-24.8125-20.1875-45-45-45zm-46 30h46c8.269531 0 15 6.730469 15 15v46h-76v-46c0-8.269531 6.730469-15 15-15zm94.386719 438.96875c-.984375 7.4375-7.355469 13.03125-14.871094 13.03125h-113.03125c-7.515625 0-13.894531-5.601562-14.875-13.042969l-24.882813-227.96875h192.539063c-7.679687 70.375-15.539063 141.121094-24.878906 227.980469zm26.613281-302.96875v45h-196v-45c0-24.8125 20.1875-45 45-45h106c24.8125 0 45 20.1875 45 45zm0 0"/><path d="m38.210938 360.210938c7.675781-3.113282 11.375-11.859376 8.261718-19.535157-10.929687-26.957031-16.472656-55.445312-16.472656-84.675781s5.542969-57.71875 16.472656-84.675781c3.113282-7.675781-.585937-16.421875-8.261718-19.539063-7.679688-3.113281-16.425782.589844-19.539063 8.265625-12.390625 30.554688-18.671875 62.835938-18.671875 95.949219s6.28125 65.394531 18.671875 95.949219c3.105469 7.652343 11.84375 11.386719 19.539063 8.261719zm0 0"/><path d="m473.789062 151.789062c-7.675781 3.113282-11.375 11.859376-8.261718 19.535157 10.929687 26.957031 16.472656 55.445312 16.472656 84.675781s-5.542969 57.71875-16.472656 84.675781c-3.113282 7.675781.585937 16.421875 8.261718 19.539063 7.710938 3.125 16.4375-.621094 19.539063-8.265625 12.390625-30.554688 18.671875-62.835938 18.671875-95.949219s-6.28125-65.394531-18.671875-95.949219c-3.113281-7.675781-11.859375-11.378906-19.539063-8.261719zm0 0"/><path d="m93.871094 174.332031c-7.679688-3.109375-16.425782.597657-19.535156 8.273438-9.457032 23.367187-14.253907 48.058593-14.253907 73.394531s4.796875 50.027344 14.257813 73.394531c3.109375 7.679688 11.855468 11.382813 19.53125 8.273438 7.679687-3.109375 11.382812-11.851563 8.273437-19.53125-8.003906-19.773438-12.0625-40.679688-12.0625-62.136719s4.058594-42.363281 12.0625-62.136719c3.109375-7.675781-.59375-16.421875-8.273437-19.53125zm0 0"/><path d="m418.128906 337.667969c7.695313 3.113281 16.433594-.613281 19.535156-8.273438 9.457032-23.367187 14.253907-48.058593 14.253907-73.394531s-4.796875-50.027344-14.253907-73.394531c-3.109374-7.679688-11.855468-11.382813-19.535156-8.277344-7.679687 3.109375-11.382812 11.855469-8.273437 19.535156 8.003906 19.773438 12.0625 40.675781 12.0625 62.136719 0 21.457031-4.058594 42.363281-12.0625 62.136719-3.109375 7.675781.59375 16.421875 8.273437 19.53125zm0 0"/></svg>