<svg height="512pt" viewBox="-16 0 512 512" width="512pt" xmlns="http://www.w3.org/2000/svg"><path d="m480 136c0-8.285156-6.714844-15-15-15s-15 6.714844-15 15c0 24.8125-20.1875 45-45 45h-4.015625c9.226563-18 19.015625-26.847656 19.015625-45 0-19.554688-12.539062-36.226562-30-42.421875v-33.578125c0-33.085938-26.914062-60-60-60-17.90625 0-33.996094 7.894531-45 20.378906-11.003906-12.484375-27.09375-20.378906-45-20.378906s-33.996094 7.894531-45 20.378906c-11.003906-12.484375-27.09375-20.378906-45-20.378906s-33.996094 7.894531-45 20.378906c-11.003906-12.484375-27.09375-20.378906-45-20.378906-33.085938 0-60 26.914062-60 60v377c0 41.355469 33.644531 75 75 75h60c24.507812 0 46.304688-11.816406 60-30.050781 13.695312 18.234375 35.492188 30.050781 60 30.050781h60c41.355469 0 75-33.644531 75-75 0-11.050781 0-118.902344 0-137.664062 17.070312-6.265626 30-23.300782 30-43.335938 0-18.128906-9.769531-26.953125-19.015625-45h4.015625c24.8125 0 45 20.1875 45 45 0 8.285156 6.714844 15 15 15s15-6.714844 15-15c0-24.507812-11.816406-46.304688-30.050781-60 18.234375-13.695312 30.050781-35.492188 30.050781-60zm-120 163.335938v70.734374c-8.832031-5.121093-19.074219-8.070312-30-8.070312s-21.167969 2.945312-30 8.070312v-159.082031h49.015625c-9.230469 18.019531-19.015625 26.839844-19.015625 45.011719 0 19.992188 12.894531 37.054688 30 43.335938zm-270 70.734374c-8.832031-5.125-19.074219-8.070312-30-8.070312s-21.167969 2.949219-30 8.070312v-159.070312h60zm30-159.070312h60v159.070312c-8.832031-5.121093-19.074219-8.070312-30-8.070312s-21.167969 2.945312-30 8.070312zm90 0h60v159.070312c-8.832031-5.125-19.074219-8.070312-30-8.070312s-21.167969 2.949219-30 8.070312zm165-90c8.269531 0 15 6.730469 15 15 0 6.6875-3.046875 8.222656-15 30.003906-11.984375-21.835937-15-23.316406-15-30.003906 0-8.269531 6.730469-15 15-15zm-45-91c16.542969 0 30 13.457031 30 30v33.578125c-17.460938 6.195313-30 22.867187-30 42.421875 0 18.128906 9.769531 26.953125 19.015625 45h-49.015625v-121c0-16.542969 13.457031-30 30-30zm-90 0c16.542969 0 30 13.457031 30 30v121h-60v-121c0-16.542969 13.457031-30 30-30zm-90 0c16.542969 0 30 13.457031 30 30v121h-60v-121c0-16.542969 13.457031-30 30-30zm-90 0c16.542969 0 30 13.457031 30 30v121h-60v-121c0-16.542969 13.457031-30 30-30zm75 452h-60c-24.8125 0-45-20.1875-45-45v-15c0-16.542969 13.457031-30 30-30s30 13.457031 30 30c0 3.4375-.574219 6.804688-1.703125 10-3.863281 10.929688 5.597656 21.714844 16.703125 19.78125 11.105469 1.9375 20.566406-8.851562 16.703125-19.78125-1.128906-3.195312-1.703125-6.5625-1.703125-10 0-16.542969 13.457031-30 30-30s30 13.457031 30 30v15c0 24.8125-20.1875 45-45 45zm180 0h-60c-24.8125 0-45-20.1875-45-45v-15c0-16.542969 13.457031-30 30-30s30 13.457031 30 30c0 3.4375-.574219 6.804688-1.703125 10-3.863281 10.929688 5.597656 21.714844 16.703125 19.78125 11.105469 1.9375 20.566406-8.851562 16.703125-19.78125-1.128906-3.195312-1.703125-6.5625-1.703125-10 0-16.542969 13.457031-30 30-30s30 13.457031 30 30v15c0 24.8125-20.1875 45-45 45zm60-210c-7.992188 0-15-7.476562-15-16 0-6.6875 3.046875-8.222656 15-30.003906 11.984375 21.835937 15 23.316406 15 30.003906 0 8.523438-7.007812 16-15 16zm0 0"/></svg>