<svg height="512pt" viewBox="-61 0 512 512" width="512pt" xmlns="http://www.w3.org/2000/svg"><path d="m390 467v-90c0-34.765625-13.101562-68.058594-36.894531-93.738281-5.976563-6.453125-12.46875-12.246094-19.375-17.339844 16.808593-8.140625 33.40625-17.648437 49.589843-28.441406 4.769532-3.175781 7.308594-8.792969 6.546876-14.472657-1.570313-11.738281-13.296876-12.941406-14.742188-13.777343-44.933594-14.976563-75.125-56.867188-75.125-104.230469v-30c0-41.355469-33.644531-75-75-75h-60c-41.355469 0-75 33.644531-75 75v30c0 47.363281-30.191406 89.253906-75.125 104.230469-1.460938.847656-13.175781 2.089843-14.742188 13.777343-.761718 5.679688 1.78125 11.296876 6.546876 14.472657 16.1875 10.792969 32.785156 20.300781 49.59375 28.441406-6.910157 5.09375-13.398438 10.886719-19.378907 17.339844-23.792969 25.679687-36.894531 58.972656-36.894531 93.738281v90c0 24.8125 20.1875 45 45 45h300c24.8125 0 45-20.1875 45-45zm-270-272v-75h45c11.515625 0 22.035156-4.347656 30-11.484375 7.96875 7.136719 18.484375 11.484375 30 11.484375h45v75c0 41.355469-33.644531 75-75 75s-75-33.644531-75-75zm222.359375 32.519531c-13.835937 7.855469-27.878906 14.691407-41.996094 20.457031-4.117187-1.503906-8.3125-2.804687-12.566406-3.890624 7.785156-14.65625 12.203125-31.363282 12.203125-49.085938v-3.375c11.441406 14.507812 25.777344 26.777344 42.359375 35.894531zm-222.359375-152.519531c0-24.8125 20.1875-45 45-45h60c24.8125 0 45 20.1875 45 45v15h-45c-8.269531 0-15-6.726562-15-14.996094v-.003906c0-8.285156-6.714844-15-15-15s-15 6.714844-15 15v.003906c0 8.269532-6.730469 14.996094-15 14.996094h-45zm-72.359375 152.519531c16.582031-9.117187 30.917969-21.386719 42.359375-35.898437v3.378906c0 17.722656 4.421875 34.429688 12.207031 49.085938-4.257812 1.085937-8.453125 2.386718-12.570312 3.890624-14.117188-5.765624-28.160157-12.601562-41.996094-20.457031zm-17.640625 239.480469v-90c0-53.554688 40.875-99.839844 92.386719-106.230469 18.871093 18.09375 44.464843 29.230469 72.613281 29.230469s53.742188-11.136719 72.613281-29.230469c51.511719 6.390625 92.386719 52.675781 92.386719 106.230469v90c0 8.269531-6.730469 15-15 15h-75v-30h45c8.285156 0 15-6.714844 15-15v-60c0-8.285156-6.714844-15-15-15s-15 6.714844-15 15v45h-32.578125c1.664063-4.695312 2.578125-9.742188 2.578125-15 0-24.8125-20.1875-45-45-45-14.847656 0-132.964844 0-150 0-8.285156 0-15 6.714844-15 15v60c0 16.871094 5.601562 32.457031 15.042969 45h-30.042969c-8.269531 0-15-6.730469-15-15zm60-30v-45h90v45.039062c-13.46875 10.136719-23.425781 24.695313-27.695312 41.503907-5.449219 2.269531-11.332032 3.457031-17.304688 3.457031-24.8125 0-45-20.1875-45-45zm135-45c8.269531 0 15 6.730469 15 15s-6.730469 15-15 15h-15v-30zm0 60h15v30h-57.417969c6.191407-17.457031 22.863281-30 42.417969-30zm0 0"/><path d="m240 195c0-8.285156-6.714844-15-15-15s-15 6.714844-15 15c0 8.269531-6.730469 15-15 15s-15-6.730469-15-15c0-8.285156-6.714844-15-15-15s-15 6.714844-15 15c0 24.8125 20.1875 45 45 45s45-20.1875 45-45zm0 0"/></svg>