<svg height="512pt" viewBox="-106 0 512 512" width="512pt" xmlns="http://www.w3.org/2000/svg"><path d="m0 467c0 24.8125 20.1875 45 45 45h210c24.8125 0 45-20.1875 45-45 0-6.738281 0-447.65625 0-452 0-8.285156-6.714844-15-15-15h-270c-8.285156 0-15 6.714844-15 15 .00390625 36.421875.0078125 342.894531 0 452zm180-347v61h-60v-61zm-60-30v-60h60v60zm-90 271h55.035156c4.8125 0 9.332032-2.308594 12.152344-6.210938 10.613281-14.671874 30.847656-23.789062 52.8125-23.789062s42.199219 9.117188 52.8125 23.789062c2.820312 3.902344 7.339844 6.210938 12.152344 6.210938h55.035156v30h-55.035156c-4.8125 0-9.332032 2.308594-12.152344 6.210938-10.613281 14.671874-30.847656 23.789062-52.8125 23.789062s-42.199219-9.117188-52.8125-23.789062c-2.820312-3.902344-7.339844-6.210938-12.152344-6.210938h-55.035156zm240-132.707031-60 10v-27.292969h60zm-90 15-60 10v-42.292969h60zm-90 15-60 10v-57.292969h60zm-60 40.414062 240-40v72.292969h-47.878906c-16.898438-18.914062-43.253906-30-72.121094-30s-55.222656 11.085938-72.121094 30h-47.878906zm240-117.707031h-60v-61h60zm-180 0h-60v-61h60zm165 301h-210c-8.269531 0-15-6.730469-15-15v-46h47.878906c16.898438 18.914062 43.253906 30 72.121094 30s55.222656-11.085938 72.121094-30h47.878906v46c0 8.269531-6.730469 15-15 15zm15-392h-60v-60h60zm-180-60v60h-60v-60zm0 0"/></svg>