<svg height="512pt" viewBox="-61 0 512 512" width="512pt" xmlns="http://www.w3.org/2000/svg"><path d="m15 151h16.195312c.980469 11.824219 25.285157 304.355469 26.5625 319.738281 1.929688 23.136719 21.628907 41.261719 44.847657 41.261719h184.789062c23.21875 0 42.917969-18.125 44.847657-41.265625 1.246093-15.023437 25.609374-308.269531 26.5625-319.734375h16.195312c8.285156 0 15-6.714844 15-15v-30c0-21.417969-15.042969-39.375-35.117188-43.894531l-26.421874-53.726563c-2.523438-5.128906-7.742188-8.378906-13.460938-8.378906h-240c-5.71875 0-10.9375 3.25-13.460938 8.378906l-26.421874 53.726563c-20.074219 4.519531-35.117188 22.476562-35.117188 43.894531v30c0 8.285156 6.714844 15 15 15zm61.253906 180h34.371094c19.617188 18.894531 50.550781 30 84.375 30s64.757812-11.105469 84.375-30h34.371094l-7.558594 91h-222.375zm239.984375-30h-43.277343c-4.347657 0-8.480469 1.886719-11.332032 5.167969-13.289062 15.316406-38.820312 24.832031-66.628906 24.832031s-53.339844-9.515625-66.628906-24.832031c-2.851563-3.28125-6.984375-5.167969-11.332032-5.167969h-43.277343l-2.492188-30h45.769531c4.347657 0 8.480469-1.886719 11.332032-5.167969 13.289062-15.316406 38.820312-24.832031 66.628906-24.832031s53.339844 9.515625 66.628906 24.832031c2.851563 3.28125 6.984375 5.167969 11.332032 5.167969h45.769531zm-28.84375 181h-184.789062c-7.742188 0-14.308594-6.042969-14.949219-13.75l-1.351562-16.25h217.390624l-1.351562 16.246094c-.640625 7.710937-7.207031 13.753906-14.949219 13.753906zm33.828125-241h-41.847656c-19.617188-18.894531-50.550781-30-84.375-30s-64.757812 11.105469-84.375 30h-41.851562l-7.476563-90h267.40625zm-236.882812-211h221.320312l15.246094 31h-251.8125zm-54.339844 76c0-8.269531 6.730469-15 15-15h299.914062c.035157 0 .066407.003906.097657.003906h.023437c8.253906.019532 14.964844 6.738282 14.964844 14.996094v15h-330zm0 0"/></svg>