<svg height="512pt" viewBox="-76 0 512 512" width="512pt" xmlns="http://www.w3.org/2000/svg"><path d="m225 0c-24.8125 0-45 20.1875-45 45v15h-165c-4.164062 0-8.140625 1.730469-10.976562 4.777344-2.835938 3.042968-4.28125 7.132812-3.9843755 11.285156l28.0078125 394.144531c1.675781 23.433594 21.390625 41.792969 44.886719 41.792969h214.132812c23.496094 0 43.210938-18.359375 44.886719-41.800781l28.007813-394.136719c.296874-4.152344-1.148438-8.238281-3.984376-11.285156-2.835937-3.046875-6.8125-4.777344-10.976562-4.777344h-75v-15c0-24.8125-20.1875-45-45-45zm-15 45c0-8.269531 6.730469-15 15-15s15 6.730469 15 15v15h-30zm30 45v38.785156l-25.605469 25.609375c-2.8125 2.8125-4.394531 6.628907-4.394531 10.605469v15h-45l-34.394531-34.394531c-2.8125-2.8125-6.625-4.390625-10.605469-4.390625-3.976562 0-7.792969 1.578125-10.605469 4.390625l-34.394531 34.394531h-37.5l-6.394531-90zm0 81.214844 15-15 15 15v68.785156h-30zm-102.425781 23.785156-17.574219 17.574219-17.574219-17.574219 17.574219-17.574219zm164.453125 273.070312c-.558594 7.8125-7.128906 13.929688-14.960938 13.929688h-214.132812c-7.832032 0-14.402344-6.117188-14.960938-13.925781l-18.339844-258.074219h35.367188l34.394531 34.394531c2.8125 2.8125 6.625 4.390625 10.605469 4.390625 3.976562 0 7.792969-1.578125 10.605469-4.390625l34.394531-34.394531h45v45c0 8.285156 6.714844 15 15 15h60c8.285156 0 15-6.714844 15-15v-45h20.367188zm26.867187-378.070312-6.394531 90h-22.5v-15c0-3.976562-1.582031-7.792969-4.394531-10.605469l-25.605469-25.609375v-38.785156zm0 0"/><path d="m250.605469 356.605469c-2.8125-2.8125-6.628907-4.390625-10.605469-4.390625s-7.792969 1.578125-10.605469 4.390625l-38.789062 38.789062c-5.855469 5.855469-5.855469 15.351563 0 21.210938l38.789062 38.789062c2.8125 2.8125 6.628907 4.390625 10.605469 4.390625s7.792969-1.578125 10.605469-4.390625l38.789062-38.789062c5.855469-5.859375 5.855469-15.355469 0-21.210938zm-10.605469 66.96875-17.574219-17.574219 17.574219-17.574219 17.574219 17.574219zm0 0"/><path d="m165 270h-60c-8.285156 0-15 6.714844-15 15v60c0 8.285156 6.714844 15 15 15h60c8.285156 0 15-6.714844 15-15v-60c0-8.285156-6.714844-15-15-15zm-15 60h-30v-30h30zm0 0"/></svg>