<svg height="512pt" viewBox="-61 0 512 512.001" width="512pt" xmlns="http://www.w3.org/2000/svg"><path d="m389.996094 75.648438c-.105469-4.574219-2.292969-8.847657-5.941406-11.609376-3.453126-2.613281-85.792969-64.039062-189.054688-64.039062s-185.597656 61.425781-189.050781 64.039062c-3.648438 2.761719-5.835938 7.035157-5.94531275 11.609376-.10546825 4.574218 1.87890575 8.945312 5.39453175 11.875l46.933593 39.113281c-27.617187 13.613281-44.753906 26.1875-46.289062 27.332031-3.6875 2.746094-5.910157 7.027344-6.0351565 11.621094-.1250005 4.59375 1.8593755 8.992187 5.3906255 11.933594l46.933593 39.113281c-27.617187 13.613281-44.753906 26.1875-46.289062 27.332031-3.6875 2.746094-5.910157 7.027344-6.0351565 11.621094-.1250005 4.59375 1.8593755 8.992187 5.3906255 11.933594l46.933593 39.113281c-27.617187 13.613281-44.753906 26.1875-46.289062 27.332031-3.679688 2.738281-5.902344 7.011719-6.0351565 11.597656-.1328125 4.585938 1.8398435 8.980469 5.3515625 11.925782l180 151c2.789063 2.339843 6.214844 3.507812 9.640625 3.507812 3.429688 0 6.855469-1.167969 9.644531-3.507812l180-151c3.511719-2.945313 5.484375-7.339844 5.351563-11.925782-.132813-4.585937-2.355469-8.855468-6.035156-11.597656-1.535157-1.144531-18.671876-13.71875-46.289063-27.332031l46.933594-39.113281c3.53125-2.941407 5.515625-7.339844 5.390625-11.933594s-2.351563-8.875-6.035156-11.621094c-1.535157-1.144531-18.671876-13.71875-46.289063-27.332031l46.933594-39.113281c3.53125-2.941407 5.515625-7.339844 5.390625-11.933594s-2.351563-8.875-6.035156-11.621094c-1.535157-1.144531-18.671876-13.71875-46.289063-27.332031l46.933594-39.113281c3.511719-2.929688 5.5-7.300782 5.390625-11.875zm-194.996094 401.773437-154.835938-129.890625c27.511719-16.480469 86.988282-46.53125 154.835938-46.53125 67.855469 0 127.332031 30.054688 154.835938 46.53125zm111.988281-184.269531c-31.222656-12.085938-69.863281-22.152344-111.988281-22.152344s-80.765625 10.066406-111.988281 22.152344l-42.785157-35.65625c27.535157-16.488282 86.976563-46.496094 154.773438-46.496094 67.804688 0 127.246094 30.011719 154.777344 46.492188zm0-90c-31.222656-12.085938-69.863281-22.152344-111.988281-22.152344s-80.765625 10.066406-111.988281 22.152344l-42.785157-35.65625c27.535157-16.488282 86.976563-46.496094 154.773438-46.496094 67.804688 0 127.246094 30.011719 154.777344 46.492188zm0-90c-31.222656-12.085938-69.863281-22.152344-111.988281-22.152344s-80.765625 10.066406-111.988281 22.152344l-42.917969-35.765625c27.429688-16.730469 86.972656-47.386719 154.90625-47.386719 67.941406 0 127.488281 30.660156 154.910156 47.382812zm0 0"/><path d="m149.972656 376c0 8.285156-6.714844 15-15 15s-15-6.714844-15-15 6.714844-15 15-15 15 6.714844 15 15zm0 0"/><path d="m209.972656 436c0 8.285156-6.714844 15-15 15s-15-6.714844-15-15 6.714844-15 15-15 15 6.714844 15 15zm0 0"/><path d="m269.972656 376c0 8.285156-6.714844 15-15 15s-15-6.714844-15-15 6.714844-15 15-15 15 6.714844 15 15zm0 0"/></svg>