<svg height="512pt" viewBox="0 0 512 512" width="512pt" xmlns="http://www.w3.org/2000/svg"><path d="m75 451h15v46c0 8.285156 6.714844 15 15 15h120c8.285156 0 15-6.714844 15-15v-46h15c36.21875 0 66.523438-25.808594 73.492188-60h168.507812c8.285156 0 15-6.714844 15-15v-60c0-8.285156-6.714844-15-15-15-6.957031 0-190.078125 0-197 0v-28.945312c0-.351563-.023438-.703126-.03125-1.054688h15.03125c8.285156 0 15-6.714844 15-15s-6.714844-15-15-15h-27.453125c-6.183594-6.46875-5.304687-4.414062-76.167969-52.109375l18.554688-112.242187c6.675781-40.070313-24.21875-76.648438-64.933594-76.648438-40.671875 0-71.617188 36.546875-64.9375 76.628906l18.558594 112.261719c-70.875 47.703125-69.984375 45.640625-76.167969 52.109375h-27.453125c-8.285156 0-15 6.714844-15 15s6.714844 15 15 15h15.03125c-.007812.351562-.03125.703125-.03125 1.054688v28.945312h-15c-8.285156 0-15 6.714844-15 15v60c0 41.355469 33.644531 75 75 75zm45 31v-31h90v31zm362-121h-152v-30h152zm-317-331c22.140625 0 38.980469 19.882812 35.335938 41.738281l-18.058594 109.261719h-34.554688l-18.0625-109.28125c-3.636718-21.808594 13.179688-41.71875 35.339844-41.71875zm-25.457031 181h50.917969l45 30h-140.917969zm-79.542969 61.054688c0-.351563.015625-.703126.039062-1.054688h209.921876c.023437.351562.039062.703125.039062 1.054688v28.945312h-210zm-30 58.945312h270v45c0 24.8125-20.1875 45-45 45-17.785156 0-151.699219 0-180 0-24.8125 0-45-20.1875-45-45zm0 0"/></svg>