<svg height="512pt" viewBox="0 0 512 512.00025" width="512pt" xmlns="http://www.w3.org/2000/svg"><path d="m397.183594 6.261719c-34.953125 9.933593-70.746094 30.785156-95.742188 55.785156-35.148437 35.144531-44.105468 74.140625-26.886718 111.253906l-255.238282 234.519531c-26.085937 24.191407-25.433594 64.878907.042969 88.320313 24.34375 22.394531 62.308594 20.945313 84.835937-3.542969l234.472657-255.1875c40.355469 18.726563 79.238281 5.128906 111.253906-26.882812 24.996094-25 45.851563-60.792969 55.785156-95.746094 11.667969-41.074219 6.925781-74.867188-13.363281-95.15625-20.289062-20.289062-54.082031-25.03125-95.160156-13.363281zm-315.074219 466.035156c-11.199219 12.171875-30.171875 13.054687-42.441406 1.769531-12.660157-11.652344-13.160157-32.003906-.003907-44.203125l251.28125-230.886719c3.195313 3.890626 6.6875 7.742188 10.496094 11.550782 3.804688 3.804687 7.660156 7.300781 11.550782 10.492187zm394.742187-365.714844c-8.597656 30.257813-26.59375 61.1875-48.144531 82.734375-33.984375 33.988282-69.402343 36.652344-106.054687 0-33.984375-33.988281-36.65625-69.402344 0-106.058594 21.546875-21.546874 52.476562-39.542968 82.734375-48.140624 20.8125-5.910157 50.472656-9.554688 65.746093 5.71875 12.074219 12.074218 14.15625 36.039062 5.71875 65.746093zm0 0"/></svg>