<svg height="512pt" viewBox="0 -31 512 512" width="512pt" xmlns="http://www.w3.org/2000/svg"><path d="m255 330c8.285156 0 15-6.714844 15-15v-120c0-8.285156-6.714844-15-15-15-36.039062 0-144.089844 0-180 0-8.285156 0-15 6.714844-15 15v120c0 8.285156 6.714844 15 15 15zm-165-30v-32.578125c4.695312 1.664063 9.742188 2.578125 15 2.578125 11.515625 0 22.03125-4.355469 30-11.496094 7.96875 7.144532 18.484375 11.496094 30 11.496094s22.03125-4.355469 30-11.496094c7.96875 7.144532 18.484375 11.496094 30 11.496094 5.257812 0 10.304688-.914062 15-2.578125v32.578125zm150-75c0 8.269531-6.730469 15-15 15s-15-6.730469-15-15v-15h30zm-60 0c0 8.269531-6.730469 15-15 15s-15-6.730469-15-15v-15h30zm-90-15h30v15c0 8.269531-6.730469 15-15 15s-15-6.730469-15-15zm0 0"/><path d="m467 270h-19.1875l-19.742188-59.230469c-6.136718-18.402343-23.292968-30.769531-42.691406-30.769531h-55.378906v-15c0-24.8125-20.1875-45-45-45h-60.039062c6.5625-8.726562 11.273437-18.921875 13.53125-30h16.507812c24.8125 0 45-20.1875 45-45s-20.1875-45-45-45c-14.847656 0-132.96875 0-150 0-8.285156 0-15 6.714844-15 15v60c0 16.871094 5.601562 32.457031 15.039062 45h-60.039062c-24.8125 0-45 20.1875-45 45v210c0 24.8125 20.1875 45 45 45h47.578125c6.195313 17.457031 22.867187 30 42.421875 30 11.515625 0 22.03125-4.355469 30-11.496094 7.96875 7.144532 18.484375 11.496094 30 11.496094 19.554688 0 36.226562-12.542969 42.421875-30h127.160156c6.191407 17.457031 22.863281 30 42.417969 30s36.230469-12.542969 42.421875-30h17.578125c24.8125 0 45-20.1875 45-45v-60c0-24.8125-20.1875-45-45-45zm-81.621094-60c6.464844 0 12.183594 4.121094 14.226563 10.257812l16.582031 49.742188h-86.1875v-60zm-115.378906-165c0 8.269531-6.730469 15-15 15h-15v-30h15c8.269531 0 15 6.730469 15 15zm-150 30v-45h90v45c0 24.8125-20.1875 45-45 45s-45-20.1875-45-45zm-90 300v-210c0-8.269531 6.730469-15 15-15h240c8.269531 0 15 6.730469 15 15v225h-62.578125c-6.195313-17.457031-22.867187-30-42.421875-30-11.515625 0-22.03125 4.355469-30 11.496094-7.96875-7.140625-18.484375-11.496094-30-11.496094-19.554688 0-36.226562 12.542969-42.421875 30h-47.578125c-8.269531 0-15-6.730469-15-15zm105 45c-8.269531 0-15-6.730469-15-15s6.730469-15 15-15 15 6.730469 15 15-6.730469 15-15 15zm60 0c-8.269531 0-15-6.730469-15-15s6.730469-15 15-15 15 6.730469 15 15-6.730469 15-15 15zm212 0c-8.269531 0-15-6.730469-15-15s6.730469-15 15-15 15 6.730469 15 15-6.730469 15-15 15zm75-45c0 8.269531-6.730469 15-15 15h-17.578125c-6.195313-17.457031-22.867187-30-42.421875-30s-36.226562 12.542969-42.421875 30h-34.578125v-90h137c8.269531 0 15 6.730469 15 15zm0 0"/></svg>