<svg height="512pt" viewBox="0 0 512 512" width="512pt" xmlns="http://www.w3.org/2000/svg"><path d="m467 0c-18.988281 0-403.910156 0-422 0-24.8125 0-45 20.1875-45 45v422c0 24.8125 20.1875 45 45 45h422c24.8125 0 45-20.1875 45-45v-422c0-24.8125-20.1875-45-45-45zm-437 151h60v45c0 8.285156 6.714844 15 15 15h15v30h-45c-8.285156 0-15 6.714844-15 15v60c0 16.871094 5.601562 32.457031 15.039062 45h-45.039062zm120 0v30h-30v-30zm-60 165v-45h90v45c0 24.8125-20.1875 45-45 45s-45-20.1875-45-45zm135-45c8.269531 0 15 6.730469 15 15s-6.730469 15-15 15h-15v-30zm-16.507812 60h16.507812c24.8125 0 45-20.1875 45-45s-20.1875-45-45-45c-32.171875 0-39.84375 0-75 0v-30h15c8.285156 0 15-6.714844 15-15v-45h122v210h-107.039062c6.5625-8.726562 11.273437-18.921875 13.53125-30zm123.507812-241h150v332h-150zm150-45v15h-150v-30h135c8.269531 0 15 6.730469 15 15zm-437-15h257v91h-272v-76c0-8.269531 6.730469-15 15-15zm-15 437v-76h272v91h-257c-8.269531 0-15-6.730469-15-15zm437 15h-135v-30h150v15c0 8.269531-6.730469 15-15 15zm0 0"/><path d="m377 211h60c8.285156 0 15-6.714844 15-15s-6.714844-15-15-15h-60c-8.285156 0-15 6.714844-15 15s6.714844 15 15 15zm0 0"/><path d="m437 241h-60c-8.285156 0-15 6.714844-15 15s6.714844 15 15 15h60c8.285156 0 15-6.714844 15-15s-6.714844-15-15-15zm0 0"/><path d="m437 301h-60c-8.285156 0-15 6.714844-15 15s6.714844 15 15 15h60c8.285156 0 15-6.714844 15-15s-6.714844-15-15-15zm0 0"/><path d="m421.972656 136c0 8.285156-6.71875 15-15 15-8.285156 0-15-6.714844-15-15s6.714844-15 15-15c8.28125 0 15 6.714844 15 15zm0 0"/></svg>