<svg height="512pt" viewBox="-16 0 511 512" width="512pt" xmlns="http://www.w3.org/2000/svg"><path d="m435.488281 270h-44.988281v-15c0-8.285156-6.714844-15-15-15h-135v-31.074219c50.816406-7.304687 90-51.121093 90-103.925781 0-57.898438-47.101562-105-105-105s-105 47.101562-105 105c0 29.355469 12.113281 55.925781 31.597656 75h-106.597656c-24.8125 0-45 20.1875-45 45v90c0 8.285156 6.714844 15 15 15s15-6.714844 15-15v-90c0-8.269531 6.730469-15 15-15h165v30h-135c-8.285156 0-15 6.714844-15 15v41.832031c0 73.972657 22.203125 148.015625 62.519531 208.488281 2.78125 4.171876 7.464844 6.679688 12.480469 6.679688h180c5.015625 0 9.699219-2.507812 12.480469-6.679688 11.214843-16.820312 21.023437-34.695312 29.34375-53.320312h60.164062c21.378907 0 39.9375-15.214844 44.140625-36.234375l17.988282-91.941406c5.574218-27.875-15.757813-53.824219-44.128907-53.824219zm-284.988281-165c0-41.355469 33.644531-75 75-75s75 33.644531 75 75-33.644531 75-75 75-75-33.644531-75-75zm156.855469 377h-163.710938c-34.320312-54.332031-53.144531-119.753906-53.144531-185.167969v-26.832031h270v26.832031c0 65.414063-18.824219 130.835938-53.144531 185.167969zm142.832031-163.996094-17.988281 91.9375c-1.398438 6.988282-7.582031 12.058594-14.710938 12.058594h-48.28125c13.582031-39.023438 20.90625-80.488281 21.265625-122h45.015625c9.398438 0 16.585938 8.570312 14.699219 18.003906zm0 0"/><path d="m225.5 60c-8.285156 0-15 6.714844-15 15v30c0 8.285156 6.714844 15 15 15s15-6.714844 15-15v-30c0-8.285156-6.714844-15-15-15zm0 0"/></svg>