<svg height="512pt" viewBox="-16 0 511 512" width="512pt" xmlns="http://www.w3.org/2000/svg"><path d="m60.5 457.429688v9.570312c0 24.8125 20.1875 45 45 45h180c24.8125 0 45-20.1875 45-45v-9.566406c34.585938-33.253906 55.710938-78.019532 59.414062-125.433594h24.152344c22.25 0 41.402344-16.609375 44.550782-38.664062l21.425781-151.972657c3.871093-27.113281-17.191407-51.363281-44.550781-51.363281h-104.988282c-.070312-2.414062-.113281-45-.113281-45 0-8.285156-6.605469-15-14.890625-15h-75.835938c-6.949218 0-13.910156-1.644531-20.125-4.75l-34.660156-17.332031c-10.363281-5.179688-21.960937-7.917969-33.542968-7.917969h-105.835938c-5.199219 0-10.027344 2.691406-12.761719 7.113281-2.730469 4.421875-2.980469 9.945313-.65625 14.59375l28.417969 56.832031v4.242188c0 46.28125-13.304688 96.527344-38.472656 145.316406-14.285156 27.6875-21.527344 57.597656-21.527344 88.902344 0 52.890625 21.785156 103.6875 60 140.429688zm374.992188-337.429688c9.015624 0 16.164062 7.9375 14.847656 17.148438l-21.425782 151.972656c-1.046874 7.34375-7.433593 12.878906-14.847656 12.878906h-24.148437c-1.953125-25.871094-8.960938-50.671875-20.945313-73.902344-18.554687-35.964844-30.652344-72.71875-35.734375-108.097656zm-344.992188-37.21875v-7.78125c0-2.328125-.542969-4.625-1.582031-6.707031l-19.148438-38.292969h81.566407c6.949218 0 13.90625 1.644531 20.125 4.75l34.660156 17.332031c10.363281 5.179688 21.960937 7.917969 33.542968 7.917969h60.835938v22.785156c0 49.878906 13.746094 99.890625 34.65625 144.515625l-7.625-4.574219c-44.324219-26.59375-99.679688-23.738281-141.03125 7.273438-31.546875 23.660156-73.777344 25.839844-107.59375 5.550781l-21.046875-12.625c21.398437-47.078125 32.640625-95.148437 32.640625-140.144531zm-45.75 167.261719 18.722656 11.234375c20.214844 12.128906 42.71875 18.128906 65.152344 18.128906 26.746094 0 53.386719-8.539062 75.875-25.40625 31.546875-23.660156 73.78125-25.839844 107.59375-5.550781l42.765625 25.660156c3.746094 13.851563 5.640625 28.1875 5.640625 42.890625 0 46.640625-20.050781 91.375-55.015625 122.730469-3.171875 2.84375-4.984375 6.90625-4.984375 11.167969v16.101562c0 8.269531-6.730469 15-15 15h-180c-8.269531 0-15-6.730469-15-15v-16.105469c0-4.261719-1.8125-8.324219-4.984375-11.167969-34.964844-31.355468-55.015625-76.089843-55.015625-122.726562 0-23.410156 4.796875-45.890625 14.25-66.957031zm0 0"/><path d="m299.746094 421.246094c41.035156-41.03125 41.039062-107.453125 0-148.492188-5.855469-5.859375-15.355469-5.859375-21.214844 0l-127.277344 127.277344c-5.859375 5.859375-5.859375 15.355469 0 21.214844 41.03125 41.035156 107.453125 41.039062 148.492188 0zm-21.214844-21.214844c-6.972656 6.976562-15.082031 12.398438-23.90625 16.117188l-10.003906-50.027344 50.027344 10.003906c-3.71875 8.824219-9.140626 16.933594-16.117188 23.90625zm9.554688-94.402344c8.023437 12.082032 12.351562 26.246094 12.410156 41.074219l-44.570313-8.914063zm-71.796876 71.796875 8.914063 44.570313c-14.832031-.058594-28.992187-4.386719-41.074219-12.410156zm0 0"/><path d="m120.472656 377c0 8.285156-6.71875 15-15 15-8.285156 0-15-6.714844-15-15s6.714844-15 15-15c8.28125 0 15 6.714844 15 15zm0 0"/><path d="m90.472656 317c0 8.285156-6.71875 15-15 15-8.285156 0-15-6.714844-15-15s6.714844-15 15-15c8.28125 0 15 6.714844 15 15zm0 0"/></svg>