<svg height="512pt" viewBox="0 0 512 512" width="512pt" xmlns="http://www.w3.org/2000/svg"><path d="m497 30c8.285156 0 15-6.714844 15-15s-6.714844-15-15-15h-90c-5.71875 0-10.9375 3.25-13.460938 8.378906l-25.878906 52.621094h-141.660156c-5.683594 0-10.875 3.210938-13.417969 8.292969l-25.851562 51.707031h-20.730469c-8.285156 0-15 6.714844-15 15s6.714844 15 15 15h16.28125l2.875 32.117188c-6.285156-.730469-12.675781-1.117188-19.15625-1.117188-88.695312 0-166 71.050781-166 165 0 90.980469 74.46875 165 166 165 35.238281 0 67.925781-11.109375 94.757812-30h148.847657c23.425781 0 42.691406-17.59375 44.8125-40.929688l26.285156-290.070312h16.296875c8.285156 0 15-6.714844 15-15s-6.714844-15-15-15h-20.730469l-25.855469-51.707031c-2.539062-5.082031-7.730468-8.292969-13.414062-8.292969h-35.90625l15.246094-31zm-331 182c70.945312 0 129.28125 55.007812 134.605469 124.613281-2.625 13.339844-17.660157 25.386719-37.078125 25.386719-8.429688 0-16.492188-2.273438-23.039063-6.382812.328125-2.828126.511719-5.703126.511719-8.617188 0-41.355469-33.644531-75-75-75s-75 33.644531-75 75c0 2.914062.183594 5.789062.511719 8.617188-6.546875 4.109374-14.609375 6.382812-23.039063 6.382812-18.515625 0-35.226562-11.269531-38.074218-25.386719 5.363281-69.605469 64.132812-124.613281 135.601562-124.613281zm270.898438 90h-41.605469c-4.421875 0-8.613281 1.949219-11.464844 5.328125-10.792969 12.792969-31.054687 21.714844-53.574219 24.054687-3.078125-32.660156-15.71875-62.578124-35.082031-86.921874 7.445313-1.621094 15.292969-2.460938 23.328125-2.460938 27.039062 0 52.683594 9.683594 65.328125 24.671875 2.851563 3.378906 7.042969 5.316406 11.464844 5.316406h44.320312zm-315.898438 45c0-24.8125 20.1875-45 45-45s45 20.1875 45 45-20.1875 45-45 45-45-20.1875-45-45zm-85.640625 37.550781c9.855469 4.757813 21.164063 7.449219 33.113281 7.449219 11.507813 0 22.730469-2.636719 32.628906-7.476562 12.992188 22.382812 37.207032 37.476562 64.898438 37.476562s51.90625-15.09375 64.898438-37.476562c9.898437 4.839843 21.121093 7.476562 32.628906 7.476562 11.554687 0 22.496094-2.605469 32.082031-7.210938-16.382813 56.105469-68.28125 97.210938-129.609375 97.210938-61.867188 0-114.214844-41.222656-130.640625-97.449219zm374.246094 67.449219h-116.417969c20.710938-25.046875 34.171875-56.292969 37.167969-90.492188 28.507812-2.359374 54.617187-13.109374 71.4375-29.507812h32.386719l-9.636719 106.355469c-.707031 7.78125-7.132813 13.644531-14.9375 13.644531zm32.730469-210h-40.542969c-19.128907-18.648438-50.273438-30-83.292969-30-16.519531 0-32.578125 2.824219-47.019531 8.21875-16.214844-13.511719-35.042969-23.976562-55.613281-30.507812l-3.464844-38.710938h238.175781zm.394531-121h-222.460938l15-30h192.460938zm0 0"/></svg>