<svg height="511pt" viewBox="0 0 511.99871 511" width="511pt" xmlns="http://www.w3.org/2000/svg"><path d="m435.195312 104.582031-106.03125 106.03125c-13.78125 13.78125-16.730468 34.351563-8.855468 51.042969l-55.359375 53.984375-23.441407-58.605469 26.976563-53.960937c2.324219-4.648438 2.074219-10.167969-.65625-14.585938-2.730469-4.421875-7.558594-7.113281-12.753906-7.113281h-209.933594c-5.195313 0-10.023437 2.691406-12.753906 7.113281-2.734375 4.417969-2.980469 9.9375-.660157 14.585938l26.980469 53.960937-52.082031 130.207032c-23.875 59.691406 19.703125 125.023437 83.96875 125.023437h119.027344c64.3125 0 107.820312-65.394531 83.96875-125.023437l-16.585938-41.46875 64.4375-62.835938c16.910156 8.132812 37.585938 5.046875 51.339844-8.707031l106.03125-106.03125c17.578125-17.578125 17.582031-46.039063 0-63.621094-17.539062-17.539063-46.078125-17.539063-63.617188.003906zm-204.386718 106.785157-14.992188 29.988281h-131.417968l-14.996094-29.988281zm-21.1875 270.910156h-119.027344c-43.082031 0-72.136719-43.859375-56.125-83.894532l50.816406-127.035156h129.644532l50.816406 127.035156c15.980468 39.957032-12.96875 83.894532-56.125 83.894532zm267.984375-335.285156-106.027344 106.03125c-5.851563 5.847656-15.359375 5.847656-21.207031 0-5.847656-5.847657-5.847656-15.359376 0-21.207032l106.03125-106.03125c5.847656-5.847656 15.359375-5.84375 21.203125 0 5.863281 5.863282 5.863281 15.347656 0 21.207032zm0 0"/><path d="m82.558594 64c-14.230469 9.488281-22.726563 25.363281-22.726563 42.464844 0 17.105468 8.496094 32.980468 22.726563 42.46875 6.859375 4.574218 16.179687 2.761718 20.792968-4.160156 4.59375-6.890626 2.730469-16.199219-4.160156-20.792969-5.957031-3.972657-9.371094-10.355469-9.371094-17.515625 0-7.15625 3.414063-13.539063 9.371094-17.511719 14.230469-9.488281 22.730469-25.550781 22.726563-42.96875 0-17.417969-8.496094-33.476563-22.726563-42.964844-6.890625-4.59375-16.199218-2.730469-20.792968 4.160157-4.59375 6.890624-2.734376 16.199218 4.160156 20.792968 5.953125 3.96875 9.371094 10.535156 9.371094 18.011719.003906 7.476563-3.414063 14.042969-9.371094 18.015625zm0 0"/><path d="m157.535156 64c-14.230468 9.488281-22.726562 25.363281-22.726562 42.464844 0 17.105468 8.496094 32.980468 22.726562 42.46875 6.859375 4.574218 16.179688 2.761718 20.792969-4.160156 4.59375-6.890626 2.730469-16.199219-4.160156-20.792969-5.957031-3.972657-9.371094-10.355469-9.371094-17.515625 0-7.15625 3.414063-13.539063 9.371094-17.511719 14.230469-9.488281 22.726562-25.550781 22.726562-42.96875s-8.496093-33.476563-22.726562-42.964844c-6.890625-4.59375-16.199219-2.730469-20.792969 4.160157-4.59375 6.890624-2.734375 16.199218 4.160156 20.792968 5.953125 3.96875 9.371094 10.535156 9.371094 18.011719s-3.414062 14.042969-9.371094 18.015625zm0 0"/><path d="m232.511719 64c-14.234375 9.488281-22.730469 25.363281-22.730469 42.464844 0 17.105468 8.496094 32.980468 22.730469 42.46875 6.859375 4.574218 16.179687 2.761718 20.792969-4.160156 4.59375-6.890626 2.730468-16.199219-4.160157-20.792969-5.957031-3.972657-9.371093-10.355469-9.371093-17.515625 0-7.15625 3.414062-13.539063 9.371093-17.511719 14.230469-9.488281 22.726563-25.550781 22.726563-42.96875s-8.496094-33.476563-22.726563-42.964844c-6.890625-4.59375-16.203125-2.730469-20.796875 4.160157-4.59375 6.890624-2.730468 16.199218 4.160156 20.792968 5.957032 3.96875 9.371094 10.535156 9.371094 18.011719.003906 7.476563-3.414062 14.042969-9.367187 18.015625zm0 0"/></svg>