<svg height="512pt" viewBox="0 -16 512 512" width="512pt" xmlns="http://www.w3.org/2000/svg"><path d="m478.039062 196.375c-20.753906-112.699219-120.757812-196.375-237.039062-196.375-132.886719 0-241 107.664062-241 240s108.113281 240 241 240c116.410156 0 216.277344-83.625 237.03125-196.371094 19.496094-4.933594 33.96875-22.621094 33.96875-43.628906 0-21.003906-14.46875-38.691406-33.960938-43.625zm-237.039062 253.625c-116.347656 0-211-94.207031-211-210s94.652344-210 211-210c99.460938 0 185.304688 69.859375 206.148438 165h-62.8125c-18.925782-61.179688-76.023438-105.75-143.335938-105.75-82.710938 0-150 67.289062-150 150s67.289062 150 150 150c66.761719 0 123.46875-43.855469 142.855469-104.261719h63.296875c-20.84375 95.183594-106.578125 165.011719-206.152344 165.011719zm120-210.75c0 66.167969-53.832031 120-120 120s-120-53.832031-120-120 53.832031-120 120-120c66.273438 0 120 53.960938 120 120zm106 15.75h-76.824219c.542969-5.175781.824219-10.429688.824219-15.75 0-4.804688-.238281-9.558594-.679688-14.25h76.679688c8.269531 0 15 6.730469 15 15s-6.730469 15-15 15zm0 0"/><path d="m278.210938 174.75c-14.488282 0-27.234376 5.894531-37.210938 17.125-9.976562-11.230469-22.722656-17.125-37.210938-17.125-29.277343 0-52.210937 24.332031-52.210937 55.394531 0 38.113281 34.65625 60.992188 79.597656 99.941407 2.820313 2.441406 6.320313 3.664062 9.824219 3.664062s7.007812-1.222656 9.824219-3.664062c43.117187-37.371094 79.601562-61.15625 79.601562-99.941407-.003906-31.0625-22.9375-55.394531-52.214843-55.394531zm-37.210938 124.238281c-37.773438-32.113281-59.421875-48.558593-59.421875-68.84375 0-12.621093 7.628906-25.394531 22.210937-25.394531 16.105469 0 22.332032 19.851562 22.765626 21.296875 1.746093 6.570313 7.640624 11.152344 14.445312 11.152344s12.699219-4.578125 14.445312-11.152344c.429688-1.445313 6.660157-21.296875 22.765626-21.296875 14.582031 0 22.210937 12.773438 22.210937 25.394531 0 20.699219-23.609375 38.390625-59.421875 68.84375zm0 0"/></svg>