<svg height="511pt" viewBox="0 0 511 511.99894" width="511pt" xmlns="http://www.w3.org/2000/svg"><path d="m472.628906 198.597656c8.359375-42.644531-3.667968-88.527344-36.941406-121.796875-33.234375-33.238281-79.113281-45.308593-121.792969-36.9375l-26.703125-26.703125c-17.546875-17.546875-46.097656-17.546875-63.644531 0l-42.425781 42.425782c-17.585938 17.585937-17.589844 46.054687 0 63.644531l26.703125 26.703125c-1.683594 8.578125-2.546875 17.386718-2.546875 26.332031s.863281 17.753906 2.546875 26.332031l-26.703125 26.703125c-13.425782 13.425781-16.566406 33.289063-9.449219 49.742188l-145.3125 114.535156c-.027344.019531-.054687.042969-.085937.066406-31.851563 25.480469-34.695313 73.195313-5.660157 102.234375 29.085938 29.085938 76.78125 26.152344 102.230469-5.664062.023438-.027344.046875-.054688.070312-.085938l114.535157-145.3125c16.6875 7.222656 36.472656 3.824219 49.742187-9.445312l26.703125-26.703125c17.3125 3.394531 35.34375 3.394531 52.664063 0l26.703125 26.703125c17.542969 17.546875 46.09375 17.546875 63.640625 0l42.429687-42.425782c17.546875-17.546874 17.546875-46.097656 0-63.644531zm-270.296875-100.582031c-5.859375-5.863281-5.863281-15.351563 0-21.214844l42.429688-42.425781c5.847656-5.851562 15.363281-5.851562 21.214843 0l16.035157 16.035156c-13.65625 6.523438-26.242188 15.386719-37.25 26.390625-11.007813 11.007813-19.871094 23.59375-26.394531 37.25zm-102.945312 369.5c-14.441407 18.003906-41.234375 19.472656-57.558594 3.144531-16.320313-16.320312-14.859375-43.109375 3.148437-57.554687l145.566407-114.738281 23.578125 23.578124zm166.589843-157.359375c-5.863281 5.863281-15.351562 5.863281-21.214843 0l-42.425781-42.425781c-2.835938-2.835938-4.394532-6.601563-4.394532-10.609375 0-4.007813 1.558594-7.773438 4.394532-10.605469l16.03125-16.035156c6.523437 13.65625 15.386718 26.242187 26.394531 37.25 11.007812 11.003906 23.59375 19.867187 37.25 26.390625zm0-63.640625c-40.941406-40.941406-40.941406-107.558594 0-148.5 40.941407-40.941406 107.554688-40.945313 148.5 0 40.949219 40.953125 40.976563 107.519531 0 148.5-40.875 40.871094-107.453124 41.042969-148.5 0zm212.140626 21.214844-42.425782 42.425781c-5.851562 5.847656-15.367187 5.847656-21.214844 0l-16.035156-16.035156c13.65625-6.523438 26.242188-15.386719 37.246094-26.390625 11.007812-11.007813 19.871094-23.59375 26.394531-37.25l16.035157 16.035156c5.863281 5.863281 5.863281 15.351563 0 21.214844zm0 0"/><path d="m350.808594 161.636719c-5.859375-5.855469-15.355469-5.855469-21.214844 0-5.855469 5.859375-5.855469 15.355469 0 21.214843 5.859375 5.859376 15.355469 5.859376 21.214844 0 5.859375-5.859374 5.859375-15.355468 0-21.214843zm0 0"/><path d="m393.238281 204.066406c-5.859375-5.859375-15.359375-5.859375-21.214843 0-5.859376 5.859375-5.859376 15.355469 0 21.214844 5.855468 5.855469 15.355468 5.855469 21.214843 0 5.855469-5.859375 5.855469-15.355469 0-21.214844zm0 0"/><path d="m308.382812 119.210938c-5.859374-5.859376-15.359374-5.859376-21.214843 0-5.859375 5.859374-5.859375 15.355468 0 21.214843 5.855469 5.859375 15.355469 5.859375 21.214843 0 5.855469-5.859375 5.855469-15.355469 0-21.214843zm0 0"/><path d="m308.378906 204.066406c-5.855468-5.859375-15.355468-5.859375-21.210937 0-5.859375 5.855469-5.859375 15.355469 0 21.214844 5.855469 5.855469 15.355469 5.855469 21.210937 0 5.859375-5.859375 5.859375-15.359375 0-21.214844zm0 0"/><path d="m393.238281 119.210938c-5.859375-5.855469-15.355469-5.855469-21.214843 0-5.859376 5.859374-5.859376 15.355468 0 21.214843 5.859374 5.859375 15.355468 5.859375 21.214843 0s5.859375-15.355469 0-21.214843zm0 0"/><path d="m355.207031 232.246094c0 8.285156-6.714843 15-15 15-8.285156 0-15.003906-6.714844-15.003906-15s6.71875-15 15.003906-15c8.285157 0 15 6.714844 15 15zm0 0"/><path d="m355.207031 112.242188c0 8.285156-6.714843 15-15 15-8.285156 0-15.003906-6.714844-15.003906-15 0-8.285157 6.71875-15 15.003906-15 8.285157 0 15 6.714843 15 15zm0 0"/><path d="m415.210938 172.242188c0 8.285156-6.71875 15.003906-15.003907 15.003906-8.285156 0-15-6.71875-15-15.003906 0-8.28125 6.714844-15 15-15 8.285157 0 15.003907 6.71875 15.003907 15zm0 0"/><path d="m295.203125 172.242188c0 8.285156-6.714844 15.003906-15 15.003906s-15-6.71875-15-15.003906c0-8.28125 6.714844-15 15-15s15 6.71875 15 15zm0 0"/></svg>