<svg height="512pt" viewBox="-91 0 512 512" width="512pt" xmlns="http://www.w3.org/2000/svg"><path d="m18.152344 250.460938c-12.160156 33.292968-18.152344 69.40625-18.152344 103.621093v112.917969c0 24.8125 20.1875 45 45 45h240c24.8125 0 45-20.1875 45-45v-112.917969c0-34.1875-5.984375-70.304687-18.152344-103.621093-6.894531-18.878907-22.832031-32.796876-41.847656-37.609376v-31.851562h15c8.285156 0 15-6.714844 15-15s-6.714844-15-15-15h-15v-15c0-36.9375-26.398438-67.5-60-74.464844v-46.535156c0-8.285156-6.714844-15-15-15h-60c-8.285156 0-15 6.714844-15 15v46.535156c-33.589844 6.960938-60 37.519532-60 74.464844v15h-15c-8.285156 0-15 6.714844-15 15s6.714844 15 15 15h15v31.847656c-19.015625 4.816406-34.953125 18.730469-41.847656 37.613282zm56.597656-9.460938h.238281.011719.011719 44.988281v60h-84.824219c2.703125-13.804688 6.433594-27.320312 11.15625-40.25 4.3125-11.8125 15.734375-19.75 28.417969-19.75zm165.25-60v30h-150v-30zm-90 120v-60h30v60zm150 166c0 8.269531-6.730469 15-15 15h-240c-8.269531 0-15-6.730469-15-15v-112.917969c0-7.683593.335938-15.394531.988281-23.082031h268.023438c.652343 7.6875.988281 15.398438.988281 23.082031zm-16.332031-206.25c4.722656 12.929688 8.453125 26.445312 11.15625 40.25h-84.824219v-60h45.25c12.683594 0 24.105469 7.9375 28.417969 19.75zm-103.667969-230.75v30h-30v-30zm-45 60h60c24.394531 0 45 21.066406 45 46v15h-150v-15c0-24.933594 20.605469-46 45-46zm0 0"/><path d="m149.972656 377c0 8.285156-6.71875 15-15 15-8.285156 0-15-6.714844-15-15s6.714844-15 15-15c8.28125 0 15 6.714844 15 15zm0 0"/><path d="m209.972656 437c0 8.285156-6.71875 15-15 15-8.285156 0-15-6.714844-15-15s6.714844-15 15-15c8.28125 0 15 6.714844 15 15zm0 0"/></svg>