<svg height="511pt" viewBox="-60 0 511 511.99942" width="511pt" xmlns="http://www.w3.org/2000/svg"><path d="m54.429688 481.230469c6.136718 18.402343 23.292968 30.769531 42.691406 30.769531h196.753906c19.398438 0 36.558594-12.367188 42.699219-30.796875 50.769531-155.101563 53.925781-159.082031 53.925781-165.203125v-15c0-6.320312-.988281-12.414062-2.808594-18.136719-9.457031-55.457031-42.277344-104.226562-89.511718-133.628906 1.496093-4.476563 2.320312-9.261719 2.320312-14.234375 0-20.71875-14.074219-38.210938-33.164062-43.421875 2.039062-5.132813 3.164062-10.726563 3.164062-16.578125v-60c0-6.066406-3.652344-11.539062-9.261719-13.859375-5.601562-2.320313-12.054687-1.039063-16.34375 3.25-16.515625 16.515625-38.46875 25.609375-61.820312 25.609375h-17.574219c-24.8125 0-45 20.1875-45 45 0 5.851562 1.121094 11.445312 3.164062 16.578125-19.089843 5.210937-33.164062 22.703125-33.164062 43.421875 0 4.972656.824219 9.757812 2.320312 14.234375-47.359374 29.480469-80.082031 78.324219-89.515624 133.609375-1.820313 5.730469-2.804688 11.832031-2.804688 18.15625v15c0 .027344.003906.054688.003906.082031.03125 5.863281 2.039063 6.574219 53.925782 165.148438zm66.070312-166.46875v-13.761719c0-16.542969 13.457031-30 30-30s30 13.457031 30 30v181h-32.28125zm150 .003906-27.71875 167.234375h-32.28125c0-10.890625 0-170.570312 0-181 0-16.542969 13.457031-30 30-30s30 13.457031 30 30zm37.605469 156.976563c-2.042969 6.132812-7.761719 10.257812-14.230469 10.257812h-20.683594c26.789063-162.710938 27.308594-162.832031 27.308594-166v-15c0-16.542969 13.457031-30 30-30 12.660156 0 23.507812 7.890625 27.90625 19.007812 1.246094 7.769532 1.960938 15.660157 2.078125 23.625zm-196.664063-298.742188c6.964844 4.421875 15.214844 7 24.058594 7h30c8.285156 0 15-6.71875 15-15 0-8.285156-6.714844-15-15-15h-30c-8.269531 0-15-6.730469-15-15 0-8.273438 6.730469-15 15-15h30c8.285156 0 15-6.71875 15-15 0-8.285156-6.714844-15-15-15-8.269531 0-15-6.730469-15-15 0-8.273438 6.730469-15 15-15h17.574219c20.441406 0 40.082031-5.191406 57.425781-14.941406v29.941406c0 8.269531-6.730469 15-15 15-8.285156 0-15 6.714844-15 15s6.714844 15 15 15h30c8.269531 0 15 6.726562 15 15 0 8.269531-6.730469 15-15 15h-30c-8.285156 0-15 6.714844-15 15s6.714844 15 15 15h30c8.835938 0 17.082031-2.570312 24.042969-6.992188 27.585937 16.449219 49.578125 40.84375 63.632812 69.351563-4.089843-.882813-8.324219-1.359375-12.675781-1.359375-17.910156 0-33.996094 7.894531-45 20.375-11.003906-12.480469-27.09375-20.375-45-20.375-17.902344 0-33.996094 7.878906-45 20.351562-11.003906-12.472656-27.097656-20.351562-45-20.351562s-33.996094 7.878906-45 20.351562c-11.003906-12.472656-27.097656-20.351562-45-20.351562-4.351562 0-8.597656.464844-12.6875 1.347656 14.054688-28.5 36.046875-52.902344 63.628906-69.347656zm-50.941406 98c16.542969 0 30 13.457031 30 30v15c0 2.910156-.214844-1.175781 27.308594 166h-20.6875c-6.464844 0-12.183594-4.121094-14.21875-10.230469l-52.378906-158.117187c.113281-7.960938.804687-15.851563 2.050781-23.621094 4.386719-11.132812 15.25-19.03125 27.925781-19.03125zm0 0"/></svg>