<svg height="512pt" viewBox="-16 0 512 512" width="512pt" xmlns="http://www.w3.org/2000/svg"><path d="m375 302c-41.800781 0-77.972656 24.558594-94.855469 60h-78.929687l-13.183594-13.179688 80.1875-80.1875c30.074219 8.011719 63.3125.332032 86.945312-23.304687 35.09375-35.09375 35.09375-92.1875 0-127.28125-35.167968-35.171875-92.101562-35.175781-127.277343 0-23.570313 23.570313-31.332031 56.789063-23.308594 86.9375l-57.140625 57.015625h-27.4375v-126.039062c18.203125-13.699219 30-35.476563 30-59.960938 0-41.460938-33.535156-76-75-76-41.457031 0-75 34.535156-75 76 0 24.484375 11.796875 46.261719 30 59.960938v114.824218l-25.605469 25.609375c-2.8125 2.8125-4.394531 6.628907-4.394531 10.605469v105c0 33.085938 26.914062 60 60 60h220.144531c16.882813 35.441406 53.054688 60 94.855469 60 57.898438 0 105-47.101562 105-105s-47.101562-105-105-105zm-125.902344-162.738281c23.449219-23.449219 61.402344-23.453125 84.855469 0 23.394531 23.394531 23.394531 61.457031 0 84.851562-23.449219 23.449219-61.402344 23.453125-84.855469 0-23.445312-23.449219-23.449218-61.402343 0-84.851562zm-95.457031 152.738281c3.972656 0 7.78125-1.574219 10.59375-4.382812l53.925781-53.808594c2.898438 4.058594 6.128906 7.921875 9.726563 11.519531 3.59375 3.589844 7.445312 6.820313 11.5 9.710937l-76.960938 76.960938h-42.425781v-40zm-78.640625-262c24.394531 0 45 21.066406 45 46 0 24.8125-20.1875 45-45 45s-45-20.1875-45-45c0-24.933594 20.605469-46 45-46zm-45 362v-98.785156l25.605469-25.609375c2.8125-2.8125 4.394531-6.628907 4.394531-10.605469v-107.507812c4.847656.988281 9.863281 1.507812 15 1.507812s10.152344-.519531 15-1.507812v242.507812c0 16.542969-13.457031 30-30 30s-30-13.457031-30-30zm81.929688 30c5.121093-8.832031 8.070312-19.074219 8.070312-30v-30h38.785156l25.609375 25.605469c2.8125 2.8125 6.628907 4.382812 10.605469 4.382812h76.074219c-.703125 4.902344-1.074219 9.917969-1.074219 15.011719s.371094 10.097656 1.074219 15zm263.070312 60c-41.355469 0-75-33.644531-75-75s33.644531-75 75-75 75 33.644531 75 75-33.644531 75-75 75zm0 0"/></svg>