<svg height="512pt" viewBox="-16 0 512 512" width="512pt" xmlns="http://www.w3.org/2000/svg"><path d="m15 512h390c8.285156 0 15-6.714844 15-15v-30c0-19.554688-12.539062-36.226562-30-42.421875v-214.578125h45c24.8125 0 45-20.1875 45-45s-20.1875-45-45-45h-45v-75c0-24.8125-20.1875-45-45-45h-270c-24.8125 0-45 20.1875-45 45v379.578125c-17.460938 6.195313-30 22.867187-30 42.421875v30c0 8.285156 6.714844 15 15 15zm45-422h30v75c0 24.8125 20.1875 45 45 45h15v45c0 8.285156 6.714844 15 15 15h15v31h-45c-8.285156 0-15 6.714844-15 15v60c0 16.765625 5.453125 32.773438 15.484375 46h-75.484375zm210 0v75c0 8.269531-6.730469 15-15 15h-120c-8.269531 0-15-6.730469-15-15v-75zm90 0v32.578125c-12.765625 4.527344-22.894531 14.65625-27.421875 27.421875h-32.578125v-60zm-180 150v-30h30v30zm-30 136v-45h90v45c0 24.933594-20.605469 46-45 46s-45-21.066406-45-46zm135-45c8.269531 0 15 6.730469 15 15s-6.730469 15-15 15h-15v-30zm-16.484375 60h16.484375c24.8125 0 45-20.1875 45-45s-20.1875-45-45-45c-32.171875 0-39.84375 0-75 0v-31h15c8.285156 0 15-6.714844 15-15v-45h15c19.554688 0 36.226562-12.539062 42.421875-30h35.15625c4.527344 12.765625 14.65625 22.894531 27.421875 27.421875v214.578125h-105.484375c6.988281-9.214844 11.757813-19.769531 14-31zm181.484375-226c0 8.269531-6.730469 15-15 15h-59.953125c-.015625 0-.03125-.003906-.046875-.003906-.007812 0-.015625.003906-.023438.003906-8.261718-.015625-14.976562-6.738281-14.976562-15 0-8.269531 6.730469-15 15-15h60c8.269531 0 15 6.730469 15 15zm-375-135h270c8.269531 0 15 6.730469 15 15v15h-300v-15c0-8.269531 6.730469-15 15-15zm-45 437c0-8.269531 6.730469-15 15-15h330c8.269531 0 15 6.730469 15 15v15h-360zm0 0"/><path d="m165 150h60c8.285156 0 15-6.714844 15-15s-6.714844-15-15-15h-60c-8.285156 0-15 6.714844-15 15s6.714844 15 15 15zm0 0"/></svg>