<svg height="512pt" viewBox="0 0 512 512" width="512pt" xmlns="http://www.w3.org/2000/svg"><path d="m488.839844 208.832031c8.859375-15.835937 10.242187-35.144531 2.890625-52.46875-6.984375-16.445312-20.722657-28.597656-37.195313-33.78125 1.015625-16.902343-5.398437-34.070312-18.222656-46.894531-13.21875-13.21875-31.585938-19.050781-49.605469-16.667969-4.867187-18.050781-17.730469-33.402343-35.183593-40.453125-16.503907-6.667968-34.738282-5.578125-50.019532 2.332032-11.207031-13.054688-27.703125-20.898438-45.503906-20.898438s-34.296875 7.84375-45.503906 20.898438c-15.28125-7.90625-33.519532-9-50.019532-2.332032-17.453124 7.050782-30.3125 22.402344-35.1875 40.453125-18.015624-2.382812-36.382812 3.449219-49.601562 16.667969-12.570312 12.570312-18.683594 29.761719-17.382812 46.90625-16.875 5.242188-31.144532 17.539062-38.03125 33.769531-7.265626 17.109375-5.597657 36.429688 3.652343 52.429688-14.8125 11.175781-23.925781 28.445312-23.925781 47.207031s9.113281 36.03125 23.925781 47.207031c-9.246093 16-10.917969 35.320313-3.652343 52.429688 6.886718 16.230469 21.15625 28.527343 38.03125 33.769531-1.296876 17.144531 4.8125 34.335938 17.382812 46.90625 13.21875 13.21875 31.589844 19.050781 49.605469 16.667969 4.871093 18.050781 17.734375 33.402343 35.183593 40.453125 16.503907 6.667968 34.738282 5.574218 50.019532-2.332032 11.207031 13.054688 27.703125 20.898438 45.503906 20.898438s34.296875-7.84375 45.503906-20.898438c15.28125 7.90625 33.519532 8.996094 50.019532 2.332032 17.453124-7.050782 30.316406-22.402344 35.1875-40.453125 18.011718 2.382812 36.382812-3.449219 49.601562-16.667969 12.824219-12.828125 19.234375-29.992188 18.222656-46.894531 16.476563-5.183594 30.210938-17.332031 37.195313-33.78125 7.351562-17.324219 5.96875-36.632813-2.890625-52.46875 14.34375-11.113281 23.160156-28.347657 23.160156-47.167969s-8.816406-36.054688-23.160156-47.167969zm-27.484375 75.464844c-5.105469 1.6875-8.914063 5.980469-9.988281 11.246094-1.070313 5.269531.757812 10.707031 4.796874 14.257812 9.769532 8.589844 12.964844 22.300781 7.949219 34.113281-4.691406 11.058594-15.5 18.226563-27.53125 18.269532-4.964843.019531-9.601562 2.492187-12.378906 6.609375-2.777344 4.117187-3.339844 9.34375-1.496094 13.953125 4.289063 10.742187 1.304688 23.441406-7.605469 32.355468-8.953124 8.949219-22.847656 10.945313-34.578124 4.972657-4.828126-2.457031-10.609376-2.121094-15.117188.882812-4.511719 3.003907-7.050781 8.203125-6.644531 13.605469.992187 13.269531-6.777344 26.332031-18.472657 31.054688-11.128906 4.496093-23.835937 1.929687-32.375-6.539063-3.523437-3.496094-8.550781-5.019531-13.421874-4.074219-4.875.949219-8.964844 4.246094-10.921876 8.808594-4.75 11.046875-15.570312 18.1875-27.570312 18.1875s-22.820312-7.140625-27.566406-18.191406c-1.960938-4.5625-6.050782-7.859375-10.921875-8.804688-4.875-.949218-9.902344.578125-13.425781 4.074219-8.539063 8.46875-21.242188 11.035156-32.371094 6.539063-11.699219-4.726563-19.46875-17.789063-18.472656-31.054688.402343-5.402344-2.136719-10.605469-6.648438-13.609375-4.507812-3-10.285156-3.335937-15.117188-.878906-11.730468 5.972656-25.625 3.972656-34.574218-4.976563-8.476563-8.476562-11.070313-21.175781-6.605469-32.351562 1.839844-4.613282 1.28125-9.835938-1.496094-13.953125-2.78125-4.117188-7.414062-6.59375-12.382812-6.609375-12.25-.042969-23.980469-7.554688-28.53125-18.273438-5.601563-13.199218.457031-26.644531 8.953125-34.109375 4.035156-3.550781 5.863281-8.992187 4.792968-14.257812-1.070312-5.269531-4.878906-9.5625-9.984374-11.25-12.746094-4.21875-21.648438-15.851563-21.648438-28.292969s8.902344-24.074219 21.648438-28.296875c5.101562-1.6875 8.910156-5.980469 9.984374-11.246094 1.070313-5.269531-.757812-10.707031-4.796874-14.257812-8.492188-7.46875-14.554688-20.910157-8.949219-34.113281 4.546875-10.714844 16.277343-18.226563 28.53125-18.269532 4.964843-.019531 9.601562-2.492187 12.378906-6.609375 2.777344-4.117187 3.339844-9.34375 1.496094-13.953125-4.460938-11.179687-1.867188-23.875 6.605469-32.355468 8.949218-8.949219 22.847656-10.949219 34.578124-4.972657 4.828126 2.457031 10.605469 2.121094 15.117188-.882812 4.511719-3.003907 7.050781-8.203125 6.644531-13.605469-.992187-13.269531 6.777344-26.332031 18.476563-31.054688 11.125-4.496093 23.832031-1.929687 32.371094 6.539063 3.523437 3.496094 8.546874 5.019531 13.421874 4.074219 4.875-.945313 8.964844-4.242188 10.921876-8.804688 4.75-11.050781 15.570312-18.191406 27.570312-18.191406s22.820312 7.140625 27.566406 18.191406c1.960938 4.5625 6.046875 7.859375 10.921875 8.804688 4.875.949218 9.898438-.578125 13.425781-4.070313 8.539063-8.472656 21.246094-11.035156 32.371094-6.542969 11.699219 4.726563 19.46875 17.789063 18.472656 31.054688-.402343 5.40625 2.136719 10.605469 6.648438 13.609375 4.507812 3.003906 10.289062 3.339844 15.117188.878906 11.726562-5.972656 25.625-3.972656 34.574218 4.976563 8.910156 8.910156 11.894532 21.609375 7.605469 32.351562-1.839844 4.613282-1.28125 9.839844 1.496094 13.957032 2.78125 4.113281 7.414062 6.589843 12.382812 6.605468 12.03125.042969 22.839844 7.214844 27.53125 18.273438 5.015625 11.8125 1.820313 25.523437-7.953125 34.113281-4.035156 3.550781-5.863281 8.988281-4.792968 14.257813 1.070312 5.265624 4.878906 9.558593 9.984374 11.246093 12.351563 4.085938 20.648438 15.457031 20.648438 28.292969s-8.296875 24.207031-20.644531 28.296875zm0 0"/><path d="m270.972656 106c0 8.285156-6.71875 15-15 15-8.285156 0-15-6.714844-15-15s6.714844-15 15-15c8.28125 0 15 6.714844 15 15zm0 0"/><path d="m270.972656 406c0 8.285156-6.71875 15-15 15-8.285156 0-15-6.714844-15-15s6.714844-15 15-15c8.28125 0 15 6.714844 15 15zm0 0"/><path d="m133.5625 168.011719c-7.171875-4.140625-16.347656-1.683594-20.488281 5.492187-4.144531 7.171875-1.683594 16.347656 5.488281 20.488282 7.175781 4.144531 16.347656 1.683593 20.492188-5.488282 4.140624-7.175781 1.683593-16.347656-5.492188-20.492187zm0 0"/><path d="m393.367188 318.019531c-7.175782-4.140625-16.347657-1.683593-20.492188 5.492188-4.140625 7.171875-1.683594 16.347656 5.492188 20.488281 7.171874 4.140625 16.347656 1.683594 20.488281-5.488281 4.144531-7.175781 1.683593-16.347657-5.488281-20.492188zm0 0"/><path d="m139.054688 323.492188c-4.140626-7.175782-13.316407-9.632813-20.488282-5.492188-7.175781 4.144531-9.632812 13.316406-5.492187 20.492188 4.144531 7.171874 13.316406 9.632812 20.492187 5.488281 7.171875-4.140625 9.628906-13.316407 5.488282-20.488281zm0 0"/><path d="m398.855469 173.496094c-4.140625-7.175782-13.316407-9.632813-20.488281-5.492188-7.175782 4.144532-9.632813 13.316406-5.492188 20.492188 4.140625 7.171875 13.316406 9.632812 20.492188 5.488281 7.171874-4.140625 9.628906-13.316406 5.488281-20.488281zm0 0"/><path d="m120.972656 256c0 8.285156-6.71875 15-15 15-8.285156 0-15-6.714844-15-15s6.714844-15 15-15c8.28125 0 15 6.714844 15 15zm0 0"/><path d="m420.972656 256c0 8.285156-6.71875 15-15 15-8.285156 0-15-6.714844-15-15s6.714844-15 15-15c8.28125 0 15 6.714844 15 15zm0 0"/><path d="m193.957031 118.59375c-4.144531-7.175781-13.316406-9.632812-20.492187-5.492188-7.171875 4.144532-9.628906 13.316407-5.488282 20.492188 4.140626 7.171875 13.316407 9.632812 20.488282 5.488281 7.175781-4.140625 9.632812-13.316406 5.492187-20.488281zm0 0"/><path d="m343.953125 378.394531c-4.140625-7.175781-13.316406-9.632812-20.488281-5.492187-7.175782 4.144531-9.632813 13.316406-5.492188 20.492187 4.140625 7.171875 13.316406 9.632813 20.492188 5.488281 7.171875-4.140624 9.628906-13.316406 5.488281-20.488281zm0 0"/><path d="m188.460938 372.917969c-7.171876-4.140625-16.347657-1.683594-20.488282 5.492187-4.144531 7.171875-1.683594 16.347656 5.488282 20.488282 7.175781 4.144531 16.347656 1.683593 20.492187-5.488282 4.140625-7.175781 1.683594-16.347656-5.492187-20.492187zm0 0"/><path d="m338.46875 113.113281c-7.175781-4.140625-16.347656-1.683593-20.492188 5.492188-4.140624 7.171875-1.683593 16.347656 5.492188 20.488281 7.171875 4.144531 16.347656 1.683594 20.488281-5.488281 4.144531-7.175781 1.683594-16.347657-5.488281-20.492188zm0 0"/><path d="m296.605469 155.394531c-2.8125-2.816406-6.625-4.394531-10.605469-4.394531h-60c-3.980469 0-7.792969 1.578125-10.605469 4.394531l-60 60c-2.816406 2.8125-4.394531 6.628907-4.394531 10.605469v60c0 3.976562 1.578125 7.792969 4.394531 10.605469l60 60c2.8125 2.816406 6.625 4.394531 10.605469 4.394531h60c3.980469 0 7.792969-1.578125 10.605469-4.394531l60-60c2.816406-2.8125 4.394531-6.628907 4.394531-10.605469v-60c0-3.976562-1.578125-7.792969-4.394531-10.605469zm34.394531 124.390625-51.214844 51.214844h-47.570312l-51.214844-51.214844v-47.570312l51.214844-51.214844h47.570312l51.214844 51.214844zm0 0"/></svg>