<svg height="512pt" viewBox="0 0 512 512" width="512pt" xmlns="http://www.w3.org/2000/svg"><path d="m136 210c36.21875 0 66.523438-25.808594 73.492188-60h16.507812c24.8125 0 45-20.1875 45-45s-20.1875-45-45-45c-14.847656 0-132.96875 0-150 0-8.285156 0-15 6.714844-15 15v60c0 41.355469 33.644531 75 75 75zm105-105c0 8.269531-6.730469 15-15 15h-15v-30h15c8.269531 0 15 6.730469 15 15zm-150-15h90v45c0 24.8125-20.1875 45-45 45s-45-20.1875-45-45zm0 0"/><path d="m76 272h180c8.285156 0 15-6.714844 15-15s-6.714844-15-15-15h-180c-8.285156 0-15 6.714844-15 15s6.714844 15 15 15zm0 0"/><path d="m76 332h180c8.285156 0 15-6.714844 15-15s-6.714844-15-15-15h-180c-8.285156 0-15 6.714844-15 15s6.714844 15 15 15zm0 0"/><path d="m196 362h-120c-8.285156 0-15 6.714844-15 15s6.714844 15 15 15h120c8.285156 0 15-6.714844 15-15s-6.714844-15-15-15zm0 0"/><path d="m497 452c8.285156 0 15-6.714844 15-15 0-69.40625-53.042969-126.738281-121-134.175781v-15.824219c0-8.285156-6.714844-15-15-15s-15 6.714844-15 15v15.839844c-10.398438 1.152344-20.445312 3.492187-30 6.882812v-294.722656c0-8.285156-6.714844-15-15-15h-301c-8.285156 0-15 6.714844-15 15v422c0 8.285156 6.714844 15 15 15h256v30h-15c-8.285156 0-15 6.714844-15 15s6.714844 15 15 15h241c8.285156 0 15-6.714844 15-15s-6.714844-15-15-15h-15v-30zm-16.078125-30c-8.871094 0-202.367187 0-208.855469 0 7.300782-50.816406 51.128906-90 103.933594-90 53.308594 0 97.550781 39.183594 104.921875 90zm-450.921875-392h271v294.804688c-32.230469 21.617187-54.667969 56.738281-59.160156 97.195312h-211.839844zm422 452h-151v-30h151zm0 0"/></svg>