<svg height="512pt" viewBox="0 0 512 512" width="512pt" xmlns="http://www.w3.org/2000/svg"><path d="m497 121h-60c-8.285156 0-15 6.714844-15 15v60c0 3.976562 1.578125 7.792969 4.394531 10.605469l25.605469 25.609375v68.785156c0 16.542969-13.457031 30-30 30s-30-13.457031-30-30v-180c0-66.71875-53.832031-121-120-121-56.855469 0-103.984375 39.890625-117.195312 91h-67.378907c-12.019531 0-23.320312 4.679688-31.820312 13.179688l-42.425781 42.425781c-8.5 8.5-13.179688 19.800781-13.179688 31.820312v288.574219c0 24.8125 20.1875 45 45 45h242c24.8125 0 45-20.1875 45-45v-288.574219c0-12.019531-4.679688-23.320312-13.179688-31.820312l-42.425781-42.425781c-8.5-8.5-19.800781-13.179688-31.820312-13.179688h-58.277344c12.714844-35.113281 46.828125-61 85.703125-61 49.625 0 90 40.824219 90 91v180c0 33.085938 26.914062 60 60 60s60-26.914062 60-60v-68.785156l25.605469-25.609375c2.816406-2.8125 4.394531-6.628907 4.394531-10.605469v-60c0-8.285156-6.714844-15-15-15zm-199.394531 46.820312c2.832031 2.832032 4.394531 6.601563 4.394531 10.605469v288.574219c0 8.269531-6.730469 15-15 15h-242c-8.269531 0-15-6.730469-15-15v-288.574219c0-4.003906 1.5625-7.773437 4.394531-10.605469l25.605469-25.605468v53.785156c0 24.8125 20.1875 45 45 45h122c24.8125 0 45-20.1875 45-45v-53.785156zm-55.605469-46.820312v75c0 8.269531-6.730469 15-15 15h-122c-8.269531 0-15-6.730469-15-15v-75h61v30h-15c-8.285156 0-15 6.714844-15 15s6.714844 15 15 15h60c8.285156 0 15-6.714844 15-15s-6.714844-15-15-15h-15v-30zm240 68.785156-15 15-15-15v-38.785156h30zm0 0"/><path d="m257 271h-61c-74.917969 0-135.882812 60.445312-135.996094 134.785156v.113282c0 .035156-.003906.070312-.003906.101562v30c0 8.285156 6.71875 15 15 15 8.285156 0 15-6.714844 15-15v-15h46c74.992188 0 136-60.5625 136-135 0-8.285156-6.714844-15-15-15zm-121 120h-11l49.257812-32.476562c6.914063-4.558594 8.824219-13.863282 4.265626-20.78125-4.558594-6.917969-13.863282-8.824219-20.78125-4.265626l-63.039063 41.5625c13.371094-42.832031 53.722656-74.050781 101.296875-74.050781h44.921875c-7.371094 50.820313-51.613281 90.011719-104.921875 90.011719zm0 0"/></svg>