<svg height="512pt" viewBox="0 0 512 512" width="512pt" xmlns="http://www.w3.org/2000/svg"><path d="m510.414062 129.292969-30-60c-2.542968-5.082031-7.734374-8.292969-13.417968-8.292969h-78.570313c1.664063-4.691406 2.570313-9.742188 2.570313-15 0-11.953125-4.597656-23.347656-12.945313-32.078125-8.582031-8.976563-19.964843-13.921875-32.054687-13.921875-14.847656 0-132.96875 0-150 0-8.285156 0-15 6.714844-15 15v46h-136c-5.683594 0-10.875 3.210938-13.414063 8.292969l-30 60c-1.0625 2.121093-1.6796872 4.804687-1.5703122 7.328125.1992192 24.230468 11.9335932 45.757812 29.9843752 59.339844v301.039062c0 8.285156 6.714844 15 15 15h422c8.285156 0 15-6.714844 15-15v-301.039062c18.050781-13.582032 29.785156-35.109376 29.984375-59.339844.105469-2.578125-.519531-5.230469-1.566407-7.328125zm-52.6875-38.292969 15 30c-46.257812 0-133.753906 0-156.769531 0 6.5625-8.726562 11.273438-18.921875 13.53125-30zm-20.730468 90c-19.589844 0-36.789063-12.726562-43.265625-30.011719h85.695312c-6.191406 17.460938-22.871093 30.011719-42.429687 30.011719zm-198.570313-30c-6.191406 17.460938-22.871093 30-42.429687 30s-36.238282-12.539062-42.429688-30zm120 0c-6.191406 17.460938-22.871093 30-42.429687 30s-36.238282-12.539062-42.429688-30zm2.570313-105c0 8.269531-6.730469 15-15 15h-15v-31h15c7.988281 0 15 7.476562 15 16zm-150-16h90v46c0 24.8125-20.1875 45-45 45s-45-20.1875-45-45zm-156.730469 61h128.242187c2.257813 11.078125 6.964844 21.273438 13.53125 30-35.488281 0-131.304687 0-156.773437 0zm-21.699219 59.988281h85.695313c-6.472657 17.285157-23.675781 30.011719-43.265625 30.011719-19.558594 0-36.238282-12.550781-42.429688-30.011719zm27.429688 120.011719h91v90h-15c-8.285156 0-15 6.714844-15 15s6.714844 15 15 15h15v91h-91zm316 120c8.285156 0 15-6.714844 15-15s-6.714844-15-15-15h-60c-8.285156 0-15 6.714844-15 15s6.714844 15 15 15h15v30h-90v-61.074219c45.917968-6.597656 82.328125-43.011719 88.925781-88.925781h32.160156c6.667969 45.964844 43.496094 82.402344 89.914063 88.945312v61.054688h-91v-30zm-135-61.507812v-58.503907h58.492187c-5.980469 29.34375-29.148437 52.523438-58.492187 58.503907zm211 .035156c-29.828125-5.917969-53.398438-29.117188-59.472656-58.527344h59.472656zm0-88.527344h-226c-8.285156 0-15 6.714844-15 15v180c0 8.285156 6.714844 15 15 15h226v31h-271v-226c0-8.285156-6.714844-15-15-15h-106v-31.507812c4.847656.988281 9.863281 1.507812 15 1.507812 24.15625 0 46.425781-11.335938 60.847656-30.253906 13.6875 18.347656 35.554688 30.253906 60.152344 30.253906 24.507812 0 46.304687-11.816406 60-30.050781 13.695312 18.234375 35.492187 30.050781 60 30.050781 24.597656 0 46.464844-11.90625 60.152344-30.253906 14.40625 18.894531 36.65625 30.253906 60.847656 30.253906 5.136718 0 10.152344-.519531 15-1.507812zm0 0"/></svg>