<svg height="512pt" viewBox="-46 0 512 512" width="512pt" xmlns="http://www.w3.org/2000/svg"><path d="m285 182c8.285156 0 15-6.714844 15-15v-46h75c24.8125 0 45-20.1875 45-45v-61c0-8.285156-6.714844-15-15-15h-360c-24.8125 0-45 20.1875-45 45v422c0 24.8125 20.1875 45 45 45h360c8.285156 0 15-6.714844 15-15v-30c0-24.8125-20.1875-45-45-45h-25.511719c6.722657-9.164062 11.84375-19.296875 15.21875-30h10.292969c24.8125 0 45-20.1875 45-45v-60c0-24.8125-20.1875-45-45-45h-45v-15c0-8.285156-6.714844-15-15-15h-45v-30zm-15-30h-30v-31h30zm-240-107c0-8.269531 6.730469-15 15-15h345v46c0 8.269531-6.730469 15-15 15h-345zm0 377v-301h60v301zm360 45v15h-345c-8.269531 0-15-6.730469-15-15v-15h345c8.269531 0 15 6.730469 15 15zm-188.785156-45c-3.160156-4.511719-34.566406-25.828125-30.34375-68.476562 2.039062-20.605469 12.503906-39.152344 28.90625-51.523438h110.441406c16.40625 12.371094 26.871094 30.917969 28.910156 51.523438 4.210938 42.539062-27.289062 64.117187-30.34375 68.476562zm173.785156-150c8.269531 0 15 6.730469 15 15v60c0 8.269531-6.730469 15-15 15h-5.515625c.042969-3.792969-.125-7.609375-.5-11.433594-2.800781-28.28125-16.875-53.800781-38.984375-71.199218v-7.367188zm-75 0h-95.730469l-15-30h110.730469zm-60-60h-75c-5.199219 0-10.027344 2.691406-12.761719 7.113281-2.730469 4.421875-2.980469 9.945313-.652343 14.59375l24.464843 48.933594c-19.828125 17.25-32.402343 41.371094-35.03125 67.925781-2.546875 25.691406 4.484375 50.976563 19.492188 71.433594h-40.511719v-301h90v46c0 8.285156 6.714844 15 15 15h15zm0 0"/></svg>