<svg height="512pt" viewBox="-121 0 512 512" width="512pt" xmlns="http://www.w3.org/2000/svg"><path d="m0 449.425781v17.574219c0 3.976562 1.578125 7.792969 4.394531 10.605469l30 30c5.855469 5.859375 15.355469 5.859375 21.210938 0l19.394531-19.390625 19.394531 19.390625c5.855469 5.859375 15.355469 5.859375 21.210938 0l19.394531-19.390625 19.394531 19.390625c5.855469 5.859375 15.355469 5.859375 21.210938 0l19.394531-19.390625 19.394531 19.390625c2.929688 2.929687 6.765625 4.394531 10.605469 4.394531s7.679688-1.464844 10.605469-4.394531l30-30c2.816406-2.8125 4.394531-6.628907 4.394531-10.605469v-17.574219c0-12.019531-4.679688-23.320312-13.179688-31.820312l-10.605468-10.605469 10.605468-10.609375c8.5-8.5 13.179688-19.796875 13.179688-31.816406v-217.148438c0-12.019531-4.679688-23.320312-13.179688-31.816406l-10.605468-10.609375 10.605468-10.609375c8.5-8.5 13.179688-19.796875 13.179688-31.816406v-17.574219c0-3.976562-1.578125-7.792969-4.394531-10.605469l-30-30c-5.855469-5.859375-15.355469-5.859375-21.210938 0l-19.394531 19.390625-19.394531-19.390625c-5.855469-5.859375-15.351563-5.859375-21.210938 0l-19.394531 19.390625-19.394531-19.390625c-5.855469-5.859375-15.351563-5.859375-21.210938 0l-19.394531 19.390625-19.394531-19.390625c-5.855469-5.859375-15.351563-5.859375-21.210938 0l-30 30c-2.816406 2.8125-4.394531 6.628907-4.394531 10.605469v17.574219c0 12.019531 4.679688 23.320312 13.179688 31.816406l10.605468 10.609375-10.605468 10.605469c-8.5 8.5-13.179688 19.800781-13.179688 31.820312v217.148438c0 12.019531 4.679688 23.316406 13.179688 31.816406l10.605468 10.609375-10.605468 10.605469c-8.5 8.5-13.179688 19.800781-13.179688 31.820312zm30-398.210937 15-15 19.394531 19.390625c5.855469 5.859375 15.355469 5.859375 21.210938 0l19.394531-19.390625 19.394531 19.390625c5.855469 5.859375 15.355469 5.859375 21.210938 0l19.394531-19.390625 19.394531 19.390625c5.855469 5.859375 15.355469 5.859375 21.210938 0l19.394531-19.390625 15 15v11.359375c0 4.003906-1.5625 7.773437-4.394531 10.605469l-16.820313 16.820312h-167.570312l-16.820313-16.820312c-2.832031-2.832032-4.394531-6.601563-4.394531-10.605469zm0 96.210937c0-4.003906 1.5625-7.773437 4.394531-10.605469l16.820313-16.820312h167.570312l16.820313 16.820312c2.832031 2.832032 4.394531 6.597657 4.394531 10.605469v217.148438c0 4.003906-1.5625 7.769531-4.394531 10.605469l-16.820313 16.820312h-167.570312l-16.820313-16.820312c-2.832031-2.832032-4.394531-6.601563-4.394531-10.605469zm0 302c0-4.003906 1.5625-7.773437 4.394531-10.605469l16.820313-16.820312h167.570312l16.820313 16.820312c2.832031 2.832032 4.394531 6.597657 4.394531 10.605469v11.359375l-15 15-19.394531-19.394531c-2.925781-2.925781-6.765625-4.390625-10.605469-4.390625s-7.679688 1.464844-10.605469 4.394531l-19.394531 19.390625-19.394531-19.390625c-5.855469-5.859375-15.355469-5.859375-21.210938 0l-19.394531 19.390625-19.394531-19.390625c-5.855469-5.859375-15.355469-5.859375-21.210938 0l-19.394531 19.390625-15-15zm0 0"/><path d="m81.96875 312.992188c32.917969 32.917968 85.433594 41.847656 116.671875 10.605468 31.410156-31.40625 22.167969-83.898437-10.605469-116.671875-32.980468-32.980469-85.429687-41.851562-116.675781-10.605469-31.40625 31.40625-22.167969 83.898438 10.609375 116.671876zm21.210938-21.214844c-18.4375-18.4375-25.285157-43.023438-18.78125-61.207032l79.988281 79.988282c-18.183594 6.507812-42.769531-.34375-61.207031-18.78125zm63.640624-63.636719c18.4375 18.433594 25.289063 43.023437 18.78125 61.207031l-79.988281-79.988281c20.410157-7.308594 45 2.574219 61.207031 18.78125zm0 0"/></svg>