<svg height="512pt" viewBox="-61 0 512 512.00001" width="512pt" xmlns="http://www.w3.org/2000/svg"><path d="m248.257812 142.96875c-33.082031-33.078125-85.511718-41.769531-116.671874-10.605469-31.410157 31.40625-22.167969 83.898438 10.605468 116.671875 32.425782 32.425782 85.097656 42.183594 116.671875 10.605469 31.410157-31.40625 22.167969-83.898437-10.605469-116.671875zm-21.210937 21.214844c18.433594 18.433594 25.285156 43.023437 18.777344 61.207031l-79.988281-79.992187c20.414062-7.304688 45.003906 2.578124 61.210937 18.785156zm-63.640625 63.636718c-18.4375-18.433593-25.289062-43.023437-18.78125-61.207031l79.988281 79.988281c-18.183593 6.507813-42.773437-.34375-61.207031-18.78125zm0 0"/><path d="m386.351562 185.941406-29.957031-33.125 9.382813-43.664062c1.597656-7.429688-2.617188-14.878906-9.804688-17.339844l-42.710937-14.632812-13.757813-42.667969c-2.367187-7.332031-9.898437-11.675781-17.429687-10.0625l-43.664063 9.382812-33.121094-29.957031c-5.714843-5.167969-14.410156-5.167969-20.125 0l-33.125 29.957031-43.664062-9.382812c-7.523438-1.613281-15.0625 2.730469-17.425781 10.0625l-13.761719 42.667969-42.710938 14.632812c-7.1875 2.460938-11.398437 9.910156-9.800781 17.339844l9.378907 43.664062-29.957032 33.125c-5.164062 5.710938-5.164062 14.410156 0 20.121094l29.957032 33.125-9.378907 43.664062c-1.621093 7.53125 2.726563 15.0625 10.058594 17.429688l27.273437 8.792969c-67.578124 146.035156-60 129.65625-60.585937 130.921875-5.585937 12.085937 6.242187 24.945312 18.746094 20.390625l65.640625-23.894531 23.890625 65.640624c4.578125 12.578126 22.101562 13.308594 27.714843 1.164063.644532-1.394531-6.824218 14.761719 52.375-113.316406 3.445313 1.339843 7.253907 1.367187 10.71875.0625 59.199219 128.078125 51.691407 111.84375 52.347657 113.253906 5.609375 12.148437 23.132812 11.414063 27.710937-1.164063l23.890625-65.640624 65.640625 23.894531c12.507813 4.554687 24.328125-8.308594 18.746094-20.390625-.570312-1.234375 6.882812 14.875-60.558594-130.871094l27.429688-8.847656c7.332031-2.363282 11.683594-9.894532 10.0625-17.425782l-9.382813-43.664062 29.960938-33.125c5.164062-5.710938 5.164062-14.410156-.003907-20.121094zm-260.90625 271.734375-16.574218-45.539062c-2.835938-7.785157-11.441406-11.800781-19.226563-8.964844l-45.875 16.695313c.839844-1.8125-6.699219 14.484374 39.839844-86.132813l7.339844 22.757813c2.363281 7.328124 9.894531 11.675781 17.425781 10.0625l43.664062-9.382813 14.03125 12.6875c-47.300781 102.246094-39.808593 86.046875-40.625 87.816406zm221.050782-37.804687-45.875-16.699219c-7.78125-2.832031-16.394532 1.179687-19.226563 8.964844l-16.574219 45.539062c-.832031-1.800781 6.730469 14.546875-40.566406-87.699219l14.15625-12.804687 43.664063 9.382813c7.527343 1.617187 15.0625-2.730469 17.429687-10.0625l7.261719-22.523438c46.445313 100.421875 38.882813 84.074219 39.730469 85.902344zm-21.046875-181.894532 8.148437 37.914063-36.910156 11.902344c-4.589844 1.480469-8.191406 5.078125-9.671875 9.671875l-11.902344 36.90625-37.914062-8.144532c-4.71875-1.015624-9.632813.304688-13.210938 3.539063l-28.042969 25.363281c-.039062.035156-.078124.070313-.117187.105469l-.601563.542969-.730468-.65625c-.039063-.039063-.082032-.078125-.125-.113282l-27.90625-25.242187c-3.59375-3.246094-8.515625-4.550781-13.214844-3.539063l-37.914062 8.144532-11.902344-36.90625c-1.480469-4.59375-5.078125-8.191406-9.671875-9.671875l-36.90625-11.902344 8.144531-37.914063c1.015625-4.71875-.304688-9.636718-3.539062-13.214843l-26.011719-28.761719 26.011719-28.757812c3.234374-3.582032 4.554687-8.496094 3.539062-13.214844l-8.195312-38.152344 37.214843-12.75c4.476563-1.53125 7.964844-5.082031 9.414063-9.585938l11.902344-36.90625 37.914062 8.144532c4.722656 1.015625 9.636719-.304688 13.214844-3.539063l28.761718-26.011719 28.761719 26.011719c3.578125 3.234375 8.496094 4.554688 13.214844 3.539063l37.910156-8.144532 11.902344 36.90625c1.453125 4.503907 4.941406 8.054688 9.417969 9.585938l37.214844 12.75-8.195313 38.152344c-1.015625 4.71875.300781 9.636718 3.539063 13.214844l26.007812 28.757812-26.011719 28.761719c-3.234375 3.582031-4.550781 8.496093-3.539062 13.214843zm0 0"/></svg>