<svg height="512pt" viewBox="0 -46 512 512" width="512pt" xmlns="http://www.w3.org/2000/svg"><path d="m510.414062 68.292969-30-60c-2.539062-5.082031-7.730468-8.292969-13.414062-8.292969h-151c-5.683594 0-10.875 3.210938-13.414062 8.292969l-30 60c-.960938 1.917969-1.585938 4.382812-1.585938 6.707031v150c0 .824219.066406 1.652344.203125 2.464844l7.089844 42.535156h-44.585938l7.089844-42.535156c.136719-.8125.203125-1.640625.203125-2.464844v-150c0-2.347656-.628906-4.800781-1.585938-6.707031l-30-60c-2.539062-5.082031-7.730468-8.292969-13.414062-8.292969h-151c-5.683594 0-10.875 3.210938-13.414062 8.292969l-30 60c-.96875 1.929687-1.585938 4.394531-1.585938 6.707031v150c0 .824219.0664062 1.652344.203125 2.464844l9.867187 59.203125c-6.289062 7.742187-10.070312 17.601562-10.070312 28.332031v30c0 8.285156 6.714844 15 15 15h7.292969l3.734375 22.398438c3.628906 21.789062 22.296875 37.601562 44.386718 37.601562h100.171876c22.089843 0 40.757812-15.8125 44.386718-37.601562l3.734375-22.398438h74.585938l3.734375 22.398438c3.628906 21.789062 22.296875 37.601562 44.386718 37.601562h100.171876c22.089843 0 40.757812-15.8125 44.386718-37.601562l3.734375-22.398438h7.292969c8.285156 0 15-6.714844 15-15v-30c0-10.730469-3.78125-20.589844-10.070312-28.332031l9.867187-59.203125c.132813-.8125.203125-1.640625.203125-2.464844v-150c0-2.316406-.613281-4.769531-1.585938-6.707031zm-480.414062 261.707031v-15c0-8.269531 6.730469-15 15-15h422c8.269531 0 15 6.730469 15 15v15zm295.269531-300h132.460938l15 30h-162.460938zm-24.269531 193.757812v-133.757812h181v133.757812l-7.804688 46.824219c-2.34375-.378906-4.746093-.582031-7.195312-.582031h-158.292969zm-256 46.242188c-2.449219 0-4.851562.203125-7.195312.582031l-7.804688-46.824219v-133.757812h181v133.757812l-7.707031 46.242188zm9.269531-240h132.460938l15 30h-162.460938zm131.113281 347.464844c-1.210937 7.265625-7.433593 12.535156-14.796874 12.535156h-100.171876c-7.363281 0-13.585937-5.269531-14.796874-12.535156l-2.910157-17.464844h135.585938zm271 0c-1.210937 7.265625-7.433593 12.535156-14.796874 12.535156h-100.171876c-7.363281 0-13.585937-5.269531-14.796874-12.535156l-2.910157-17.464844h135.585938zm0 0"/><path d="m391 120c-24.8125 0-45 20.1875-45 45s20.1875 45 45 45 45-20.1875 45-45-20.1875-45-45-45zm0 60c-8.269531 0-15-6.730469-15-15s6.730469-15 15-15 15 6.730469 15 15-6.730469 15-15 15zm0 0"/><path d="m121 120c-24.8125 0-45 20.1875-45 45s20.1875 45 45 45 45-20.1875 45-45-20.1875-45-45-45zm0 60c-8.269531 0-15-6.730469-15-15s6.730469-15 15-15 15 6.730469 15 15-6.730469 15-15 15zm0 0"/></svg>