<svg height="512pt" viewBox="0 0 512 512" width="512pt" xmlns="http://www.w3.org/2000/svg"><path d="m497 0h-182c-41.800781 0-77.972656 24.558594-94.855469 60h-55.144531c-8.285156 0-15 6.714844-15 15v60c0 3.574219 1.253906 6.855469 3.34375 9.433594-9.710938 3.644531-20.089844 5.566406-30.769531 5.566406h-17.574219c-24.8125 0-45 20.1875-45 45 0 5.851562 1.121094 11.445312 3.164062 16.578125-19.089843 5.210937-33.164062 22.703125-33.164062 43.421875 0 5.257812.914062 10.304688 2.578125 15h-17.578125c-4.34375 0-8.476562 1.882812-11.324219 5.164062-2.847656 3.28125-4.136719 7.632813-3.527343 11.9375l26.320312 186.261719c3.148438 22.027344 22.300781 38.636719 44.550781 38.636719h127.960938c22.25 0 41.402343-16.609375 44.550781-38.65625l3.015625-21.34375h53.4375c20.6875 0 38.640625-14.015625 43.65625-34.085938.011719-.035156.019531-.074218.027344-.109374l14.988281-61.949219c7.058594-28.402344-14.425781-55.855469-43.671875-55.855469h-46.957031l1.824218-12.902344c.605469-4.300781-.679687-8.65625-3.527343-11.933594-2.847657-3.28125-6.980469-5.164062-11.324219-5.164062h-17.582031c1.667969-4.695312 2.582031-9.742188 2.582031-15 0-20.71875-14.074219-38.210938-33.164062-43.421875 2.039062-5.132813 3.164062-10.726563 3.164062-16.578125v-45h10.144531c16.882813 35.441406 53.054688 60 94.855469 60h182c8.285156 0 15-6.714844 15-15v-180c0-8.285156-6.714844-15-15-15zm-182.015625 330c9.753906 0 16.921875 9.160156 14.554687 18.636719-.011718.039062-.019531.074219-.027343.109375l-14.984375 61.9375c-1.6875 6.664062-7.660156 11.316406-14.542969 11.316406h-49.195313l13-92zm-101.15625 139.121094c-1.046875 7.34375-7.429687 12.878906-14.847656 12.878906h-127.960938c-7.417969 0-13.800781-5.535156-14.847656-12.855469l-23.902344-169.15625h205.460938c-2.398438 16.972657-21.625 153.042969-23.902344 169.132813zm-3.828125-214.121094c0 8.269531-6.730469 15-15 15-12.691406 0-107.222656 0-120 0-8.269531 0-15-6.730469-15-15s6.730469-15 15-15h30c8.285156 0 15-6.714844 15-15s-6.714844-15-15-15c-8.269531 0-15-6.730469-15-15s6.730469-15 15-15h17.574219c20.4375 0 40.082031-5.1875 57.425781-14.941406v29.941406c0 8.269531-6.730469 15-15 15-8.285156 0-15 6.714844-15 15s6.714844 15 15 15h30c8.269531 0 15 6.730469 15 15zm-30-135v-30.011719h31.074219c-.703125 4.902344-1.074219 9.917969-1.074219 15.011719s.371094 10.097656 1.074219 15zm60-15c0-41.355469 33.644531-75 75-75h167v60h-137c-8.285156 0-15 6.714844-15 15v75h-15c-41.355469 0-75-33.644531-75-75zm120 75v-60h122v60zm0 0"/></svg>