<svg height="512pt" viewBox="-31 0 512 512" width="512pt" xmlns="http://www.w3.org/2000/svg"><path d="m225 361c-24.8125 0-45 20.1875-45 45s20.1875 45 45 45 45-20.1875 45-45-20.1875-45-45-45zm0 60c-8.273438 0-15-6.730469-15-15s6.726562-15 15-15c8.269531 0 15 6.730469 15 15s-6.730469 15-15 15zm0 0"/><path d="m103.609375 184.824219 16.238281 129.878906-27.578125 167.296875h-17.269531c-8.285156 0-15 6.714844-15 15s6.714844 15 15 15h300c8.28125 0 15-6.714844 15-15s-6.71875-15-15-15h-17.273438l-27.574218-167.296875 1.835937-14.703125h51.574219c22.25 0 41.402344-16.609375 44.550781-38.636719l21.425781-150c3.875-27.113281-17.1875-51.363281-44.546874-51.363281-8.300782 0-66.164063 0-80.722657 0l-17.5625-35.125c-7.671875-15.34375-23.09375-24.875-40.25-24.875h-82.917969c-17.152343 0-32.578124 9.53125-40.25 24.875l-17.558593 35.125c-15.640625 0-97.070313 0-110.730469 0-6.066406 0-11.535156 3.65625-13.859375 9.261719-2.320313 5.601562-1.035156 12.054687 3.253906 16.34375zm19.066406 297.175781 25.050781-152h154.542969l25.054688 152zm297.167969-374.878906-21.429688 150c-1.050781 7.34375-7.433593 12.878906-14.851562 12.878906h-47.824219l22.5-180h46.753907c9.074218 0 16.152343 8.003906 14.851562 17.121094zm-249.722656-68.828125c2.558594-5.117188 7.699218-8.292969 13.417968-8.292969h82.917969c5.71875 0 10.859375 3.175781 13.417969 8.292969l10.855469 21.707031h-131.460938zm157.886718 51.707031-26.25 210h-61.757812v-30h15c8.28125 0 15-6.714844 15-15s-6.71875-15-15-15h-60c-8.285156 0-15 6.714844-15 15s6.714844 15 15 15h15v30h-61.761719l-26.246093-210zm-236.25 0 5.792969 46.339844-46.339843-46.339844zm0 0"/></svg>