<svg height="512pt" viewBox="-61 0 512 512" width="512pt" xmlns="http://www.w3.org/2000/svg"><path d="m315 0h-240c-24.8125 0-45 20.1875-45 45v58.605469c-19.902344 60.53125-30 123.519531-30 187.261719v206.132812c0 8.285156 6.714844 15 15 15h360c8.285156 0 15-6.714844 15-15v-206.132812c0-63.742188-10.097656-126.730469-30-187.261719v-58.605469c0-24.8125-20.1875-45-45-45zm15 45v46h-90v-61h75c8.269531 0 15 6.730469 15 15zm-150-15h30v99.785156l-15 15-15-15zm-120 15c0-8.269531 6.730469-15 15-15h75v61h-90zm-4.078125 76h94.078125v15c0 3.976562 1.578125 7.792969 4.394531 10.605469l30 30c2.925781 2.929687 6.765625 4.394531 10.605469 4.394531s7.679688-1.464844 10.605469-4.394531l30-30c2.816406-2.8125 4.394531-6.628907 4.394531-10.605469v-15h94.078125c17.203125 55.039062 25.921875 112.128906 25.921875 169.867188v130.132812h-330v-130.132812c0-57.738282 8.71875-114.828126 25.921875-169.867188zm-25.921875 361v-31h330v31zm0 0"/><path d="m141.96875 339.03125c26.628906 26.632812 57.660156 38.492188 82.707031 38.492188 17.75 0 33.203125-5.90625 44.570313-17.277344 14.992187-14.992188 20.484375-37.078125 15.464844-62.1875-4.582032-22.90625-17.609376-46.019532-36.679688-65.089844-19.066406-19.070312-42.183594-32.09375-65.089844-36.675781-25.109375-5.023438-47.195312.46875-62.1875 15.460937-14.996094 14.992188-20.484375 37.078125-15.464844 62.1875 4.582032 22.90625 17.609376 46.023438 36.679688 65.089844zm21.210938-21.210938c-22.582032-22.582031-33.410157-51.402343-28.65625-71.085937l99.742187 99.746094c-19.683594 4.75-48.503906-6.078125-71.085937-28.660157zm63.640624-63.640624c22.582032 22.582031 33.410157 51.402343 28.65625 71.085937l-99.746093-99.746094c23.878906-5.765625 53.449219 11.019531 71.089843 28.660157zm0 0"/></svg>