<svg height="512pt" viewBox="0 0 512 512" width="512pt" xmlns="http://www.w3.org/2000/svg"><path d="m452 128.910156v-41.488281c17.460938-6.195313 30-22.867187 30-42.421875 0-24.8125-20.1875-45-45-45h-90c-24.8125 0-45 20.1875-45 45 0 19.554688 12.539062 36.226562 30 42.421875v41.492187c-37.277344 39.441407-60 92.984376-60 150.9375v51.148438h-31v-51.148438c0-56.273437-21.554688-110.257812-60-150.9375v-41.492187c17.460938-6.195313 30-22.867187 30-42.421875 0-24.8125-20.1875-45-45-45h-91c-24.8125 0-45 20.1875-45 45 0 19.554688 12.539062 36.226562 30 42.421875v41.492187c-37.277344 39.441407-60 92.984376-60 150.9375v187.148438c0 24.8125 20.1875 45 45 45h422c24.8125 0 45-20.1875 45-45 0-13.300781 0-166.535156 0-187.148438 0-56.273437-21.554688-110.257812-60-150.941406zm-105-98.910156h90c8.269531 0 15 6.730469 15 15s-6.730469 15-15 15h-90c-8.269531 0-15-6.730469-15-15s6.730469-15 15-15zm10.605469 115.605469c2.816406-2.8125 4.394531-6.628907 4.394531-10.605469v-45h60v45c0 3.976562 1.578125 7.792969 4.394531 10.605469 26.269531 26.273437 43.878907 58.890625 51.425781 94.394531h-171.640624c7.546874-35.503906 25.15625-68.121094 51.425781-94.394531zm-55.605469 134.246093c0-3.296874.089844-6.582031.253906-9.851562h179.492188c.164062 3.269531.253906 6.554688.253906 9.851562v51.148438h-180zm-272 51.148438v-51.148438c0-3.296874.089844-6.582031.253906-9.851562h180.492188c.164062 3.269531.253906 6.554688.253906 9.851562v51.148438zm45-301h91c8.269531 0 15 6.730469 15 15s-6.730469 15-15 15h-91c-8.269531 0-15-6.730469-15-15s6.730469-15 15-15zm10.605469 115.605469c2.816406-2.8125 4.394531-6.628907 4.394531-10.605469v-45h61v45c0 3.976562 1.578125 7.792969 4.394531 10.605469 26.269531 26.273437 43.878907 58.890625 51.425781 94.394531h-172.640624c7.546874-35.503906 25.15625-68.121094 51.425781-94.394531zm396.394531 321.394531c0 8.269531-6.730469 15-15 15h-422c-8.269531 0-15-6.730469-15-15v-106h452zm0 0"/></svg>