<svg height="512pt" viewBox="0 -31 512.00024 512" width="512pt" xmlns="http://www.w3.org/2000/svg"><path d="m422 60c-24.820312 0-48.296875 10.238281-65.15625 27.921875-18.617188-11.214844-38.90625-19.203125-60.171875-23.6875 2.773437-5.835937 4.328125-12.355469 4.328125-19.234375 0-24.8125-20.1875-45-45-45s-45 20.1875-45 45c0 6.898438 1.566406 13.4375 4.351562 19.285156-41.367187 8.773438-79.273437 30.703125-107.222656 62.582032l-51.523437-34.347657c-6.894531-4.597656-16.207031-2.734375-20.800781 4.160157l-33.285157 49.921874c-4.59375 6.890626-2.730469 16.203126 4.160157 20.800782l59.3125 39.539062c-3.976563 15.648438-5.988282 31.765625-5.988282 48.058594 0 37.96875 11.058594 74.777344 31.550782 106.230469-34.957032 6.355469-61.550782 37.003906-61.550782 73.769531 0 8.28125 6.714844 15 15 15h421.996094c8.285156 0 15-6.71875 15-15 0-36.765625-26.59375-67.414062-61.550781-73.769531 20.492187-31.453125 31.550781-68.261719 31.550781-106.230469 0-6.65625-.339844-13.265625-1.003906-19.800781 36.554687-12.460938 61.003906-46.734375 61.003906-85.199219 0-49.625-40.375-90-90-90zm-294.171875 300c-21.238281-25.679688-34.132813-57.011719-37.140625-90h90.3125v15c0 8.28125 6.71875 15 15 15h120c8.285156 0 15-6.71875 15-15v-15.011719h90.316406c-3.011718 32.992188-15.90625 64.332031-37.144531 90.011719zm128.171875-203.789062 45 45v68.789062h-90v-68.789062zm165.308594 83.789062h-90.308594v-45c0-3.980469-1.578125-7.792969-4.394531-10.609375l-55.605469-55.605469v-38.105468c79.558594 7.117187 143.105469 70.253906 150.308594 149.320312zm-180.308594-195c0-8.269531 6.730469-15 15-15 8.273438 0 15 6.730469 15 15s-6.726562 15-15 15c-8.269531 0-15-6.730469-15-15zm-205.199219 105.761719 16.640625-24.960938 50.386719 33.589844c6.613281 4.410156 15.519531 2.894531 20.304687-3.453125 28.097657-37.304688 71.355469-61.019531 117.867188-65.25v38.101562l-55.605469 55.605469c-2.8125 2.8125-4.394531 6.625-4.394531 10.605469v45h-90.316406c1.074218-11.878906 3.421875-23.574219 7.03125-34.917969 2.027344-6.371093-.410156-13.316406-5.976563-17.027343zm413.628907 269.238281h-386.859376c6.191407-17.460938 22.875-30 42.429688-30h302c19.554688 0 36.238281 12.539062 42.429688 30zm-3.902344-214.761719c-10.265625-38.675781-32.410156-73.289062-63.890625-99.621093 10.9375-9.9375 25.277343-15.617188 40.363281-15.617188 33.085938 0 60 26.917969 60 60 0 24.632812-14.707031 46.046875-36.472656 55.238281zm0 0"/></svg>