<svg height="512pt" viewBox="0 -31 512 512" width="512pt" xmlns="http://www.w3.org/2000/svg"><path d="m332 240v-15c0-8.285156-6.714844-15-15-15h-152c-8.285156 0-15 6.714844-15 15v120c0 24.8125 20.1875 45 45 45h92c19.554688 0 36.226562-12.542969 42.421875-30h2.578125c33.085938 0 60-26.914062 60-60s-26.914062-60-60-60zm-45 120h-92c-8.269531 0-15-6.730469-15-15v-105h122v105c0 8.269531-6.730469 15-15 15zm45-30v-60c16.542969 0 30 13.457031 30 30s-13.457031 30-30 30zm0 0"/><path d="m424.578125 60c6.195313 17.457031 22.867187 30 42.421875 30 24.8125 0 45-20.1875 45-45s-20.1875-45-45-45c-19.554688 0-36.226562 12.542969-42.421875 30h-337.15625c-6.195313-17.457031-22.867187-30-42.421875-30-24.8125 0-45 20.1875-45 45s20.1875 45 45 45c19.554688 0 36.226562-12.542969 42.421875-30h32.578125v60h-75c-24.8125 0-45 20.1875-45 45v240c0 24.8125 20.1875 45 45 45h422c24.8125 0 45-20.1875 45-45v-240c0-24.8125-20.1875-45-45-45h-75v-60zm42.421875-30c8.269531 0 15 6.730469 15 15s-6.730469 15-15 15-15-6.730469-15-15 6.730469-15 15-15zm-422 30c-8.269531 0-15-6.730469-15-15s6.730469-15 15-15 15 6.730469 15 15-6.730469 15-15 15zm437 105v240c0 8.269531-6.730469 15-15 15h-422c-8.269531 0-15-6.730469-15-15v-240c0-8.269531 6.730469-15 15-15h75v15c0 8.285156 6.714844 15 15 15s15-6.714844 15-15v-15h212v15c0 8.285156 6.714844 15 15 15s15-6.714844 15-15v-15h75c8.269531 0 15 6.730469 15 15zm-120-45h-212v-60h212zm0 0"/><path d="m89.972656 195c0 8.285156-6.71875 15-15 15-8.285156 0-15-6.714844-15-15s6.714844-15 15-15c8.28125 0 15 6.714844 15 15zm0 0"/><path d="m89.972656 375c0 8.285156-6.71875 15-15 15-8.285156 0-15-6.714844-15-15s6.714844-15 15-15c8.28125 0 15 6.714844 15 15zm0 0"/><path d="m451.972656 195c0 8.285156-6.71875 15-15 15-8.285156 0-15-6.714844-15-15s6.714844-15 15-15c8.28125 0 15 6.714844 15 15zm0 0"/><path d="m451.972656 375c0 8.285156-6.71875 15-15 15-8.285156 0-15-6.714844-15-15s6.714844-15 15-15c8.28125 0 15 6.714844 15 15zm0 0"/></svg>