<svg height="512pt" viewBox="0 0 512.00012 512" width="512pt" xmlns="http://www.w3.org/2000/svg"><path d="m496.996094 211.996094c-51.125 0-96.894532 23.375-127.183594 60h-98.8125v-129.917969c11.253906-1.074219 22.394531-3.402344 33.152344-6.988281l41.878906-13.957032c40.523438 18.125 87.765625 17.226563 127.628906-2.695312l.046875-.023438c3.847657-1.921874 6.683594-5.40625 7.789063-9.566406 1.101562-4.15625.367187-8.589844-2.019532-12.167968-40.355468-60.539063-107.886718-96.679688-180.644531-96.679688h-84.664062c-72.757813 0-140.289063 36.140625-180.644531 96.679688-2.386719 3.578124-3.109376 8.015624-2.007813 12.175781 1.105469 4.160156 3.953125 7.648437 7.800781 9.570312 39.863282 19.933594 87.101563 20.835938 127.652344 2.707031l41.878906 13.960938c10.441406 3.476562 21.238282 5.773438 32.152344 6.886719v130.015625h-98.8125c-30.289062-36.621094-76.058594-60-127.183594-60-8.285156 0-14.99999975 6.71875-14.99999975 15v150c0 8.285156 6.71484375 15 14.99999975 15h35.730469l-49.148437 98.289062c-3.703126 7.410156-.699219 16.417969 6.710937 20.125 7.421875 3.710938 16.425781.6875 20.121094-6.707031l46.585937-93.167969 46.582032 93.167969c3.703124 7.410156 12.714843 10.410156 20.125 6.707031 7.410156-3.703125 10.410156-12.714844 6.707031-20.125l-49.144531-98.289062h65.726562c8.285156 0 15-6.71875 15-15 0-5.058594-.238281-10.058594-.6875-15h61.6875v119.996094h-46c-8.28125 0-15 6.71875-15 15 0 8.285156 6.71875 15 15 15h122c8.285156 0 15-6.714844 15-15 0-8.28125-6.714844-15-15-15h-46v-120.007813h61.6875c-.449219 4.941406-.6875 9.953125-.6875 15.011719 0 8.28125 6.714844 15 15 15h65.726562l-49.144531 98.289062c-3.703125 7.410156-.703125 16.417969 6.707031 20.125 7.425782 3.710938 16.425782.6875 20.125-6.707031l46.582032-93.167969 46.585937 93.167969c3.703125 7.410156 12.714844 10.410156 20.125 6.707031 7.40625-3.703125 10.410157-12.714844 6.707031-20.125l-49.144531-98.289062h35.726563c8.285156 0 15-6.71875 15-15v-150c0-8.285156-6.714844-15-15-15zm-53.503906-113.574219c-28.257813 9.039063-59.332032 7.28125-86.492188-5.265625-9.40625-25.285156-30.824219-47.042969-50.875-63 53.71875 2.074219 103.542969 26.976562 137.367188 68.265625zm-373.980469-.003906c33.710937-41.148438 83.328125-66.023438 136.847656-68.238281-19.820313 15.953124-41.007813 37.707031-50.367187 62.980468-27.152344 12.542969-58.222657 14.300782-86.480469 5.257813zm117.824219-2.121094c14.21875-27.746094 49.0625-52.59375 68.722656-64.15625 19.917968 11.519531 55.246094 36.34375 69.589844 64.164063l-30.980469 10.324218c-24.613281 8.203125-51.722657 8.203125-76.335938 0zm-157.332032 265.699219v-119.171875c62.476563 6.9375 112.230469 56.691406 119.167969 119.171875zm143.757813-30c-2.964844-10.457032-6.941407-20.503906-11.8125-30.011719h188.101562c-4.871093 9.507813-8.847656 19.554687-11.8125 30.011719zm308.234375 30h-119.167969c6.9375-62.480469 56.691406-112.234375 119.167969-119.171875zm0 0"/></svg>