<svg height="512pt" viewBox="-61 0 512 512" width="512pt" xmlns="http://www.w3.org/2000/svg"><path d="m0 377v90c0 24.8125 20.1875 45 45 45h300c24.8125 0 45-20.1875 45-45v-90c0-63.125-43.550781-116.257812-102.179688-130.957031 7.769532-14.648438 12.179688-31.339844 12.179688-49.042969v-122c0-41.355469-33.644531-75-75-75h-180c-8.285156 0-15 6.714844-15 15 0 41.804688 24.554688 77.980469 60 94.859375v87.140625c0 17.703125 4.410156 34.394531 12.179688 49.042969-58.628907 14.699219-102.179688 67.832031-102.179688 130.957031zm90 60v-45h90v45.039062c-13.46875 10.136719-23.425781 24.695313-27.695312 41.503907-5.449219 2.269531-11.332032 3.457031-17.304688 3.457031-24.8125 0-45-20.1875-45-45zm135-45c8.269531 0 15 6.730469 15 15s-6.730469 15-15 15h-15v-30zm0 60h15v30h-57.421875c6.195313-17.457031 22.867187-30 42.421875-30zm22.457031-210-8.601562-20.746094c-2.324219-5.601562-7.789063-9.253906-13.855469-9.253906h-60c-6.066406 0-11.53125 3.652344-13.855469 9.253906l-8.601562 20.746094h-7.5c-9.441407-12.542969-15.042969-28.128906-15.042969-45v-78.066406c4.898438.703125 9.90625 1.066406 15 1.066406h60c11.515625 0 22.03125-4.347656 30-11.484375 7.96875 7.136719 18.484375 11.484375 30 11.484375h15v77c0 16.871094-5.601562 32.457031-15.039062 45zm-72.4375 0h39.960938c2.523437 6.089844 8.269531 19.945312 9.863281 23.789062-18.867188 8.21875-40.519531 8.347657-59.6875 0 1.597656-3.847656 7.347656-17.71875 9.863281-23.789062zm-113.511719-212h163.492188c24.8125 0 45 20.1875 45 45v15h-15c-8.269531 0-15-6.726562-15-15 0-.023438 0-.046875 0-.074219-.039062-8.25-6.738281-14.925781-15-14.925781-8.285156 0-15 6.714844-15 15 0 8.269531-6.730469 15-15 15h-60c-36.21875 0-66.523438-25.808594-73.492188-60zm60.867188 242.761719c19.503906 18.703125 45.34375 29.238281 72.625 29.238281 27.242188 0 53.09375-10.507812 72.625-29.238281 51.964844 6.253906 92.375 50.613281 92.375 104.238281v90c0 8.269531-6.730469 15-15 15h-75v-30h45c8.285156 0 15-6.714844 15-15v-60c0-8.285156-6.714844-15-15-15s-15 6.714844-15 15v45h-32.578125c1.664063-4.695312 2.578125-9.742188 2.578125-15 0-24.8125-20.1875-45-45-45-14.847656 0-132.96875 0-150 0-8.285156 0-15 6.714844-15 15v60c0 16.871094 5.601562 32.457031 15.039062 45h-30.039062c-8.269531 0-15-6.730469-15-15v-90c0-53.625 40.410156-97.984375 92.375-104.238281zm0 0"/></svg>