<svg height="512pt" viewBox="-46 0 512 512" width="512pt" xmlns="http://www.w3.org/2000/svg"><path d="m0 227c0 36.21875 25.808594 66.523438 60 73.492188v136.507812c0 41.355469 33.644531 75 75 75h120c41.355469 0 75-33.644531 75-75v-136.507812c34.191406-6.96875 60-37.273438 60-73.492188 0-8.285156-6.714844-15-15-15h-45v-122h75c8.285156 0 15-6.714844 15-15s-6.714844-15-15-15h-46.507812c-6.96875-34.191406-37.273438-60-73.492188-60h-180c-41.355469 0-75 33.644531-75 75 0 8.285156 6.714844 15 15 15h15v122h-45c-8.285156 0-15 6.714844-15 15zm195 135c-11.558594 0-18.722656-12.578125-13.007812-22.480469l13.007812-22.523437 13.007812 22.527344c5.699219 9.859374-1.410156 22.476562-13.007812 22.476562zm0 30c34.789062 0 56.113281-37.832031 38.984375-67.480469l-13-22.519531h79.015625v120h-210v-120h79.015625l-13.003906 22.519531c-17.121094 29.65625 4.199219 67.480469 38.988281 67.480469zm60 90h-120c-19.554688 0-36.226562-12.550781-42.421875-30.011719h204.84375c-6.195313 17.460938-22.867187 30.011719-42.421875 30.011719zm-150-452h180c19.558594 0 36.238281 12.539062 42.429688 30h-264.859376c6.191407-17.460938 22.871094-30 42.429688-30zm-15 60h210v122h-210zm267.429688 152c-6.191407 17.460938-22.871094 30-42.429688 30h-240c-19.558594 0-36.238281-12.539062-42.429688-30zm0 0"/></svg>