<svg height="512pt" viewBox="0 0 512.00192 512" width="512pt" xmlns="http://www.w3.org/2000/svg"><path d="m337.894531 4.394531c-3.378906-3.378906-8.160156-4.945312-12.882812-4.21875-4.722657.722657-8.8125 3.65625-11.023438 7.890625l-85.101562 163.167969c-15.644531-5.644531-34.1875-2.429687-47.132813 10.519531-12.933594 12.933594-16.167968 31.484375-10.519531 47.132813l-163.171875 85.101562c-4.234375 2.210938-7.164062 6.304688-7.886719 11.023438-.726562 4.722656.839844 9.507812 4.21875 12.882812l169.714844 169.714844c2.832031 2.832031 6.65625 4.394531 10.605469 4.394531 5.589844 0 10.714844-3.109375 13.300781-8.066406l85.101563-163.167969c15.644531 5.644531 34.1875 2.429688 47.132812-10.519531 12.933594-12.929688 16.167969-31.484375 10.519531-47.132812l163.167969-85.101563c4.234375-2.207031 7.164062-6.304687 7.890625-11.023437.726563-4.722657-.84375-9.507813-4.21875-12.882813zm-84.714843 185.140625 48.867187-93.703125 114.121094 114.121094-93.703125 48.871094zm-43.226563 226.636719-114.121094-114.121094 93.703125-48.871093 69.289063 69.289062zm-29.085937 55.769531-140.804688-140.804687 27.886719-14.542969 127.460937 127.460938zm128.167968-162.902344c-5.84375 5.84375-15.34375 5.84375-21.195312.015626-.035156-.035157-.070313-.070313-.105469-.101563l-84.691406-84.695313c-.03125-.027343-.058594-.058593-.089844-.089843-5.847656-5.859375-5.851563-15.335938.011719-21.199219 5.847656-5.847656 15.347656-5.847656 21.195312-.015625.035156.03125.070313.066406.105469.101563l84.769531 84.769531c5.863282 5.863281 5.863282 15.347656 0 21.214843zm135.019532-113.628906-127.460938-127.460937 14.542969-27.886719 140.800781 140.804688zm0 0"/></svg>