<svg height="512pt" viewBox="-46 0 512 512" width="512pt" xmlns="http://www.w3.org/2000/svg"><path d="m405.007812 0c-7.339843 0-271.320312 0-279.082031 0-2.960937 0-5.855469.875-8.320312 2.519531l-97.554688 65.035157c-20.6875 13.789062-26.277343 41.699218-12.480469 62.410156 13.816407 20.710937 41.792969 26.234375 62.398438 12.476562l20.039062-13.359375v50.917969h-45c-8.28125 0-15 6.714844-15 15v272c0 24.8125 20.1875 45 45 45h120c19.554688 0 36.230469-12.542969 42.421876-30h32.566406c20.683594 0 38.636718-14.015625 43.652344-34.085938.011718-.035156.019531-.074218.027343-.109374l14.988281-61.949219c7.0625-28.402344-14.425781-55.855469-43.671874-55.855469h-44.984376c0-10.847656 0-116.789062 0-135 0-8.285156-6.714843-15-15-15h-45v-32.578125c4.695313 1.664063 9.742188 2.578125 15 2.578125h55.664063c30.332031 18.167969 68.074219 18.300781 98.644531 0h55.691406c8.285157 0 15-6.714844 15-15v-120c0-8.285156-6.714843-15-15-15zm-315 210v38.785156l-30 30v-68.785156zm21.214844 60h47.574219l30 30h-107.574219zm38.785156-30h-30v-30h30zm45 242h-120c-8.269531 0-15-6.730469-15-15v-137h150v137c0 8.269531-6.726562 15-15 15zm89.988282-122c9.75 0 16.921875 9.160156 14.550781 18.636719-.007813.039062-.019531.074219-.027344.109375l-14.984375 61.9375c-1.6875 6.664062-7.660156 11.316406-14.539062 11.316406h-29.984375v-92zm-74.988282-150v68.785156l-30-30v-38.785156zm-90-30v-70.917969l28.625-19.082031h1.375v90zm143.320313-57.480469c-2.464844-1.644531-5.359375-2.519531-8.320313-2.519531h-60c-8.269531 0-15-6.730469-15-15s6.730469-15 15-15h60c8.285157 0 15-6.714844 15-15s-6.714843-15-15-15c-21 0-89.839843 0-110.917968 0-2.960938 0-5.855469.875-8.320313 2.519531l-82.449219 54.964844c-6.886718 4.597656-16.207031 2.707031-20.789062-4.160156-4.59375-6.894531-2.742188-16.207031 4.15625-20.804688l93.78125-62.519531h199.539062v96.429688c-21.144531 10.800781-46.5625 9.5-66.679687-3.910157zm126.679687-2.519531h-30v-90h30zm0 0"/></svg>