<?xml version="1.0" encoding="iso-8859-1"?>
<!-- Generator: Adobe Illustrator 19.0.0, SVG Export Plug-In . SVG Version: 6.00 Build 0)  -->
<svg xmlns="http://www.w3.org/2000/svg" xmlns:xlink="http://www.w3.org/1999/xlink" version="1.1" id="Layer_1" x="0px" y="0px" viewBox="0 0 496 496" style="enable-background:new 0 0 496 496;" xml:space="preserve">
<polygon style="fill:#FFA64D;" points="224,80 224,248 312,248 312,288 464,288 464,80 "/>
<g>
	<path style="fill:#333333;" d="M456,0H232c-22.056,0-40,17.944-40,40v200H80v32h-8c-39.696,0-72,32.304-72,72s32.304,72,72,72h15   c15.672,44.12,56.376,76.368,105,79.592V496h264c22.056,0,40-17.944,40-40V40C496,17.944,478.056,0,456,0z M232,16h224   c13.232,0,24,10.768,24,24v8H208v-8C208,26.768,218.768,16,232,16z M208,64h272v352H313c4.448-12.536,7-25.96,7-40V240H208V64z    M80,400h-8c-30.88,0-56-25.12-56-56s25.12-56,56-56h8v88V400z M96,376v-72h176v-16H96v-16v-16h208v32h-16v16h16v72   c0,57.32-46.616,103.952-103.928,104h-0.152C142.616,479.952,96,433.32,96,376z M456,480H259.616   c19.64-11.304,35.8-27.944,46.432-48H480v24C480,469.232,469.232,480,456,480z"/>
	<rect x="320" y="448" style="fill:#333333;" width="80" height="16"/>
	<rect x="448" y="304" style="fill:#333333;" width="16" height="64"/>
	<rect x="448" y="384" style="fill:#333333;" width="16" height="16"/>
</g>
<g>
</g>
<g>
</g>
<g>
</g>
<g>
</g>
<g>
</g>
<g>
</g>
<g>
</g>
<g>
</g>
<g>
</g>
<g>
</g>
<g>
</g>
<g>
</g>
<g>
</g>
<g>
</g>
<g>
</g>
</svg>
