<svg height="512pt" viewBox="-54 0 512 512.0005" width="512pt" xmlns="http://www.w3.org/2000/svg"><path d="m186.597656 270.003906c36.21875 0 66.519532-25.808594 73.488282-60h16.507812c24.8125 0 45-20.1875 45-45s-20.1875-45-45-45h-149.996094c-8.285156 0-15 6.714844-15 15v60c0 41.355469 33.644532 75 75 75zm104.996094-105c0 8.269532-6.726562 15-15 15h-15v-30h15c8.273438 0 15 6.726563 15 15zm-149.996094-15h89.996094v45c0 24.8125-20.183594 45-44.996094 45-24.816406 0-45-20.1875-45-45zm0 0"/><path d="m401.839844 456.140625-14.984375-61.941406c-.007813-.039063-.019531-.074219-.027344-.113281-5.019531-20.066407-22.96875-34.085938-43.65625-34.085938h-59.972656l57.023437-69.65625c28.1875-34.210938 39.191406-66.210938 41.085938-100.140625 5.519531-98.652344-68.785156-178.816406-158.746094-189.007813-115.746094-13.117187-211.957031 83.65625-199.972656 197.808594 3.332031 31.742188 17.546875 63.628906 41.070312 92.179688l56.335938 68.816406h-59.976563c-20.6875 0-38.636719 14.019531-43.65625 34.085938-.007812.039062-.019531.074218-.027343.113281l-14.984376 61.941406c-3.363281 13.519531-.375 27.570313 8.199219 38.554687 8.585938 10.996094 21.515625 17.304688 35.46875 17.304688h313.152344c13.953125 0 26.878906-6.308594 35.46875-17.304688 8.574219-10.984374 11.5625-25.035156 8.199219-38.554687zm-349.414063-260.269531c-9.832031-93.6875 68.667969-175.984375 166.753907-164.867188 74.90625 8.488282 136.78125 75.171875 132.175781 157.523438-1.535157 27.460937-10.105469 53.390625-34.316407 82.777344-22.238281 27.164062-91.910156 112.273437-115.441406 141.015624-2.523437-3.078124-112.488281-137.433593-114.753906-140.175781-19.800781-24.03125-31.703125-50.40625-34.417969-76.273437zm317.570313 280.359375c-2.863282 3.667969-7.171875 5.769531-11.824219 5.769531h-313.152344c-4.652343 0-8.960937-2.101562-11.824219-5.769531-2.859374-3.664063-3.855468-8.355469-2.726562-12.867188.007812-.039062.015625-.074219.027344-.113281l14.984375-61.9375c1.691406-6.664062 7.660156-11.3125 14.539062-11.3125h84.535157l45.433593 55.5c2.847657 3.480469 7.109375 5.5 11.609375 5.5 4.496094 0 8.757813-2.019531 11.605469-5.496094l45.433594-55.503906h84.535156c6.875 0 12.847656 4.648438 14.539063 11.3125l14.984374 61.9375c.007813.039062.019532.074219.027344.113281 1.128906 4.511719.132813 9.203125-2.726562 12.867188zm0 0"/></svg>