<svg height="512pt" viewBox="-15 0 511 512" width="512pt" xmlns="http://www.w3.org/2000/svg"><path d="m465.519531 91c-41.355469 0-75 33.644531-75 75v211c0 22.527344-16.644531 41.242188-38.28125 44.496094l-20.3125-183.605469c16.71875-6.574219 28.59375-22.867187 28.59375-41.890625 0-19.839844-12.914062-36.710938-30.769531-42.679688-4.667969-38.609374-30.375-70.832031-65.28125-84.828124 3.839844-6.621094 6.050781-14.300782 6.050781-22.492188v-31c0-8.285156-6.71875-15-15-15h-60c-8.285156 0-15 6.714844-15 15v31c0 8.191406 2.210938 15.871094 6.050781 22.492188-34.910156 13.996093-60.613281 46.214843-65.285156 84.828124-17.855468 5.96875-30.765625 22.839844-30.765625 42.679688 0 19.023438 11.871094 35.316406 28.589844 41.890625l-3.660156 33.109375h-69.929688c-28.441406 0-49.6875 26.03125-44.132812 53.792969l18.003906 91.03125c4.195313 20.960937 22.75 36.175781 44.128906 36.175781h31.902344l-1.109375 10.03125c-2.953125 26.550781 17.824219 49.96875 44.722656 49.96875h172.964844c26.859375 0 47.679688-23.386719 44.726562-49.960938l-1.1875-10.726562c36.632813-4.917969 64.980469-36.355469 64.980469-74.3125v-211c0-24.8125 20.1875-45 45-45 8.28125 0 15-6.714844 15-15s-6.71875-15-15-15zm-255-45v-16h30v16c0 8.269531-6.730469 15-15 15-8.273437 0-15-6.730469-15-15zm15 45c36.21875 0 66.519531 25.808594 73.488281 60h-146.980468c6.96875-34.191406 37.273437-60 73.492187-60zm-90 90h180c8.269531 0 15 6.730469 15 15s-6.730469 15-15 15h-.097656c-.011719 0-.023437 0-.035156 0h-179.75-.003907-.113281c-8.273437 0-15-6.730469-15-15s6.726563-15 15-15zm-72 241c-7.125 0-13.3125-5.070312-14.703125-12.027344l-18.007812-91.03125c-1.859375-9.289062 5.253906-17.941406 14.710937-17.941406h66.609375l-13.390625 121zm248.480469 60h-172.964844c-8.953125 0-15.898437-7.753906-14.90625-16.664062 1.640625-14.8125 24.039063-217.273438 24.820313-224.335938h153.136719l24.824218 224.34375c.976563 8.804688-5.871094 16.65625-14.910156 16.65625zm0 0"/></svg>