<?xml version="1.0"?>
<svg xmlns="http://www.w3.org/2000/svg" viewBox="0 0 64 64" width="512" height="512"><g id="Coffee_Cup-Ecology-Hot_Drink-Paper_Cup-Cup" data-name="Coffee Cup-Ecology-Hot Drink-Paper Cup-Cup"><path d="M51,10H48.78L46.97,2.76A1,1,0,0,0,46,2H18a1,1,0,0,0-.97.76L15.22,10H13a1,1,0,0,0-1,1v6a1,1,0,0,0,1,1h2.09l.72,8H14.9a1.01,1.01,0,0,0-1,1.09l2.37,26a1,1,0,0,0,.99.91h1.1L19,61.09A1,1,0,0,0,20,62H44a1,1,0,0,0,1-.91L45.64,54h1.1a1,1,0,0,0,.99-.91l2.37-26a1.01,1.01,0,0,0-1-1.09h-.91l.72-8H51a1,1,0,0,0,1-1V11A1,1,0,0,0,51,10ZM18.78,4H45.22l1.5,6H17.28ZM43.09,60H20.91l-.54-6H43.63Zm2.73-8H18.18L16,28H48ZM17.1,18H46.9l-.72,8H17.82ZM50,16H14V12H50Z"/><path d="M38,35H36a4.962,4.962,0,0,0-3.32,1.29A5,5,0,0,0,28,33H26a1,1,0,0,0-1,1v2a5,5,0,0,0,5,5h1v6h2V43h1a5,5,0,0,0,5-5V36A1,1,0,0,0,38,35Zm-7,4H30a3.009,3.009,0,0,1-3-3V35h1a3.009,3.009,0,0,1,3,3Zm6-1a3.009,3.009,0,0,1-3,3H33V40a3.009,3.009,0,0,1,3-3h1Z"/></g></svg>
