<?xml version="1.0" encoding="utf-8"?>
<!-- Generator: Adobe Illustrator 24.0.3, SVG Export Plug-In . SVG Version: 6.00 Build 0)  -->
<svg version="1.1" id="Layer_1" xmlns="http://www.w3.org/2000/svg" xmlns:xlink="http://www.w3.org/1999/xlink" x="0px" y="0px"
	 viewBox="0 0 512 512" style="enable-background:new 0 0 512 512;" xml:space="preserve">
<style type="text/css">
	.st0{fill:#FFFFFF;}
</style>
<path class="st0" d="M240.6,270c36.2,0,66.5-25.8,73.5-60h16.5c24.8,0,45-20.2,45-45s-20.2-45-45-45h-150c-8.3,0-15,6.7-15,15v60
	C165.6,236.4,199.2,270,240.6,270z M345.6,165c0,8.3-6.7,15-15,15h-15v-30h15C338.9,150,345.6,156.7,345.6,165z M195.6,150h90v45
	c0,24.8-20.2,45-45,45c-24.8,0-45-20.2-45-45V150z"/>
<path class="st0" d="M455.8,456.1l-15-61.9c0,0,0-0.1,0-0.1c-5-20.1-23-34.1-43.7-34.1h-60l57-69.7c28.2-34.2,39.2-66.2,41.1-100.1
	c5.5-98.7-68.8-178.8-158.7-189C160.8-11.9,64.6,84.9,76.6,199c3.3,31.7,17.5,63.6,41.1,92.2L174,360h-60c-20.7,0-38.6,14-43.7,34.1
	c0,0,0,0.1,0,0.1l-15,61.9c-3.4,13.5-0.4,27.6,8.2,38.6c8.6,11,21.5,17.3,35.5,17.3h313.2c14,0,26.9-6.3,35.5-17.3
	C456.2,483.7,459.2,469.7,455.8,456.1z M106.4,195.9c-9.8-93.7,68.7-176,166.8-164.9c74.9,8.5,136.8,75.2,132.2,157.5
	c-1.5,27.5-10.1,53.4-34.3,82.8c-22.2,27.2-91.9,112.3-115.4,141c-2.5-3.1-112.5-137.4-114.8-140.2
	C121,248.1,109.1,221.7,106.4,195.9z M424,476.2c-2.9,3.7-7.2,5.8-11.8,5.8H99c-4.7,0-9-2.1-11.8-5.8c-2.9-3.7-3.9-8.4-2.7-12.9
	c0,0,0-0.1,0-0.1l15-61.9c1.7-6.7,7.7-11.3,14.5-11.3h84.5l45.4,55.5c2.8,3.5,7.1,5.5,11.6,5.5c4.5,0,8.8-2,11.6-5.5l45.4-55.5h84.5
	c6.9,0,12.8,4.6,14.5,11.3l15,61.9c0,0,0,0.1,0,0.1C427.9,467.9,426.9,472.6,424,476.2z"/>
</svg>
