<?xml version="1.0" encoding="utf-8"?>
<!-- Generator: Adobe Illustrator 24.0.3, SVG Export Plug-In . SVG Version: 6.00 Build 0)  -->
<svg version="1.1" id="Layer_1" xmlns="http://www.w3.org/2000/svg" xmlns:xlink="http://www.w3.org/1999/xlink" x="0px" y="0px"
	 viewBox="0 0 512 512" style="enable-background:new 0 0 512 512;" xml:space="preserve">
<style type="text/css">
	.st0{fill:#FAA54F;}
</style>
<g id="XMLID_1_">
	<g>
		<path class="st0" d="M455.8,456.1c3.4,13.6,0.4,27.6-8.1,38.6c-8.6,11-21.5,17.3-35.5,17.3H99c-14,0-26.9-6.3-35.5-17.3
			s-11.6-25.1-8.2-38.6l15-61.9v-0.1C75.4,374,93.3,360,114,360h60l-56.3-68.8c-23.6-28.6-37.8-60.5-41.1-92.2
			C64.6,84.9,160.8-11.9,276.5,1.2c89.9,10.2,164.2,90.3,158.7,189c-1.9,33.9-12.9,65.9-41.1,100.1l-57,69.7h60
			c20.7,0,38.7,14,43.7,34.1v0.1L455.8,456.1z M424,476.2c2.9-3.6,3.9-8.3,2.5-12.9v-0.1l-15-61.9c-1.7-6.7-7.6-11.3-14.5-11.3
			h-84.5l-45.4,55.5c-2.8,3.5-7.1,5.5-11.6,5.5s-8.8-2-11.6-5.5L198.5,390H114c-6.8,0-12.8,4.6-14.5,11.3l-15,61.9v0.1
			c-1.2,4.5-0.2,9.2,2.7,12.9c2.8,3.7,7.1,5.8,11.8,5.8h313.2C416.8,482,421.1,479.9,424,476.2z M405.4,188.5
			c4.6-82.3-57.3-149-132.2-157.5c-98.1-11.1-176.6,71.2-166.8,164.9c2.7,25.8,14.6,52.2,34.5,76.2c2.3,2.8,112.3,137.1,114.8,140.2
			c23.5-28.7,93.2-113.8,115.4-141C395.3,241.9,403.9,216,405.4,188.5z"/>
		<path class="st0" d="M330.6,120c24.8,0,45,20.2,45,45s-20.2,45-45,45h-16.5c-7,34.2-37.3,60-73.5,60c-41.4,0-75-33.6-75-75v-60
			c0-8.3,6.7-15,15-15H330.6z M345.6,165c0-8.3-6.7-15-15-15h-15v30h15C338.9,180,345.6,173.3,345.6,165z M285.6,195v-45h-90v45
			c0,24.8,20.2,45,45,45S285.6,219.8,285.6,195z"/>
	</g>
	<g>
	</g>
</g>
</svg>
