<?xml version="1.0" encoding="utf-8"?>
<!-- Generator: Adobe Illustrator 24.0.3, SVG Export Plug-In . SVG Version: 6.00 Build 0)  -->
<svg version="1.1" id="Layer_1" xmlns="http://www.w3.org/2000/svg" xmlns:xlink="http://www.w3.org/1999/xlink" x="0px" y="0px"
	 viewBox="0 0 496 496" style="enable-background:new 0 0 496 496;" xml:space="preserve">
<style type="text/css">
	.st0{fill:#FFA64D;}
	.st1{fill:#FFFFFF;}
</style>
<path class="st0" d="M100,376v72h240V232C220,232,220,376,100,376z"/>
<path class="st1" d="M388,152h-40v-24v-8c0-22.1-17.9-40-40-40h-80V62.9c13.8-3.6,24-16,24-30.9c0-17.6-14.4-32-32-32
	s-32,14.4-32,32c0,14.9,10.2,27.3,24,30.9V80h-80c-22.1,0-40,17.9-40,40H52v28.5l20.6,12.3c12,7.2,19.4,20.3,19.4,34.3V464
	c0,8.8-7.2,16-16,16v16h288v-16c-8.8,0-16-7.2-16-16v-72h40c30.9,0,56-25.1,56-56V208C444,177.1,418.9,152,388,152z M204,32
	c0-8.8,7.2-16,16-16s16,7.2,16,16s-7.2,16-16,16S204,40.8,204,32z M132,96h176c13.2,0,24,10.8,24,24H108C108,106.8,118.8,96,132,96z
	 M332,448h-16v16h16c0,5.8,1.6,11.3,4.3,16H103.7c2.7-4.7,4.3-10.2,4.3-16h192v-16H108V195.2c0-19.6-10.4-38-27.2-48L68,139.5V136
	h264v16v240V448z M428,336c0,22.1-17.9,40-40,40h-40V168h40c22.1,0,40,17.9,40,40V336z"/>
</svg>
