<?xml version="1.0" encoding="utf-8"?>
<!-- Generator: Adobe Illustrator 24.0.3, SVG Export Plug-In . SVG Version: 6.00 Build 0)  -->
<svg version="1.1" id="Layer_1" xmlns="http://www.w3.org/2000/svg" xmlns:xlink="http://www.w3.org/1999/xlink" x="0px" y="0px"
	 viewBox="0 0 511 511" style="enable-background:new 0 0 511 511;" xml:space="preserve">
<style type="text/css">
	.st0{fill:#FFFFFF;}
</style>
<g id="XMLID_1_">
	<g>
		<path class="st0" d="M455.9,454.2c3.4,13.5,0.4,27.6-8.2,38.5c-8.6,11-21.5,17.3-35.4,17.3H99.8c-13.9,0-26.8-6.3-35.4-17.3
			c-8.6-11-11.5-25-8.2-38.5l15-59.9c5-20,22.9-34,43.6-34h21.4l85.2,103.4c8.6,10.4,21.2,16.4,34.7,16.4c13.5,0,26.1-6,34.7-16.4
			l85.2-103.4h21.4c20.6,0,38.6,14,43.6,34L455.9,454.2z"/>
		<path d="M277,0.2c90.7,10.3,164,92.2,158.4,189.6c-1.8,33.6-12.8,66.7-41,101L267.6,444.7c-2.8,3.4-7.1,5.4-11.6,5.4
			c-4.5,0-8.7-2-11.5-5.4l-126.1-153c-29.4-35.6-42-73.5-42-112C76.4,73,169.3-12.2,277,0.2z M375.9,164.7
			c0-24.8-20.1-44.9-44.9-44.9H181.2c-8.3,0-15,6.7-15,15v59.9c0,41.3,33.6,74.9,74.9,74.9c36.2,0,66.4-25.8,73.3-59.9h16.5
			C355.7,209.6,375.9,189.4,375.9,164.7z"/>
		<path d="M330.9,149.7c8.3,0,15,6.7,15,15c0,8.3-6.7,15-15,15h-15v-29.9H330.9z"/>
		<path d="M286,149.7v44.9c0,24.8-20.1,44.9-44.9,44.9c-24.8,0-44.9-20.1-44.9-44.9v-44.9H286z"/>
	</g>
	<g>
	</g>
</g>
</svg>
