<?xml version="1.0" encoding="utf-8"?>
<!-- Generator: Adobe Illustrator 24.0.3, SVG Export Plug-In . SVG Version: 6.00 Build 0)  -->
<svg version="1.1" id="Layer_1" xmlns="http://www.w3.org/2000/svg" xmlns:xlink="http://www.w3.org/1999/xlink" x="0px" y="0px"
	 viewBox="0 0 496 496" style="enable-background:new 0 0 496 496;" xml:space="preserve">
<style type="text/css">
	.st0{fill:#FFA64D;}
	.st1{fill:#D3D3D3;}
</style>
<polygon class="st0" points="224,80 224,248 312,248 312,288 464,288 464,80 "/>
<g>
	<path class="st1" d="M456,0H232c-22.1,0-40,17.9-40,40v200H80v32h-8c-39.7,0-72,32.3-72,72s32.3,72,72,72h15
		c15.7,44.1,56.4,76.4,105,79.6v0.4h264c22.1,0,40-17.9,40-40V40C496,17.9,478.1,0,456,0z M232,16h224c13.2,0,24,10.8,24,24v8H208
		v-8C208,26.8,218.8,16,232,16z M208,64h272v352H313c4.4-12.5,7-26,7-40V240H208V64z M80,400h-8c-30.9,0-56-25.1-56-56
		s25.1-56,56-56h8v88V400z M96,376v-72h176v-16H96v-16v-16h208v32h-16v16h16v72c0,57.3-46.6,104-103.9,104h-0.2
		C142.6,480,96,433.3,96,376z M456,480H259.6c19.6-11.3,35.8-27.9,46.4-48h174v24C480,469.2,469.2,480,456,480z"/>
	<rect x="320" y="448" class="st1" width="80" height="16"/>
	<rect x="448" y="304" class="st1" width="16" height="64"/>
	<rect x="448" y="384" class="st1" width="16" height="16"/>
</g>
</svg>
