<?xml version="1.0" encoding="utf-8"?>
<!-- Generator: Adobe Illustrator 24.0.3, SVG Export Plug-In . SVG Version: 6.00 Build 0)  -->
<svg version="1.1" id="Layer_1" xmlns="http://www.w3.org/2000/svg" xmlns:xlink="http://www.w3.org/1999/xlink" x="0px" y="0px"
	 viewBox="0 0 496 496" style="enable-background:new 0 0 496 496;" xml:space="preserve">
<style type="text/css">
	.st0{fill:#FFA64D;}
	.st1{fill:#FFFFFF;}
</style>
<path class="st0" d="M89.7,367.2c-1,8-1.7,16.2-1.7,24.8c0,80,56,72,56,96h104h104c0-24,56-16,56-96c-88,0-144-40-216-40
	C129.5,352,97.1,364.1,89.7,367.2z"/>
<g>
	<path class="st1" d="M424,0H72v26l42.5,78H112l0,27.3l2.3,2.3c0.3,0.3,25.4,25.9,29.1,58.4H128v16h15.5
		c-3.8,30.6-28,49.4-28.2,49.6L112,260v20c-21.7,37.7-32,73.4-32,112c0,56.1,26.2,72.8,43.6,84c8.8,5.6,12.4,8.3,12.4,12v8h224v-8
		c0-3.7,3.6-6.4,12.4-12c17.4-11.1,43.6-27.9,43.6-84c0-38.6-10.3-74.3-32-112l0-20l-3.2-2.4c-0.3-0.2-24.5-19-28.3-49.6H368v-16
		h-15.5c3.8-32.4,28.9-58.1,29.1-58.4l2.3-2.4V104h-2.5L424,26V0z M128,267.8c8.1-7.1,28.5-28.1,31.6-59.8h81.6
		c1.9,7.3,6.3,13.7,12.3,18c-5,8.5-13.6,25-20.2,46H128V267.8z M272,232c1.1,0,2.2-0.2,3.3-0.3c3.7,6.1,11.8,20.8,18.6,40.3h-43.8
		c6.7-19.5,14.9-34.2,18.5-40.3C269.8,231.8,270.9,232,272,232z M272,216c-8.8,0-16-7.2-16-16s7.2-16,16-16s16,7.2,16,16
		S280.8,216,272,216z M363.8,462.5c-7.5,4.8-15.1,9.7-18.3,17.5h-195c-3.2-7.8-10.8-12.7-18.3-17.5C116.1,452.2,96,439.3,96,392
		c0-35.6,9.6-68.8,29.8-104h103c-2.9,12.4-4.8,25.9-4.8,40h16c0-14.1,2.2-27.6,5.3-40h53.3c3.2,12.4,5.3,25.9,5.3,40h16
		c0-14.1-1.9-27.6-4.8-40h55c20.3,35.2,29.8,68.4,29.8,104C400,439.3,379.9,452.2,363.8,462.5z M368,267.8v4.2h-57.2
		c-6.7-21-15.3-37.5-20.2-46c6-4.3,10.4-10.6,12.3-18h33.6C339.5,239.6,359.9,260.6,368,267.8z M368,124.8
		c-7.2,8-28.5,34.2-31.6,67.2h-33.6c-3.6-13.8-16-24-30.9-24s-27.3,10.2-30.9,24h-81.6c-3.1-33-24.4-59.2-31.6-67.2V120h240V124.8z
		 M408,22l-44.8,82h-32.4l16.5-53.6L332,45.6l-18,58.4H132.8L88,22v-6h253.2L337,29.6l15.3,4.7l5.6-18.4H408V22z"/>
	<rect x="320" y="408" class="st1" width="16" height="16"/>
	<rect x="304" y="448" class="st1" width="16" height="16"/>
	<rect x="200" y="392" class="st1" width="16" height="16"/>
	<rect x="136" y="416" class="st1" width="16" height="16"/>
	<rect x="176" y="448" class="st1" width="16" height="16"/>
	<rect x="232" y="432" class="st1" width="16" height="16"/>
</g>
</svg>
