<?xml version="1.0" encoding="utf-8"?>
<!-- Generator: Adobe Illustrator 24.0.3, SVG Export Plug-In . SVG Version: 6.00 Build 0)  -->
<svg version="1.1" id="Layer_1" xmlns="http://www.w3.org/2000/svg" xmlns:xlink="http://www.w3.org/1999/xlink" x="0px" y="0px"
	 viewBox="0 0 512 512" style="enable-background:new 0 0 512 512;" xml:space="preserve">
<style type="text/css">
	.st0{fill:#FAA54F;}
</style>
<g id="XMLID_1_">
	<g>
		<path class="st0" d="M481,91c8.3,0,15,6.7,15,15s-6.7,15-15,15c-24.8,0-45,20.2-45,45v211c0,37.9-28.4,69.4-65,74.3l1.2,10.7
			c3,26.6-17.8,50-44.7,50h-173c-26.9,0-47.7-23.4-44.7-50l1.1-10H79c-21.3,0-39.9-15.2-44.1-36.2l-18-91C11.3,297,32.6,271,61,271
			h69.9l3.7-33.1C117.9,231.3,106,215,106,196c0-19.9,12.9-36.7,30.8-42.7c4.7-38.6,30.4-70.8,65.3-84.8c-3.9-6.6-6.1-14.3-6.1-22.5
			V15c0-8.3,6.7-15,15-15h60c8.3,0,15,6.7,15,15v31c0,8.2-2.3,15.9-6.1,22.5c34.9,14,60.6,46.2,65.3,84.8
			c17.9,6,30.8,22.9,30.8,42.7c0,19-11.9,35.3-28.6,41.9l20.3,183.6c21.7-3.3,38.3-22,38.3-44.5V166C406,124.6,439.6,91,481,91z
			 M327.5,482c9,0,15.9-7.9,14.8-16.7L317.5,241H164.4c-0.8,7-23.2,209.5-24.8,224.3c-1,8.9,5.9,16.7,14.9,16.7H327.5z M346,196
			c0-8.3-6.7-15-15-15H151c-8.3,0-15,6.7-15,15s6.7,15,15,15h0.1h179.8h0.1C339.3,211,346,204.3,346,196z M167.5,151h147
			c-7-34.2-37.3-60-73.5-60S174.5,116.8,167.5,151z M256,46V30h-30v16c0,8.3,6.7,15,15,15S256,54.3,256,46z M114.2,422l13.4-121H61
			c-9.4,0-16.6,8.7-14.7,18l18,91c1.4,6.9,7.6,12,14.7,12H114.2z"/>
	</g>
	<g>
	</g>
</g>
</svg>
