<?xml version="1.0" encoding="utf-8"?>
<!-- Generator: Adobe Illustrator 24.0.3, SVG Export Plug-In . SVG Version: 6.00 Build 0)  -->
<svg version="1.1" id="Layer_1" xmlns="http://www.w3.org/2000/svg" xmlns:xlink="http://www.w3.org/1999/xlink" x="0px" y="0px"
	 viewBox="0 0 512 512" style="enable-background:new 0 0 512 512;" xml:space="preserve">
<style type="text/css">
	.st0{fill:#D3D3D3;}
</style>
<path class="st0" d="M481,91c-41.4,0-75,33.6-75,75v211c0,22.5-16.6,41.2-38.3,44.5l-20.3-183.6C364.1,231.3,376,215,376,196
	c0-19.8-12.9-36.7-30.8-42.7c-4.7-38.6-30.4-70.8-65.3-84.8c3.8-6.6,6.1-14.3,6.1-22.5V15c0-8.3-6.7-15-15-15h-60
	c-8.3,0-15,6.7-15,15v31c0,8.2,2.2,15.9,6.1,22.5c-34.9,14-60.6,46.2-65.3,84.8c-17.9,6-30.8,22.8-30.8,42.7
	c0,19,11.9,35.3,28.6,41.9l-3.7,33.1H61c-28.4,0-49.7,26-44.1,53.8l18,91c4.2,21,22.8,36.2,44.1,36.2h31.9l-1.1,10
	c-3,26.6,17.8,50,44.7,50h173c26.9,0,47.7-23.4,44.7-50l-1.2-10.7c36.6-4.9,65-36.4,65-74.3V166c0-24.8,20.2-45,45-45
	c8.3,0,15-6.7,15-15S489.3,91,481,91z M226,46V30h30v16c0,8.3-6.7,15-15,15C232.7,61,226,54.3,226,46z M241,91
	c36.2,0,66.5,25.8,73.5,60h-147C174.5,116.8,204.8,91,241,91z M151,181h180c8.3,0,15,6.7,15,15s-6.7,15-15,15h-0.1c0,0,0,0,0,0
	H151.1h0H151c-8.3,0-15-6.7-15-15S142.7,181,151,181z M79,422c-7.1,0-13.3-5.1-14.7-12l-18-91C44.4,309.7,51.6,301,61,301h66.6
	l-13.4,121H79z M327.5,482h-173c-9,0-15.9-7.8-14.9-16.7c1.6-14.8,24-217.3,24.8-224.3h153.1l24.8,224.3
	C343.4,474.1,336.5,482,327.5,482z"/>
</svg>
