<?xml version="1.0" encoding="utf-8"?>
<!-- Generator: Adobe Illustrator 24.0.3, SVG Export Plug-In . SVG Version: 6.00 Build 0)  -->
<svg version="1.1" id="Layer_1" xmlns="http://www.w3.org/2000/svg" xmlns:xlink="http://www.w3.org/1999/xlink" x="0px" y="0px"
	 viewBox="0 0 512 512" style="enable-background:new 0 0 512 512;" xml:space="preserve">
<style type="text/css">
	.st0{fill:#333333;}
	.st1{fill:#FAA54F;}
</style>
<g id="XMLID_1_">
	<g>
		<path class="st0" d="M451,106v30c0,8.3-6.7,15-15,15h-16.2c-0.9,11.5-25.3,304.7-26.6,319.7c-1.9,23.1-21.6,41.3-44.8,41.3H163.6
			c-23.2,0-42.9-18.1-44.8-41.3c-1.3-15.4-25.6-307.9-26.6-319.7H76c-8.3,0-15-6.7-15-15v-30c0-21.4,15-39.4,35.1-43.9l26.4-53.7
			C125.1,3.2,130.3,0,136,0h240c5.7,0,10.9,3.2,13.5,8.4l26.4,53.7C436,66.6,451,84.6,451,106z M421,121v-15c0-8.3-6.7-15-15-15h0
			c0,0-0.1,0-0.1,0H106c-8.3,0-15,6.7-15,15v15H421z M382.2,241l7.5-90H122.3l7.5,90h41.8c19.6-18.9,50.6-30,84.4-30
			s64.8,11.1,84.4,30H382.2z M381.9,61l-15.2-31H145.3l-15.2,31H381.9z M377.2,301l2.5-30H334c-4.4,0-8.5-1.9-11.3-5.2
			C309.3,250.5,283.8,241,256,241s-53.3,9.5-66.6,24.8c-2.8,3.3-7,5.2-11.3,5.2h-45.8l2.5,30H178c4.4,0,8.5,1.9,11.3,5.2
			c13.3,15.3,38.8,24.8,66.6,24.8s53.3-9.5,66.6-24.8c2.9-3.3,7-5.2,11.3-5.2H377.2z M367.2,422l7.6-91h-34.4
			c-19.6,18.9-50.6,30-84.4,30s-64.8-11.1-84.4-30h-34.4l7.6,91H367.2z M363.3,468.2l1.4-16.2H147.3l1.4,16.2
			c0.6,7.7,7.2,13.8,14.9,13.8h184.8C356.1,482,362.7,476,363.3,468.2z"/>
		<path class="st1" d="M389.7,151l-7.5,90h-41.8c-19.6-18.9-50.6-30-84.4-30s-64.8,11.1-84.4,30h-41.8l-7.5-90H389.7z"/>
		<path class="st1" d="M374.8,331l-7.6,91H144.8l-7.6-91h34.4c19.6,18.9,50.6,30,84.4,30s64.8-11.1,84.4-30H374.8z"/>
	</g>
	<g>
	</g>
</g>
</svg>
