<?xml version="1.0" encoding="utf-8"?>
<!-- Generator: Adobe Illustrator 24.0.3, SVG Export Plug-In . SVG Version: 6.00 Build 0)  -->
<svg version="1.1" id="Layer_1" xmlns="http://www.w3.org/2000/svg" xmlns:xlink="http://www.w3.org/1999/xlink" x="0px" y="0px"
	 viewBox="0 0 512 512" style="enable-background:new 0 0 512 512;" xml:space="preserve">
<style type="text/css">
	.st0{fill:#FAA54F;}
	.st1{fill:#FFFFFF;}
</style>
<g id="XMLID_1_">
	<g>
		<path class="st0" d="M497,286c9.3,0,16.3,8.3,14.8,17.5L486,458.4c-3.6,21.8-22.3,37.6-44.4,37.6h-69.2c-19.4,0-36.2-12.2-42.4-30
			H132.4c-23.4,0-42.7-17.6-44.8-40.9L68.3,212.5v0l-7.9-86.4L2.5,39.3c-3.1-4.6-3.4-10.5-0.8-15.4C4.4,19,9.5,16,15,16
			c22.1,0,400.7,0,422,0c24.8,0,45,20.2,45,45v150c0,8.3-6.7,15-15,15c-8.3,0-15-6.7-15-15V61c0-8.3-6.7-15-15-15h-46l-17.1,240H497
			z M469.3,376l10-60H334.7l10,60H469.3z M456.4,453.5l7.9-47.5H349.7l7.9,47.5c1.2,7.3,7.4,12.5,14.8,12.5h69.2
			C449,466,455.2,460.7,456.4,453.5z M350.2,196l10.7-150H43l44.5,66.7c1.4,2.1,2.2,4.5,2.5,7l6.9,76.4H350.2z M343.8,286l4.3-60
			H99.6l17.8,196.4c0.7,7.8,7.1,13.6,14.9,13.6h191.9l-22.1-132.5c-1.5-9.1,5.5-17.5,14.8-17.5H343.8z"/>
		<polygon class="st1" points="479.3,316 469.3,376 344.7,376 334.7,316 		"/>
		<path class="st1" d="M464.3,406l-7.9,47.5c-1.2,7.3-7.4,12.5-14.8,12.5h-69.2c-7.4,0-13.6-5.3-14.8-12.5l-7.9-47.5H464.3z"/>
		<path class="st0" d="M257,136c8.3,0,15,6.7,15,15s-6.7,15-15,15h-62c-8.3,0-15-6.7-15-15s6.7-15,15-15H257z"/>
		<path class="st0" d="M257,256c8.3,0,15,6.7,15,15c0,8.3-6.7,15-15,15h-62c-8.3,0-15-6.7-15-15c0-8.3,6.7-15,15-15H257z"/>
		<path class="st0" d="M257,346c8.3,0,15,6.7,15,15c0,8.3-6.7,15-15,15h-62c-8.3,0-15-6.7-15-15c0-8.3,6.7-15,15-15H257z"/>
	</g>
	<g>
	</g>
</g>
</svg>
