<?xml version="1.0" encoding="utf-8"?>
<!-- Generator: Adobe Illustrator 24.0.3, SVG Export Plug-In . SVG Version: 6.00 Build 0)  -->
<svg version="1.1" id="Layer_1" xmlns="http://www.w3.org/2000/svg" xmlns:xlink="http://www.w3.org/1999/xlink" x="0px" y="0px"
	 viewBox="0 0 512 512" style="enable-background:new 0 0 512 512;" xml:space="preserve">
<style type="text/css">
	.st0{fill:#F9A34F;}
</style>
<g id="Coffee_Cup-Ecology-Hot_Drink-Paper_Cup-Cup">
	<g id="XMLID_1_">
		<g>
			<path class="st0" d="M296,296v8c0,13.2-10.8,24-24,24h-8v-8c0-13.2,10.8-24,24-24H296z"/>
			<path d="M416,88v48c0,4.4-3.6,8-8,8h-16.7l-5.8,64h7.3c0.2,0,0.4,0,0.6,0c4.4,0.4,7.8,4.2,7.4,8.7l-19,208
				c-0.4,4.1-3.8,7.3-7.9,7.3h-8.8l-5.1,56.7c-0.4,4.1-3.9,7.3-8,7.3H160c-4.1,0-7.6-3.1-8-7.3l-5.1-56.7h-8.8
				c-4.1,0-7.6-3.2-7.9-7.3l-19-208c0-0.2,0-0.4,0-0.6c0-4.5,3.6-8.1,8-8.1h7.3l-5.8-64H104c-4.4,0-8-3.6-8-8V88c0-4.4,3.6-8,8-8
				h17.8l14.5-57.9c0.9-3.6,4.1-6.1,7.8-6.1h224c3.7,0,6.9,2.5,7.8,6.1L390.2,80H408C412.4,80,416,83.6,416,88z M400,128V96H112v32
				H400z M366.6,416L384,224H128l17.4,192H366.6z M369.4,208l5.8-64H136.8l5.8,64H369.4z M373.8,80l-12-48H150.2l-12,48H373.8z
				 M344.7,480l4.3-48H163l4.3,48H344.7z"/>
			<path class="st0" d="M384,224l-17.4,192H145.4L128,224H384z M312,304v-16c0-4.4-3.6-8-8-8h-16c-9.8,0-19.3,3.7-26.6,10.3
				c-5.7-15.8-20.7-26.3-37.4-26.3h-16c-4.4,0-8,3.6-8,8v16c0,22.1,17.9,40,40,40h8v48h16v-32h8C294.1,344,312,326.1,312,304z"/>
			<path d="M312,288v16c0,22.1-17.9,40-40,40h-8v32h-16v-48h-8c-22.1,0-40-17.9-40-40v-16c0-4.4,3.6-8,8-8h16
				c16.8,0.1,31.7,10.6,37.4,26.3c7.3-6.6,16.7-10.3,26.6-10.3h16C308.4,280,312,283.6,312,288z M296,304v-8h-8
				c-13.2,0-24,10.8-24,24v8h8C285.2,328,296,317.2,296,304z M248,312v-8c0-13.2-10.8-24-24-24h-8v8c0,13.2,10.8,24,24,24H248z"/>
			<path class="st0" d="M248,304v8h-8c-13.2,0-24-10.8-24-24v-8h8C237.2,280,248,290.8,248,304z"/>
		</g>
		<g>
		</g>
	</g>
</g>
</svg>
