<?xml version="1.0" encoding="utf-8"?>
<!-- Generator: Adobe Illustrator 24.0.3, SVG Export Plug-In . SVG Version: 6.00 Build 0)  -->
<svg version="1.1" id="Layer_1" xmlns="http://www.w3.org/2000/svg" xmlns:xlink="http://www.w3.org/1999/xlink" x="0px" y="0px"
	 viewBox="0 0 512 512" style="enable-background:new 0 0 512 512;" xml:space="preserve">
<style type="text/css">
	.st0{fill:#D3D3D3;}
</style>
<path class="st0" d="M76,151h16.2c1,11.8,25.3,304.4,26.6,319.7c1.9,23.1,21.6,41.3,44.8,41.3h184.8c23.2,0,42.9-18.1,44.8-41.3
	c1.2-15,25.6-308.3,26.6-319.7H436c8.3,0,15-6.7,15-15v-30c0-21.4-15-39.4-35.1-43.9L389.5,8.4C386.9,3.3,381.7,0,376,0H136
	c-5.7,0-10.9,3.2-13.5,8.4L96.1,62.1C76,66.6,61,84.6,61,106v30C61,144.3,67.7,151,76,151z M137.3,331h34.4
	c19.6,18.9,50.6,30,84.4,30s64.8-11.1,84.4-30h34.4l-7.6,91H144.8L137.3,331z M377.2,301H334c-4.3,0-8.5,1.9-11.3,5.2
	C309.3,321.5,283.8,331,256,331s-53.3-9.5-66.6-24.8c-2.9-3.3-7-5.2-11.3-5.2h-43.3l-2.5-30H178c4.3,0,8.5-1.9,11.3-5.2
	c13.3-15.3,38.8-24.8,66.6-24.8s53.3,9.5,66.6,24.8c2.9,3.3,7,5.2,11.3,5.2h45.8L377.2,301z M348.4,482H163.6
	c-7.7,0-14.3-6-14.9-13.8l-1.4-16.2h217.4l-1.4,16.2C362.7,476,356.1,482,348.4,482z M382.2,241h-41.8c-19.6-18.9-50.6-30-84.4-30
	s-64.8,11.1-84.4,30h-41.9l-7.5-90h267.4L382.2,241z M145.3,30h221.3l15.2,31H130.1L145.3,30z M91,106c0-8.3,6.7-15,15-15h299.9
	c0,0,0.1,0,0.1,0h0c8.3,0,15,6.7,15,15v15H91V106z"/>
</svg>
