<?xml version="1.0" encoding="utf-8"?>
<!-- Generator: Adobe Illustrator 24.0.3, SVG Export Plug-In . SVG Version: 6.00 Build 0)  -->
<svg version="1.1" id="Layer_1" xmlns="http://www.w3.org/2000/svg" xmlns:xlink="http://www.w3.org/1999/xlink" x="0px" y="0px"
	 viewBox="0 0 512 512" style="enable-background:new 0 0 512 512;" xml:space="preserve">
<style type="text/css">
	.st0{fill:#FFFFFF;}
</style>
<path class="st0" d="M195,166h62c8.3,0,15-6.7,15-15s-6.7-15-15-15h-62c-8.3,0-15,6.7-15,15S186.7,166,195,166z"/>
<path class="st0" d="M257,256h-62c-8.3,0-15,6.7-15,15c0,8.3,6.7,15,15,15h62c8.3,0,15-6.7,15-15C272,262.7,265.3,256,257,256z"/>
<path class="st0" d="M257,346h-62c-8.3,0-15,6.7-15,15c0,8.3,6.7,15,15,15h62c8.3,0,15-6.7,15-15C272,352.7,265.3,346,257,346z"/>
<path class="st0" d="M486,458.4l25.8-154.9c1.5-9.1-5.5-17.5-14.8-17.5H373.8L391,46h46c8.3,0,15,6.7,15,15v150c0,8.3,6.7,15,15,15
	c8.3,0,15-6.7,15-15V61c0-24.8-20.2-45-45-45c-21.3,0-399.9,0-422,0c-5.5,0-10.6,3-13.2,7.9c-2.6,4.9-2.3,10.8,0.7,15.4l57.9,86.8
	l7.9,86.4v0l19.3,212.5c2.1,23.3,21.4,40.9,44.8,40.9H330c6.2,17.8,23,30,42.4,30h69.2C463.7,496,482.3,480.2,486,458.4z M469.3,376
	H344.7l-10-60h144.6L469.3,376z M43,46h317.9l-10.7,150H96.9l-6.9-76.4c-0.2-2.5-1.1-4.9-2.5-7L43,46z M117.5,422.4L99.6,226H348
	l-4.3,60H317c-9.2,0-16.3,8.3-14.8,17.5L324.3,436H132.4C124.6,436,118.2,430.1,117.5,422.4z M441.6,466h-69.2
	c-7.4,0-13.6-5.3-14.8-12.5l-7.9-47.5h114.6l-7.9,47.5C455.2,460.7,448.9,466,441.6,466z"/>
</svg>
